<?xml version="1.0" encoding="UTF-8" standalone="no"?>
<!DOCTYPE svg PUBLIC "-//W3C//DTD SVG 1.1//EN"
 "http://www.w3.org/Graphics/SVG/1.1/DTD/svg11.dtd">
<!-- Generated by graphviz version 6.0.1 (20220911.1526)
 -->
<!-- Title: AAX_Atomic_Exchange_Pointer Pages: 1 -->
<svg width="303pt" height="66pt"
 viewBox="0.00 0.00 303.00 66.00" xmlns="http://www.w3.org/2000/svg" xmlns:xlink="http://www.w3.org/1999/xlink">
<g id="graph0" class="graph" transform="scale(1 1) rotate(0) translate(4 62)">
<title>AAX_Atomic_Exchange_Pointer</title>
<polygon fill="white" stroke="none" points="-4,4 -4,-62 299,-62 299,4 -4,4"/>
<!-- Node1 -->
<g id="node1" class="node">
<title>Node1</title>
<g id="a_node1"><a xlink:title="Perform an exchange operation on a pointer value.">
<polygon fill="#bfbfbf" stroke="black" points="0,-14 0,-44 122,-44 122,-14 0,-14"/>
<text text-anchor="start" x="8" y="-32" font-family="Helvetica,sans-Serif" font-size="10.00">AAX_Atomic_Exchange</text>
<text text-anchor="middle" x="61" y="-21" font-family="Helvetica,sans-Serif" font-size="10.00">_Pointer</text>
</a>
</g>
</g>
<!-- Node2 -->
<g id="node2" class="node">
<title>Node2</title>
<g id="a_node2"><a xlink:href="a00410.html#a44eb82707be40dd559db9051317c10d0" target="_top" xlink:title="Return the original value of ioValue and then set it to inExchangeValue.">
<polygon fill="white" stroke="black" points="158,-38.5 158,-57.5 295,-57.5 295,-38.5 158,-38.5"/>
<text text-anchor="middle" x="226.5" y="-45.5" font-family="Helvetica,sans-Serif" font-size="10.00">AAX_Atomic_Exchange_32</text>
</a>
</g>
</g>
<!-- Node1&#45;&gt;Node2 -->
<g id="edge1" class="edge">
<title>Node1&#45;&gt;Node2</title>
<path fill="none" stroke="midnightblue" d="M122.42,-36.02C130.72,-36.99 139.34,-37.99 147.9,-38.98"/>
<polygon fill="midnightblue" stroke="midnightblue" points="147.56,-42.47 157.89,-40.14 148.37,-35.51 147.56,-42.47"/>
</g>
<!-- Node3 -->
<g id="node3" class="node">
<title>Node3</title>
<g id="a_node3"><a xlink:href="a00410.html#a0a683337ef8627f1e2b01e69d5f11cb0" target="_top" xlink:title="Return the original value of ioValue and then set it to inExchangeValue.">
<polygon fill="white" stroke="black" points="158,-0.5 158,-19.5 295,-19.5 295,-0.5 158,-0.5"/>
<text text-anchor="middle" x="226.5" y="-7.5" font-family="Helvetica,sans-Serif" font-size="10.00">AAX_Atomic_Exchange_64</text>
</a>
</g>
</g>
<!-- Node1&#45;&gt;Node3 -->
<g id="edge2" class="edge">
<title>Node1&#45;&gt;Node3</title>
<path fill="none" stroke="midnightblue" d="M122.42,-21.98C130.72,-21.01 139.34,-20.01 147.9,-19.02"/>
<polygon fill="midnightblue" stroke="midnightblue" points="148.37,-22.49 157.89,-17.86 147.56,-15.53 148.37,-22.49"/>
</g>
</g>
</svg>
