<?xml version="1.0" encoding="UTF-8" standalone="no"?>
<!DOCTYPE svg PUBLIC "-//W3C//DTD SVG 1.1//EN"
 "http://www.w3.org/Graphics/SVG/1.1/DTD/svg11.dtd">
<!-- Generated by graphviz version 6.0.1 (20220911.1526)
 -->
<!-- Title: AAX_Atomic_CompareAndExchange_Pointer Pages: 1 -->
<svg width="417pt" height="66pt"
 viewBox="0.00 0.00 417.00 66.00" xmlns="http://www.w3.org/2000/svg" xmlns:xlink="http://www.w3.org/1999/xlink">
<g id="graph0" class="graph" transform="scale(1 1) rotate(0) translate(4 62)">
<title>AAX_Atomic_CompareAndExchange_Pointer</title>
<polygon fill="white" stroke="none" points="-4,4 -4,-62 413,-62 413,4 -4,4"/>
<!-- Node1 -->
<g id="node1" class="node">
<title>Node1</title>
<g id="a_node1"><a xlink:title="Perform a compare and exchange operation on a pointer value.">
<polygon fill="#bfbfbf" stroke="black" points="0,-14 0,-44 179,-44 179,-14 0,-14"/>
<text text-anchor="start" x="8" y="-32" font-family="Helvetica,sans-Serif" font-size="10.00">AAX_Atomic_CompareAndExchange</text>
<text text-anchor="middle" x="89.5" y="-21" font-family="Helvetica,sans-Serif" font-size="10.00">_Pointer</text>
</a>
</g>
</g>
<!-- Node2 -->
<g id="node2" class="node">
<title>Node2</title>
<g id="a_node2"><a xlink:href="a00410.html#a74a2bdb895976193bdfe4cd2fe31e21e" target="_top" xlink:title="Perform a compare and exchange operation on a 32&#45;bit value.">
<polygon fill="white" stroke="black" points="215,-38.5 215,-57.5 409,-57.5 409,-38.5 215,-38.5"/>
<text text-anchor="middle" x="312" y="-45.5" font-family="Helvetica,sans-Serif" font-size="10.00">AAX_Atomic_CompareAndExchange_32</text>
</a>
</g>
</g>
<!-- Node1&#45;&gt;Node2 -->
<g id="edge1" class="edge">
<title>Node1&#45;&gt;Node2</title>
<path fill="none" stroke="midnightblue" d="M179.23,-36.65C187.66,-37.37 196.27,-38.11 204.84,-38.85"/>
<polygon fill="midnightblue" stroke="midnightblue" points="204.61,-42.35 214.87,-39.72 205.21,-35.37 204.61,-42.35"/>
</g>
<!-- Node3 -->
<g id="node3" class="node">
<title>Node3</title>
<g id="a_node3"><a xlink:href="a00410.html#ae1e5b0cf8d8c7a301e13772a57a3d2fd" target="_top" xlink:title="Perform a compare and exchange operation on a 64&#45;bit value.">
<polygon fill="white" stroke="black" points="215,-0.5 215,-19.5 409,-19.5 409,-0.5 215,-0.5"/>
<text text-anchor="middle" x="312" y="-7.5" font-family="Helvetica,sans-Serif" font-size="10.00">AAX_Atomic_CompareAndExchange_64</text>
</a>
</g>
</g>
<!-- Node1&#45;&gt;Node3 -->
<g id="edge2" class="edge">
<title>Node1&#45;&gt;Node3</title>
<path fill="none" stroke="midnightblue" d="M179.23,-21.35C187.66,-20.63 196.27,-19.89 204.84,-19.15"/>
<polygon fill="midnightblue" stroke="midnightblue" points="205.21,-22.63 214.87,-18.28 204.61,-15.65 205.21,-22.63"/>
</g>
</g>
</svg>
