<?xml version="1.0" encoding="UTF-8" standalone="no"?>
<!DOCTYPE svg PUBLIC "-//W3C//DTD SVG 1.1//EN"
 "http://www.w3.org/Graphics/SVG/1.1/DTD/svg11.dtd">
<!-- Generated by graphviz version 6.0.1 (20220911.1526)
 -->
<!-- Title: AAX_EndianSwapInPlace Pages: 1 -->
<svg width="542pt" height="176pt"
 viewBox="0.00 0.00 542.00 176.00" xmlns="http://www.w3.org/2000/svg" xmlns:xlink="http://www.w3.org/1999/xlink">
<g id="graph0" class="graph" transform="scale(1 1) rotate(0) translate(4 172)">
<title>AAX_EndianSwapInPlace</title>
<polygon fill="white" stroke="none" points="-4,4 -4,-172 538,-172 538,4 -4,4"/>
<!-- Node1 -->
<g id="node1" class="node">
<title>Node1</title>
<g id="a_node1"><a xlink:title="Byte swap data in&#45;place.">
<polygon fill="#bfbfbf" stroke="black" points="404,-77 404,-96 534,-96 534,-77 404,-77"/>
<text text-anchor="middle" x="469" y="-84" font-family="Helvetica,sans-Serif" font-size="10.00">AAX_EndianSwapInPlace</text>
</a>
</g>
</g>
<!-- Node2 -->
<g id="node2" class="node">
<title>Node2</title>
<g id="a_node2"><a xlink:href="a00500.html#a2aa4dc892c77aa0ed29e84a5f29c9538" target="_top" xlink:title="Convert data in&#45;place between Big Endian and native byte ordering.">
<polygon fill="white" stroke="black" points="219.5,-137.5 219.5,-167.5 367.5,-167.5 367.5,-137.5 219.5,-137.5"/>
<text text-anchor="start" x="227.5" y="-155.5" font-family="Helvetica,sans-Serif" font-size="10.00">AAX_BigEndianNativeSwapIn</text>
<text text-anchor="middle" x="293.5" y="-144.5" font-family="Helvetica,sans-Serif" font-size="10.00">Place</text>
</a>
</g>
</g>
<!-- Node1&#45;&gt;Node2 -->
<g id="edge1" class="edge">
<title>Node1&#45;&gt;Node2</title>
<path fill="none" stroke="midnightblue" d="M436.55,-99.97C416.95,-108.22 391.15,-118.83 368,-127.5 359.04,-130.86 349.39,-134.28 340.14,-137.46"/>
<polygon fill="midnightblue" stroke="midnightblue" points="438.07,-103.13 445.91,-96.01 435.34,-96.68 438.07,-103.13"/>
</g>
<!-- Node4 -->
<g id="node4" class="node">
<title>Node4</title>
<g id="a_node4"><a xlink:href="a00500.html#a5caa5e68dec3f028697b64ad04f0cb5c" target="_top" xlink:title="Make a byte&#45;swapped copy of data.">
<polygon fill="white" stroke="black" points="245,-99 245,-118 342,-118 342,-99 245,-99"/>
<text text-anchor="middle" x="293.5" y="-106" font-family="Helvetica,sans-Serif" font-size="10.00">AAX_EndianSwap</text>
</a>
</g>
</g>
<!-- Node1&#45;&gt;Node4 -->
<g id="edge3" class="edge">
<title>Node1&#45;&gt;Node4</title>
<path fill="none" stroke="midnightblue" d="M393.69,-95.92C376.2,-98.14 358.02,-100.45 342.08,-102.47"/>
<polygon fill="midnightblue" stroke="midnightblue" points="394.41,-99.36 403.89,-94.63 393.53,-92.42 394.41,-99.36"/>
</g>
<!-- Node5 -->
<g id="node5" class="node">
<title>Node5</title>
<g id="a_node5"><a xlink:href="a00500.html#ae58f8ce3c8247e07d49e17c011ec5366" target="_top" xlink:title="Byte swap a sequence of data in&#45;place.">
<polygon fill="white" stroke="black" points="219,-49.5 219,-79.5 368,-79.5 368,-49.5 219,-49.5"/>
<text text-anchor="start" x="227" y="-67.5" font-family="Helvetica,sans-Serif" font-size="10.00">AAX_EndianSwapSequenceIn</text>
<text text-anchor="middle" x="293.5" y="-56.5" font-family="Helvetica,sans-Serif" font-size="10.00">Place</text>
</a>
</g>
</g>
<!-- Node1&#45;&gt;Node5 -->
<g id="edge4" class="edge">
<title>Node1&#45;&gt;Node5</title>
<path fill="none" stroke="midnightblue" d="M393.91,-77.11C385.33,-76.02 376.58,-74.91 368.01,-73.82"/>
<polygon fill="midnightblue" stroke="midnightblue" points="393.53,-80.58 403.89,-78.37 394.41,-73.64 393.53,-80.58"/>
</g>
<!-- Node8 -->
<g id="node8" class="node">
<title>Node8</title>
<g id="a_node8"><a xlink:href="a00500.html#af4164bdfb3807edcd582e0289a6ed59a" target="_top" xlink:title="Convert data in&#45;place from the native byte ordering to Little Endian byte ordering.">
<polygon fill="white" stroke="black" points="220.5,-0.5 220.5,-30.5 366.5,-30.5 366.5,-0.5 220.5,-0.5"/>
<text text-anchor="start" x="228.5" y="-18.5" font-family="Helvetica,sans-Serif" font-size="10.00">AAX_LittleEndianNativeSwap</text>
<text text-anchor="middle" x="293.5" y="-7.5" font-family="Helvetica,sans-Serif" font-size="10.00">InPlace</text>
</a>
</g>
</g>
<!-- Node1&#45;&gt;Node8 -->
<g id="edge7" class="edge">
<title>Node1&#45;&gt;Node8</title>
<path fill="none" stroke="midnightblue" d="M440.42,-72.41C420.56,-62.54 392.98,-49.4 368,-39.5 360.14,-36.38 351.7,-33.35 343.43,-30.54"/>
<polygon fill="midnightblue" stroke="midnightblue" points="439,-75.61 449.5,-76.96 442.13,-69.35 439,-75.61"/>
</g>
<!-- Node3 -->
<g id="node3" class="node">
<title>Node3</title>
<g id="a_node3"><a xlink:href="a00500.html#a7387790d73eed6c54af682c7afd9e463" target="_top" xlink:title="Copy and convert data between Big Endian and native byte ordering.">
<polygon fill="white" stroke="black" points="21.5,-143 21.5,-162 161.5,-162 161.5,-143 21.5,-143"/>
<text text-anchor="middle" x="91.5" y="-150" font-family="Helvetica,sans-Serif" font-size="10.00">AAX_BigEndianNativeSwap</text>
</a>
</g>
</g>
<!-- Node2&#45;&gt;Node3 -->
<g id="edge2" class="edge">
<title>Node2&#45;&gt;Node3</title>
<path fill="none" stroke="midnightblue" d="M209.16,-152.5C193.37,-152.5 177,-152.5 161.69,-152.5"/>
<polygon fill="midnightblue" stroke="midnightblue" points="209.45,-156 219.45,-152.5 209.45,-149 209.45,-156"/>
</g>
<!-- Node6 -->
<g id="node6" class="node">
<title>Node6</title>
<g id="a_node6"><a xlink:href="a00500.html#ae9e72785a26249cd3e3c05baf8c9ce70" target="_top" xlink:title="Convert an sequence of data in&#45;place between Big Endian and native byte ordering.">
<polygon fill="white" stroke="black" points="0,-93.5 0,-123.5 183,-123.5 183,-93.5 0,-93.5"/>
<text text-anchor="start" x="8" y="-111.5" font-family="Helvetica,sans-Serif" font-size="10.00">AAX_BigEndianNativeSwapSequence</text>
<text text-anchor="middle" x="91.5" y="-100.5" font-family="Helvetica,sans-Serif" font-size="10.00">InPlace</text>
</a>
</g>
</g>
<!-- Node5&#45;&gt;Node6 -->
<g id="edge5" class="edge">
<title>Node5&#45;&gt;Node6</title>
<path fill="none" stroke="midnightblue" d="M214.01,-81.77C196.43,-85.64 177.92,-89.71 160.8,-93.47"/>
<polygon fill="midnightblue" stroke="midnightblue" points="215.22,-85.09 224.23,-79.52 213.71,-78.25 215.22,-85.09"/>
</g>
<!-- Node7 -->
<g id="node7" class="node">
<title>Node7</title>
<g id="a_node7"><a xlink:href="a00500.html#a4d8bcdfb048c8124f1f2886537e65678" target="_top" xlink:title="Convert an sequence of data in&#45;place from the native byte ordering to Little Endian byte ordering.">
<polygon fill="white" stroke="black" points="18.5,-44.5 18.5,-74.5 164.5,-74.5 164.5,-44.5 18.5,-44.5"/>
<text text-anchor="start" x="26.5" y="-62.5" font-family="Helvetica,sans-Serif" font-size="10.00">AAX_LittleEndianNativeSwap</text>
<text text-anchor="middle" x="91.5" y="-51.5" font-family="Helvetica,sans-Serif" font-size="10.00">SequenceInPlace</text>
</a>
</g>
</g>
<!-- Node5&#45;&gt;Node7 -->
<g id="edge6" class="edge">
<title>Node5&#45;&gt;Node7</title>
<path fill="none" stroke="midnightblue" d="M208.81,-62.41C194.13,-62.04 178.96,-61.66 164.63,-61.3"/>
<polygon fill="midnightblue" stroke="midnightblue" points="208.8,-65.91 218.88,-62.66 208.97,-58.91 208.8,-65.91"/>
</g>
<!-- Node9 -->
<g id="node9" class="node">
<title>Node9</title>
<g id="a_node9"><a xlink:href="a00500.html#a49f57c502ff278b26260b1744da99633" target="_top" xlink:title="Copy and convert data from the native byte ordering to Little Endian byte ordering.">
<polygon fill="white" stroke="black" points="18.5,-6 18.5,-25 164.5,-25 164.5,-6 18.5,-6"/>
<text text-anchor="middle" x="91.5" y="-13" font-family="Helvetica,sans-Serif" font-size="10.00">AAX_LittleEndianNativeSwap</text>
</a>
</g>
</g>
<!-- Node8&#45;&gt;Node9 -->
<g id="edge8" class="edge">
<title>Node8&#45;&gt;Node9</title>
<path fill="none" stroke="midnightblue" d="M209.98,-15.5C194.92,-15.5 179.32,-15.5 164.6,-15.5"/>
<polygon fill="midnightblue" stroke="midnightblue" points="210.3,-19 220.3,-15.5 210.3,-12 210.3,-19"/>
</g>
</g>
</svg>
