<?xml version="1.0" encoding="UTF-8" standalone="no"?>
<!DOCTYPE svg PUBLIC "-//W3C//DTD SVG 1.1//EN"
 "http://www.w3.org/Graphics/SVG/1.1/DTD/svg11.dtd">
<!-- Generated by graphviz version 2.47.3 (20210619.1520)
 -->
<!-- Title: AAX_BigEndianNativeSwapSequenceInPlace Pages: 1 -->
<svg width="542pt" height="39pt"
 viewBox="0.00 0.00 542.00 39.00" xmlns="http://www.w3.org/2000/svg" xmlns:xlink="http://www.w3.org/1999/xlink">
<g id="graph0" class="graph" transform="scale(1 1) rotate(0) translate(4 35)">
<title>AAX_BigEndianNativeSwapSequenceInPlace</title>
<polygon fill="white" stroke="transparent" points="-4,4 -4,-35 538,-35 538,4 -4,4"/>
<!-- Node1 -->
<g id="node1" class="node">
<title>Node1</title>
<g id="a_node1"><a xlink:title="Convert an sequence of data in&#45;place between Big Endian and native byte ordering.">
<polygon fill="#bfbfbf" stroke="black" points="0,-0.5 0,-30.5 183,-30.5 183,-0.5 0,-0.5"/>
<text text-anchor="start" x="8" y="-18.5" font-family="Helvetica,sans-Serif" font-size="10.00">AAX_BigEndianNativeSwapSequence</text>
<text text-anchor="middle" x="91.5" y="-7.5" font-family="Helvetica,sans-Serif" font-size="10.00">InPlace</text>
</a>
</g>
</g>
<!-- Node2 -->
<g id="node2" class="node">
<title>Node2</title>
<g id="a_node2"><a xlink:href="a00500.html#ae58f8ce3c8247e07d49e17c011ec5366" target="_top" xlink:title="Byte swap a sequence of data in&#45;place.">
<polygon fill="white" stroke="black" points="219,-0.5 219,-30.5 368,-30.5 368,-0.5 219,-0.5"/>
<text text-anchor="start" x="227" y="-18.5" font-family="Helvetica,sans-Serif" font-size="10.00">AAX_EndianSwapSequenceIn</text>
<text text-anchor="middle" x="293.5" y="-7.5" font-family="Helvetica,sans-Serif" font-size="10.00">Place</text>
</a>
</g>
</g>
<!-- Node1&#45;&gt;Node2 -->
<g id="edge1" class="edge">
<title>Node1&#45;&gt;Node2</title>
<path fill="none" stroke="midnightblue" d="M183.14,-15.5C191.66,-15.5 200.28,-15.5 208.73,-15.5"/>
<polygon fill="midnightblue" stroke="midnightblue" points="208.95,-19 218.95,-15.5 208.95,-12 208.95,-19"/>
</g>
<!-- Node3 -->
<g id="node3" class="node">
<title>Node3</title>
<g id="a_node3"><a xlink:href="a00500.html#a121ee6a20eb996039b0f187db0a2cc8e" target="_top" xlink:title="Byte swap data in&#45;place.">
<polygon fill="white" stroke="black" points="404,-6 404,-25 534,-25 534,-6 404,-6"/>
<text text-anchor="middle" x="469" y="-13" font-family="Helvetica,sans-Serif" font-size="10.00">AAX_EndianSwapInPlace</text>
</a>
</g>
</g>
<!-- Node2&#45;&gt;Node3 -->
<g id="edge2" class="edge">
<title>Node2&#45;&gt;Node3</title>
<path fill="none" stroke="midnightblue" d="M368.08,-15.5C376.55,-15.5 385.19,-15.5 393.67,-15.5"/>
<polygon fill="midnightblue" stroke="midnightblue" points="393.91,-19 403.91,-15.5 393.91,-12 393.91,-19"/>
</g>
</g>
</svg>
