<?xml version="1.0" encoding="UTF-8" standalone="no"?>
<!DOCTYPE svg PUBLIC "-//W3C//DTD SVG 1.1//EN"
 "http://www.w3.org/Graphics/SVG/1.1/DTD/svg11.dtd">
<!-- Generated by graphviz version 6.0.1 (20220911.1526)
 -->
<!-- Title: AAX_BigEndianNativeSwap Pages: 1 -->
<svg width="498pt" height="39pt"
 viewBox="0.00 0.00 498.00 39.00" xmlns="http://www.w3.org/2000/svg" xmlns:xlink="http://www.w3.org/1999/xlink">
<g id="graph0" class="graph" transform="scale(1 1) rotate(0) translate(4 35)">
<title>AAX_BigEndianNativeSwap</title>
<polygon fill="white" stroke="none" points="-4,4 -4,-35 494,-35 494,4 -4,4"/>
<!-- Node1 -->
<g id="node1" class="node">
<title>Node1</title>
<g id="a_node1"><a xlink:title="Copy and convert data between Big Endian and native byte ordering.">
<polygon fill="#bfbfbf" stroke="black" points="0,-6 0,-25 140,-25 140,-6 0,-6"/>
<text text-anchor="middle" x="70" y="-13" font-family="Helvetica,sans-Serif" font-size="10.00">AAX_BigEndianNativeSwap</text>
</a>
</g>
</g>
<!-- Node2 -->
<g id="node2" class="node">
<title>Node2</title>
<g id="a_node2"><a xlink:href="a00500.html#a2aa4dc892c77aa0ed29e84a5f29c9538" target="_top" xlink:title="Convert data in&#45;place between Big Endian and native byte ordering.">
<polygon fill="white" stroke="black" points="176,-0.5 176,-30.5 324,-30.5 324,-0.5 176,-0.5"/>
<text text-anchor="start" x="184" y="-18.5" font-family="Helvetica,sans-Serif" font-size="10.00">AAX_BigEndianNativeSwapIn</text>
<text text-anchor="middle" x="250" y="-7.5" font-family="Helvetica,sans-Serif" font-size="10.00">Place</text>
</a>
</g>
</g>
<!-- Node1&#45;&gt;Node2 -->
<g id="edge1" class="edge">
<title>Node1&#45;&gt;Node2</title>
<path fill="none" stroke="midnightblue" d="M140.07,-15.5C148.5,-15.5 157.18,-15.5 165.79,-15.5"/>
<polygon fill="midnightblue" stroke="midnightblue" points="165.84,-19 175.84,-15.5 165.84,-12 165.84,-19"/>
</g>
<!-- Node3 -->
<g id="node3" class="node">
<title>Node3</title>
<g id="a_node3"><a xlink:href="a00500.html#a121ee6a20eb996039b0f187db0a2cc8e" target="_top" xlink:title="Byte swap data in&#45;place.">
<polygon fill="white" stroke="black" points="360,-6 360,-25 490,-25 490,-6 360,-6"/>
<text text-anchor="middle" x="425" y="-13" font-family="Helvetica,sans-Serif" font-size="10.00">AAX_EndianSwapInPlace</text>
</a>
</g>
</g>
<!-- Node2&#45;&gt;Node3 -->
<g id="edge2" class="edge">
<title>Node2&#45;&gt;Node3</title>
<path fill="none" stroke="midnightblue" d="M324.12,-15.5C332.57,-15.5 341.21,-15.5 349.68,-15.5"/>
<polygon fill="midnightblue" stroke="midnightblue" points="349.91,-19 359.91,-15.5 349.91,-12 349.91,-19"/>
</g>
</g>
</svg>
