<?xml version="1.0" encoding="UTF-8" standalone="no"?>
<!DOCTYPE svg PUBLIC "-//W3C//DTD SVG 1.1//EN"
 "http://www.w3.org/Graphics/SVG/1.1/DTD/svg11.dtd">
<!-- Generated by graphviz version 2.47.3 (20210619.1520)
 -->
<!-- Title: AAX::GetInt32RPDF Pages: 1 -->
<svg width="320pt" height="78pt"
 viewBox="0.00 0.00 320.00 77.50" xmlns="http://www.w3.org/2000/svg" xmlns:xlink="http://www.w3.org/1999/xlink">
<g id="graph0" class="graph" transform="scale(1 1) rotate(0) translate(4 73.5)">
<title>AAX::GetInt32RPDF</title>
<polygon fill="white" stroke="transparent" points="-4,4 -4,-73.5 316,-73.5 316,4 -4,4"/>
<!-- Node1 -->
<g id="node1" class="node">
<title>Node1</title>
<g id="a_node1"><a xlink:title=" ">
<polygon fill="#bfbfbf" stroke="black" points="204,-28 204,-47 312,-47 312,-28 204,-28"/>
<text text-anchor="middle" x="258" y="-35" font-family="Helvetica,sans-Serif" font-size="10.00">AAX::GetInt32RPDF</text>
</a>
</g>
</g>
<!-- Node2 -->
<g id="node2" class="node">
<title>Node2</title>
<g id="a_node2"><a xlink:href="a00868.html#a51d7a263d9053276c6cef1dbd2018ebe" target="_top" xlink:title=" ">
<polygon fill="white" stroke="black" points="0,-50 0,-69 168,-69 168,-50 0,-50"/>
<text text-anchor="middle" x="84" y="-57" font-family="Helvetica,sans-Serif" font-size="10.00">AAX::GetRPDFWithAmplitudeOne</text>
</a>
</g>
</g>
<!-- Node1&#45;&gt;Node2 -->
<g id="edge1" class="edge">
<title>Node1&#45;&gt;Node2</title>
<path fill="none" stroke="midnightblue" d="M193.86,-45.58C182.63,-47.01 170.84,-48.52 159.33,-49.99"/>
<polygon fill="midnightblue" stroke="midnightblue" points="194.52,-49.02 203.99,-44.28 193.63,-42.08 194.52,-49.02"/>
</g>
<!-- Node3 -->
<g id="node3" class="node">
<title>Node3</title>
<g id="a_node3"><a xlink:href="a00868.html#a5a91375167236862abc93ad879639cab" target="_top" xlink:title=" ">
<polygon fill="white" stroke="black" points="9,-0.5 9,-30.5 159,-30.5 159,-0.5 9,-0.5"/>
<text text-anchor="start" x="17" y="-18.5" font-family="Helvetica,sans-Serif" font-size="10.00">AAX::GetRPDFWithAmplitude</text>
<text text-anchor="middle" x="84" y="-7.5" font-family="Helvetica,sans-Serif" font-size="10.00">OneHalf</text>
</a>
</g>
</g>
<!-- Node1&#45;&gt;Node3 -->
<g id="edge2" class="edge">
<title>Node1&#45;&gt;Node3</title>
<path fill="none" stroke="midnightblue" d="M193.79,-29.41C182.48,-27.97 170.6,-26.45 159.02,-24.97"/>
<polygon fill="midnightblue" stroke="midnightblue" points="193.63,-32.92 203.99,-30.72 194.52,-25.98 193.63,-32.92"/>
</g>
</g>
</svg>
