<?xml version="1.0" encoding="UTF-8" standalone="no"?>
<!DOCTYPE svg PUBLIC "-//W3C//DTD SVG 1.1//EN"
 "http://www.w3.org/Graphics/SVG/1.1/DTD/svg11.dtd">
<!-- Generated by graphviz version 2.47.3 (20210619.1520)
 -->
<!-- Title: The Avid Component Framework (ACF) Pages: 1 -->
<svg width="359pt" height="38pt"
 viewBox="0.00 0.00 359.00 38.00" xmlns="http://www.w3.org/2000/svg" xmlns:xlink="http://www.w3.org/1999/xlink">
<g id="graph0" class="graph" transform="scale(1 1) rotate(0) translate(4 34)">
<title>The Avid Component Framework (ACF)</title>
<polygon fill="white" stroke="transparent" points="-4,4 -4,-34 355,-34 355,4 -4,4"/>
<!-- Node1 -->
<g id="node1" class="node">
<title>Node1</title>
<g id="a_node1"><a xlink:title="How the AAX C++ interfaces work.">
<polygon fill="#bfbfbf" stroke="black" points="234,-30 127,-30 127,0 234,0 234,-30"/>
<text text-anchor="start" x="135" y="-18" font-family="Helvetica,sans-Serif" font-size="10.00">The Avid Component</text>
<text text-anchor="middle" x="180.5" y="-7" font-family="Helvetica,sans-Serif" font-size="10.00"> Framework (ACF)</text>
</a>
</g>
</g>
<!-- Node3 -->
<g id="node3" class="node">
<title>Node3</title>
<g id="a_node3"><a xlink:href="a00844.html" target="_top" xlink:title="ACF classes that are used by common AAX interfaces.">
<polygon fill="white" stroke="black" points="351,-24.5 270,-24.5 270,-5.5 351,-5.5 351,-24.5"/>
<text text-anchor="middle" x="310.5" y="-12.5" font-family="Helvetica,sans-Serif" font-size="10.00">ACF Elements</text>
</a>
</g>
</g>
<!-- Node1&#45;&gt;Node3 -->
<g id="edge2" class="edge">
<title>Node1&#45;&gt;Node3</title>
<path fill="none" stroke="black" d="M244.38,-15C253.01,-15 261.67,-15 269.73,-15"/>
<polygon fill="black" stroke="black" points="244.3,-11.5 234.3,-15 244.3,-18.5 244.3,-11.5"/>
</g>
<!-- Node2 -->
<g id="node2" class="node">
<title>Node2</title>
<g id="a_node2"><a xlink:href="a00833.html" target="_top" xlink:title="Additional information about the AAX design.">
<polygon fill="white" stroke="black" points="91,-24.5 0,-24.5 0,-5.5 91,-5.5 91,-24.5"/>
<text text-anchor="middle" x="45.5" y="-12.5" font-family="Helvetica,sans-Serif" font-size="10.00">Additional Topics</text>
</a>
</g>
</g>
<!-- Node2&#45;&gt;Node1 -->
<g id="edge1" class="edge">
<title>Node2&#45;&gt;Node1</title>
<path fill="none" stroke="black" d="M101.31,-15C109.77,-15 118.49,-15 126.91,-15"/>
<polygon fill="black" stroke="black" points="101.16,-11.5 91.16,-15 101.16,-18.5 101.16,-11.5"/>
</g>
</g>
</svg>
