<?xml version="1.0" encoding="UTF-8" standalone="no"?>
<!DOCTYPE svg PUBLIC "-//W3C//DTD SVG 1.1//EN"
 "http://www.w3.org/Graphics/SVG/1.1/DTD/svg11.dtd">
<!-- Generated by graphviz version 6.0.1 (20220911.1526)
 -->
<!-- Title: AAX Library features Pages: 1 -->
<svg width="384pt" height="27pt"
 viewBox="0.00 0.00 384.00 27.00" xmlns="http://www.w3.org/2000/svg" xmlns:xlink="http://www.w3.org/1999/xlink">
<g id="graph0" class="graph" transform="scale(1 1) rotate(0) translate(4 23)">
<title>AAX Library features</title>
<polygon fill="white" stroke="none" points="-4,4 -4,-23 380,-23 380,4 -4,4"/>
<!-- Node2 -->
<g id="node1" class="node">
<title>Node2</title>
<g id="a_node1"><a xlink:href="a00808.html" target="_top" xlink:title=" ">
<polygon fill="white" stroke="black" points="95,-19 0,-19 0,0 95,0 95,-19"/>
<text text-anchor="middle" x="47.5" y="-7" font-family="Helvetica,sans-Serif" font-size="10.00">AAX SDK Manual</text>
</a>
</g>
</g>
<!-- Node1 -->
<g id="node3" class="node">
<title>Node1</title>
<g id="a_node3"><a xlink:title="AAX Library core support for the AAX interface">
<polygon fill="#bfbfbf" stroke="black" points="238,-19 131,-19 131,0 238,0 238,-19"/>
<text text-anchor="middle" x="184.5" y="-7" font-family="Helvetica,sans-Serif" font-size="10.00">AAX Library features</text>
</a>
</g>
</g>
<!-- Node2&#45;&gt;Node1 -->
<g id="edge1" class="edge">
<title>Node2&#45;&gt;Node1</title>
<path fill="none" stroke="black" d="M105.43,-9.5C113.82,-9.5 122.43,-9.5 130.74,-9.5"/>
<polygon fill="black" stroke="black" points="105.34,-6 95.34,-9.5 105.34,-13 105.34,-6"/>
</g>
<!-- Node3 -->
<g id="node2" class="node">
<title>Node3</title>
<g id="a_node2"><a xlink:href="a00829.html" target="_top" xlink:title="Optional (but recommended) system for managing AAX plug&#45;in parameters.">
<polygon fill="white" stroke="black" points="376,-19 274,-19 274,0 376,0 376,-19"/>
<text text-anchor="middle" x="325" y="-7" font-family="Helvetica,sans-Serif" font-size="10.00">Parameter Manager</text>
</a>
</g>
</g>
<!-- Node1&#45;&gt;Node3 -->
<g id="edge2" class="edge">
<title>Node1&#45;&gt;Node3</title>
<path fill="none" stroke="black" d="M248.46,-9.5C256.91,-9.5 265.48,-9.5 273.67,-9.5"/>
<polygon fill="black" stroke="black" points="248.26,-6 238.26,-9.5 248.26,-13 248.26,-6"/>
</g>
</g>
</svg>
