<?xml version="1.0" encoding="UTF-8" standalone="no"?>
<!DOCTYPE svg PUBLIC "-//W3C//DTD SVG 1.1//EN"
 "http://www.w3.org/Graphics/SVG/1.1/DTD/svg11.dtd">
<!-- Generated by graphviz version 2.47.3 (20210619.1520)
 -->
<!-- Title: AAX Host Guides Pages: 1 -->
<svg width="389pt" height="286pt"
 viewBox="0.00 0.00 389.00 286.00" xmlns="http://www.w3.org/2000/svg" xmlns:xlink="http://www.w3.org/1999/xlink">
<g id="graph0" class="graph" transform="scale(1 1) rotate(0) translate(4 282)">
<title>AAX Host Guides</title>
<polygon fill="white" stroke="transparent" points="-4,4 -4,-282 385,-282 385,4 -4,4"/>
<!-- Node2 -->
<g id="node1" class="node">
<title>Node2</title>
<g id="a_node1"><a xlink:href="a00808.html" target="_top" xlink:title=" ">
<polygon fill="white" stroke="black" points="95,-148 0,-148 0,-129 95,-129 95,-148"/>
<text text-anchor="middle" x="47.5" y="-136" font-family="Helvetica,sans-Serif" font-size="10.00">AAX SDK Manual</text>
</a>
</g>
</g>
<!-- Node1 -->
<g id="node2" class="node">
<title>Node1</title>
<g id="a_node2"><a xlink:title="Documentation for specific AAX host environments.">
<polygon fill="#bfbfbf" stroke="black" points="226,-148 131,-148 131,-129 226,-129 226,-148"/>
<text text-anchor="middle" x="178.5" y="-136" font-family="Helvetica,sans-Serif" font-size="10.00">AAX Host Guides</text>
</a>
</g>
</g>
<!-- Node2&#45;&gt;Node1 -->
<g id="edge1" class="edge">
<title>Node2&#45;&gt;Node1</title>
<path fill="none" stroke="black" d="M105.1,-138.5C113.75,-138.5 122.6,-138.5 131,-138.5"/>
<polygon fill="black" stroke="black" points="105.07,-135 95.07,-138.5 105.07,-142 105.07,-135"/>
</g>
<!-- Node9 -->
<g id="node3" class="node">
<title>Node9</title>
<g id="a_node3"><a xlink:href="a00852.html" target="_top" xlink:title="How to automate different test scenarios for DSH.">
<polygon fill="white" stroke="black" points="354,-278 289,-278 289,-259 354,-259 354,-278"/>
<text text-anchor="middle" x="321.5" y="-266" font-family="Helvetica,sans-Serif" font-size="10.00">DTT Guide</text>
</a>
</g>
</g>
<!-- Node1&#45;&gt;Node9 -->
<g id="edge8" class="edge">
<title>Node1&#45;&gt;Node9</title>
<path fill="none" stroke="black" d="M188.53,-157.36C201.41,-182.3 227.38,-225.93 262,-250.5 269.89,-256.1 279.56,-259.99 288.75,-262.68"/>
<polygon fill="black" stroke="black" points="191.56,-155.6 183.96,-148.22 185.3,-158.73 191.56,-155.6"/>
</g>
<!-- Node7 -->
<g id="node4" class="node">
<title>Node7</title>
<g id="a_node4"><a xlink:href="a00850.html" target="_top" xlink:title="How to add tracing to your plug&#45;ins and view logging from the plug&#45;in host.">
<polygon fill="white" stroke="black" points="365,-241 278,-241 278,-222 365,-222 365,-241"/>
<text text-anchor="middle" x="321.5" y="-229" font-family="Helvetica,sans-Serif" font-size="10.00">DigiTrace Guide</text>
</a>
</g>
</g>
<!-- Node1&#45;&gt;Node7 -->
<g id="edge6" class="edge">
<title>Node1&#45;&gt;Node7</title>
<path fill="none" stroke="black" d="M194.05,-155.54C209.37,-172.47 234.98,-198.09 262,-213.5 267.91,-216.87 274.52,-219.68 281.11,-222"/>
<polygon fill="black" stroke="black" points="196.64,-153.18 187.4,-148 191.39,-157.81 196.64,-153.18"/>
</g>
<!-- Node5 -->
<g id="node5" class="node">
<title>Node5</title>
<g id="a_node5"><a xlink:href="a00848.html" target="_top" xlink:title="How to write AAX plug&#45;ins for Avid&#39;s TI DSP&#45;based platforms.">
<polygon fill="white" stroke="black" points="360.5,-204 282.5,-204 282.5,-185 360.5,-185 360.5,-204"/>
<text text-anchor="middle" x="321.5" y="-192" font-family="Helvetica,sans-Serif" font-size="10.00">TI DSP Guide</text>
</a>
</g>
</g>
<!-- Node1&#45;&gt;Node5 -->
<g id="edge4" class="edge">
<title>Node1&#45;&gt;Node5</title>
<path fill="none" stroke="black" d="M207.72,-152.63C223.47,-160.23 243.58,-169.46 262,-176.5 269.94,-179.53 278.63,-182.43 286.83,-184.98"/>
<polygon fill="black" stroke="black" points="209.05,-149.39 198.53,-148.14 205.98,-155.68 209.05,-149.39"/>
</g>
<!-- Node8 -->
<g id="node6" class="node">
<title>Node8</title>
<g id="a_node6"><a xlink:href="a00851.html" target="_top" xlink:title="How to test basic functionality of AAX plug&#45;ins using DSH test tool.">
<polygon fill="white" stroke="black" points="355,-167 288,-167 288,-148 355,-148 355,-167"/>
<text text-anchor="middle" x="321.5" y="-155" font-family="Helvetica,sans-Serif" font-size="10.00">DSH Guide</text>
</a>
</g>
</g>
<!-- Node1&#45;&gt;Node8 -->
<g id="edge7" class="edge">
<title>Node1&#45;&gt;Node8</title>
<path fill="none" stroke="black" d="M236.21,-146.14C253.75,-148.51 272.48,-151.03 287.81,-153.1"/>
<polygon fill="black" stroke="black" points="236.44,-142.64 226.06,-144.77 235.5,-149.58 236.44,-142.64"/>
</g>
<!-- Node3 -->
<g id="node7" class="node">
<title>Node3</title>
<g id="a_node7"><a xlink:href="a00846.html" target="_top" xlink:title="Details about using AAX plug&#45;ins in Pro Tools.">
<polygon fill="white" stroke="black" points="364.5,-130 278.5,-130 278.5,-111 364.5,-111 364.5,-130"/>
<text text-anchor="middle" x="321.5" y="-118" font-family="Helvetica,sans-Serif" font-size="10.00">Pro Tools Guide</text>
</a>
</g>
</g>
<!-- Node1&#45;&gt;Node3 -->
<g id="edge2" class="edge">
<title>Node1&#45;&gt;Node3</title>
<path fill="none" stroke="black" d="M236.13,-131.27C250.2,-129.47 265.03,-127.58 278.27,-125.89"/>
<polygon fill="black" stroke="black" points="235.54,-127.82 226.06,-132.56 236.42,-134.76 235.54,-127.82"/>
</g>
<!-- Node4 -->
<g id="node8" class="node">
<title>Node4</title>
<g id="a_node8"><a xlink:href="a00847.html" target="_top" xlink:title="Details about using AAX plug&#45;ins in Media Composer.">
<polygon fill="white" stroke="black" points="381,-93 262,-93 262,-74 381,-74 381,-93"/>
<text text-anchor="middle" x="321.5" y="-81" font-family="Helvetica,sans-Serif" font-size="10.00">Media Composer Guide</text>
</a>
</g>
</g>
<!-- Node1&#45;&gt;Node4 -->
<g id="edge3" class="edge">
<title>Node1&#45;&gt;Node4</title>
<path fill="none" stroke="black" d="M209.1,-124.75C224.69,-117.72 244.21,-109.25 262,-102.5 270.79,-99.17 280.44,-95.88 289.34,-93"/>
<polygon fill="black" stroke="black" points="207.6,-121.58 199.95,-128.91 210.5,-127.96 207.6,-121.58"/>
</g>
<!-- Node10 -->
<g id="node9" class="node">
<title>Node10</title>
<g id="a_node9"><a xlink:href="a00865.html" target="_top" xlink:title="Details about using AAX plug&#45;ins in VENUE live sound systems.">
<polygon fill="white" stroke="black" points="361.5,-56 281.5,-56 281.5,-37 361.5,-37 361.5,-56"/>
<text text-anchor="middle" x="321.5" y="-44" font-family="Helvetica,sans-Serif" font-size="10.00">VENUE Guide</text>
</a>
</g>
</g>
<!-- Node1&#45;&gt;Node10 -->
<g id="edge9" class="edge">
<title>Node1&#45;&gt;Node10</title>
<path fill="none" stroke="black" d="M195.37,-120.78C210.91,-104.38 235.98,-80.37 262,-65.5 268.58,-61.74 276.01,-58.6 283.32,-56.03"/>
<polygon fill="black" stroke="black" points="192.38,-118.85 188.16,-128.57 197.52,-123.61 192.38,-118.85"/>
</g>
<!-- Node6 -->
<g id="node10" class="node">
<title>Node6</title>
<g id="a_node10"><a xlink:href="a00849.html" target="_top" xlink:title="How to map a plug&#45;in&#39;s parameters to control surfaces.">
<polygon fill="white" stroke="black" points="368.5,-19 274.5,-19 274.5,0 368.5,0 368.5,-19"/>
<text text-anchor="middle" x="321.5" y="-7" font-family="Helvetica,sans-Serif" font-size="10.00">Page Table Guide</text>
</a>
</g>
</g>
<!-- Node1&#45;&gt;Node6 -->
<g id="edge5" class="edge">
<title>Node1&#45;&gt;Node6</title>
<path fill="none" stroke="black" d="M188.67,-120.05C201.71,-95.66 227.86,-52.9 262,-28.5 267.39,-24.65 273.59,-21.55 279.91,-19.06"/>
<polygon fill="black" stroke="black" points="185.53,-118.51 184.04,-129 191.75,-121.73 185.53,-118.51"/>
</g>
</g>
</svg>
