<?xml version="1.0" encoding="UTF-8" standalone="no"?>
<!DOCTYPE svg PUBLIC "-//W3C//DTD SVG 1.1//EN"
 "http://www.w3.org/Graphics/SVG/1.1/DTD/svg11.dtd">
<!-- Generated by graphviz version 2.47.3 (20210619.1520)
 -->
<!-- Title: Additional Topics Pages: 1 -->
<svg width="385pt" height="187pt"
 viewBox="0.00 0.00 385.00 187.00" xmlns="http://www.w3.org/2000/svg" xmlns:xlink="http://www.w3.org/1999/xlink">
<g id="graph0" class="graph" transform="scale(1 1) rotate(0) translate(4 183)">
<title>Additional Topics</title>
<polygon fill="white" stroke="transparent" points="-4,4 -4,-183 381,-183 381,4 -4,4"/>
<!-- Node2 -->
<g id="node1" class="node">
<title>Node2</title>
<g id="a_node1"><a xlink:href="a00808.html" target="_top" xlink:title=" ">
<polygon fill="white" stroke="black" points="95,-105 0,-105 0,-86 95,-86 95,-105"/>
<text text-anchor="middle" x="47.5" y="-93" font-family="Helvetica,sans-Serif" font-size="10.00">AAX SDK Manual</text>
</a>
</g>
</g>
<!-- Node1 -->
<g id="node6" class="node">
<title>Node1</title>
<g id="a_node6"><a xlink:title="Additional information about the AAX design.">
<polygon fill="#bfbfbf" stroke="black" points="222,-105 131,-105 131,-86 222,-86 222,-105"/>
<text text-anchor="middle" x="176.5" y="-93" font-family="Helvetica,sans-Serif" font-size="10.00">Additional Topics</text>
</a>
</g>
</g>
<!-- Node2&#45;&gt;Node1 -->
<g id="edge1" class="edge">
<title>Node2&#45;&gt;Node1</title>
<path fill="none" stroke="black" d="M105.3,-95.5C113.79,-95.5 122.44,-95.5 130.63,-95.5"/>
<polygon fill="black" stroke="black" points="105.07,-92 95.07,-95.5 105.07,-99 105.07,-92"/>
</g>
<!-- Node6 -->
<g id="node2" class="node">
<title>Node6</title>
<g id="a_node2"><a xlink:href="a00842.html" target="_top" xlink:title="Specification for valid conversions between plug&#45;in types.">
<polygon fill="white" stroke="black" points="377,-179 258,-179 258,-160 377,-160 377,-179"/>
<text text-anchor="middle" x="317.5" y="-167" font-family="Helvetica,sans-Serif" font-size="10.00">Plug&#45;in type conversion</text>
</a>
</g>
</g>
<!-- Node4 -->
<g id="node3" class="node">
<title>Node4</title>
<g id="a_node3"><a xlink:href="a00835.html" target="_top" xlink:title="Information about parameter automation.">
<polygon fill="white" stroke="black" points="374,-142 261,-142 261,-123 374,-123 374,-142"/>
<text text-anchor="middle" x="317.5" y="-130" font-family="Helvetica,sans-Serif" font-size="10.00">Parameter automation</text>
</a>
</g>
</g>
<!-- Node5 -->
<g id="node4" class="node">
<title>Node5</title>
<g id="a_node4"><a xlink:href="a00836.html" target="_top" xlink:title="The anatomy of a parameter update.">
<polygon fill="white" stroke="black" points="367,-105 268,-105 268,-86 367,-86 367,-105"/>
<text text-anchor="middle" x="317.5" y="-93" font-family="Helvetica,sans-Serif" font-size="10.00">Parameter updates</text>
</a>
</g>
</g>
<!-- Node7 -->
<g id="node5" class="node">
<title>Node7</title>
<g id="a_node5"><a xlink:href="a00843.html" target="_top" xlink:title="How the AAX C++ interfaces work.">
<polygon fill="white" stroke="black" points="371,-67.5 264,-67.5 264,-37.5 371,-37.5 371,-67.5"/>
<text text-anchor="start" x="272" y="-55.5" font-family="Helvetica,sans-Serif" font-size="10.00">The Avid Component</text>
<text text-anchor="middle" x="317.5" y="-44.5" font-family="Helvetica,sans-Serif" font-size="10.00"> Framework (ACF)</text>
</a>
</g>
</g>
<!-- Node1&#45;&gt;Node6 -->
<g id="edge5" class="edge">
<title>Node1&#45;&gt;Node6</title>
<path fill="none" stroke="black" d="M196.68,-111.4C212.36,-123.75 235.53,-140.56 258,-151.5 264.69,-154.76 272.09,-157.58 279.32,-159.96"/>
<polygon fill="black" stroke="black" points="198.78,-108.6 188.79,-105.06 194.39,-114.06 198.78,-108.6"/>
</g>
<!-- Node1&#45;&gt;Node4 -->
<g id="edge3" class="edge">
<title>Node1&#45;&gt;Node4</title>
<path fill="none" stroke="black" d="M223.03,-107.62C241.63,-112.57 262.84,-118.22 280.34,-122.88"/>
<polygon fill="black" stroke="black" points="223.86,-104.22 213.3,-105.03 222.06,-110.98 223.86,-104.22"/>
</g>
<!-- Node1&#45;&gt;Node5 -->
<g id="edge4" class="edge">
<title>Node1&#45;&gt;Node5</title>
<path fill="none" stroke="black" d="M232.39,-95.5C244.15,-95.5 256.5,-95.5 267.99,-95.5"/>
<polygon fill="black" stroke="black" points="232.25,-92 222.25,-95.5 232.25,-99 232.25,-92"/>
</g>
<!-- Node1&#45;&gt;Node7 -->
<g id="edge6" class="edge">
<title>Node1&#45;&gt;Node7</title>
<path fill="none" stroke="black" d="M218.21,-82.91C233.8,-78.08 251.74,-72.53 267.99,-67.51"/>
<polygon fill="black" stroke="black" points="216.87,-79.66 208.35,-85.96 218.94,-86.35 216.87,-79.66"/>
</g>
<!-- Node3 -->
<g id="node7" class="node">
<title>Node3</title>
<g id="a_node7"><a xlink:href="a00834.html" target="_top" xlink:title="Guidelines for avoiding audio streaming errors.">
<polygon fill="white" stroke="black" points="375.5,-19 259.5,-19 259.5,0 375.5,0 375.5,-19"/>
<text text-anchor="middle" x="317.5" y="-7" font-family="Helvetica,sans-Serif" font-size="10.00">Real&#45;time performance</text>
</a>
</g>
</g>
<!-- Node1&#45;&gt;Node3 -->
<g id="edge2" class="edge">
<title>Node1&#45;&gt;Node3</title>
<path fill="none" stroke="black" d="M193.68,-78.79C209.02,-63.8 233.32,-42.11 258,-28.5 264.73,-24.79 272.3,-21.66 279.71,-19.08"/>
<polygon fill="black" stroke="black" points="191.13,-76.4 186.53,-85.95 196.07,-81.35 191.13,-76.4"/>
</g>
</g>
</svg>
