<?xml version="1.0" encoding="UTF-8" standalone="no"?>
<!DOCTYPE svg PUBLIC "-//W3C//DTD SVG 1.1//EN"
 "http://www.w3.org/Graphics/SVG/1.1/DTD/svg11.dtd">
<!-- Generated by graphviz version 6.0.1 (20220911.1526)
 -->
<!-- Title: AAX::fabs Pages: 1 -->
<svg width="372pt" height="78pt"
 viewBox="0.00 0.00 372.00 77.50" xmlns="http://www.w3.org/2000/svg" xmlns:xlink="http://www.w3.org/1999/xlink">
<g id="graph0" class="graph" transform="scale(1 1) rotate(0) translate(4 73.5)">
<title>AAX::fabs</title>
<polygon fill="white" stroke="none" points="-4,4 -4,-73.5 368,-73.5 368,4 -4,4"/>
<!-- Node1 -->
<g id="node1" class="node">
<title>Node1</title>
<g id="a_node1"><a xlink:title=" ">
<polygon fill="#bfbfbf" stroke="black" points="302,-28 302,-47 364,-47 364,-28 302,-28"/>
<text text-anchor="middle" x="333" y="-35" font-family="Helvetica,sans-Serif" font-size="10.00">AAX::fabs</text>
</a>
</g>
</g>
<!-- Node2 -->
<g id="node2" class="node">
<title>Node2</title>
<g id="a_node2"><a xlink:href="a00868.html#a7fc4d4cd59850b8b875d085467ff5850" target="_top" xlink:title=" ">
<polygon fill="white" stroke="black" points="201,-28 201,-47 266,-47 266,-28 201,-28"/>
<text text-anchor="middle" x="233.5" y="-35" font-family="Helvetica,sans-Serif" font-size="10.00">AAX::fabsf</text>
</a>
</g>
</g>
<!-- Node1&#45;&gt;Node2 -->
<g id="edge1" class="edge">
<title>Node1&#45;&gt;Node2</title>
<path fill="none" stroke="midnightblue" d="M291.83,-37.5C283.32,-37.5 274.45,-37.5 266.31,-37.5"/>
<polygon fill="midnightblue" stroke="midnightblue" points="291.95,-41 301.95,-37.5 291.95,-34 291.95,-41"/>
</g>
<!-- Node3 -->
<g id="node3" class="node">
<title>Node3</title>
<g id="a_node3"><a xlink:href="a00868.html#a73dd9a17abecc28625c4d34279e4534f" target="_top" xlink:title="Round all denormal/subnormal samples in a buffer to zero.">
<polygon fill="white" stroke="black" points="26.5,-50 26.5,-69 138.5,-69 138.5,-50 26.5,-50"/>
<text text-anchor="middle" x="82.5" y="-57" font-family="Helvetica,sans-Serif" font-size="10.00">AAX::FilterDenormals</text>
</a>
</g>
</g>
<!-- Node2&#45;&gt;Node3 -->
<g id="edge2" class="edge">
<title>Node2&#45;&gt;Node3</title>
<path fill="none" stroke="midnightblue" d="M190.68,-43.67C174.51,-46.06 155.77,-48.83 138.53,-51.37"/>
<polygon fill="midnightblue" stroke="midnightblue" points="191.52,-47.09 200.9,-42.17 190.5,-40.16 191.52,-47.09"/>
</g>
<!-- Node4 -->
<g id="node4" class="node">
<title>Node4</title>
<g id="a_node4"><a xlink:href="a01869.html#a74d63ddd342455674e9b1b00dc0f76e2" target="_top" xlink:title="Converts a real parameter value to a string representation.">
<polygon fill="white" stroke="black" points="0,-0.5 0,-30.5 165,-30.5 165,-0.5 0,-0.5"/>
<text text-anchor="start" x="8" y="-18.5" font-family="Helvetica,sans-Serif" font-size="10.00">AAX_CUnitPrefixDisplayDelegate</text>
<text text-anchor="middle" x="82.5" y="-7.5" font-family="Helvetica,sans-Serif" font-size="10.00">Decorator::ValueToString</text>
</a>
</g>
</g>
<!-- Node2&#45;&gt;Node4 -->
<g id="edge3" class="edge">
<title>Node2&#45;&gt;Node4</title>
<path fill="none" stroke="midnightblue" d="M190.96,-31.37C182.8,-30.16 173.98,-28.86 165.02,-27.54"/>
<polygon fill="midnightblue" stroke="midnightblue" points="190.5,-34.84 200.9,-32.83 191.52,-27.91 190.5,-34.84"/>
</g>
</g>
</svg>
