<?xml version="1.0" encoding="UTF-8" standalone="no"?>
<!DOCTYPE svg PUBLIC "-//W3C//DTD SVG 1.1//EN"
 "http://www.w3.org/Graphics/SVG/1.1/DTD/svg11.dtd">
<!-- Generated by graphviz version 2.47.3 (20210619.1520)
 -->
<!-- Title: AAX::IsASCII Pages: 1 -->
<svg width="420pt" height="66pt"
 viewBox="0.00 0.00 420.00 66.00" xmlns="http://www.w3.org/2000/svg" xmlns:xlink="http://www.w3.org/1999/xlink">
<g id="graph0" class="graph" transform="scale(1 1) rotate(0) translate(4 62)">
<title>AAX::IsASCII</title>
<polygon fill="white" stroke="transparent" points="-4,4 -4,-62 416,-62 416,4 -4,4"/>
<!-- Node1 -->
<g id="node1" class="node">
<title>Node1</title>
<g id="a_node1"><a xlink:title=" ">
<polygon fill="#bfbfbf" stroke="black" points="334,-19.5 334,-38.5 412,-38.5 412,-19.5 334,-19.5"/>
<text text-anchor="middle" x="373" y="-26.5" font-family="Helvetica,sans-Serif" font-size="10.00">AAX::IsASCII</text>
</a>
</g>
</g>
<!-- Node2 -->
<g id="node2" class="node">
<title>Node2</title>
<g id="a_node2"><a xlink:href="a00868.html#a22eda3cc42cb4ea2192b00bab7a69b02" target="_top" xlink:title=" ">
<polygon fill="white" stroke="black" points="177,-38.5 177,-57.5 298,-57.5 298,-38.5 177,-38.5"/>
<text text-anchor="middle" x="237.5" y="-45.5" font-family="Helvetica,sans-Serif" font-size="10.00">AAX::AsStringFourChar</text>
</a>
</g>
</g>
<!-- Node1&#45;&gt;Node2 -->
<g id="edge1" class="edge">
<title>Node1&#45;&gt;Node2</title>
<path fill="none" stroke="midnightblue" d="M323.84,-35.85C315.51,-37.04 306.77,-38.28 298.19,-39.51"/>
<polygon fill="midnightblue" stroke="midnightblue" points="324.34,-39.32 333.74,-34.44 323.35,-32.39 324.34,-39.32"/>
</g>
<!-- Node5 -->
<g id="node5" class="node">
<title>Node5</title>
<g id="a_node5"><a xlink:href="a00868.html#a00fbf59b268ca75214b2dad68be8ff77" target="_top" xlink:title=" ">
<polygon fill="white" stroke="black" points="178,-0.5 178,-19.5 297,-19.5 297,-0.5 178,-0.5"/>
<text text-anchor="middle" x="237.5" y="-7.5" font-family="Helvetica,sans-Serif" font-size="10.00">AAX::IsFourCharASCII</text>
</a>
</g>
</g>
<!-- Node1&#45;&gt;Node5 -->
<g id="edge4" class="edge">
<title>Node1&#45;&gt;Node5</title>
<path fill="none" stroke="midnightblue" d="M323.84,-22.15C315.19,-20.91 306.09,-19.62 297.18,-18.35"/>
<polygon fill="midnightblue" stroke="midnightblue" points="323.35,-25.61 333.74,-23.56 324.34,-18.68 323.35,-25.61"/>
</g>
<!-- Node3 -->
<g id="node3" class="node">
<title>Node3</title>
<g id="a_node3"><a xlink:href="a00868.html#a89e00fcb44e30c443bebba0f026ef62a" target="_top" xlink:title=" ">
<polygon fill="white" stroke="black" points="14,-38.5 14,-57.5 127,-57.5 127,-38.5 14,-38.5"/>
<text text-anchor="middle" x="70.5" y="-45.5" font-family="Helvetica,sans-Serif" font-size="10.00">AAX::AsStringIDTriad</text>
</a>
</g>
</g>
<!-- Node2&#45;&gt;Node3 -->
<g id="edge2" class="edge">
<title>Node2&#45;&gt;Node3</title>
<path fill="none" stroke="midnightblue" d="M166.9,-48C153.62,-48 139.9,-48 127.13,-48"/>
<polygon fill="midnightblue" stroke="midnightblue" points="166.93,-51.5 176.93,-48 166.93,-44.5 166.93,-51.5"/>
</g>
<!-- Node4 -->
<g id="node4" class="node">
<title>Node4</title>
<g id="a_node4"><a xlink:href="a00868.html#a1b3d4b5a967f01922963876447644b15" target="_top" xlink:title=" ">
<polygon fill="white" stroke="black" points="0,-0.5 0,-19.5 141,-19.5 141,-0.5 0,-0.5"/>
<text text-anchor="middle" x="70.5" y="-7.5" font-family="Helvetica,sans-Serif" font-size="10.00">AAX::AsStringPropertyValue</text>
</a>
</g>
</g>
<!-- Node2&#45;&gt;Node4 -->
<g id="edge3" class="edge">
<title>Node2&#45;&gt;Node4</title>
<path fill="none" stroke="midnightblue" d="M184.85,-36.1C161.65,-30.76 134.66,-24.55 112.84,-19.52"/>
<polygon fill="midnightblue" stroke="midnightblue" points="184.33,-39.58 194.86,-38.41 185.9,-32.76 184.33,-39.58"/>
</g>
<!-- Node5&#45;&gt;Node4 -->
<g id="edge5" class="edge">
<title>Node5&#45;&gt;Node4</title>
<path fill="none" stroke="midnightblue" d="M167.71,-10C158.96,-10 150,-10 141.24,-10"/>
<polygon fill="midnightblue" stroke="midnightblue" points="167.86,-13.5 177.86,-10 167.86,-6.5 167.86,-13.5"/>
</g>
</g>
</svg>
