<?xml version="1.0" encoding="UTF-8" standalone="no"?>
<!DOCTYPE svg PUBLIC "-//W3C//DTD SVG 1.1//EN"
 "http://www.w3.org/Graphics/SVG/1.1/DTD/svg11.dtd">
<!-- Generated by graphviz version 2.47.3 (20210619.1520)
 -->
<!-- Title: AAX SDK Manual Pages: 1 -->
<svg width="267pt" height="286pt"
 viewBox="0.00 0.00 267.00 286.00" xmlns="http://www.w3.org/2000/svg" xmlns:xlink="http://www.w3.org/1999/xlink">
<g id="graph0" class="graph" transform="scale(1 1) rotate(0) translate(4 282)">
<title>AAX SDK Manual</title>
<polygon fill="white" stroke="transparent" points="-4,4 -4,-282 263,-282 263,4 -4,4"/>
<!-- Node1 -->
<g id="node1" class="node">
<title>Node1</title>
<g id="a_node1"><a xlink:title=" ">
<polygon fill="#bfbfbf" stroke="black" points="95,-148 0,-148 0,-129 95,-129 95,-148"/>
<text text-anchor="middle" x="47.5" y="-136" font-family="Helvetica,sans-Serif" font-size="10.00">AAX SDK Manual</text>
</a>
</g>
</g>
<!-- Node7 -->
<g id="node2" class="node">
<title>Node7</title>
<g id="a_node2"><a xlink:href="a00845.html" target="_top" xlink:title="Documentation for specific AAX host environments.">
<polygon fill="white" stroke="black" points="242.5,-278 147.5,-278 147.5,-259 242.5,-259 242.5,-278"/>
<text text-anchor="middle" x="195" y="-266" font-family="Helvetica,sans-Serif" font-size="10.00">AAX Host Guides</text>
</a>
</g>
</g>
<!-- Node1&#45;&gt;Node7 -->
<g id="edge6" class="edge">
<title>Node1&#45;&gt;Node7</title>
<path fill="none" stroke="black" d="M57.46,-157.47C70.25,-182.52 96.13,-226.28 131,-250.5 135.95,-253.94 141.55,-256.73 147.32,-258.98"/>
<polygon fill="black" stroke="black" points="60.49,-155.7 52.92,-148.28 54.21,-158.79 60.49,-155.7"/>
</g>
<!-- Node2 -->
<g id="node3" class="node">
<title>Node2</title>
<g id="a_node3"><a xlink:href="a00809.html" target="_top" xlink:title="A brief introduction to AAX.">
<polygon fill="white" stroke="black" points="258,-241 132,-241 132,-222 258,-222 258,-241"/>
<text text-anchor="middle" x="195" y="-229" font-family="Helvetica,sans-Serif" font-size="10.00">Getting Started with AAX</text>
</a>
</g>
</g>
<!-- Node1&#45;&gt;Node2 -->
<g id="edge1" class="edge">
<title>Node1&#45;&gt;Node2</title>
<path fill="none" stroke="black" d="M62.99,-155.65C78.26,-172.68 103.82,-198.37 131,-213.5 137.06,-216.88 143.81,-219.66 150.58,-221.95"/>
<polygon fill="black" stroke="black" points="65.58,-153.29 56.36,-148.07 60.31,-157.9 65.58,-153.29"/>
</g>
<!-- Node8 -->
<g id="node4" class="node">
<title>Node8</title>
<g id="a_node4"><a xlink:href="a00853.html" target="_top" xlink:title="Extensions to the AAX SDK.">
<polygon fill="white" stroke="black" points="227.5,-204 162.5,-204 162.5,-185 227.5,-185 227.5,-204"/>
<text text-anchor="middle" x="195" y="-192" font-family="Helvetica,sans-Serif" font-size="10.00">Extensions</text>
</a>
</g>
</g>
<!-- Node1&#45;&gt;Node8 -->
<g id="edge7" class="edge">
<title>Node1&#45;&gt;Node8</title>
<path fill="none" stroke="black" d="M76.35,-152.63C92.13,-160.3 112.39,-169.6 131,-176.5 141.03,-180.22 152.18,-183.63 162.29,-186.46"/>
<polygon fill="black" stroke="black" points="77.67,-149.38 67.16,-148.09 74.58,-155.65 77.67,-149.38"/>
</g>
<!-- Node3 -->
<g id="node5" class="node">
<title>Node3</title>
<g id="a_node5"><a xlink:href="a00810.html" target="_top" xlink:title="Main classes, callbacks, and format specification details for a standard AAX plug&#45;in.">
<polygon fill="white" stroke="black" points="245.5,-167 144.5,-167 144.5,-148 245.5,-148 245.5,-167"/>
<text text-anchor="middle" x="195" y="-155" font-family="Helvetica,sans-Serif" font-size="10.00">Core AAX Interface</text>
</a>
</g>
</g>
<!-- Node1&#45;&gt;Node3 -->
<g id="edge2" class="edge">
<title>Node1&#45;&gt;Node3</title>
<path fill="none" stroke="black" d="M105.49,-145.94C118.37,-147.62 131.95,-149.4 144.49,-151.03"/>
<polygon fill="black" stroke="black" points="105.71,-142.44 95.34,-144.62 104.8,-149.38 105.71,-142.44"/>
</g>
<!-- Node4 -->
<g id="node6" class="node">
<title>Node4</title>
<g id="a_node6"><a xlink:href="a00817.html" target="_top" xlink:title="How to use additional features and functionality supported by AAX.">
<polygon fill="white" stroke="black" points="255,-130 135,-130 135,-111 255,-111 255,-130"/>
<text text-anchor="middle" x="195" y="-118" font-family="Helvetica,sans-Serif" font-size="10.00">Additional AAX features</text>
</a>
</g>
</g>
<!-- Node1&#45;&gt;Node4 -->
<g id="edge3" class="edge">
<title>Node1&#45;&gt;Node4</title>
<path fill="none" stroke="black" d="M105.31,-131.47C115.05,-130.27 125.19,-129.01 134.99,-127.8"/>
<polygon fill="black" stroke="black" points="104.83,-128 95.34,-132.71 105.69,-134.95 104.83,-128"/>
</g>
<!-- Node6 -->
<g id="node7" class="node">
<title>Node6</title>
<g id="a_node7"><a xlink:href="a00833.html" target="_top" xlink:title="Additional information about the AAX design.">
<polygon fill="white" stroke="black" points="240.5,-93 149.5,-93 149.5,-74 240.5,-74 240.5,-93"/>
<text text-anchor="middle" x="195" y="-81" font-family="Helvetica,sans-Serif" font-size="10.00">Additional Topics</text>
</a>
</g>
</g>
<!-- Node1&#45;&gt;Node6 -->
<g id="edge5" class="edge">
<title>Node1&#45;&gt;Node6</title>
<path fill="none" stroke="black" d="M77.72,-124.74C93.35,-117.64 113.02,-109.11 131,-102.5 140.22,-99.11 150.36,-95.85 159.75,-93.02"/>
<polygon fill="black" stroke="black" points="76.2,-121.59 68.57,-128.94 79.12,-127.95 76.2,-121.59"/>
</g>
<!-- Node5 -->
<g id="node8" class="node">
<title>Node5</title>
<g id="a_node8"><a xlink:href="a00828.html" target="_top" xlink:title="AAX Library core support for the AAX interface">
<polygon fill="white" stroke="black" points="248.5,-56 141.5,-56 141.5,-37 248.5,-37 248.5,-56"/>
<text text-anchor="middle" x="195" y="-44" font-family="Helvetica,sans-Serif" font-size="10.00">AAX Library features</text>
</a>
</g>
</g>
<!-- Node1&#45;&gt;Node5 -->
<g id="edge4" class="edge">
<title>Node1&#45;&gt;Node5</title>
<path fill="none" stroke="black" d="M63.8,-121.19C79.24,-104.69 104.54,-80.25 131,-65.5 137.78,-61.72 145.41,-58.6 152.95,-56.07"/>
<polygon fill="black" stroke="black" points="60.82,-119.25 56.66,-129 65.99,-123.97 60.82,-119.25"/>
</g>
<!-- Node9 -->
<g id="node9" class="node">
<title>Node9</title>
<g id="a_node9"><a xlink:href="a00857.html" target="_top" xlink:title="Supplemental documents beyond the scope of the AAX SDK.">
<polygon fill="white" stroke="black" points="259,-19 131,-19 131,0 259,0 259,-19"/>
<text text-anchor="middle" x="195" y="-7" font-family="Helvetica,sans-Serif" font-size="10.00">Supplemental Information</text>
</a>
</g>
</g>
<!-- Node1&#45;&gt;Node9 -->
<g id="edge8" class="edge">
<title>Node1&#45;&gt;Node9</title>
<path fill="none" stroke="black" d="M57.59,-119.95C70.55,-95.43 96.61,-52.54 131,-28.5 136.52,-24.64 142.85,-21.55 149.31,-19.08"/>
<polygon fill="black" stroke="black" points="54.43,-118.44 53,-128.94 60.67,-121.63 54.43,-118.44"/>
</g>
</g>
</svg>
