<?xml version="1.0" encoding="UTF-8" standalone="no"?>
<!DOCTYPE svg PUBLIC "-//W3C//DTD SVG 1.1//EN"
 "http://www.w3.org/Graphics/SVG/1.1/DTD/svg11.dtd">
<!-- Generated by graphviz version 6.0.1 (20220911.1526)
 -->
<!-- Title: Core AAX Interface Pages: 1 -->
<svg width="425pt" height="224pt"
 viewBox="0.00 0.00 425.00 224.00" xmlns="http://www.w3.org/2000/svg" xmlns:xlink="http://www.w3.org/1999/xlink">
<g id="graph0" class="graph" transform="scale(1 1) rotate(0) translate(4 220)">
<title>Core AAX Interface</title>
<polygon fill="white" stroke="none" points="-4,4 -4,-220 421,-220 421,4 -4,4"/>
<!-- Node2 -->
<g id="node1" class="node">
<title>Node2</title>
<g id="a_node1"><a xlink:href="a00808.html" target="_top" xlink:title=" ">
<polygon fill="white" stroke="black" points="95,-111 0,-111 0,-92 95,-92 95,-111"/>
<text text-anchor="middle" x="47.5" y="-99" font-family="Helvetica,sans-Serif" font-size="10.00">AAX SDK Manual</text>
</a>
</g>
</g>
<!-- Node1 -->
<g id="node5" class="node">
<title>Node1</title>
<g id="a_node5"><a xlink:title="Main classes, callbacks, and format specification details for a standard AAX plug&#45;in.">
<polygon fill="#bfbfbf" stroke="black" points="232,-111 131,-111 131,-92 232,-92 232,-111"/>
<text text-anchor="middle" x="181.5" y="-99" font-family="Helvetica,sans-Serif" font-size="10.00">Core AAX Interface</text>
</a>
</g>
</g>
<!-- Node2&#45;&gt;Node1 -->
<g id="edge1" class="edge">
<title>Node2&#45;&gt;Node1</title>
<path fill="none" stroke="black" d="M105.26,-101.5C113.76,-101.5 122.46,-101.5 130.8,-101.5"/>
<polygon fill="black" stroke="black" points="105.04,-98 95.04,-101.5 105.04,-105 105.04,-98"/>
</g>
<!-- Node5 -->
<g id="node2" class="node">
<title>Node5</title>
<g id="a_node2"><a xlink:href="a00813.html" target="_top" xlink:title="The interface for an AAX Plug&#45;in&#39;s data model.">
<polygon fill="white" stroke="black" points="396,-216 289,-216 289,-197 396,-197 396,-216"/>
<text text-anchor="middle" x="342.5" y="-204" font-family="Helvetica,sans-Serif" font-size="10.00">Data model interface</text>
</a>
</g>
</g>
<!-- Node4 -->
<g id="node3" class="node">
<title>Node4</title>
<g id="a_node3"><a xlink:href="a00812.html" target="_top" xlink:title="A plug&#45;in&#39;s audio processing core.">
<polygon fill="white" stroke="black" points="393,-178.5 292,-178.5 292,-148.5 393,-148.5 393,-178.5"/>
<text text-anchor="start" x="300" y="-166.5" font-family="Helvetica,sans-Serif" font-size="10.00">Real&#45;time algorithm</text>
<text text-anchor="middle" x="342.5" y="-155.5" font-family="Helvetica,sans-Serif" font-size="10.00"> callback</text>
</a>
</g>
</g>
<!-- Node3 -->
<g id="node4" class="node">
<title>Node3</title>
<g id="a_node4"><a xlink:href="a00811.html" target="_top" xlink:title="Static configuration for an AAX plug&#45;in.">
<polygon fill="white" stroke="black" points="395,-130 290,-130 290,-111 395,-111 395,-130"/>
<text text-anchor="middle" x="342.5" y="-118" font-family="Helvetica,sans-Serif" font-size="10.00">Description callback</text>
</a>
</g>
</g>
<!-- Node1&#45;&gt;Node5 -->
<g id="edge4" class="edge">
<title>Node1&#45;&gt;Node5</title>
<path fill="none" stroke="black" d="M195.39,-119.29C210.57,-138.93 237.59,-170.06 268,-187.5 274.75,-191.37 282.29,-194.46 289.9,-196.93"/>
<polygon fill="black" stroke="black" points="198.09,-117.06 189.28,-111.17 192.5,-121.26 198.09,-117.06"/>
</g>
<!-- Node1&#45;&gt;Node4 -->
<g id="edge3" class="edge">
<title>Node1&#45;&gt;Node4</title>
<path fill="none" stroke="black" d="M211.71,-115.38C228.09,-122.93 248.99,-132.19 268,-139.5 276.02,-142.58 284.62,-145.62 293.02,-148.45"/>
<polygon fill="black" stroke="black" points="213.18,-112.2 202.64,-111.15 210.23,-118.55 213.18,-112.2"/>
</g>
<!-- Node1&#45;&gt;Node3 -->
<g id="edge2" class="edge">
<title>Node1&#45;&gt;Node3</title>
<path fill="none" stroke="black" d="M242.45,-108.66C258.06,-110.53 274.75,-112.52 289.88,-114.33"/>
<polygon fill="black" stroke="black" points="242.72,-105.17 232.37,-107.46 241.89,-112.12 242.72,-105.17"/>
</g>
<!-- Node7 -->
<g id="node6" class="node">
<title>Node7</title>
<g id="a_node6"><a xlink:href="a00815.html" target="_top" xlink:title="How to transfer data between different parts of an AAX plug&#45;in.">
<polygon fill="white" stroke="black" points="417,-93 268,-93 268,-74 417,-74 417,-93"/>
<text text-anchor="middle" x="342.5" y="-81" font-family="Helvetica,sans-Serif" font-size="10.00">AAX communication protocols</text>
</a>
</g>
</g>
<!-- Node1&#45;&gt;Node7 -->
<g id="edge6" class="edge">
<title>Node1&#45;&gt;Node7</title>
<path fill="none" stroke="black" d="M242.37,-94.72C250.72,-93.78 259.37,-92.8 267.93,-91.83"/>
<polygon fill="black" stroke="black" points="241.92,-91.25 232.37,-95.85 242.7,-98.21 241.92,-91.25"/>
</g>
<!-- Node6 -->
<g id="node7" class="node">
<title>Node6</title>
<g id="a_node7"><a xlink:href="a00814.html" target="_top" xlink:title="The interface for a AAX Plug&#45;in&#39;s user interface.">
<polygon fill="white" stroke="black" points="380,-56 305,-56 305,-37 380,-37 380,-56"/>
<text text-anchor="middle" x="342.5" y="-44" font-family="Helvetica,sans-Serif" font-size="10.00">GUI interface</text>
</a>
</g>
</g>
<!-- Node1&#45;&gt;Node6 -->
<g id="edge5" class="edge">
<title>Node1&#45;&gt;Node6</title>
<path fill="none" stroke="black" d="M212.4,-87.65C228.63,-80.45 249.17,-71.86 268,-65.5 279.86,-61.49 293.04,-57.84 304.93,-54.84"/>
<polygon fill="black" stroke="black" points="210.59,-84.62 202.91,-91.91 213.46,-91.01 210.59,-84.62"/>
</g>
<!-- Node8 -->
<g id="node8" class="node">
<title>Node8</title>
<g id="a_node8"><a xlink:href="a00816.html" target="_top" xlink:title="Additional requirements for AAX plug&#45;ins.">
<polygon fill="white" stroke="black" points="407.5,-19 277.5,-19 277.5,0 407.5,0 407.5,-19"/>
<text text-anchor="middle" x="342.5" y="-7" font-family="Helvetica,sans-Serif" font-size="10.00">AAX Format Specification</text>
</a>
</g>
</g>
<!-- Node1&#45;&gt;Node8 -->
<g id="edge7" class="edge">
<title>Node1&#45;&gt;Node8</title>
<path fill="none" stroke="black" d="M197.91,-84.44C213.88,-67.78 240.32,-42.9 268,-28.5 275.37,-24.67 283.56,-21.57 291.72,-19.08"/>
<polygon fill="black" stroke="black" points="195.23,-82.18 190.96,-91.87 200.35,-86.96 195.23,-82.18"/>
</g>
</g>
</svg>
