<?xml version="1.0" encoding="UTF-8" standalone="no"?>
<!DOCTYPE svg PUBLIC "-//W3C//DTD SVG 1.1//EN"
 "http://www.w3.org/Graphics/SVG/1.1/DTD/svg11.dtd">
<!-- Generated by graphviz version 6.0.1 (20220911.1526)
 -->
<!-- Title: Additional AAX features Pages: 1 -->
<svg width="446pt" height="407pt"
 viewBox="0.00 0.00 446.00 407.00" xmlns="http://www.w3.org/2000/svg" xmlns:xlink="http://www.w3.org/1999/xlink">
<g id="graph0" class="graph" transform="scale(1 1) rotate(0) translate(4 403)">
<title>Additional AAX features</title>
<polygon fill="white" stroke="none" points="-4,4 -4,-403 442,-403 442,4 -4,4"/>
<!-- Node2 -->
<g id="node1" class="node">
<title>Node2</title>
<g id="a_node1"><a xlink:href="a00808.html" target="_top" xlink:title=" ">
<polygon fill="white" stroke="black" points="95,-206 0,-206 0,-187 95,-187 95,-206"/>
<text text-anchor="middle" x="47.5" y="-194" font-family="Helvetica,sans-Serif" font-size="10.00">AAX SDK Manual</text>
</a>
</g>
</g>
<!-- Node1 -->
<g id="node7" class="node">
<title>Node1</title>
<g id="a_node7"><a xlink:title="How to use additional features and functionality supported by AAX.">
<polygon fill="#bfbfbf" stroke="black" points="251,-206 131,-206 131,-187 251,-187 251,-206"/>
<text text-anchor="middle" x="191" y="-194" font-family="Helvetica,sans-Serif" font-size="10.00">Additional AAX features</text>
</a>
</g>
</g>
<!-- Node2&#45;&gt;Node1 -->
<g id="edge1" class="edge">
<title>Node2&#45;&gt;Node1</title>
<path fill="none" stroke="black" d="M105.34,-196.5C113.77,-196.5 122.48,-196.5 130.96,-196.5"/>
<polygon fill="black" stroke="black" points="105.22,-193 95.22,-196.5 105.22,-200 105.22,-193"/>
</g>
<!-- Node8 -->
<g id="node2" class="node">
<title>Node8</title>
<g id="a_node2"><a xlink:href="a00823.html" target="_top" xlink:title="Routing custom audio streams to a plug&#45;in.">
<polygon fill="white" stroke="black" points="407,-399 318,-399 318,-380 407,-380 407,-399"/>
<text text-anchor="middle" x="362.5" y="-387" font-family="Helvetica,sans-Serif" font-size="10.00">Sidechain Inputs</text>
</a>
</g>
</g>
<!-- Node9 -->
<g id="node3" class="node">
<title>Node9</title>
<g id="a_node3"><a xlink:href="a00824.html" target="_top" xlink:title="Routing custom audio streams from a plug&#45;in.">
<polygon fill="white" stroke="black" points="421.5,-362 303.5,-362 303.5,-343 421.5,-343 421.5,-362"/>
<text text-anchor="middle" x="362.5" y="-350" font-family="Helvetica,sans-Serif" font-size="10.00">Auxiliary Output Stems</text>
</a>
</g>
</g>
<!-- Node11 -->
<g id="node4" class="node">
<title>Node11</title>
<g id="a_node4"><a xlink:href="a00826.html" target="_top" xlink:title="Background processing support for AAX DSP and Native plug&#45;in algorithms.">
<polygon fill="white" stroke="black" points="422,-324.5 303,-324.5 303,-294.5 422,-294.5 422,-324.5"/>
<text text-anchor="start" x="311" y="-312.5" font-family="Helvetica,sans-Serif" font-size="10.00">Background processing</text>
<text text-anchor="middle" x="362.5" y="-301.5" font-family="Helvetica,sans-Serif" font-size="10.00"> callback</text>
</a>
</g>
</g>
<!-- Node3 -->
<g id="node5" class="node">
<title>Node3</title>
<g id="a_node5"><a xlink:href="a00818.html" target="_top" xlink:title="A host interface providing direct access to a plug&#45;in&#39;s algorithm memory.">
<polygon fill="white" stroke="black" points="412,-276.5 313,-276.5 313,-246.5 412,-246.5 412,-276.5"/>
<text text-anchor="start" x="321" y="-264.5" font-family="Helvetica,sans-Serif" font-size="10.00">Direct data access</text>
<text text-anchor="middle" x="362.5" y="-253.5" font-family="Helvetica,sans-Serif" font-size="10.00"> interface</text>
</a>
</g>
</g>
<!-- Node10 -->
<g id="node6" class="node">
<title>Node10</title>
<g id="a_node6"><a xlink:href="a00825.html" target="_top" xlink:title="DMA support for AAX DSP plug&#45;ins, with emulation for AAX Native.">
<polygon fill="white" stroke="black" points="420.5,-228 304.5,-228 304.5,-209 420.5,-209 420.5,-228"/>
<text text-anchor="middle" x="362.5" y="-216" font-family="Helvetica,sans-Serif" font-size="10.00">Direct Memory Access</text>
</a>
</g>
</g>
<!-- Node1&#45;&gt;Node8 -->
<g id="edge7" class="edge">
<title>Node1&#45;&gt;Node8</title>
<path fill="none" stroke="black" d="M196.96,-216.19C207.21,-252.74 234.34,-331.03 287,-371.5 295.86,-378.31 306.93,-382.59 317.8,-385.27"/>
<polygon fill="black" stroke="black" points="200.27,-215.03 194.3,-206.27 193.51,-216.84 200.27,-215.03"/>
</g>
<!-- Node1&#45;&gt;Node9 -->
<g id="edge8" class="edge">
<title>Node1&#45;&gt;Node9</title>
<path fill="none" stroke="black" d="M199.88,-215.57C213.23,-245.46 243.2,-303.07 287,-333.5 292.59,-337.38 298.91,-340.47 305.45,-342.93"/>
<polygon fill="black" stroke="black" points="203.03,-214.04 195.85,-206.24 196.6,-216.81 203.03,-214.04"/>
</g>
<!-- Node1&#45;&gt;Node11 -->
<g id="edge10" class="edge">
<title>Node1&#45;&gt;Node11</title>
<path fill="none" stroke="black" d="M206.36,-213.99C223.59,-233.92 254.28,-266.23 287,-285.5 292.74,-288.88 299.01,-291.84 305.4,-294.43"/>
<polygon fill="black" stroke="black" points="208.97,-211.65 199.83,-206.28 203.62,-216.17 208.97,-211.65"/>
</g>
<!-- Node1&#45;&gt;Node3 -->
<g id="edge2" class="edge">
<title>Node1&#45;&gt;Node3</title>
<path fill="none" stroke="black" d="M221.65,-210.17C240.24,-218.52 264.81,-229.16 287,-237.5 295.27,-240.61 304.14,-243.68 312.78,-246.55"/>
<polygon fill="black" stroke="black" points="223.08,-206.97 212.52,-206.04 220.19,-213.35 223.08,-206.97"/>
</g>
<!-- Node1&#45;&gt;Node10 -->
<g id="edge9" class="edge">
<title>Node1&#45;&gt;Node10</title>
<path fill="none" stroke="black" d="M261.5,-205.52C275.72,-207.37 290.52,-209.29 304.25,-211.07"/>
<polygon fill="black" stroke="black" points="261.65,-202.01 251.28,-204.19 260.75,-208.95 261.65,-202.01"/>
</g>
<!-- Node12 -->
<g id="node8" class="node">
<title>Node12</title>
<g id="a_node8"><a xlink:href="a00827.html" target="_top" xlink:title="Displaying EQ and Dynamics curves in Pro Tools, control surfaces, and other auxiliary graphical inter...">
<polygon fill="white" stroke="black" points="425.5,-190.5 299.5,-190.5 299.5,-160.5 425.5,-160.5 425.5,-190.5"/>
<text text-anchor="start" x="307.5" y="-178.5" font-family="Helvetica,sans-Serif" font-size="10.00">EQ and Dynamics Curve</text>
<text text-anchor="middle" x="362.5" y="-167.5" font-family="Helvetica,sans-Serif" font-size="10.00"> Displays</text>
</a>
</g>
</g>
<!-- Node1&#45;&gt;Node12 -->
<g id="edge11" class="edge">
<title>Node1&#45;&gt;Node12</title>
<path fill="none" stroke="black" d="M261.28,-187.92C273.89,-186.35 286.98,-184.73 299.37,-183.2"/>
<polygon fill="black" stroke="black" points="260.78,-184.45 251.28,-189.16 261.64,-191.4 260.78,-184.45"/>
</g>
<!-- Node5 -->
<g id="node9" class="node">
<title>Node5</title>
<g id="a_node9"><a xlink:href="a00820.html" target="_top" xlink:title="An architecture combining low&#45;latency and high&#45;latency audio processing.">
<polygon fill="white" stroke="black" points="438,-142 287,-142 287,-123 438,-123 438,-142"/>
<text text-anchor="middle" x="362.5" y="-130" font-family="Helvetica,sans-Serif" font-size="10.00">Hybrid Processing architecture</text>
</a>
</g>
</g>
<!-- Node1&#45;&gt;Node5 -->
<g id="edge4" class="edge">
<title>Node1&#45;&gt;Node5</title>
<path fill="none" stroke="black" d="M218.52,-182.24C237.25,-172.6 263.17,-160.09 287,-151.5 296.92,-147.92 307.81,-144.74 318.13,-142.06"/>
<polygon fill="black" stroke="black" points="216.67,-179.26 209.42,-186.99 219.91,-185.47 216.67,-179.26"/>
</g>
<!-- Node6 -->
<g id="node10" class="node">
<title>Node6</title>
<g id="a_node10"><a xlink:href="a00821.html" target="_top" xlink:title="How to route and process MIDI in AAX plug&#45;ins.">
<polygon fill="white" stroke="black" points="381.5,-105 343.5,-105 343.5,-86 381.5,-86 381.5,-105"/>
<text text-anchor="middle" x="362.5" y="-93" font-family="Helvetica,sans-Serif" font-size="10.00">MIDI</text>
</a>
</g>
</g>
<!-- Node1&#45;&gt;Node6 -->
<g id="edge5" class="edge">
<title>Node1&#45;&gt;Node6</title>
<path fill="none" stroke="black" d="M207.24,-179.26C224.69,-160.57 255.03,-131.18 287,-114.5 304.87,-105.18 327.58,-100.24 343.2,-97.76"/>
<polygon fill="black" stroke="black" points="204.53,-177.03 200.37,-186.78 209.7,-181.75 204.53,-177.03"/>
</g>
<!-- Node4 -->
<g id="node11" class="node">
<title>Node4</title>
<g id="a_node11"><a xlink:href="a00819.html" target="_top" xlink:title="Advanced offline processing features.">
<polygon fill="white" stroke="black" points="410,-67.5 315,-67.5 315,-37.5 410,-37.5 410,-67.5"/>
<text text-anchor="start" x="323" y="-55.5" font-family="Helvetica,sans-Serif" font-size="10.00">Offline processing</text>
<text text-anchor="middle" x="362.5" y="-44.5" font-family="Helvetica,sans-Serif" font-size="10.00"> interface</text>
</a>
</g>
</g>
<!-- Node1&#45;&gt;Node4 -->
<g id="edge3" class="edge">
<title>Node1&#45;&gt;Node4</title>
<path fill="none" stroke="black" d="M202.06,-178.09C217.19,-152.06 248.2,-104.64 287,-77.5 295.27,-71.71 304.99,-67.18 314.62,-63.67"/>
<polygon fill="black" stroke="black" points="198.93,-176.51 197.06,-186.94 205.03,-179.95 198.93,-176.51"/>
</g>
<!-- Node7 -->
<g id="node12" class="node">
<title>Node7</title>
<g id="a_node12"><a xlink:href="a00822.html" target="_top" xlink:title="How to manage metering data for AAX plug&#45;ins.">
<polygon fill="white" stroke="black" points="402.5,-19 322.5,-19 322.5,0 402.5,0 402.5,-19"/>
<text text-anchor="middle" x="362.5" y="-7" font-family="Helvetica,sans-Serif" font-size="10.00">Plug&#45;in meters</text>
</a>
</g>
</g>
<!-- Node1&#45;&gt;Node7 -->
<g id="edge6" class="edge">
<title>Node1&#45;&gt;Node7</title>
<path fill="none" stroke="black" d="M197.54,-176.69C208.48,-141.29 236.33,-67.26 287,-28.5 297.07,-20.8 309.93,-16.19 322.12,-13.45"/>
<polygon fill="black" stroke="black" points="194.05,-176.15 194.57,-186.73 200.76,-178.13 194.05,-176.15"/>
</g>
</g>
</svg>
