<?xml version="1.0" encoding="UTF-8" standalone="no"?>
<!DOCTYPE svg PUBLIC "-//W3C//DTD SVG 1.1//EN"
 "http://www.w3.org/Graphics/SVG/1.1/DTD/svg11.dtd">
<!-- Generated by graphviz version 6.0.1 (20220911.1526)
 -->
<!-- Title: Supplemental Information Pages: 1 -->
<svg width="414pt" height="261pt"
 viewBox="0.00 0.00 414.00 260.50" xmlns="http://www.w3.org/2000/svg" xmlns:xlink="http://www.w3.org/1999/xlink">
<g id="graph0" class="graph" transform="scale(1 1) rotate(0) translate(4 256.5)">
<title>Supplemental Information</title>
<polygon fill="white" stroke="none" points="-4,4 -4,-256.5 410,-256.5 410,4 -4,4"/>
<!-- Node2 -->
<g id="node1" class="node">
<title>Node2</title>
<g id="a_node1"><a xlink:href="a00808.html" target="_top" xlink:title=" ">
<polygon fill="white" stroke="black" points="95,-141.5 0,-141.5 0,-122.5 95,-122.5 95,-141.5"/>
<text text-anchor="middle" x="47.5" y="-129.5" font-family="Helvetica,sans-Serif" font-size="10.00">AAX SDK Manual</text>
</a>
</g>
</g>
<!-- Node1 -->
<g id="node6" class="node">
<title>Node1</title>
<g id="a_node6"><a xlink:title="Supplemental documents beyond the scope of the AAX SDK.">
<polygon fill="#bfbfbf" stroke="black" points="259,-141.5 131,-141.5 131,-122.5 259,-122.5 259,-141.5"/>
<text text-anchor="middle" x="195" y="-129.5" font-family="Helvetica,sans-Serif" font-size="10.00">Supplemental Information</text>
</a>
</g>
</g>
<!-- Node2&#45;&gt;Node1 -->
<g id="edge1" class="edge">
<title>Node2&#45;&gt;Node1</title>
<path fill="none" stroke="black" d="M105.34,-132C113.69,-132 122.34,-132 130.8,-132"/>
<polygon fill="black" stroke="black" points="105.34,-128.5 95.34,-132 105.34,-135.5 105.34,-128.5"/>
</g>
<!-- Node9 -->
<g id="node2" class="node">
<title>Node9</title>
<g id="a_node2"><a xlink:href="a00864.html" target="_top" xlink:title="Descriptions of the SDK&#39;s example plug&#45;ins.">
<polygon fill="white" stroke="black" points="397.5,-252.5 303.5,-252.5 303.5,-233.5 397.5,-233.5 397.5,-252.5"/>
<text text-anchor="middle" x="350.5" y="-240.5" font-family="Helvetica,sans-Serif" font-size="10.00">Example Plug&#45;Ins</text>
</a>
</g>
</g>
<!-- Node6 -->
<g id="node3" class="node">
<title>Node6</title>
<g id="a_node3"><a xlink:href="a00861.html" target="_top" xlink:title="Supported features in each AAX host.">
<polygon fill="white" stroke="black" points="387.5,-215.5 313.5,-215.5 313.5,-196.5 387.5,-196.5 387.5,-215.5"/>
<text text-anchor="middle" x="350.5" y="-203.5" font-family="Helvetica,sans-Serif" font-size="10.00">Host Support</text>
</a>
</g>
</g>
<!-- Node7 -->
<g id="node4" class="node">
<title>Node7</title>
<g id="a_node4"><a xlink:href="a00862.html" target="_top" xlink:title="A list of known bugs affecting AAX plug&#45;ins.">
<polygon fill="white" stroke="black" points="390,-178.5 311,-178.5 311,-159.5 390,-159.5 390,-178.5"/>
<text text-anchor="middle" x="350.5" y="-166.5" font-family="Helvetica,sans-Serif" font-size="10.00">Known Issues</text>
</a>
</g>
</g>
<!-- Node5 -->
<g id="node5" class="node">
<title>Node5</title>
<g id="a_node5"><a xlink:href="a00860.html" target="_top" xlink:title="Full list of AAX interfaces.">
<polygon fill="white" stroke="black" points="392,-141.5 309,-141.5 309,-122.5 392,-122.5 392,-141.5"/>
<text text-anchor="middle" x="350.5" y="-129.5" font-family="Helvetica,sans-Serif" font-size="10.00">AAX Interfaces</text>
</a>
</g>
</g>
<!-- Node1&#45;&gt;Node9 -->
<g id="edge8" class="edge">
<title>Node1&#45;&gt;Node9</title>
<path fill="none" stroke="black" d="M210.19,-149.31C228,-170.02 260.44,-204.45 295,-225 300.57,-228.31 306.82,-231.1 313.05,-233.42"/>
<polygon fill="black" stroke="black" points="212.81,-147 203.69,-141.61 207.46,-151.51 212.81,-147"/>
</g>
<!-- Node1&#45;&gt;Node6 -->
<g id="edge5" class="edge">
<title>Node1&#45;&gt;Node6</title>
<path fill="none" stroke="black" d="M219.53,-147.05C239.18,-159.19 268.19,-176.13 295,-188 302.02,-191.11 309.74,-193.97 317.12,-196.46"/>
<polygon fill="black" stroke="black" points="221.29,-144.02 210.95,-141.69 217.58,-149.96 221.29,-144.02"/>
</g>
<!-- Node1&#45;&gt;Node7 -->
<g id="edge6" class="edge">
<title>Node1&#45;&gt;Node7</title>
<path fill="none" stroke="black" d="M245.34,-143.89C266.57,-149.01 291.03,-154.91 310.9,-159.7"/>
<polygon fill="black" stroke="black" points="246.07,-140.47 235.53,-141.53 244.43,-147.27 246.07,-140.47"/>
</g>
<!-- Node1&#45;&gt;Node5 -->
<g id="edge4" class="edge">
<title>Node1&#45;&gt;Node5</title>
<path fill="none" stroke="black" d="M269.57,-132C283.04,-132 296.63,-132 308.7,-132"/>
<polygon fill="black" stroke="black" points="269.32,-128.5 259.32,-132 269.32,-135.5 269.32,-128.5"/>
</g>
<!-- Node8 -->
<g id="node7" class="node">
<title>Node8</title>
<g id="a_node7"><a xlink:href="a00863.html" target="_top" xlink:title="Changes between AAX SDK versions.">
<polygon fill="white" stroke="black" points="385,-104.5 316,-104.5 316,-85.5 385,-85.5 385,-104.5"/>
<text text-anchor="middle" x="350.5" y="-92.5" font-family="Helvetica,sans-Serif" font-size="10.00">Change Log</text>
</a>
</g>
</g>
<!-- Node1&#45;&gt;Node8 -->
<g id="edge7" class="edge">
<title>Node1&#45;&gt;Node8</title>
<path fill="none" stroke="black" d="M245.46,-120.08C268.45,-114.54 295.21,-108.09 315.83,-103.12"/>
<polygon fill="black" stroke="black" points="244.43,-116.73 235.53,-122.47 246.07,-123.53 244.43,-116.73"/>
</g>
<!-- Node3 -->
<g id="node8" class="node">
<title>Node3</title>
<g id="a_node8"><a xlink:href="a00858.html" target="_top" xlink:title="How to solve common issues.">
<polygon fill="white" stroke="black" points="393.5,-67.5 307.5,-67.5 307.5,-48.5 393.5,-48.5 393.5,-67.5"/>
<text text-anchor="middle" x="350.5" y="-55.5" font-family="Helvetica,sans-Serif" font-size="10.00">Troubleshooting</text>
</a>
</g>
</g>
<!-- Node1&#45;&gt;Node3 -->
<g id="edge2" class="edge">
<title>Node1&#45;&gt;Node3</title>
<path fill="none" stroke="black" d="M219.97,-117.16C239.65,-105.34 268.51,-88.87 295,-77 302.68,-73.56 311.19,-70.33 319.15,-67.54"/>
<polygon fill="black" stroke="black" points="218.08,-114.2 211.35,-122.38 221.71,-120.19 218.08,-114.2"/>
</g>
<!-- Node4 -->
<g id="node9" class="node">
<title>Node4</title>
<g id="a_node9"><a xlink:href="a00859.html" target="_top" xlink:title="Details about packaging and distributing your AAX plug&#45;ins.">
<polygon fill="white" stroke="black" points="406,-30 295,-30 295,0 406,0 406,-30"/>
<text text-anchor="start" x="303" y="-18" font-family="Helvetica,sans-Serif" font-size="10.00">Distributing Your AAX</text>
<text text-anchor="middle" x="350.5" y="-7" font-family="Helvetica,sans-Serif" font-size="10.00"> Plug&#45;In</text>
</a>
</g>
</g>
<!-- Node1&#45;&gt;Node4 -->
<g id="edge3" class="edge">
<title>Node1&#45;&gt;Node4</title>
<path fill="none" stroke="black" d="M211.19,-114.89C229.55,-94.98 262.09,-62.01 295,-40 300.37,-36.41 306.33,-33.1 312.28,-30.13"/>
<polygon fill="black" stroke="black" points="208.58,-112.56 204.45,-122.32 213.76,-117.27 208.58,-112.56"/>
</g>
</g>
</svg>
