<?xml version="1.0" encoding="UTF-8" standalone="no"?>
<!DOCTYPE svg PUBLIC "-//W3C//DTD SVG 1.1//EN"
 "http://www.w3.org/Graphics/SVG/1.1/DTD/svg11.dtd">
<!-- Generated by graphviz version 6.0.1 (20220911.1526)
 -->
<!-- Title: Parameter Manager Pages: 1 -->
<svg width="384pt" height="64pt"
 viewBox="0.00 0.00 384.00 64.00" xmlns="http://www.w3.org/2000/svg" xmlns:xlink="http://www.w3.org/1999/xlink">
<g id="graph0" class="graph" transform="scale(1 1) rotate(0) translate(4 60)">
<title>Parameter Manager</title>
<polygon fill="white" stroke="none" points="-4,4 -4,-60 380,-60 380,4 -4,4"/>
<!-- Node1 -->
<g id="node1" class="node">
<title>Node1</title>
<g id="a_node1"><a xlink:title="Optional (but recommended) system for managing AAX plug&#45;in parameters.">
<polygon fill="#bfbfbf" stroke="black" points="245,-37 143,-37 143,-18 245,-18 245,-37"/>
<text text-anchor="middle" x="194" y="-25" font-family="Helvetica,sans-Serif" font-size="10.00">Parameter Manager</text>
</a>
</g>
</g>
<!-- Node4 -->
<g id="node2" class="node">
<title>Node4</title>
<g id="a_node2"><a xlink:href="a00831.html" target="_top" xlink:title="Classes for parameter value string conversion.">
<polygon fill="white" stroke="black" points="376,-56 281,-56 281,-37 376,-37 376,-56"/>
<text text-anchor="middle" x="328.5" y="-44" font-family="Helvetica,sans-Serif" font-size="10.00">Display delegates</text>
</a>
</g>
</g>
<!-- Node1&#45;&gt;Node4 -->
<g id="edge3" class="edge">
<title>Node1&#45;&gt;Node4</title>
<path fill="none" stroke="black" d="M255.12,-36.12C263.75,-37.36 272.52,-38.62 280.83,-39.81"/>
<polygon fill="black" stroke="black" points="255.49,-32.64 245.09,-34.68 254.49,-39.57 255.49,-32.64"/>
</g>
<!-- Node3 -->
<g id="node3" class="node">
<title>Node3</title>
<g id="a_node3"><a xlink:href="a00830.html" target="_top" xlink:title="Classes for conversion to and from normalized parameter values.">
<polygon fill="white" stroke="black" points="371.5,-19 285.5,-19 285.5,0 371.5,0 371.5,-19"/>
<text text-anchor="middle" x="328.5" y="-7" font-family="Helvetica,sans-Serif" font-size="10.00">Taper delegates</text>
</a>
</g>
</g>
<!-- Node1&#45;&gt;Node3 -->
<g id="edge2" class="edge">
<title>Node1&#45;&gt;Node3</title>
<path fill="none" stroke="black" d="M255.12,-19.33C265.25,-17.96 275.57,-16.55 285.13,-15.26"/>
<polygon fill="black" stroke="black" points="254.53,-15.88 245.09,-20.69 255.47,-22.82 254.53,-15.88"/>
</g>
<!-- Node2 -->
<g id="node4" class="node">
<title>Node2</title>
<g id="a_node4"><a xlink:href="a00828.html" target="_top" xlink:title="AAX Library core support for the AAX interface">
<polygon fill="white" stroke="black" points="107,-37 0,-37 0,-18 107,-18 107,-37"/>
<text text-anchor="middle" x="53.5" y="-25" font-family="Helvetica,sans-Serif" font-size="10.00">AAX Library features</text>
</a>
</g>
</g>
<!-- Node2&#45;&gt;Node1 -->
<g id="edge1" class="edge">
<title>Node2&#45;&gt;Node1</title>
<path fill="none" stroke="black" d="M117.46,-27.5C125.91,-27.5 134.48,-27.5 142.67,-27.5"/>
<polygon fill="black" stroke="black" points="117.26,-24 107.26,-27.5 117.26,-31 117.26,-24"/>
</g>
</g>
</svg>
