<?xml version="1.0" encoding="UTF-8" standalone="no"?>
<!DOCTYPE svg PUBLIC "-//W3C//DTD SVG 1.1//EN"
 "http://www.w3.org/Graphics/SVG/1.1/DTD/svg11.dtd">
<!-- Generated by graphviz version 6.0.1 (20220911.1526)
 -->
<!-- Title: AAX::IsClick Pages: 1 -->
<svg width="244pt" height="66pt"
 viewBox="0.00 0.00 244.00 66.00" xmlns="http://www.w3.org/2000/svg" xmlns:xlink="http://www.w3.org/1999/xlink">
<g id="graph0" class="graph" transform="scale(1 1) rotate(0) translate(4 62)">
<title>AAX::IsClick</title>
<polygon fill="white" stroke="none" points="-4,4 -4,-62 240,-62 240,4 -4,4"/>
<!-- Node1 -->
<g id="node1" class="node">
<title>Node1</title>
<g id="a_node1"><a xlink:title="Returns true if inPacket is a special Pro Tools click message.">
<polygon fill="#bfbfbf" stroke="black" points="0,-19.5 0,-38.5 74,-38.5 74,-19.5 0,-19.5"/>
<text text-anchor="middle" x="37" y="-26.5" font-family="Helvetica,sans-Serif" font-size="10.00">AAX::IsClick</text>
</a>
</g>
</g>
<!-- Node2 -->
<g id="node2" class="node">
<title>Node2</title>
<g id="a_node2"><a xlink:href="a00868.html#afd05400c946e625772428cad4be7d552" target="_top" xlink:title="Returns true if inPacket is a special Pro Tools accented click message.">
<polygon fill="white" stroke="black" points="115.5,-38.5 115.5,-57.5 230.5,-57.5 230.5,-38.5 115.5,-38.5"/>
<text text-anchor="middle" x="173" y="-45.5" font-family="Helvetica,sans-Serif" font-size="10.00">AAX::IsAccentedClick</text>
</a>
</g>
</g>
<!-- Node1&#45;&gt;Node2 -->
<g id="edge1" class="edge">
<title>Node1&#45;&gt;Node2</title>
<path fill="none" stroke="midnightblue" d="M74.26,-34.14C83.84,-35.5 94.48,-37.01 105.12,-38.52"/>
<polygon fill="midnightblue" stroke="midnightblue" points="104.89,-42.02 115.28,-39.96 105.87,-35.09 104.89,-42.02"/>
</g>
<!-- Node3 -->
<g id="node3" class="node">
<title>Node3</title>
<g id="a_node3"><a xlink:href="a00868.html#a4f915a56cb150638f036cb7ed33facd8" target="_top" xlink:title="Returns true if inPacket is a special Pro Tools unaccented click message.">
<polygon fill="white" stroke="black" points="110,-0.5 110,-19.5 236,-19.5 236,-0.5 110,-0.5"/>
<text text-anchor="middle" x="173" y="-7.5" font-family="Helvetica,sans-Serif" font-size="10.00">AAX::IsUnaccentedClick</text>
</a>
</g>
</g>
<!-- Node1&#45;&gt;Node3 -->
<g id="edge2" class="edge">
<title>Node1&#45;&gt;Node3</title>
<path fill="none" stroke="midnightblue" d="M74.26,-23.86C82.26,-22.72 91,-21.48 99.86,-20.23"/>
<polygon fill="midnightblue" stroke="midnightblue" points="100.48,-23.68 109.89,-18.81 99.5,-16.75 100.48,-23.68"/>
</g>
</g>
</svg>
