<?xml version="1.0" encoding="UTF-8" standalone="no"?>
<!DOCTYPE svg PUBLIC "-//W3C//DTD SVG 1.1//EN"
 "http://www.w3.org/Graphics/SVG/1.1/DTD/svg11.dtd">
<!-- Generated by graphviz version 6.0.1 (20220911.1526)
 -->
<!-- Title: AAX::PageTablesAreEqual Pages: 1 -->
<svg width="487pt" height="88pt"
 viewBox="0.00 0.00 487.00 88.00" xmlns="http://www.w3.org/2000/svg" xmlns:xlink="http://www.w3.org/1999/xlink">
<g id="graph0" class="graph" transform="scale(1 1) rotate(0) translate(4 84)">
<title>AAX::PageTablesAreEqual</title>
<polygon fill="white" stroke="none" points="-4,4 -4,-84 483,-84 483,4 -4,4"/>
<!-- Node1 -->
<g id="node1" class="node">
<title>Node1</title>
<g id="a_node1"><a xlink:title=" ">
<polygon fill="#bfbfbf" stroke="black" points="0,-30 0,-49 134,-49 134,-30 0,-30"/>
<text text-anchor="middle" x="67" y="-37" font-family="Helvetica,sans-Serif" font-size="10.00">AAX::PageTablesAreEqual</text>
</a>
</g>
</g>
<!-- Node2 -->
<g id="node2" class="node">
<title>Node2</title>
<g id="a_node2"><a xlink:href="a00868.html#a6615318d686a57585ba69565f8e6a99b" target="_top" xlink:title=" ">
<polygon fill="white" stroke="black" points="170,-49.5 170,-79.5 346,-79.5 346,-49.5 170,-49.5"/>
<text text-anchor="start" x="178" y="-67.5" font-family="Helvetica,sans-Serif" font-size="10.00">AAX::PageTableParameterMappings</text>
<text text-anchor="middle" x="258" y="-56.5" font-family="Helvetica,sans-Serif" font-size="10.00">AreEqual</text>
</a>
</g>
</g>
<!-- Node1&#45;&gt;Node2 -->
<g id="edge1" class="edge">
<title>Node1&#45;&gt;Node2</title>
<path fill="none" stroke="midnightblue" d="M134.1,-48.24C142.37,-49.34 150.95,-50.47 159.56,-51.61"/>
<polygon fill="midnightblue" stroke="midnightblue" points="159.3,-55.11 169.67,-52.95 160.22,-48.17 159.3,-55.11"/>
</g>
<!-- Node3 -->
<g id="node3" class="node">
<title>Node3</title>
<g id="a_node3"><a xlink:href="a00868.html#a2e75756c486e5db4ffa91579bb486a6a" target="_top" xlink:title=" ">
<polygon fill="white" stroke="black" points="178,-0.5 178,-30.5 338,-30.5 338,-0.5 178,-0.5"/>
<text text-anchor="start" x="186" y="-18.5" font-family="Helvetica,sans-Serif" font-size="10.00">AAX::PageTableParameterName</text>
<text text-anchor="middle" x="258" y="-7.5" font-family="Helvetica,sans-Serif" font-size="10.00">VariationsAreEqual</text>
</a>
</g>
</g>
<!-- Node1&#45;&gt;Node3 -->
<g id="edge2" class="edge">
<title>Node1&#45;&gt;Node3</title>
<path fill="none" stroke="midnightblue" d="M134.1,-31.11C145.05,-29.72 156.56,-28.25 167.97,-26.81"/>
<polygon fill="midnightblue" stroke="midnightblue" points="168.47,-30.27 177.95,-25.54 167.59,-23.33 168.47,-30.27"/>
</g>
<!-- Node4 -->
<g id="node4" class="node">
<title>Node4</title>
<g id="a_node4"><a xlink:href="a01853.html#aa0371a2a15513a4d160d4a741c0a953e" target="_top" xlink:title=" ">
<polygon fill="white" stroke="black" points="382,-6 382,-25 479,-25 479,-6 382,-6"/>
<text text-anchor="middle" x="430.5" y="-13" font-family="Helvetica,sans-Serif" font-size="10.00">AAX_CString::Get</text>
</a>
</g>
</g>
<!-- Node3&#45;&gt;Node4 -->
<g id="edge3" class="edge">
<title>Node3&#45;&gt;Node4</title>
<path fill="none" stroke="midnightblue" d="M338.26,-15.5C349.46,-15.5 360.81,-15.5 371.51,-15.5"/>
<polygon fill="midnightblue" stroke="midnightblue" points="371.55,-19 381.55,-15.5 371.55,-12 371.55,-19"/>
</g>
</g>
</svg>
