<?xml version="1.0" encoding="UTF-8" standalone="no"?>
<!DOCTYPE svg PUBLIC "-//W3C//DTD SVG 1.1//EN"
 "http://www.w3.org/Graphics/SVG/1.1/DTD/svg11.dtd">
<!-- Generated by graphviz version 2.47.3 (20210619.1520)
 -->
<!-- Title: AAX::GetFastInt32RPDF Pages: 1 -->
<svg width="360pt" height="66pt"
 viewBox="0.00 0.00 360.00 66.00" xmlns="http://www.w3.org/2000/svg" xmlns:xlink="http://www.w3.org/1999/xlink">
<g id="graph0" class="graph" transform="scale(1 1) rotate(0) translate(4 62)">
<title>AAX::GetFastInt32RPDF</title>
<polygon fill="white" stroke="transparent" points="-4,4 -4,-62 356,-62 356,4 -4,4"/>
<!-- Node1 -->
<g id="node1" class="node">
<title>Node1</title>
<g id="a_node1"><a xlink:title="CALL: Calculate pseudo&#45;random 32 bit number based on linear congruential method.">
<polygon fill="#bfbfbf" stroke="black" points="224,-19.5 224,-38.5 352,-38.5 352,-19.5 224,-19.5"/>
<text text-anchor="middle" x="288" y="-26.5" font-family="Helvetica,sans-Serif" font-size="10.00">AAX::GetFastInt32RPDF</text>
</a>
</g>
</g>
<!-- Node2 -->
<g id="node2" class="node">
<title>Node2</title>
<g id="a_node2"><a xlink:href="a00868.html#a145cc6d06cd682e2d234d07ce939760e" target="_top" xlink:title=" ">
<polygon fill="white" stroke="black" points="0,-38.5 0,-57.5 188,-57.5 188,-38.5 0,-38.5"/>
<text text-anchor="middle" x="94" y="-45.5" font-family="Helvetica,sans-Serif" font-size="10.00">AAX::GetFastRPDFWithAmplitudeOne</text>
</a>
</g>
</g>
<!-- Node1&#45;&gt;Node2 -->
<g id="edge1" class="edge">
<title>Node1&#45;&gt;Node2</title>
<path fill="none" stroke="midnightblue" d="M213.75,-36.25C205.35,-37.08 196.7,-37.94 188.07,-38.79"/>
<polygon fill="midnightblue" stroke="midnightblue" points="214.26,-39.72 223.87,-35.25 213.57,-32.75 214.26,-39.72"/>
</g>
<!-- Node3 -->
<g id="node3" class="node">
<title>Node3</title>
<g id="a_node3"><a xlink:href="a00868.html#a42cc414ea1b868e26c591041a66ad8af" target="_top" xlink:title=" ">
<polygon fill="white" stroke="black" points="10.5,-0.5 10.5,-19.5 177.5,-19.5 177.5,-0.5 10.5,-0.5"/>
<text text-anchor="middle" x="94" y="-7.5" font-family="Helvetica,sans-Serif" font-size="10.00">AAX::GetTPDFWithAmplitudeOne</text>
</a>
</g>
</g>
<!-- Node1&#45;&gt;Node3 -->
<g id="edge2" class="edge">
<title>Node1&#45;&gt;Node3</title>
<path fill="none" stroke="midnightblue" d="M213.67,-21.74C201.92,-20.58 189.67,-19.37 177.71,-18.19"/>
<polygon fill="midnightblue" stroke="midnightblue" points="213.57,-25.25 223.87,-22.75 214.26,-18.28 213.57,-25.25"/>
</g>
</g>
</svg>
