<?xml version="1.0" encoding="UTF-8" standalone="no"?>
<!DOCTYPE svg PUBLIC "-//W3C//DTD SVG 1.1//EN"
 "http://www.w3.org/Graphics/SVG/1.1/DTD/svg11.dtd">
<!-- Generated by graphviz version 2.47.3 (20210619.1520)
 -->
<!-- Title: Parameter updates Pages: 1 -->
<svg width="394pt" height="198pt"
 viewBox="0.00 0.00 394.00 198.00" xmlns="http://www.w3.org/2000/svg" xmlns:xlink="http://www.w3.org/1999/xlink">
<g id="graph0" class="graph" transform="scale(1 1) rotate(0) translate(4 194)">
<title>Parameter updates</title>
<polygon fill="white" stroke="transparent" points="-4,4 -4,-194 390,-194 390,4 -4,4"/>
<!-- Node5 -->
<g id="node1" class="node">
<title>Node5</title>
<g id="a_node1"><a xlink:href="a00839.html" target="_top" xlink:title="Sequence diagrams for some common parameter update scenarios.">
<polygon fill="white" stroke="black" points="384,-190 264,-190 264,-160 384,-160 384,-190"/>
<text text-anchor="start" x="272" y="-178" font-family="Helvetica,sans-Serif" font-size="10.00">Basic parameter update</text>
<text text-anchor="middle" x="324" y="-167" font-family="Helvetica,sans-Serif" font-size="10.00"> sequences</text>
</a>
</g>
</g>
<!-- Node1 -->
<g id="node2" class="node">
<title>Node1</title>
<g id="a_node2"><a xlink:title="The anatomy of a parameter update.">
<polygon fill="#bfbfbf" stroke="black" points="226,-104.5 127,-104.5 127,-85.5 226,-85.5 226,-104.5"/>
<text text-anchor="middle" x="176.5" y="-92.5" font-family="Helvetica,sans-Serif" font-size="10.00">Parameter updates</text>
</a>
</g>
</g>
<!-- Node1&#45;&gt;Node5 -->
<g id="edge4" class="edge">
<title>Node1&#45;&gt;Node5</title>
<path fill="none" stroke="black" d="M198.57,-110.78C215.22,-122.79 239.35,-139.2 262,-151 268.06,-154.15 274.62,-157.15 281.13,-159.88"/>
<polygon fill="black" stroke="black" points="200.29,-107.69 190.15,-104.62 196.16,-113.34 200.29,-107.69"/>
</g>
<!-- Node3 -->
<g id="node3" class="node">
<title>Node3</title>
<g id="a_node3"><a xlink:href="a00837.html" target="_top" xlink:title="Details about parameter timing and how to keep parameter updates in sync.">
<polygon fill="white" stroke="black" points="385.5,-141.5 262.5,-141.5 262.5,-122.5 385.5,-122.5 385.5,-141.5"/>
<text text-anchor="middle" x="324" y="-129.5" font-family="Helvetica,sans-Serif" font-size="10.00">Parameter update timing</text>
</a>
</g>
</g>
<!-- Node1&#45;&gt;Node3 -->
<g id="edge2" class="edge">
<title>Node1&#45;&gt;Node3</title>
<path fill="none" stroke="black" d="M224.66,-106.99C244.34,-112 266.87,-117.73 285.4,-122.44"/>
<polygon fill="black" stroke="black" points="225.52,-103.6 214.97,-104.53 223.8,-110.39 225.52,-103.6"/>
</g>
<!-- Node6 -->
<g id="node4" class="node">
<title>Node6</title>
<g id="a_node4"><a xlink:href="a00840.html" target="_top" xlink:title="How to link parameters.">
<polygon fill="white" stroke="black" points="372.5,-104.5 275.5,-104.5 275.5,-85.5 372.5,-85.5 372.5,-104.5"/>
<text text-anchor="middle" x="324" y="-92.5" font-family="Helvetica,sans-Serif" font-size="10.00">Linked parameters</text>
</a>
</g>
</g>
<!-- Node1&#45;&gt;Node6 -->
<g id="edge5" class="edge">
<title>Node1&#45;&gt;Node6</title>
<path fill="none" stroke="black" d="M236.47,-95C249.28,-95 262.69,-95 275.02,-95"/>
<polygon fill="black" stroke="black" points="236.35,-91.5 226.35,-95 236.35,-98.5 236.35,-91.5"/>
</g>
<!-- Node4 -->
<g id="node6" class="node">
<title>Node4</title>
<g id="a_node6"><a xlink:href="a00838.html" target="_top" xlink:title="Communicating parameter state with the host.">
<polygon fill="white" stroke="black" points="364,-67.5 284,-67.5 284,-48.5 364,-48.5 364,-67.5"/>
<text text-anchor="middle" x="324" y="-55.5" font-family="Helvetica,sans-Serif" font-size="10.00">Token protocol</text>
</a>
</g>
</g>
<!-- Node1&#45;&gt;Node4 -->
<g id="edge3" class="edge">
<title>Node1&#45;&gt;Node4</title>
<path fill="none" stroke="black" d="M224.66,-83.01C244.34,-78 266.87,-72.27 285.4,-67.56"/>
<polygon fill="black" stroke="black" points="223.8,-79.61 214.97,-85.47 225.52,-86.4 223.8,-79.61"/>
</g>
<!-- Node7 -->
<g id="node7" class="node">
<title>Node7</title>
<g id="a_node7"><a xlink:href="a00841.html" target="_top" xlink:title="Sequence diagrams for some common linked parameter update scenarios.">
<polygon fill="white" stroke="black" points="386,-30 262,-30 262,0 386,0 386,-30"/>
<text text-anchor="start" x="270" y="-18" font-family="Helvetica,sans-Serif" font-size="10.00">Linked parameter update</text>
<text text-anchor="middle" x="324" y="-7" font-family="Helvetica,sans-Serif" font-size="10.00"> sequences</text>
</a>
</g>
</g>
<!-- Node1&#45;&gt;Node7 -->
<g id="edge6" class="edge">
<title>Node1&#45;&gt;Node7</title>
<path fill="none" stroke="black" d="M198.57,-79.22C215.22,-67.21 239.35,-50.8 262,-39 268.06,-35.85 274.62,-32.85 281.13,-30.12"/>
<polygon fill="black" stroke="black" points="196.16,-76.66 190.15,-85.38 200.29,-82.31 196.16,-76.66"/>
</g>
<!-- Node2 -->
<g id="node5" class="node">
<title>Node2</title>
<g id="a_node5"><a xlink:href="a00833.html" target="_top" xlink:title="Additional information about the AAX design.">
<polygon fill="white" stroke="black" points="91,-104.5 0,-104.5 0,-85.5 91,-85.5 91,-104.5"/>
<text text-anchor="middle" x="45.5" y="-92.5" font-family="Helvetica,sans-Serif" font-size="10.00">Additional Topics</text>
</a>
</g>
</g>
<!-- Node2&#45;&gt;Node1 -->
<g id="edge1" class="edge">
<title>Node2&#45;&gt;Node1</title>
<path fill="none" stroke="black" d="M101.42,-95C109.87,-95 118.55,-95 126.86,-95"/>
<polygon fill="black" stroke="black" points="101.26,-91.5 91.26,-95 101.26,-98.5 101.26,-91.5"/>
</g>
</g>
</svg>
