<?xml version="1.0" encoding="UTF-8" standalone="no"?>
<!DOCTYPE svg PUBLIC "-//W3C//DTD SVG 1.1//EN"
 "http://www.w3.org/Graphics/SVG/1.1/DTD/svg11.dtd">
<!-- Generated by graphviz version 2.47.3 (20210619.1520)
 -->
<!-- Title: AAX::FastRound2Int32 Pages: 1 -->
<svg width="505pt" height="134pt"
 viewBox="0.00 0.00 505.00 133.50" xmlns="http://www.w3.org/2000/svg" xmlns:xlink="http://www.w3.org/1999/xlink">
<g id="graph0" class="graph" transform="scale(1 1) rotate(0) translate(4 129.5)">
<title>AAX::FastRound2Int32</title>
<polygon fill="white" stroke="transparent" points="-4,4 -4,-129.5 501,-129.5 501,4 -4,4"/>
<!-- Node1 -->
<g id="node1" class="node">
<title>Node1</title>
<g id="a_node1"><a xlink:title="Round to Int32.">
<polygon fill="#bfbfbf" stroke="black" points="379,-68 379,-87 497,-87 497,-68 379,-68"/>
<text text-anchor="middle" x="438" y="-75" font-family="Helvetica,sans-Serif" font-size="10.00">AAX::FastRound2Int32</text>
</a>
</g>
</g>
<!-- Node2 -->
<g id="node2" class="node">
<title>Node2</title>
<g id="a_node2"><a xlink:href="a00868.html#ae690c060a5ff4cb96e77335231a29673" target="_top" xlink:title=" ">
<polygon fill="white" stroke="black" points="221,-106 221,-125 343,-125 343,-106 221,-106"/>
<text text-anchor="middle" x="282" y="-113" font-family="Helvetica,sans-Serif" font-size="10.00">AAX::FastRndDbl2Int32</text>
</a>
</g>
</g>
<!-- Node1&#45;&gt;Node2 -->
<g id="edge1" class="edge">
<title>Node1&#45;&gt;Node2</title>
<path fill="none" stroke="midnightblue" d="M388.21,-89.54C366.69,-94.85 341.77,-101 321.58,-105.98"/>
<polygon fill="midnightblue" stroke="midnightblue" points="389.27,-92.88 398.14,-87.09 387.59,-86.09 389.27,-92.88"/>
</g>
<!-- Node3 -->
<g id="node3" class="node">
<title>Node3</title>
<g id="a_node3"><a xlink:href="a00868.html#a56cd923aeae2bd544f1fb43fff6b0b3d" target="_top" xlink:title="Round to Int32.">
<polygon fill="white" stroke="black" points="223,-68 223,-87 341,-87 341,-68 223,-68"/>
<text text-anchor="middle" x="282" y="-75" font-family="Helvetica,sans-Serif" font-size="10.00">AAX::FastRound2Int32</text>
</a>
</g>
</g>
<!-- Node1&#45;&gt;Node3 -->
<g id="edge2" class="edge">
<title>Node1&#45;&gt;Node3</title>
<path fill="none" stroke="midnightblue" d="M368.52,-77.5C359.35,-77.5 350.02,-77.5 341.05,-77.5"/>
<polygon fill="midnightblue" stroke="midnightblue" points="368.78,-81 378.78,-77.5 368.78,-74 368.78,-81"/>
</g>
<!-- Node4 -->
<g id="node4" class="node">
<title>Node4</title>
<g id="a_node4"><a xlink:href="a00868.html#ad2b2872b49146cf0859c403fea702a39" target="_top" xlink:title="Float to Int conversion with truncation.">
<polygon fill="white" stroke="black" points="225,-30 225,-49 339,-49 339,-30 225,-30"/>
<text text-anchor="middle" x="282" y="-37" font-family="Helvetica,sans-Serif" font-size="10.00">AAX::FastTrunc2Int32</text>
</a>
</g>
</g>
<!-- Node1&#45;&gt;Node4 -->
<g id="edge3" class="edge">
<title>Node1&#45;&gt;Node4</title>
<path fill="none" stroke="midnightblue" d="M388.21,-65.46C366.69,-60.15 341.77,-54 321.58,-49.02"/>
<polygon fill="midnightblue" stroke="midnightblue" points="387.59,-68.91 398.14,-67.91 389.27,-62.12 387.59,-68.91"/>
</g>
<!-- Node5 -->
<g id="node5" class="node">
<title>Node5</title>
<g id="a_node5"><a xlink:href="a02269.html#aaad992e09c837d96ad715092fbefd91d" target="_top" xlink:title="Perform an extra fast table lookup :)">
<polygon fill="white" stroke="black" points="10.5,-49.5 10.5,-79.5 174.5,-79.5 174.5,-49.5 10.5,-49.5"/>
<text text-anchor="start" x="18.5" y="-67.5" font-family="Helvetica,sans-Serif" font-size="10.00">AAX_FastInterpolatedTable</text>
<text text-anchor="middle" x="92.5" y="-56.5" font-family="Helvetica,sans-Serif" font-size="10.00">Lookup::DoTableLookupExtraFast</text>
</a>
</g>
</g>
<!-- Node4&#45;&gt;Node5 -->
<g id="edge4" class="edge">
<title>Node4&#45;&gt;Node5</title>
<path fill="none" stroke="midnightblue" d="M214.75,-48.33C201.74,-50.07 187.95,-51.91 174.52,-53.7"/>
<polygon fill="midnightblue" stroke="midnightblue" points="215.55,-51.76 225,-46.97 214.62,-44.82 215.55,-51.76"/>
</g>
<!-- Node6 -->
<g id="node6" class="node">
<title>Node6</title>
<g id="a_node6"><a xlink:href="a02269.html#a60e89d13066ca0606c8f71cf5313f0e3" target="_top" xlink:title=" ">
<polygon fill="white" stroke="black" points="0,-0.5 0,-30.5 185,-30.5 185,-0.5 0,-0.5"/>
<text text-anchor="start" x="8" y="-18.5" font-family="Helvetica,sans-Serif" font-size="10.00">AAX_FastInterpolatedTable</text>
<text text-anchor="middle" x="92.5" y="-7.5" font-family="Helvetica,sans-Serif" font-size="10.00">Lookup::DoTableLookupExtraFastMulti</text>
</a>
</g>
</g>
<!-- Node4&#45;&gt;Node6 -->
<g id="edge5" class="edge">
<title>Node4&#45;&gt;Node6</title>
<path fill="none" stroke="midnightblue" d="M214.82,-31.03C205.26,-29.81 195.29,-28.53 185.34,-27.26"/>
<polygon fill="midnightblue" stroke="midnightblue" points="214.63,-34.53 225,-32.33 215.52,-27.59 214.63,-34.53"/>
</g>
</g>
</svg>
