<?xml version="1.0" encoding="UTF-8" standalone="no"?>
<!DOCTYPE svg PUBLIC "-//W3C//DTD SVG 1.1//EN"
 "http://www.w3.org/Graphics/SVG/1.1/DTD/svg11.dtd">
<!-- Generated by graphviz version 2.47.3 (20210619.1520)
 -->
<!-- Title: Display delegates Pages: 1 -->
<svg width="415pt" height="27pt"
 viewBox="0.00 0.00 415.00 27.00" xmlns="http://www.w3.org/2000/svg" xmlns:xlink="http://www.w3.org/1999/xlink">
<g id="graph0" class="graph" transform="scale(1 1) rotate(0) translate(4 23)">
<title>Display delegates</title>
<polygon fill="white" stroke="transparent" points="-4,4 -4,-23 411,-23 411,4 -4,4"/>
<!-- Node2 -->
<g id="node1" class="node">
<title>Node2</title>
<g id="a_node1"><a xlink:href="a00829.html" target="_top" xlink:title="Optional (but recommended) system for managing AAX plug&#45;in parameters.">
<polygon fill="white" stroke="black" points="102,-19 0,-19 0,0 102,0 102,-19"/>
<text text-anchor="middle" x="51" y="-7" font-family="Helvetica,sans-Serif" font-size="10.00">Parameter Manager</text>
</a>
</g>
</g>
<!-- Node1 -->
<g id="node3" class="node">
<title>Node1</title>
<g id="a_node3"><a xlink:title="Classes for parameter value string conversion.">
<polygon fill="#bfbfbf" stroke="black" points="233,-19 138,-19 138,0 233,0 233,-19"/>
<text text-anchor="middle" x="185.5" y="-7" font-family="Helvetica,sans-Serif" font-size="10.00">Display delegates</text>
</a>
</g>
</g>
<!-- Node2&#45;&gt;Node1 -->
<g id="edge1" class="edge">
<title>Node2&#45;&gt;Node1</title>
<path fill="none" stroke="black" d="M112.12,-9.5C120.75,-9.5 129.52,-9.5 137.83,-9.5"/>
<polygon fill="black" stroke="black" points="112.09,-6 102.09,-9.5 112.09,-13 112.09,-6"/>
</g>
<!-- Node3 -->
<g id="node2" class="node">
<title>Node3</title>
<g id="a_node2"><a xlink:href="a00832.html" target="_top" xlink:title="Classes for adapting parameter value strings.">
<polygon fill="white" stroke="black" points="407,-19 269,-19 269,0 407,0 407,-19"/>
<text text-anchor="middle" x="338" y="-7" font-family="Helvetica,sans-Serif" font-size="10.00">Display delegate decorators</text>
</a>
</g>
</g>
<!-- Node1&#45;&gt;Node3 -->
<g id="edge2" class="edge">
<title>Node1&#45;&gt;Node3</title>
<path fill="none" stroke="black" d="M243.32,-9.5C251.69,-9.5 260.39,-9.5 268.97,-9.5"/>
<polygon fill="black" stroke="black" points="243.29,-6 233.29,-9.5 243.29,-13 243.29,-6"/>
</g>
</g>
</svg>
