<?xml version="1.0" encoding="UTF-8" standalone="no"?>
<!DOCTYPE svg PUBLIC "-//W3C//DTD SVG 1.1//EN"
 "http://www.w3.org/Graphics/SVG/1.1/DTD/svg11.dtd">
<!-- Generated by graphviz version 2.47.3 (20210619.1520)
 -->
<!-- Title: AAX::fabs Pages: 1 -->
<svg width="487pt" height="94pt"
 viewBox="0.00 0.00 487.00 93.50" xmlns="http://www.w3.org/2000/svg" xmlns:xlink="http://www.w3.org/1999/xlink">
<g id="graph0" class="graph" transform="scale(1 1) rotate(0) translate(4 89.5)">
<title>AAX::fabs</title>
<polygon fill="white" stroke="transparent" points="-4,4 -4,-89.5 483,-89.5 483,4 -4,4"/>
<!-- Node1 -->
<g id="node1" class="node">
<title>Node1</title>
<g id="a_node1"><a xlink:title=" ">
<polygon fill="#bfbfbf" stroke="black" points="417,-47 417,-66 479,-66 479,-47 417,-47"/>
<text text-anchor="middle" x="448" y="-54" font-family="Helvetica,sans-Serif" font-size="10.00">AAX::fabs</text>
</a>
</g>
</g>
<!-- Node2 -->
<g id="node2" class="node">
<title>Node2</title>
<g id="a_node2"><a xlink:href="a00868.html#aa4cbb7d8707ad89fc5ba5169ebb75201" target="_top" xlink:title=" ">
<polygon fill="white" stroke="black" points="302,-66 302,-85 381,-85 381,-66 302,-66"/>
<text text-anchor="middle" x="341.5" y="-73" font-family="Helvetica,sans-Serif" font-size="10.00">AAX::AbsMax</text>
</a>
</g>
</g>
<!-- Node1&#45;&gt;Node2 -->
<g id="edge1" class="edge">
<title>Node1&#45;&gt;Node2</title>
<path fill="none" stroke="midnightblue" d="M406.81,-63.81C398.42,-65.33 389.58,-66.94 381.24,-68.46"/>
<polygon fill="midnightblue" stroke="midnightblue" points="407.56,-67.23 416.77,-62 406.31,-60.34 407.56,-67.23"/>
</g>
<!-- Node3 -->
<g id="node3" class="node">
<title>Node3</title>
<g id="a_node3"><a xlink:href="a00868.html#aa4fa4d0765a764b020102cdbff8b45b0" target="_top" xlink:title=" ">
<polygon fill="white" stroke="black" points="310.5,-28 310.5,-47 372.5,-47 372.5,-28 310.5,-28"/>
<text text-anchor="middle" x="341.5" y="-35" font-family="Helvetica,sans-Serif" font-size="10.00">AAX::fabs</text>
</a>
</g>
</g>
<!-- Node1&#45;&gt;Node3 -->
<g id="edge2" class="edge">
<title>Node1&#45;&gt;Node3</title>
<path fill="none" stroke="midnightblue" d="M406.67,-49.17C395.36,-47.11 383.27,-44.91 372.66,-42.98"/>
<polygon fill="midnightblue" stroke="midnightblue" points="406.31,-52.66 416.77,-51 407.56,-45.77 406.31,-52.66"/>
</g>
<!-- Node4 -->
<g id="node4" class="node">
<title>Node4</title>
<g id="a_node4"><a xlink:href="a00868.html#a7fc4d4cd59850b8b875d085467ff5850" target="_top" xlink:title=" ">
<polygon fill="white" stroke="black" points="201,-28 201,-47 266,-47 266,-28 201,-28"/>
<text text-anchor="middle" x="233.5" y="-35" font-family="Helvetica,sans-Serif" font-size="10.00">AAX::fabsf</text>
</a>
</g>
</g>
<!-- Node3&#45;&gt;Node4 -->
<g id="edge3" class="edge">
<title>Node3&#45;&gt;Node4</title>
<path fill="none" stroke="midnightblue" d="M300.32,-37.5C289.01,-37.5 276.88,-37.5 266.15,-37.5"/>
<polygon fill="midnightblue" stroke="midnightblue" points="300.41,-41 310.41,-37.5 300.41,-34 300.41,-41"/>
</g>
<!-- Node5 -->
<g id="node5" class="node">
<title>Node5</title>
<g id="a_node5"><a xlink:href="a00868.html#a73dd9a17abecc28625c4d34279e4534f" target="_top" xlink:title="Round all denormal/subnormal samples in a buffer to zero.">
<polygon fill="white" stroke="black" points="26.5,-50 26.5,-69 138.5,-69 138.5,-50 26.5,-50"/>
<text text-anchor="middle" x="82.5" y="-57" font-family="Helvetica,sans-Serif" font-size="10.00">AAX::FilterDenormals</text>
</a>
</g>
</g>
<!-- Node4&#45;&gt;Node5 -->
<g id="edge4" class="edge">
<title>Node4&#45;&gt;Node5</title>
<path fill="none" stroke="midnightblue" d="M190.68,-43.67C174.51,-46.06 155.77,-48.83 138.53,-51.37"/>
<polygon fill="midnightblue" stroke="midnightblue" points="191.52,-47.09 200.9,-42.17 190.5,-40.16 191.52,-47.09"/>
</g>
<!-- Node6 -->
<g id="node6" class="node">
<title>Node6</title>
<g id="a_node6"><a xlink:href="a01869.html#a74d63ddd342455674e9b1b00dc0f76e2" target="_top" xlink:title="Converts a real parameter value to a string representation.">
<polygon fill="white" stroke="black" points="0,-0.5 0,-30.5 165,-30.5 165,-0.5 0,-0.5"/>
<text text-anchor="start" x="8" y="-18.5" font-family="Helvetica,sans-Serif" font-size="10.00">AAX_CUnitPrefixDisplayDelegate</text>
<text text-anchor="middle" x="82.5" y="-7.5" font-family="Helvetica,sans-Serif" font-size="10.00">Decorator::ValueToString</text>
</a>
</g>
</g>
<!-- Node4&#45;&gt;Node6 -->
<g id="edge5" class="edge">
<title>Node4&#45;&gt;Node6</title>
<path fill="none" stroke="midnightblue" d="M190.96,-31.37C182.8,-30.16 173.98,-28.86 165.02,-27.54"/>
<polygon fill="midnightblue" stroke="midnightblue" points="190.5,-34.84 200.9,-32.83 191.52,-27.91 190.5,-34.84"/>
</g>
</g>
</svg>
