<?xml version="1.0" encoding="UTF-8" standalone="no"?>
<!DOCTYPE svg PUBLIC "-//W3C//DTD SVG 1.1//EN"
 "http://www.w3.org/Graphics/SVG/1.1/DTD/svg11.dtd">
<!-- Generated by graphviz version 2.47.3 (20210619.1520)
 -->
<!-- Title: AAX::AsStringPropertyValue Pages: 1 -->
<svg width="420pt" height="104pt"
 viewBox="0.00 0.00 420.00 104.00" xmlns="http://www.w3.org/2000/svg" xmlns:xlink="http://www.w3.org/1999/xlink">
<g id="graph0" class="graph" transform="scale(1 1) rotate(0) translate(4 100)">
<title>AAX::AsStringPropertyValue</title>
<polygon fill="white" stroke="transparent" points="-4,4 -4,-100 416,-100 416,4 -4,4"/>
<!-- Node1 -->
<g id="node1" class="node">
<title>Node1</title>
<g id="a_node1"><a xlink:title=" ">
<polygon fill="#bfbfbf" stroke="black" points="0,-38.5 0,-57.5 141,-57.5 141,-38.5 0,-38.5"/>
<text text-anchor="middle" x="70.5" y="-45.5" font-family="Helvetica,sans-Serif" font-size="10.00">AAX::AsStringPropertyValue</text>
</a>
</g>
</g>
<!-- Node2 -->
<g id="node2" class="node">
<title>Node2</title>
<g id="a_node2"><a xlink:href="a00868.html#a22eda3cc42cb4ea2192b00bab7a69b02" target="_top" xlink:title=" ">
<polygon fill="white" stroke="black" points="177,-76.5 177,-95.5 298,-95.5 298,-76.5 177,-76.5"/>
<text text-anchor="middle" x="237.5" y="-83.5" font-family="Helvetica,sans-Serif" font-size="10.00">AAX::AsStringFourChar</text>
</a>
</g>
</g>
<!-- Node1&#45;&gt;Node2 -->
<g id="edge1" class="edge">
<title>Node1&#45;&gt;Node2</title>
<path fill="none" stroke="midnightblue" d="M113.14,-57.59C135.01,-62.63 162.01,-68.84 185.16,-74.18"/>
<polygon fill="midnightblue" stroke="midnightblue" points="184.63,-77.65 195.16,-76.48 186.2,-70.82 184.63,-77.65"/>
</g>
<!-- Node4 -->
<g id="node4" class="node">
<title>Node4</title>
<g id="a_node4"><a xlink:href="a00868.html#a690ffc499da04ea963fff3bf8d6174fb" target="_top" xlink:title=" ">
<polygon fill="white" stroke="black" points="187,-38.5 187,-57.5 288,-57.5 288,-38.5 187,-38.5"/>
<text text-anchor="middle" x="237.5" y="-45.5" font-family="Helvetica,sans-Serif" font-size="10.00">AAX::Binary2String</text>
</a>
</g>
</g>
<!-- Node1&#45;&gt;Node4 -->
<g id="edge3" class="edge">
<title>Node1&#45;&gt;Node4</title>
<path fill="none" stroke="midnightblue" d="M141.47,-48C153.18,-48 165.22,-48 176.64,-48"/>
<polygon fill="midnightblue" stroke="midnightblue" points="176.92,-51.5 186.92,-48 176.92,-44.5 176.92,-51.5"/>
</g>
<!-- Node5 -->
<g id="node5" class="node">
<title>Node5</title>
<g id="a_node5"><a xlink:href="a00868.html#a00fbf59b268ca75214b2dad68be8ff77" target="_top" xlink:title=" ">
<polygon fill="white" stroke="black" points="178,-0.5 178,-19.5 297,-19.5 297,-0.5 178,-0.5"/>
<text text-anchor="middle" x="237.5" y="-7.5" font-family="Helvetica,sans-Serif" font-size="10.00">AAX::IsFourCharASCII</text>
</a>
</g>
</g>
<!-- Node1&#45;&gt;Node5 -->
<g id="edge4" class="edge">
<title>Node1&#45;&gt;Node5</title>
<path fill="none" stroke="midnightblue" d="M113.14,-38.41C135.01,-33.37 162.01,-27.16 185.16,-21.82"/>
<polygon fill="midnightblue" stroke="midnightblue" points="186.2,-25.18 195.16,-19.52 184.63,-18.35 186.2,-25.18"/>
</g>
<!-- Node3 -->
<g id="node3" class="node">
<title>Node3</title>
<g id="a_node3"><a xlink:href="a00868.html#aa8ebc6a8ee1232c4ffec828bff3c2998" target="_top" xlink:title=" ">
<polygon fill="white" stroke="black" points="334,-38.5 334,-57.5 412,-57.5 412,-38.5 334,-38.5"/>
<text text-anchor="middle" x="373" y="-45.5" font-family="Helvetica,sans-Serif" font-size="10.00">AAX::IsASCII</text>
</a>
</g>
</g>
<!-- Node2&#45;&gt;Node3 -->
<g id="edge2" class="edge">
<title>Node2&#45;&gt;Node3</title>
<path fill="none" stroke="midnightblue" d="M272.19,-76.41C289.26,-71.55 310.2,-65.59 328.48,-60.39"/>
<polygon fill="midnightblue" stroke="midnightblue" points="329.66,-63.69 338.32,-57.59 327.75,-56.96 329.66,-63.69"/>
</g>
<!-- Node5&#45;&gt;Node3 -->
<g id="edge5" class="edge">
<title>Node5&#45;&gt;Node3</title>
<path fill="none" stroke="midnightblue" d="M272.19,-19.59C289.26,-24.45 310.2,-30.41 328.48,-35.61"/>
<polygon fill="midnightblue" stroke="midnightblue" points="327.75,-39.04 338.32,-38.41 329.66,-32.31 327.75,-39.04"/>
</g>
</g>
</svg>
