<?xml version="1.0" encoding="UTF-8" standalone="no"?>
<!DOCTYPE svg PUBLIC "-//W3C//DTD SVG 1.1//EN"
 "http://www.w3.org/Graphics/SVG/1.1/DTD/svg11.dtd">
<!-- Generated by graphviz version 6.0.1 (20220911.1526)
 -->
<!-- Title: AAX::SafeLog Pages: 1 -->
<svg width="251pt" height="88pt"
 viewBox="0.00 0.00 251.00 88.00" xmlns="http://www.w3.org/2000/svg" xmlns:xlink="http://www.w3.org/1999/xlink">
<g id="graph0" class="graph" transform="scale(1 1) rotate(0) translate(4 84)">
<title>AAX::SafeLog</title>
<polygon fill="white" stroke="none" points="-4,4 -4,-84 247,-84 247,4 -4,4"/>
<!-- Node1 -->
<g id="node1" class="node">
<title>Node1</title>
<g id="a_node1"><a xlink:title="Double&#45;precision safe log function. Returns zero for input values that are &lt;= 0.0.">
<polygon fill="#bfbfbf" stroke="black" points="164,-30 164,-49 243,-49 243,-30 164,-30"/>
<text text-anchor="middle" x="203.5" y="-37" font-family="Helvetica,sans-Serif" font-size="10.00">AAX::SafeLog</text>
</a>
</g>
</g>
<!-- Node2 -->
<g id="node2" class="node">
<title>Node2</title>
<g id="a_node2"><a xlink:href="a01777.html#a363e09fe8517d4a5ecb151483f011752" target="_top" xlink:title="Converts a normalized value to a real value.">
<polygon fill="white" stroke="black" points="0,-49.5 0,-79.5 128,-79.5 128,-49.5 0,-49.5"/>
<text text-anchor="start" x="8" y="-67.5" font-family="Helvetica,sans-Serif" font-size="10.00">AAX_CLogTaperDelegate</text>
<text text-anchor="middle" x="64" y="-56.5" font-family="Helvetica,sans-Serif" font-size="10.00">::NormalizedToReal</text>
</a>
</g>
</g>
<!-- Node1&#45;&gt;Node2 -->
<g id="edge1" class="edge">
<title>Node1&#45;&gt;Node2</title>
<path fill="none" stroke="midnightblue" d="M153.9,-48.34C145.55,-49.86 136.76,-51.45 128.09,-53.03"/>
<polygon fill="midnightblue" stroke="midnightblue" points="154.62,-51.76 163.83,-46.53 153.37,-44.88 154.62,-51.76"/>
</g>
<!-- Node3 -->
<g id="node3" class="node">
<title>Node3</title>
<g id="a_node3"><a xlink:href="a01777.html#abcc5e51eebe04ff347de512a103880de" target="_top" xlink:title="Normalizes a real parameter value.">
<polygon fill="white" stroke="black" points="0,-0.5 0,-30.5 128,-30.5 128,-0.5 0,-0.5"/>
<text text-anchor="start" x="8" y="-18.5" font-family="Helvetica,sans-Serif" font-size="10.00">AAX_CLogTaperDelegate</text>
<text text-anchor="middle" x="64" y="-7.5" font-family="Helvetica,sans-Serif" font-size="10.00">::RealToNormalized</text>
</a>
</g>
</g>
<!-- Node1&#45;&gt;Node3 -->
<g id="edge2" class="edge">
<title>Node1&#45;&gt;Node3</title>
<path fill="none" stroke="midnightblue" d="M153.9,-31.02C145.55,-29.56 136.76,-28.03 128.09,-26.51"/>
<polygon fill="midnightblue" stroke="midnightblue" points="153.38,-34.48 163.83,-32.75 154.58,-27.58 153.38,-34.48"/>
</g>
</g>
</svg>
