<?xml version="1.0" encoding="UTF-8" standalone="no"?>
<!DOCTYPE svg PUBLIC "-//W3C//DTD SVG 1.1//EN"
 "http://www.w3.org/Graphics/SVG/1.1/DTD/svg11.dtd">
<!-- Generated by graphviz version 2.47.3 (20210619.1520)
 -->
<!-- Title: AAX::FastTrunc2Int32 Pages: 1 -->
<svg width="343pt" height="88pt"
 viewBox="0.00 0.00 343.00 88.00" xmlns="http://www.w3.org/2000/svg" xmlns:xlink="http://www.w3.org/1999/xlink">
<g id="graph0" class="graph" transform="scale(1 1) rotate(0) translate(4 84)">
<title>AAX::FastTrunc2Int32</title>
<polygon fill="white" stroke="transparent" points="-4,4 -4,-84 339,-84 339,4 -4,4"/>
<!-- Node1 -->
<g id="node1" class="node">
<title>Node1</title>
<g id="a_node1"><a xlink:title="Float to Int conversion with truncation.">
<polygon fill="#bfbfbf" stroke="black" points="221,-30 221,-49 335,-49 335,-30 221,-30"/>
<text text-anchor="middle" x="278" y="-37" font-family="Helvetica,sans-Serif" font-size="10.00">AAX::FastTrunc2Int32</text>
</a>
</g>
</g>
<!-- Node2 -->
<g id="node2" class="node">
<title>Node2</title>
<g id="a_node2"><a xlink:href="a02269.html#aaad992e09c837d96ad715092fbefd91d" target="_top" xlink:title="Perform an extra fast table lookup :)">
<polygon fill="white" stroke="black" points="10.5,-49.5 10.5,-79.5 174.5,-79.5 174.5,-49.5 10.5,-49.5"/>
<text text-anchor="start" x="18.5" y="-67.5" font-family="Helvetica,sans-Serif" font-size="10.00">AAX_FastInterpolatedTable</text>
<text text-anchor="middle" x="92.5" y="-56.5" font-family="Helvetica,sans-Serif" font-size="10.00">Lookup::DoTableLookupExtraFast</text>
</a>
</g>
</g>
<!-- Node1&#45;&gt;Node2 -->
<g id="edge1" class="edge">
<title>Node1&#45;&gt;Node2</title>
<path fill="none" stroke="midnightblue" d="M210.79,-48.52C199.03,-50.12 186.66,-51.81 174.54,-53.46"/>
<polygon fill="midnightblue" stroke="midnightblue" points="211.51,-51.95 220.95,-47.14 210.57,-45.02 211.51,-51.95"/>
</g>
<!-- Node3 -->
<g id="node3" class="node">
<title>Node3</title>
<g id="a_node3"><a xlink:href="a02269.html#a60e89d13066ca0606c8f71cf5313f0e3" target="_top" xlink:title=" ">
<polygon fill="white" stroke="black" points="0,-0.5 0,-30.5 185,-30.5 185,-0.5 0,-0.5"/>
<text text-anchor="start" x="8" y="-18.5" font-family="Helvetica,sans-Serif" font-size="10.00">AAX_FastInterpolatedTable</text>
<text text-anchor="middle" x="92.5" y="-7.5" font-family="Helvetica,sans-Serif" font-size="10.00">Lookup::DoTableLookupExtraFastMulti</text>
</a>
</g>
</g>
<!-- Node1&#45;&gt;Node3 -->
<g id="edge2" class="edge">
<title>Node1&#45;&gt;Node3</title>
<path fill="none" stroke="midnightblue" d="M210.88,-30.85C202.48,-29.75 193.77,-28.61 185.07,-27.48"/>
<polygon fill="midnightblue" stroke="midnightblue" points="210.58,-34.34 220.95,-32.17 211.49,-27.4 210.58,-34.34"/>
</g>
</g>
</svg>
