<?xml version="1.0" encoding="UTF-8" standalone="no"?>
<!DOCTYPE svg PUBLIC "-//W3C//DTD SVG 1.1//EN"
 "http://www.w3.org/Graphics/SVG/1.1/DTD/svg11.dtd">
<!-- Generated by graphviz version 2.47.3 (20210619.1520)
 -->
<!-- Title: Extensions Pages: 1 -->
<svg width="338pt" height="113pt"
 viewBox="0.00 0.00 338.00 113.00" xmlns="http://www.w3.org/2000/svg" xmlns:xlink="http://www.w3.org/1999/xlink">
<g id="graph0" class="graph" transform="scale(1 1) rotate(0) translate(4 109)">
<title>Extensions</title>
<polygon fill="white" stroke="transparent" points="-4,4 -4,-109 334,-109 334,4 -4,4"/>
<!-- Node2 -->
<g id="node1" class="node">
<title>Node2</title>
<g id="a_node1"><a xlink:href="a00808.html" target="_top" xlink:title=" ">
<polygon fill="white" stroke="black" points="95,-62 0,-62 0,-43 95,-43 95,-62"/>
<text text-anchor="middle" x="47.5" y="-50" font-family="Helvetica,sans-Serif" font-size="10.00">AAX SDK Manual</text>
</a>
</g>
</g>
<!-- Node1 -->
<g id="node4" class="node">
<title>Node1</title>
<g id="a_node4"><a xlink:title="Extensions to the AAX SDK.">
<polygon fill="#bfbfbf" stroke="black" points="196,-62 131,-62 131,-43 196,-43 196,-62"/>
<text text-anchor="middle" x="163.5" y="-50" font-family="Helvetica,sans-Serif" font-size="10.00">Extensions</text>
</a>
</g>
</g>
<!-- Node2&#45;&gt;Node1 -->
<g id="edge1" class="edge">
<title>Node2&#45;&gt;Node1</title>
<path fill="none" stroke="black" d="M105.36,-52.5C114.06,-52.5 122.77,-52.5 130.67,-52.5"/>
<polygon fill="black" stroke="black" points="105.2,-49 95.2,-52.5 105.2,-56 105.2,-49"/>
</g>
<!-- Node3 -->
<g id="node2" class="node">
<title>Node3</title>
<g id="a_node2"><a xlink:href="a00854.html" target="_top" xlink:title="GUI Extensions for the AAX SDK.">
<polygon fill="white" stroke="black" points="324,-105 238,-105 238,-86 324,-86 324,-105"/>
<text text-anchor="middle" x="281" y="-93" font-family="Helvetica,sans-Serif" font-size="10.00">GUI Extensions</text>
</a>
</g>
</g>
<!-- Node4 -->
<g id="node3" class="node">
<title>Node4</title>
<g id="a_node3"><a xlink:href="a00855.html" target="_top" xlink:title="Extension of the AAX_CEffectParameters class for monolithic VIs and effects.">
<polygon fill="white" stroke="black" points="330,-67.5 232,-67.5 232,-37.5 330,-37.5 330,-67.5"/>
<text text-anchor="start" x="240" y="-55.5" font-family="Helvetica,sans-Serif" font-size="10.00">Monolithic VIs and</text>
<text text-anchor="middle" x="281" y="-44.5" font-family="Helvetica,sans-Serif" font-size="10.00"> Effects</text>
</a>
</g>
</g>
<!-- Node1&#45;&gt;Node3 -->
<g id="edge2" class="edge">
<title>Node1&#45;&gt;Node3</title>
<path fill="none" stroke="black" d="M199.56,-65.55C217.24,-72.14 238.3,-79.98 254.44,-85.98"/>
<polygon fill="black" stroke="black" points="200.73,-62.25 190.13,-62.04 198.28,-68.81 200.73,-62.25"/>
</g>
<!-- Node1&#45;&gt;Node4 -->
<g id="edge3" class="edge">
<title>Node1&#45;&gt;Node4</title>
<path fill="none" stroke="black" d="M206.18,-52.5C214.42,-52.5 223.13,-52.5 231.56,-52.5"/>
<polygon fill="black" stroke="black" points="206.06,-49 196.06,-52.5 206.06,-56 206.06,-49"/>
</g>
<!-- Node5 -->
<g id="node5" class="node">
<title>Node5</title>
<g id="a_node5"><a xlink:href="a00856.html" target="_top" xlink:title=" ">
<polygon fill="white" stroke="black" points="327,-19 235,-19 235,0 327,0 327,-19"/>
<text text-anchor="middle" x="281" y="-7" font-family="Helvetica,sans-Serif" font-size="10.00">Other Extensions</text>
</a>
</g>
</g>
<!-- Node1&#45;&gt;Node5 -->
<g id="edge4" class="edge">
<title>Node1&#45;&gt;Node5</title>
<path fill="none" stroke="black" d="M199.56,-39.45C217.24,-32.86 238.3,-25.02 254.44,-19.02"/>
<polygon fill="black" stroke="black" points="198.28,-36.19 190.13,-42.96 200.73,-42.75 198.28,-36.19"/>
</g>
</g>
</svg>
