<?xml version="1.0" encoding="UTF-8" standalone="no"?>
<!DOCTYPE svg PUBLIC "-//W3C//DTD SVG 1.1//EN"
 "http://www.w3.org/Graphics/SVG/1.1/DTD/svg11.dtd">
<!-- Generated by graphviz version 6.0.1 (20220911.1526)
 -->
<!-- Title: IACFUnknown Pages: 1 -->
<svg width="1256pt" height="712pt"
 viewBox="0.00 0.00 1256.00 712.00" xmlns="http://www.w3.org/2000/svg" xmlns:xlink="http://www.w3.org/1999/xlink">
<g id="graph0" class="graph" transform="scale(1 1) rotate(0) translate(4 708)">
<title>IACFUnknown</title>
<polygon fill="white" stroke="none" points="-4,4 -4,-708 1252,-708 1252,4 -4,4"/>
<!-- Node1 -->
<g id="node1" class="node">
<title>Node1</title>
<g id="a_node1"><a xlink:title="COM compatible IUnknown C++ interface.">
<polygon fill="#bfbfbf" stroke="black" points="0,-342.5 0,-361.5 81,-361.5 81,-342.5 0,-342.5"/>
<text text-anchor="middle" x="40.5" y="-349.5" font-family="Helvetica,sans-Serif" font-size="10.00">IACFUnknown</text>
</a>
</g>
</g>
<!-- Node2 -->
<g id="node2" class="node">
<title>Node2</title>
<g id="a_node2"><a xlink:href="a01897.html" target="_top" xlink:title="Versioned interface allowing an AAX plug&#45;in to interact with the host&#39;s automation system.">
<polygon fill="white" stroke="black" points="125,-684.5 125,-703.5 279,-703.5 279,-684.5 125,-684.5"/>
<text text-anchor="middle" x="202" y="-691.5" font-family="Helvetica,sans-Serif" font-size="10.00">AAX_IACFAutomationDelegate</text>
</a>
</g>
</g>
<!-- Node1&#45;&gt;Node2 -->
<g id="edge1" class="edge">
<title>Node1&#45;&gt;Node2</title>
<path fill="none" stroke="midnightblue" d="M43.43,-371.99C49.96,-435.6 73.33,-631.65 117,-675 120.82,-678.79 125.23,-681.89 129.98,-684.42"/>
<polygon fill="midnightblue" stroke="midnightblue" points="46.88,-371.33 42.4,-361.72 39.91,-372.02 46.88,-371.33"/>
</g>
<!-- Node3 -->
<g id="node3" class="node">
<title>Node3</title>
<g id="a_node3"><a xlink:href="a01905.html" target="_top" xlink:title="Versioned description interface for an AAX plug&#45;in algorithm callback.">
<polygon fill="white" stroke="black" points="121.5,-646.5 121.5,-665.5 282.5,-665.5 282.5,-646.5 121.5,-646.5"/>
<text text-anchor="middle" x="202" y="-653.5" font-family="Helvetica,sans-Serif" font-size="10.00">AAX_IACFComponentDescriptor</text>
</a>
</g>
</g>
<!-- Node1&#45;&gt;Node3 -->
<g id="edge2" class="edge">
<title>Node1&#45;&gt;Node3</title>
<path fill="none" stroke="midnightblue" d="M44.08,-371.9C52.06,-430.31 78.14,-599.53 117,-637 120.87,-640.74 125.32,-643.8 130.1,-646.3"/>
<polygon fill="midnightblue" stroke="midnightblue" points="47.52,-371.22 42.73,-361.77 40.58,-372.14 47.52,-371.22"/>
</g>
<!-- Node6 -->
<g id="node6" class="node">
<title>Node6</title>
<g id="a_node6"><a xlink:href="a01917.html" target="_top" xlink:title="Interface for the AAX host&#39;s view of a single instance of an effect. Used by both clients of the AAXH...">
<polygon fill="white" stroke="black" points="148.5,-608.5 148.5,-627.5 255.5,-627.5 255.5,-608.5 148.5,-608.5"/>
<text text-anchor="middle" x="202" y="-615.5" font-family="Helvetica,sans-Serif" font-size="10.00">AAX_IACFController</text>
</a>
</g>
</g>
<!-- Node1&#45;&gt;Node6 -->
<g id="edge5" class="edge">
<title>Node1&#45;&gt;Node6</title>
<path fill="none" stroke="midnightblue" d="M41.29,-371.56C41.92,-418.3 50.36,-537.13 117,-599 125.66,-607.04 136.97,-611.92 148.48,-614.84"/>
<polygon fill="midnightblue" stroke="midnightblue" points="44.79,-371.54 41.27,-361.55 37.79,-371.56 44.79,-371.54"/>
</g>
<!-- Node9 -->
<g id="node9" class="node">
<title>Node9</title>
<g id="a_node9"><a xlink:href="a01929.html" target="_top" xlink:title=" ">
<polygon fill="white" stroke="black" points="134,-570.5 134,-589.5 270,-589.5 270,-570.5 134,-570.5"/>
<text text-anchor="middle" x="202" y="-577.5" font-family="Helvetica,sans-Serif" font-size="10.00">AAX_IACFDescriptionHost</text>
</a>
</g>
</g>
<!-- Node1&#45;&gt;Node9 -->
<g id="edge8" class="edge">
<title>Node1&#45;&gt;Node9</title>
<path fill="none" stroke="midnightblue" d="M42.58,-371.89C45.97,-413.62 59.9,-510.59 117,-561 121.93,-565.35 127.65,-568.77 133.74,-571.45"/>
<polygon fill="midnightblue" stroke="midnightblue" points="46.06,-371.41 41.88,-361.67 39.07,-371.89 46.06,-371.41"/>
</g>
<!-- Node10 -->
<g id="node10" class="node">
<title>Node10</title>
<g id="a_node10"><a xlink:href="a01933.html" target="_top" xlink:title="Versioned interface for an AAX_IEffectDescriptor.">
<polygon fill="white" stroke="black" points="133.5,-532.5 133.5,-551.5 270.5,-551.5 270.5,-532.5 133.5,-532.5"/>
<text text-anchor="middle" x="202" y="-539.5" font-family="Helvetica,sans-Serif" font-size="10.00">AAX_IACFEffectDescriptor</text>
</a>
</g>
</g>
<!-- Node1&#45;&gt;Node10 -->
<g id="edge9" class="edge">
<title>Node1&#45;&gt;Node10</title>
<path fill="none" stroke="midnightblue" d="M44.35,-371.69C50.61,-407.57 69.07,-483.54 117,-523 121.85,-526.99 127.37,-530.18 133.2,-532.73"/>
<polygon fill="midnightblue" stroke="midnightblue" points="47.76,-370.86 42.72,-361.54 40.85,-371.97 47.76,-370.86"/>
</g>
<!-- Node12 -->
<g id="node12" class="node">
<title>Node12</title>
<g id="a_node12"><a xlink:href="a01941.html" target="_top" xlink:title="Optional interface for direct access to a plug&#45;in&#39;s alg memory.">
<polygon fill="white" stroke="black" points="132.5,-494.5 132.5,-513.5 271.5,-513.5 271.5,-494.5 132.5,-494.5"/>
<text text-anchor="middle" x="202" y="-501.5" font-family="Helvetica,sans-Serif" font-size="10.00">AAX_IACFEffectDirectData</text>
</a>
</g>
</g>
<!-- Node1&#45;&gt;Node12 -->
<g id="edge11" class="edge">
<title>Node1&#45;&gt;Node12</title>
<path fill="none" stroke="midnightblue" d="M46.95,-371.37C56.25,-400.73 78.05,-456.1 117,-485 122.16,-488.83 127.96,-491.91 134.04,-494.39"/>
<polygon fill="midnightblue" stroke="midnightblue" points="50.22,-370.08 43.99,-361.51 43.51,-372.09 50.22,-370.08"/>
</g>
<!-- Node16 -->
<g id="node16" class="node">
<title>Node16</title>
<g id="a_node16"><a xlink:href="a01949.html" target="_top" xlink:title="The interface for a AAX Plug&#45;in&#39;s GUI (graphical user interface).">
<polygon fill="white" stroke="black" points="147,-456.5 147,-475.5 257,-475.5 257,-456.5 147,-456.5"/>
<text text-anchor="middle" x="202" y="-463.5" font-family="Helvetica,sans-Serif" font-size="10.00">AAX_IACFEffectGUI</text>
</a>
</g>
</g>
<!-- Node1&#45;&gt;Node16 -->
<g id="edge15" class="edge">
<title>Node1&#45;&gt;Node16</title>
<path fill="none" stroke="midnightblue" d="M51.08,-370.52C63.34,-392.32 86.68,-427.95 117,-447 125.99,-452.65 136.45,-456.62 146.88,-459.42"/>
<polygon fill="midnightblue" stroke="midnightblue" points="54.08,-368.71 46.24,-361.59 47.92,-372.05 54.08,-368.71"/>
</g>
<!-- Node19 -->
<g id="node19" class="node">
<title>Node19</title>
<g id="a_node19"><a xlink:href="a01953.html" target="_top" xlink:title="The interface for an AAX Plug&#45;in&#39;s data model.">
<polygon fill="white" stroke="black" points="131,-418.5 131,-437.5 273,-437.5 273,-418.5 131,-418.5"/>
<text text-anchor="middle" x="202" y="-425.5" font-family="Helvetica,sans-Serif" font-size="10.00">AAX_IACFEffectParameters</text>
</a>
</g>
</g>
<!-- Node1&#45;&gt;Node19 -->
<g id="edge18" class="edge">
<title>Node1&#45;&gt;Node19</title>
<path fill="none" stroke="midnightblue" d="M58.96,-368.64C73.42,-381.52 95.08,-398.83 117,-409 125.27,-412.84 134.37,-415.93 143.44,-418.41"/>
<polygon fill="midnightblue" stroke="midnightblue" points="61.07,-365.83 51.33,-361.65 56.34,-370.99 61.07,-365.83"/>
</g>
<!-- Node26 -->
<g id="node25" class="node">
<title>Node26</title>
<g id="a_node25"><a xlink:href="a01973.html" target="_top" xlink:title=" ">
<polygon fill="white" stroke="black" points="144.5,-380.5 144.5,-399.5 259.5,-399.5 259.5,-380.5 144.5,-380.5"/>
<text text-anchor="middle" x="202" y="-387.5" font-family="Helvetica,sans-Serif" font-size="10.00">AAX_IACFFeatureInfo</text>
</a>
</g>
</g>
<!-- Node1&#45;&gt;Node26 -->
<g id="edge24" class="edge">
<title>Node1&#45;&gt;Node26</title>
<path fill="none" stroke="midnightblue" d="M88.67,-364.06C98.05,-366.4 107.83,-368.81 117,-371 130.23,-374.16 144.67,-377.48 157.79,-380.44"/>
<polygon fill="midnightblue" stroke="midnightblue" points="89.26,-360.6 78.71,-361.55 87.55,-367.38 89.26,-360.6"/>
</g>
<!-- Node27 -->
<g id="node26" class="node">
<title>Node27</title>
<g id="a_node26"><a xlink:href="a01977.html" target="_top" xlink:title="Versioned interface for an AAX host processing component.">
<polygon fill="white" stroke="black" points="136.5,-342.5 136.5,-361.5 267.5,-361.5 267.5,-342.5 136.5,-342.5"/>
<text text-anchor="middle" x="202" y="-349.5" font-family="Helvetica,sans-Serif" font-size="10.00">AAX_IACFHostProcessor</text>
</a>
</g>
</g>
<!-- Node1&#45;&gt;Node27 -->
<g id="edge25" class="edge">
<title>Node1&#45;&gt;Node27</title>
<path fill="none" stroke="midnightblue" d="M91.39,-352C105.61,-352 121.3,-352 136.26,-352"/>
<polygon fill="midnightblue" stroke="midnightblue" points="91.34,-348.5 81.34,-352 91.34,-355.5 91.34,-348.5"/>
</g>
<!-- Node31 -->
<g id="node30" class="node">
<title>Node31</title>
<g id="a_node30"><a xlink:href="a01985.html" target="_top" xlink:title="Versioned interface for host methods specific to offline processing.">
<polygon fill="white" stroke="black" points="117,-304.5 117,-323.5 287,-323.5 287,-304.5 117,-304.5"/>
<text text-anchor="middle" x="202" y="-311.5" font-family="Helvetica,sans-Serif" font-size="10.00">AAX_IACFHostProcessorDelegate</text>
</a>
</g>
</g>
<!-- Node1&#45;&gt;Node31 -->
<g id="edge29" class="edge">
<title>Node1&#45;&gt;Node31</title>
<path fill="none" stroke="midnightblue" d="M88.67,-339.94C98.05,-337.6 107.83,-335.19 117,-333 130.23,-329.84 144.67,-326.52 157.79,-323.56"/>
<polygon fill="midnightblue" stroke="midnightblue" points="87.55,-336.62 78.71,-342.45 89.26,-343.4 87.55,-336.62"/>
</g>
<!-- Node34 -->
<g id="node33" class="node">
<title>Node34</title>
<g id="a_node33"><a xlink:href="a01997.html" target="_top" xlink:title="Versioned interface to diagnostic and debugging services provided by the AAX host.">
<polygon fill="white" stroke="black" points="139.5,-266.5 139.5,-285.5 264.5,-285.5 264.5,-266.5 139.5,-266.5"/>
<text text-anchor="middle" x="202" y="-273.5" font-family="Helvetica,sans-Serif" font-size="10.00">AAX_IACFHostServices</text>
</a>
</g>
</g>
<!-- Node1&#45;&gt;Node34 -->
<g id="edge32" class="edge">
<title>Node1&#45;&gt;Node34</title>
<path fill="none" stroke="midnightblue" d="M58.96,-335.36C73.42,-322.48 95.08,-305.17 117,-295 125.27,-291.16 134.37,-288.07 143.44,-285.59"/>
<polygon fill="midnightblue" stroke="midnightblue" points="56.34,-333.01 51.33,-342.35 61.07,-338.17 56.34,-333.01"/>
</g>
<!-- Node37 -->
<g id="node36" class="node">
<title>Node37</title>
<g id="a_node36"><a xlink:href="a02009.html" target="_top" xlink:title="Versioned interface to the host&#39;s representation of a plug&#45;in instance&#39;s page table.">
<polygon fill="white" stroke="black" points="146.5,-228.5 146.5,-247.5 257.5,-247.5 257.5,-228.5 146.5,-228.5"/>
<text text-anchor="middle" x="202" y="-235.5" font-family="Helvetica,sans-Serif" font-size="10.00">AAX_IACFPageTable</text>
</a>
</g>
</g>
<!-- Node1&#45;&gt;Node37 -->
<g id="edge35" class="edge">
<title>Node1&#45;&gt;Node37</title>
<path fill="none" stroke="midnightblue" d="M51.08,-333.48C63.34,-311.68 86.68,-276.05 117,-257 125.86,-251.43 136.16,-247.49 146.44,-244.7"/>
<polygon fill="midnightblue" stroke="midnightblue" points="47.92,-331.95 46.24,-342.41 54.08,-335.29 47.92,-331.95"/>
</g>
<!-- Node39 -->
<g id="node38" class="node">
<title>Node39</title>
<g id="a_node38"><a xlink:href="a02017.html" target="_top" xlink:title="Interface for host operations related to the page tables for this plug&#45;in.">
<polygon fill="white" stroke="black" points="125.5,-190.5 125.5,-209.5 278.5,-209.5 278.5,-190.5 125.5,-190.5"/>
<text text-anchor="middle" x="202" y="-197.5" font-family="Helvetica,sans-Serif" font-size="10.00">AAX_IACFPageTableController</text>
</a>
</g>
</g>
<!-- Node1&#45;&gt;Node39 -->
<g id="edge37" class="edge">
<title>Node1&#45;&gt;Node39</title>
<path fill="none" stroke="midnightblue" d="M46.95,-332.63C56.25,-303.27 78.05,-247.9 117,-219 122.16,-215.17 127.96,-212.09 134.04,-209.61"/>
<polygon fill="midnightblue" stroke="midnightblue" points="43.51,-331.91 43.99,-342.49 50.22,-333.92 43.51,-331.91"/>
</g>
<!-- Node41 -->
<g id="node40" class="node">
<title>Node41</title>
<g id="a_node40"><a xlink:href="a02025.html" target="_top" xlink:title="Interface for the AAX host&#39;s data access functionality.">
<polygon fill="white" stroke="black" points="127,-152.5 127,-171.5 277,-171.5 277,-152.5 127,-152.5"/>
<text text-anchor="middle" x="202" y="-159.5" font-family="Helvetica,sans-Serif" font-size="10.00">AAX_IACFPrivateDataAccess</text>
</a>
</g>
</g>
<!-- Node1&#45;&gt;Node41 -->
<g id="edge39" class="edge">
<title>Node1&#45;&gt;Node41</title>
<path fill="none" stroke="midnightblue" d="M44.35,-332.31C50.61,-296.43 69.07,-220.46 117,-181 121.62,-177.2 126.84,-174.12 132.37,-171.64"/>
<polygon fill="midnightblue" stroke="midnightblue" points="40.85,-332.03 42.72,-342.46 47.76,-333.14 40.85,-332.03"/>
</g>
<!-- Node42 -->
<g id="node41" class="node">
<title>Node42</title>
<g id="a_node41"><a xlink:href="a02029.html" target="_top" xlink:title="Versioned interface for an AAX_IPropertyMap.">
<polygon fill="white" stroke="black" points="141.5,-114.5 141.5,-133.5 262.5,-133.5 262.5,-114.5 141.5,-114.5"/>
<text text-anchor="middle" x="202" y="-121.5" font-family="Helvetica,sans-Serif" font-size="10.00">AAX_IACFPropertyMap</text>
</a>
</g>
</g>
<!-- Node1&#45;&gt;Node42 -->
<g id="edge40" class="edge">
<title>Node1&#45;&gt;Node42</title>
<path fill="none" stroke="midnightblue" d="M42.58,-332.11C45.97,-290.38 59.9,-193.41 117,-143 123.95,-136.86 132.46,-132.59 141.37,-129.63"/>
<polygon fill="midnightblue" stroke="midnightblue" points="39.07,-332.11 41.88,-342.33 46.06,-332.59 39.07,-332.11"/>
</g>
<!-- Node45 -->
<g id="node44" class="node">
<title>Node45</title>
<g id="a_node44"><a xlink:href="a02041.html" target="_top" xlink:title="Versioned interface to information about the host&#39;s transport state.">
<polygon fill="white" stroke="black" points="148.5,-76.5 148.5,-95.5 255.5,-95.5 255.5,-76.5 148.5,-76.5"/>
<text text-anchor="middle" x="202" y="-83.5" font-family="Helvetica,sans-Serif" font-size="10.00">AAX_IACFTransport</text>
</a>
</g>
</g>
<!-- Node1&#45;&gt;Node45 -->
<g id="edge43" class="edge">
<title>Node1&#45;&gt;Node45</title>
<path fill="none" stroke="midnightblue" d="M41.29,-332.44C41.92,-285.7 50.36,-166.87 117,-105 125.66,-96.96 136.97,-92.08 148.48,-89.16"/>
<polygon fill="midnightblue" stroke="midnightblue" points="37.79,-332.44 41.27,-342.45 44.79,-332.46 37.79,-332.44"/>
</g>
<!-- Node48 -->
<g id="node47" class="node">
<title>Node48</title>
<g id="a_node47"><a xlink:href="a02053.html" target="_top" xlink:title="Interface for the AAX host&#39;s view of a single instance of an effect. Used by both clients of the host...">
<polygon fill="white" stroke="black" points="137.5,-38.5 137.5,-57.5 266.5,-57.5 266.5,-38.5 137.5,-38.5"/>
<text text-anchor="middle" x="202" y="-45.5" font-family="Helvetica,sans-Serif" font-size="10.00">AAX_IACFViewContainer</text>
</a>
</g>
</g>
<!-- Node1&#45;&gt;Node48 -->
<g id="edge46" class="edge">
<title>Node1&#45;&gt;Node48</title>
<path fill="none" stroke="midnightblue" d="M44.08,-332.1C52.06,-273.69 78.14,-104.47 117,-67 122.81,-61.4 129.91,-57.31 137.49,-54.35"/>
<polygon fill="midnightblue" stroke="midnightblue" points="40.58,-331.86 42.73,-342.23 47.52,-332.78 40.58,-331.86"/>
</g>
<!-- Node50 -->
<g id="node49" class="node">
<title>Node50</title>
<g id="a_node49"><a xlink:href="a01693.html" target="_top" xlink:title="Publicly inherits from IACFUnknown.This abstract interface is used to indentify all of the plug&#45;in co...">
<polygon fill="white" stroke="black" points="161.5,-0.5 161.5,-19.5 242.5,-19.5 242.5,-0.5 161.5,-0.5"/>
<text text-anchor="middle" x="202" y="-7.5" font-family="Helvetica,sans-Serif" font-size="10.00">IACFDefinition</text>
</a>
</g>
</g>
<!-- Node1&#45;&gt;Node50 -->
<g id="edge48" class="edge">
<title>Node1&#45;&gt;Node50</title>
<path fill="none" stroke="midnightblue" d="M43.43,-332.01C49.96,-268.4 73.33,-72.35 117,-29 128.57,-17.52 145.51,-12.37 161.16,-10.24"/>
<polygon fill="midnightblue" stroke="midnightblue" points="39.91,-331.98 42.4,-342.28 46.88,-332.67 39.91,-331.98"/>
</g>
<!-- Node4 -->
<g id="node4" class="node">
<title>Node4</title>
<g id="a_node4"><a xlink:href="a01909.html" target="_top" xlink:title="Versioned description interface for an AAX plug&#45;in algorithm callback.">
<polygon fill="white" stroke="black" points="327.5,-646.5 327.5,-665.5 505.5,-665.5 505.5,-646.5 327.5,-646.5"/>
<text text-anchor="middle" x="416.5" y="-653.5" font-family="Helvetica,sans-Serif" font-size="10.00">AAX_IACFComponentDescriptor_V2</text>
</a>
</g>
</g>
<!-- Node3&#45;&gt;Node4 -->
<g id="edge3" class="edge">
<title>Node3&#45;&gt;Node4</title>
<path fill="none" stroke="midnightblue" d="M292.75,-656C304.25,-656 316.01,-656 327.48,-656"/>
<polygon fill="midnightblue" stroke="midnightblue" points="292.73,-652.5 282.73,-656 292.73,-659.5 292.73,-652.5"/>
</g>
<!-- Node5 -->
<g id="node5" class="node">
<title>Node5</title>
<g id="a_node5"><a xlink:href="a01913.html" target="_top" xlink:title="Versioned description interface for an AAX plug&#45;in algorithm callback.">
<polygon fill="white" stroke="black" points="550.5,-646.5 550.5,-665.5 728.5,-665.5 728.5,-646.5 550.5,-646.5"/>
<text text-anchor="middle" x="639.5" y="-653.5" font-family="Helvetica,sans-Serif" font-size="10.00">AAX_IACFComponentDescriptor_V3</text>
</a>
</g>
</g>
<!-- Node4&#45;&gt;Node5 -->
<g id="edge4" class="edge">
<title>Node4&#45;&gt;Node5</title>
<path fill="none" stroke="midnightblue" d="M515.84,-656C527.33,-656 539,-656 550.34,-656"/>
<polygon fill="midnightblue" stroke="midnightblue" points="515.8,-652.5 505.8,-656 515.8,-659.5 515.8,-652.5"/>
</g>
<!-- Node7 -->
<g id="node7" class="node">
<title>Node7</title>
<g id="a_node7"><a xlink:href="a01921.html" target="_top" xlink:title="Interface for the AAX host&#39;s view of a single instance of an effect. Used by both clients of the AAXH...">
<polygon fill="white" stroke="black" points="354,-608.5 354,-627.5 479,-627.5 479,-608.5 354,-608.5"/>
<text text-anchor="middle" x="416.5" y="-615.5" font-family="Helvetica,sans-Serif" font-size="10.00">AAX_IACFController_V2</text>
</a>
</g>
</g>
<!-- Node6&#45;&gt;Node7 -->
<g id="edge6" class="edge">
<title>Node6&#45;&gt;Node7</title>
<path fill="none" stroke="midnightblue" d="M265.54,-618C293.37,-618 326.04,-618 353.77,-618"/>
<polygon fill="midnightblue" stroke="midnightblue" points="265.53,-614.5 255.53,-618 265.53,-621.5 265.53,-614.5"/>
</g>
<!-- Node8 -->
<g id="node8" class="node">
<title>Node8</title>
<g id="a_node8"><a xlink:href="a01925.html" target="_top" xlink:title="Interface for the AAX host&#39;s view of a single instance of an effect. Used by both clients of the AAXH...">
<polygon fill="white" stroke="black" points="577,-608.5 577,-627.5 702,-627.5 702,-608.5 577,-608.5"/>
<text text-anchor="middle" x="639.5" y="-615.5" font-family="Helvetica,sans-Serif" font-size="10.00">AAX_IACFController_V3</text>
</a>
</g>
</g>
<!-- Node7&#45;&gt;Node8 -->
<g id="edge7" class="edge">
<title>Node7&#45;&gt;Node8</title>
<path fill="none" stroke="midnightblue" d="M489.28,-618C517.55,-618 549.69,-618 576.89,-618"/>
<polygon fill="midnightblue" stroke="midnightblue" points="489.06,-614.5 479.06,-618 489.06,-621.5 489.06,-614.5"/>
</g>
<!-- Node11 -->
<g id="node11" class="node">
<title>Node11</title>
<g id="a_node11"><a xlink:href="a01937.html" target="_top" xlink:title="Versioned interface for an AAX_IEffectDescriptor.">
<polygon fill="white" stroke="black" points="339.5,-532.5 339.5,-551.5 493.5,-551.5 493.5,-532.5 339.5,-532.5"/>
<text text-anchor="middle" x="416.5" y="-539.5" font-family="Helvetica,sans-Serif" font-size="10.00">AAX_IACFEffectDescriptor_V2</text>
</a>
</g>
</g>
<!-- Node10&#45;&gt;Node11 -->
<g id="edge10" class="edge">
<title>Node10&#45;&gt;Node11</title>
<path fill="none" stroke="midnightblue" d="M280.69,-542C299.8,-542 320.24,-542 339.28,-542"/>
<polygon fill="midnightblue" stroke="midnightblue" points="280.53,-538.5 270.53,-542 280.53,-545.5 280.53,-538.5"/>
</g>
<!-- Node13 -->
<g id="node13" class="node">
<title>Node13</title>
<g id="a_node13"><a xlink:href="a01945.html" target="_top" xlink:title=" ">
<polygon fill="white" stroke="black" points="338.5,-494.5 338.5,-513.5 494.5,-513.5 494.5,-494.5 338.5,-494.5"/>
<text text-anchor="middle" x="416.5" y="-501.5" font-family="Helvetica,sans-Serif" font-size="10.00">AAX_IACFEffectDirectData_V2</text>
</a>
</g>
</g>
<!-- Node12&#45;&gt;Node13 -->
<g id="edge12" class="edge">
<title>Node12&#45;&gt;Node13</title>
<path fill="none" stroke="midnightblue" d="M281.8,-504C300.22,-504 319.83,-504 338.19,-504"/>
<polygon fill="midnightblue" stroke="midnightblue" points="281.7,-500.5 271.7,-504 281.7,-507.5 281.7,-500.5"/>
</g>
<!-- Node14 -->
<g id="node14" class="node">
<title>Node14</title>
<g id="a_node14"><a xlink:href="a02105.html" target="_top" xlink:title="The interface for a AAX Plug&#45;in&#39;s direct data interface.">
<polygon fill="white" stroke="black" points="580,-494.5 580,-513.5 699,-513.5 699,-494.5 580,-494.5"/>
<text text-anchor="middle" x="639.5" y="-501.5" font-family="Helvetica,sans-Serif" font-size="10.00">AAX_IEffectDirectData</text>
</a>
</g>
</g>
<!-- Node13&#45;&gt;Node14 -->
<g id="edge13" class="edge">
<title>Node13&#45;&gt;Node14</title>
<path fill="none" stroke="midnightblue" d="M505.05,-504C530.11,-504 556.82,-504 579.71,-504"/>
<polygon fill="midnightblue" stroke="midnightblue" points="504.8,-500.5 494.8,-504 504.8,-507.5 504.8,-500.5"/>
</g>
<!-- Node15 -->
<g id="node15" class="node">
<title>Node15</title>
<g id="a_node15"><a xlink:href="a01753.html" target="_top" xlink:title="Default implementation of the AAX_IEffectDirectData interface.">
<polygon fill="white" stroke="black" points="787,-494.5 787,-513.5 910,-513.5 910,-494.5 787,-494.5"/>
<text text-anchor="middle" x="848.5" y="-501.5" font-family="Helvetica,sans-Serif" font-size="10.00">AAX_CEffectDirectData</text>
</a>
</g>
</g>
<!-- Node14&#45;&gt;Node15 -->
<g id="edge14" class="edge">
<title>Node14&#45;&gt;Node15</title>
<path fill="none" stroke="midnightblue" d="M709.42,-504C734.44,-504 762.52,-504 786.79,-504"/>
<polygon fill="midnightblue" stroke="midnightblue" points="709.26,-500.5 699.26,-504 709.26,-507.5 709.26,-500.5"/>
</g>
<!-- Node17 -->
<g id="node17" class="node">
<title>Node17</title>
<g id="a_node17"><a xlink:href="a02109.html" target="_top" xlink:title="The interface for a AAX Plug&#45;in&#39;s user interface.">
<polygon fill="white" stroke="black" points="372,-456.5 372,-475.5 461,-475.5 461,-456.5 372,-456.5"/>
<text text-anchor="middle" x="416.5" y="-463.5" font-family="Helvetica,sans-Serif" font-size="10.00">AAX_IEffectGUI</text>
</a>
</g>
</g>
<!-- Node16&#45;&gt;Node17 -->
<g id="edge16" class="edge">
<title>Node16&#45;&gt;Node17</title>
<path fill="none" stroke="midnightblue" d="M267.42,-466C301.2,-466 341.69,-466 371.78,-466"/>
<polygon fill="midnightblue" stroke="midnightblue" points="267.17,-462.5 257.17,-466 267.17,-469.5 267.17,-462.5"/>
</g>
<!-- Node18 -->
<g id="node18" class="node">
<title>Node18</title>
<g id="a_node18"><a xlink:href="a01757.html" target="_top" xlink:title="Default implementation of the AAX_IEffectGUI interface.">
<polygon fill="white" stroke="black" points="592.5,-456.5 592.5,-475.5 686.5,-475.5 686.5,-456.5 592.5,-456.5"/>
<text text-anchor="middle" x="639.5" y="-463.5" font-family="Helvetica,sans-Serif" font-size="10.00">AAX_CEffectGUI</text>
</a>
</g>
</g>
<!-- Node17&#45;&gt;Node18 -->
<g id="edge17" class="edge">
<title>Node17&#45;&gt;Node18</title>
<path fill="none" stroke="midnightblue" d="M471.27,-466C508.3,-466 556.98,-466 592.26,-466"/>
<polygon fill="midnightblue" stroke="midnightblue" points="471.16,-462.5 461.16,-466 471.16,-469.5 471.16,-462.5"/>
</g>
<!-- Node20 -->
<g id="node20" class="node">
<title>Node20</title>
<g id="a_node20"><a xlink:href="a01961.html" target="_top" xlink:title="Supplemental interface for an AAX Plug&#45;in&#39;s data model.">
<polygon fill="white" stroke="black" points="337,-418.5 337,-437.5 496,-437.5 496,-418.5 337,-418.5"/>
<text text-anchor="middle" x="416.5" y="-425.5" font-family="Helvetica,sans-Serif" font-size="10.00">AAX_IACFEffectParameters_V2</text>
</a>
</g>
</g>
<!-- Node19&#45;&gt;Node20 -->
<g id="edge19" class="edge">
<title>Node19&#45;&gt;Node20</title>
<path fill="none" stroke="midnightblue" d="M283.37,-428C300.93,-428 319.48,-428 336.96,-428"/>
<polygon fill="midnightblue" stroke="midnightblue" points="283.17,-424.5 273.17,-428 283.17,-431.5 283.17,-424.5"/>
</g>
<!-- Node21 -->
<g id="node21" class="node">
<title>Node21</title>
<g id="a_node21"><a xlink:href="a01965.html" target="_top" xlink:title="Supplemental interface for an AAX Plug&#45;in&#39;s data model.">
<polygon fill="white" stroke="black" points="560,-418.5 560,-437.5 719,-437.5 719,-418.5 560,-418.5"/>
<text text-anchor="middle" x="639.5" y="-425.5" font-family="Helvetica,sans-Serif" font-size="10.00">AAX_IACFEffectParameters_V3</text>
</a>
</g>
</g>
<!-- Node20&#45;&gt;Node21 -->
<g id="edge20" class="edge">
<title>Node20&#45;&gt;Node21</title>
<path fill="none" stroke="midnightblue" d="M506.35,-428C524.05,-428 542.52,-428 559.84,-428"/>
<polygon fill="midnightblue" stroke="midnightblue" points="506.04,-424.5 496.04,-428 506.04,-431.5 506.04,-424.5"/>
</g>
<!-- Node22 -->
<g id="node22" class="node">
<title>Node22</title>
<g id="a_node22"><a xlink:href="a01969.html" target="_top" xlink:title="Supplemental interface for an AAX Plug&#45;in&#39;s data model.">
<polygon fill="white" stroke="black" points="769,-418.5 769,-437.5 928,-437.5 928,-418.5 769,-418.5"/>
<text text-anchor="middle" x="848.5" y="-425.5" font-family="Helvetica,sans-Serif" font-size="10.00">AAX_IACFEffectParameters_V4</text>
</a>
</g>
</g>
<!-- Node21&#45;&gt;Node22 -->
<g id="edge21" class="edge">
<title>Node21&#45;&gt;Node22</title>
<path fill="none" stroke="midnightblue" d="M729.43,-428C742.47,-428 755.83,-428 768.66,-428"/>
<polygon fill="midnightblue" stroke="midnightblue" points="729.05,-424.5 719.05,-428 729.05,-431.5 729.05,-424.5"/>
</g>
<!-- Node23 -->
<g id="node23" class="node">
<title>Node23</title>
<g id="a_node23"><a xlink:href="a02113.html" target="_top" xlink:title="The interface for an AAX Plug&#45;in&#39;s data model.">
<polygon fill="white" stroke="black" points="964,-418.5 964,-437.5 1086,-437.5 1086,-418.5 964,-418.5"/>
<text text-anchor="middle" x="1025" y="-425.5" font-family="Helvetica,sans-Serif" font-size="10.00">AAX_IEffectParameters</text>
</a>
</g>
</g>
<!-- Node22&#45;&gt;Node23 -->
<g id="edge22" class="edge">
<title>Node22&#45;&gt;Node23</title>
<path fill="none" stroke="midnightblue" d="M938.26,-428C946.94,-428 955.61,-428 963.91,-428"/>
<polygon fill="midnightblue" stroke="midnightblue" points="938.07,-424.5 928.07,-428 938.07,-431.5 938.07,-424.5"/>
</g>
<!-- Node24 -->
<g id="node24" class="node">
<title>Node24</title>
<g id="a_node24"><a xlink:href="a01761.html" target="_top" xlink:title="Default implementation of the AAX_IEffectParameters interface.">
<polygon fill="white" stroke="red" points="1122,-418.5 1122,-437.5 1248,-437.5 1248,-418.5 1122,-418.5"/>
<text text-anchor="middle" x="1185" y="-425.5" font-family="Helvetica,sans-Serif" font-size="10.00">AAX_CEffectParameters</text>
</a>
</g>
</g>
<!-- Node23&#45;&gt;Node24 -->
<g id="edge23" class="edge">
<title>Node23&#45;&gt;Node24</title>
<path fill="none" stroke="midnightblue" d="M1096.44,-428C1104.92,-428 1113.53,-428 1121.89,-428"/>
<polygon fill="midnightblue" stroke="midnightblue" points="1096.18,-424.5 1086.18,-428 1096.18,-431.5 1096.18,-424.5"/>
</g>
<!-- Node28 -->
<g id="node27" class="node">
<title>Node28</title>
<g id="a_node27"><a xlink:href="a01981.html" target="_top" xlink:title="Supplemental interface for an AAX host processing component.">
<polygon fill="white" stroke="black" points="342.5,-342.5 342.5,-361.5 490.5,-361.5 490.5,-342.5 342.5,-342.5"/>
<text text-anchor="middle" x="416.5" y="-349.5" font-family="Helvetica,sans-Serif" font-size="10.00">AAX_IACFHostProcessor_V2</text>
</a>
</g>
</g>
<!-- Node27&#45;&gt;Node28 -->
<g id="edge26" class="edge">
<title>Node27&#45;&gt;Node28</title>
<path fill="none" stroke="midnightblue" d="M277.74,-352C298.68,-352 321.41,-352 342.26,-352"/>
<polygon fill="midnightblue" stroke="midnightblue" points="277.62,-348.5 267.62,-352 277.62,-355.5 277.62,-348.5"/>
</g>
<!-- Node29 -->
<g id="node28" class="node">
<title>Node29</title>
<g id="a_node28"><a xlink:href="a02121.html" target="_top" xlink:title="Base class for the host processor interface.">
<polygon fill="white" stroke="black" points="584.5,-342.5 584.5,-361.5 694.5,-361.5 694.5,-342.5 584.5,-342.5"/>
<text text-anchor="middle" x="639.5" y="-349.5" font-family="Helvetica,sans-Serif" font-size="10.00">AAX_IHostProcessor</text>
</a>
</g>
</g>
<!-- Node28&#45;&gt;Node29 -->
<g id="edge27" class="edge">
<title>Node28&#45;&gt;Node29</title>
<path fill="none" stroke="midnightblue" d="M500.94,-352C528.85,-352 559.22,-352 584.3,-352"/>
<polygon fill="midnightblue" stroke="midnightblue" points="500.78,-348.5 490.78,-352 500.78,-355.5 500.78,-348.5"/>
</g>
<!-- Node30 -->
<g id="node29" class="node">
<title>Node30</title>
<g id="a_node29"><a xlink:href="a01765.html" target="_top" xlink:title="Concrete implementation of the AAX_IHostProcessor interface for non&#45;real&#45;time processing.">
<polygon fill="white" stroke="black" points="791,-342.5 791,-361.5 906,-361.5 906,-342.5 791,-342.5"/>
<text text-anchor="middle" x="848.5" y="-349.5" font-family="Helvetica,sans-Serif" font-size="10.00">AAX_CHostProcessor</text>
</a>
</g>
</g>
<!-- Node29&#45;&gt;Node30 -->
<g id="edge28" class="edge">
<title>Node29&#45;&gt;Node30</title>
<path fill="none" stroke="midnightblue" d="M704.92,-352C732.42,-352 764.22,-352 790.81,-352"/>
<polygon fill="midnightblue" stroke="midnightblue" points="704.62,-348.5 694.62,-352 704.62,-355.5 704.62,-348.5"/>
</g>
<!-- Node32 -->
<g id="node31" class="node">
<title>Node32</title>
<g id="a_node31"><a xlink:href="a01989.html" target="_top" xlink:title="Versioned interface for host methods specific to offline processing.">
<polygon fill="white" stroke="black" points="323,-304.5 323,-323.5 510,-323.5 510,-304.5 323,-304.5"/>
<text text-anchor="middle" x="416.5" y="-311.5" font-family="Helvetica,sans-Serif" font-size="10.00">AAX_IACFHostProcessorDelegate_V2</text>
</a>
</g>
</g>
<!-- Node31&#45;&gt;Node32 -->
<g id="edge30" class="edge">
<title>Node31&#45;&gt;Node32</title>
<path fill="none" stroke="midnightblue" d="M297.52,-314C305.96,-314 314.49,-314 322.91,-314"/>
<polygon fill="midnightblue" stroke="midnightblue" points="297.29,-310.5 287.29,-314 297.29,-317.5 297.29,-310.5"/>
</g>
<!-- Node33 -->
<g id="node32" class="node">
<title>Node33</title>
<g id="a_node32"><a xlink:href="a01993.html" target="_top" xlink:title="Versioned interface for host methods specific to offline processing.">
<polygon fill="white" stroke="black" points="546,-304.5 546,-323.5 733,-323.5 733,-304.5 546,-304.5"/>
<text text-anchor="middle" x="639.5" y="-311.5" font-family="Helvetica,sans-Serif" font-size="10.00">AAX_IACFHostProcessorDelegate_V3</text>
</a>
</g>
</g>
<!-- Node32&#45;&gt;Node33 -->
<g id="edge31" class="edge">
<title>Node32&#45;&gt;Node33</title>
<path fill="none" stroke="midnightblue" d="M520.28,-314C528.85,-314 537.49,-314 545.97,-314"/>
<polygon fill="midnightblue" stroke="midnightblue" points="520.26,-310.5 510.26,-314 520.26,-317.5 520.26,-310.5"/>
</g>
<!-- Node35 -->
<g id="node34" class="node">
<title>Node35</title>
<g id="a_node34"><a xlink:href="a02001.html" target="_top" xlink:title="V2 of versioned interface to diagnostic and debugging services provided by the AAX host.">
<polygon fill="white" stroke="black" points="345.5,-266.5 345.5,-285.5 487.5,-285.5 487.5,-266.5 345.5,-266.5"/>
<text text-anchor="middle" x="416.5" y="-273.5" font-family="Helvetica,sans-Serif" font-size="10.00">AAX_IACFHostServices_V2</text>
</a>
</g>
</g>
<!-- Node34&#45;&gt;Node35 -->
<g id="edge33" class="edge">
<title>Node34&#45;&gt;Node35</title>
<path fill="none" stroke="midnightblue" d="M275.01,-276C297.73,-276 322.79,-276 345.37,-276"/>
<polygon fill="midnightblue" stroke="midnightblue" points="274.75,-272.5 264.75,-276 274.75,-279.5 274.75,-272.5"/>
</g>
<!-- Node36 -->
<g id="node35" class="node">
<title>Node36</title>
<g id="a_node35"><a xlink:href="a02005.html" target="_top" xlink:title="V3 of versioned interface to diagnostic and debugging services provided by the AAX host.">
<polygon fill="white" stroke="black" points="568.5,-266.5 568.5,-285.5 710.5,-285.5 710.5,-266.5 568.5,-266.5"/>
<text text-anchor="middle" x="639.5" y="-273.5" font-family="Helvetica,sans-Serif" font-size="10.00">AAX_IACFHostServices_V3</text>
</a>
</g>
</g>
<!-- Node35&#45;&gt;Node36 -->
<g id="edge34" class="edge">
<title>Node35&#45;&gt;Node36</title>
<path fill="none" stroke="midnightblue" d="M497.85,-276C520.98,-276 546.01,-276 568.45,-276"/>
<polygon fill="midnightblue" stroke="midnightblue" points="497.73,-272.5 487.73,-276 497.73,-279.5 497.73,-272.5"/>
</g>
<!-- Node38 -->
<g id="node37" class="node">
<title>Node38</title>
<g id="a_node37"><a xlink:href="a02013.html" target="_top" xlink:title="Versioned interface to the host&#39;s representation of a plug&#45;in instance&#39;s page table.">
<polygon fill="white" stroke="black" points="352.5,-228.5 352.5,-247.5 480.5,-247.5 480.5,-228.5 352.5,-228.5"/>
<text text-anchor="middle" x="416.5" y="-235.5" font-family="Helvetica,sans-Serif" font-size="10.00">AAX_IACFPageTable_V2</text>
</a>
</g>
</g>
<!-- Node37&#45;&gt;Node38 -->
<g id="edge36" class="edge">
<title>Node37&#45;&gt;Node38</title>
<path fill="none" stroke="midnightblue" d="M267.79,-238C294.62,-238 325.64,-238 352.3,-238"/>
<polygon fill="midnightblue" stroke="midnightblue" points="267.72,-234.5 257.72,-238 267.72,-241.5 267.72,-234.5"/>
</g>
<!-- Node40 -->
<g id="node39" class="node">
<title>Node40</title>
<g id="a_node39"><a xlink:href="a02021.html" target="_top" xlink:title="Interface for host operations related to the page tables for this plug&#45;in.">
<polygon fill="white" stroke="black" points="331.5,-190.5 331.5,-209.5 501.5,-209.5 501.5,-190.5 331.5,-190.5"/>
<text text-anchor="middle" x="416.5" y="-197.5" font-family="Helvetica,sans-Serif" font-size="10.00">AAX_IACFPageTableController_V2</text>
</a>
</g>
</g>
<!-- Node39&#45;&gt;Node40 -->
<g id="edge38" class="edge">
<title>Node39&#45;&gt;Node40</title>
<path fill="none" stroke="midnightblue" d="M288.63,-200C302.66,-200 317.19,-200 331.19,-200"/>
<polygon fill="midnightblue" stroke="midnightblue" points="288.52,-196.5 278.52,-200 288.52,-203.5 288.52,-196.5"/>
</g>
<!-- Node43 -->
<g id="node42" class="node">
<title>Node43</title>
<g id="a_node42"><a xlink:href="a02033.html" target="_top" xlink:title="Versioned interface for an AAX_IPropertyMap.">
<polygon fill="white" stroke="black" points="347.5,-114.5 347.5,-133.5 485.5,-133.5 485.5,-114.5 347.5,-114.5"/>
<text text-anchor="middle" x="416.5" y="-121.5" font-family="Helvetica,sans-Serif" font-size="10.00">AAX_IACFPropertyMap_V2</text>
</a>
</g>
</g>
<!-- Node42&#45;&gt;Node43 -->
<g id="edge41" class="edge">
<title>Node42&#45;&gt;Node43</title>
<path fill="none" stroke="midnightblue" d="M272.81,-124C296.72,-124 323.42,-124 347.2,-124"/>
<polygon fill="midnightblue" stroke="midnightblue" points="272.76,-120.5 262.76,-124 272.76,-127.5 272.76,-120.5"/>
</g>
<!-- Node44 -->
<g id="node43" class="node">
<title>Node44</title>
<g id="a_node43"><a xlink:href="a02037.html" target="_top" xlink:title="Versioned interface for an AAX_IPropertyMap.">
<polygon fill="white" stroke="black" points="570.5,-114.5 570.5,-133.5 708.5,-133.5 708.5,-114.5 570.5,-114.5"/>
<text text-anchor="middle" x="639.5" y="-121.5" font-family="Helvetica,sans-Serif" font-size="10.00">AAX_IACFPropertyMap_V3</text>
</a>
</g>
</g>
<!-- Node43&#45;&gt;Node44 -->
<g id="edge42" class="edge">
<title>Node43&#45;&gt;Node44</title>
<path fill="none" stroke="midnightblue" d="M495.86,-124C520.14,-124 546.69,-124 570.23,-124"/>
<polygon fill="midnightblue" stroke="midnightblue" points="495.61,-120.5 485.61,-124 495.61,-127.5 495.61,-120.5"/>
</g>
<!-- Node46 -->
<g id="node45" class="node">
<title>Node46</title>
<g id="a_node45"><a xlink:href="a02045.html" target="_top" xlink:title="Versioned interface to information about the host&#39;s transport state.">
<polygon fill="white" stroke="black" points="354.5,-76.5 354.5,-95.5 478.5,-95.5 478.5,-76.5 354.5,-76.5"/>
<text text-anchor="middle" x="416.5" y="-83.5" font-family="Helvetica,sans-Serif" font-size="10.00">AAX_IACFTransport_V2</text>
</a>
</g>
</g>
<!-- Node45&#45;&gt;Node46 -->
<g id="edge44" class="edge">
<title>Node45&#45;&gt;Node46</title>
<path fill="none" stroke="midnightblue" d="M265.59,-86C293.53,-86 326.36,-86 354.16,-86"/>
<polygon fill="midnightblue" stroke="midnightblue" points="265.53,-82.5 255.53,-86 265.53,-89.5 265.53,-82.5"/>
</g>
<!-- Node47 -->
<g id="node46" class="node">
<title>Node47</title>
<g id="a_node46"><a xlink:href="a02049.html" target="_top" xlink:title="Versioned interface to information about the host&#39;s transport state.">
<polygon fill="white" stroke="black" points="577.5,-76.5 577.5,-95.5 701.5,-95.5 701.5,-76.5 577.5,-76.5"/>
<text text-anchor="middle" x="639.5" y="-83.5" font-family="Helvetica,sans-Serif" font-size="10.00">AAX_IACFTransport_V3</text>
</a>
</g>
</g>
<!-- Node46&#45;&gt;Node47 -->
<g id="edge45" class="edge">
<title>Node46&#45;&gt;Node47</title>
<path fill="none" stroke="midnightblue" d="M489.08,-86C517.61,-86 550.11,-86 577.5,-86"/>
<polygon fill="midnightblue" stroke="midnightblue" points="488.77,-82.5 478.77,-86 488.77,-89.5 488.77,-82.5"/>
</g>
<!-- Node49 -->
<g id="node48" class="node">
<title>Node49</title>
<g id="a_node48"><a xlink:href="a02057.html" target="_top" xlink:title="Supplemental interface for the AAX host&#39;s view of a single instance of an effect. Used by both client...">
<polygon fill="white" stroke="black" points="343.5,-38.5 343.5,-57.5 489.5,-57.5 489.5,-38.5 343.5,-38.5"/>
<text text-anchor="middle" x="416.5" y="-45.5" font-family="Helvetica,sans-Serif" font-size="10.00">AAX_IACFViewContainer_V2</text>
</a>
</g>
</g>
<!-- Node48&#45;&gt;Node49 -->
<g id="edge47" class="edge">
<title>Node48&#45;&gt;Node49</title>
<path fill="none" stroke="midnightblue" d="M276.81,-48C298.33,-48 321.8,-48 343.22,-48"/>
<polygon fill="midnightblue" stroke="midnightblue" points="276.76,-44.5 266.76,-48 276.76,-51.5 276.76,-44.5"/>
</g>
</g>
</svg>
