<?xml version="1.0" encoding="UTF-8" standalone="no"?>
<!DOCTYPE svg PUBLIC "-//W3C//DTD SVG 1.1//EN"
 "http://www.w3.org/Graphics/SVG/1.1/DTD/svg11.dtd">
<!-- Generated by graphviz version 2.47.3 (20210619.1520)
 -->
<!-- Title: AAX_CDecibelDisplayDelegateDecorator::ValueToString Pages: 1 -->
<svg width="359pt" height="116pt"
 viewBox="0.00 0.00 359.00 115.50" xmlns="http://www.w3.org/2000/svg" xmlns:xlink="http://www.w3.org/1999/xlink">
<g id="graph0" class="graph" transform="scale(1 1) rotate(0) translate(4 111.5)">
<title>AAX_CDecibelDisplayDelegateDecorator::ValueToString</title>
<polygon fill="white" stroke="transparent" points="-4,4 -4,-111.5 355,-111.5 355,4 -4,4"/>
<!-- Node1 -->
<g id="node1" class="node">
<title>Node1</title>
<g id="a_node1"><a xlink:title="Converts a real parameter value to a string representation using a size hint, useful for control surf...">
<polygon fill="#bfbfbf" stroke="black" points="0,-44.5 0,-74.5 155,-74.5 155,-44.5 0,-44.5"/>
<text text-anchor="start" x="8" y="-62.5" font-family="Helvetica,sans-Serif" font-size="10.00">AAX_CDecibelDisplayDelegate</text>
<text text-anchor="middle" x="77.5" y="-51.5" font-family="Helvetica,sans-Serif" font-size="10.00">Decorator::ValueToString</text>
</a>
</g>
</g>
<!-- Node2 -->
<g id="node2" class="node">
<title>Node2</title>
<g id="a_node2"><a xlink:href="a01853.html#a53b726507fec5a24ffb46e9af194a958" target="_top" xlink:title=" ">
<polygon fill="white" stroke="black" points="214,-88 214,-107 328,-107 328,-88 214,-88"/>
<text text-anchor="middle" x="271" y="-95" font-family="Helvetica,sans-Serif" font-size="10.00">AAX_CString::Append</text>
</a>
</g>
</g>
<!-- Node1&#45;&gt;Node2 -->
<g id="edge1" class="edge">
<title>Node1&#45;&gt;Node2</title>
<path fill="none" stroke="midnightblue" d="M154.19,-74.52C173.5,-78.35 193.96,-82.41 212.22,-86.04"/>
<polygon fill="midnightblue" stroke="midnightblue" points="211.63,-89.49 222.12,-88 212.99,-82.62 211.63,-89.49"/>
</g>
<!-- Node3 -->
<g id="node3" class="node">
<title>Node3</title>
<g id="a_node3"><a xlink:href="a01853.html#a34ccfa250b53a721417f32d4a74bfed6" target="_top" xlink:title=" ">
<polygon fill="white" stroke="black" points="216,-50 216,-69 326,-69 326,-50 216,-50"/>
<text text-anchor="middle" x="271" y="-57" font-family="Helvetica,sans-Serif" font-size="10.00">AAX_CString::Length</text>
</a>
</g>
</g>
<!-- Node1&#45;&gt;Node3 -->
<g id="edge2" class="edge">
<title>Node1&#45;&gt;Node3</title>
<path fill="none" stroke="midnightblue" d="M155.01,-59.5C171.76,-59.5 189.33,-59.5 205.55,-59.5"/>
<polygon fill="midnightblue" stroke="midnightblue" points="206,-63 216,-59.5 206,-56 206,-63"/>
</g>
<!-- Node4 -->
<g id="node4" class="node">
<title>Node4</title>
<g id="a_node4"><a xlink:href="a02093.html#ada5780cfa332ac7946bf95aa65ae96f5" target="_top" xlink:title="Converts a string to a real parameter value.">
<polygon fill="white" stroke="black" points="191,-0.5 191,-30.5 351,-30.5 351,-0.5 191,-0.5"/>
<text text-anchor="start" x="199" y="-18.5" font-family="Helvetica,sans-Serif" font-size="10.00">AAX_IDisplayDelegateDecorator</text>
<text text-anchor="middle" x="271" y="-7.5" font-family="Helvetica,sans-Serif" font-size="10.00">::ValueToString</text>
</a>
</g>
</g>
<!-- Node1&#45;&gt;Node4 -->
<g id="edge3" class="edge">
<title>Node1&#45;&gt;Node4</title>
<path fill="none" stroke="midnightblue" d="M143.87,-44.48C160.26,-40.71 177.98,-36.64 194.81,-32.78"/>
<polygon fill="midnightblue" stroke="midnightblue" points="195.64,-36.18 204.6,-30.53 194.07,-29.35 195.64,-36.18"/>
</g>
</g>
</svg>
