<?xml version="1.0" encoding="UTF-8" standalone="no"?>
<!DOCTYPE svg PUBLIC "-//W3C//DTD SVG 1.1//EN"
 "http://www.w3.org/Graphics/SVG/1.1/DTD/svg11.dtd">
<!-- Generated by graphviz version 2.47.3 (20210619.1520)
 -->
<!-- Title: AAX_CChunkDataParser::DataValue Pages: 1 -->
<svg width="188pt" height="252pt"
 viewBox="0.00 0.00 187.50 252.00" xmlns="http://www.w3.org/2000/svg" xmlns:xlink="http://www.w3.org/1999/xlink">
<g id="graph0" class="graph" transform="scale(1 1) rotate(0) translate(4 248)">
<title>AAX_CChunkDataParser::DataValue</title>
<polygon fill="white" stroke="transparent" points="-4,4 -4,-248 183.5,-248 183.5,4 -4,4"/>
<!-- Node1 -->
<g id="node1" class="node">
<title>Node1</title>
<g id="a_node1"><a xlink:title=" ">
<polygon fill="#bfbfbf" stroke="black" points="0,-0.5 0,-30.5 128,-30.5 128,-0.5 0,-0.5"/>
<text text-anchor="start" x="8" y="-18.5" font-family="Helvetica,sans-Serif" font-size="10.00">AAX_CChunkDataParser</text>
<text text-anchor="middle" x="64" y="-7.5" font-family="Helvetica,sans-Serif" font-size="10.00">::DataValue</text>
</a>
</g>
</g>
<!-- Node2 -->
<g id="node2" class="node">
<title>Node2</title>
<g id="a_node2"><a xlink:href="a01853.html" target="_top" xlink:title="A generic AAX string class with similar functionality to std::string">
<polygon fill="white" stroke="black" points="26.5,-89.5 26.5,-108.5 101.5,-108.5 101.5,-89.5 26.5,-89.5"/>
<text text-anchor="middle" x="64" y="-96.5" font-family="Helvetica,sans-Serif" font-size="10.00">AAX_CString</text>
</a>
</g>
</g>
<!-- Node2&#45;&gt;Node1 -->
<g id="edge1" class="edge">
<title>Node2&#45;&gt;Node1</title>
<path fill="none" stroke="#9a32cd" stroke-dasharray="5,2" d="M64,-79.23C64,-64.41 64,-44.05 64,-30.6"/>
<polygon fill="#9a32cd" stroke="#9a32cd" points="60.5,-79.28 64,-89.28 67.5,-79.28 60.5,-79.28"/>
<text text-anchor="middle" x="93.5" y="-63" font-family="Helvetica,sans-Serif" font-size="10.00"> mDataName</text>
<text text-anchor="middle" x="93.5" y="-52" font-family="Helvetica,sans-Serif" font-size="10.00">mStringValue</text>
</g>
<!-- Node3 -->
<g id="node3" class="node">
<title>Node3</title>
<g id="a_node3"><a xlink:href="a02161.html" target="_top" xlink:title="A simple string container that can be passed across a binary boundary. This class,...">
<polygon fill="white" stroke="black" points="12.5,-156.5 12.5,-175.5 83.5,-175.5 83.5,-156.5 12.5,-156.5"/>
<text text-anchor="middle" x="48" y="-163.5" font-family="Helvetica,sans-Serif" font-size="10.00">AAX_IString</text>
</a>
</g>
</g>
<!-- Node3&#45;&gt;Node2 -->
<g id="edge2" class="edge">
<title>Node3&#45;&gt;Node2</title>
<path fill="none" stroke="midnightblue" d="M52.57,-146.41C55.63,-133.99 59.52,-118.22 61.88,-108.63"/>
<polygon fill="midnightblue" stroke="midnightblue" points="49.15,-145.69 50.16,-156.23 55.95,-147.36 49.15,-145.69"/>
</g>
<!-- Node4 -->
<g id="node4" class="node">
<title>Node4</title>
<g id="a_node4"><a xlink:title=" ">
<polygon fill="white" stroke="#bfbfbf" points="102,-156.5 102,-175.5 162,-175.5 162,-156.5 102,-156.5"/>
<text text-anchor="middle" x="132" y="-163.5" font-family="Helvetica,sans-Serif" font-size="10.00">std::string</text>
</a>
</g>
</g>
<!-- Node4&#45;&gt;Node2 -->
<g id="edge3" class="edge">
<title>Node4&#45;&gt;Node2</title>
<path fill="none" stroke="#9a32cd" stroke-dasharray="5,2" d="M115.26,-149C101.92,-136.25 83.77,-118.89 73.03,-108.63"/>
<polygon fill="#9a32cd" stroke="#9a32cd" points="113.18,-151.85 122.83,-156.23 118.02,-146.79 113.18,-151.85"/>
<text text-anchor="middle" x="120.5" y="-130" font-family="Helvetica,sans-Serif" font-size="10.00"> mString</text>
</g>
<!-- Node5 -->
<g id="node5" class="node">
<title>Node5</title>
<g id="a_node5"><a xlink:title=" ">
<polygon fill="white" stroke="#bfbfbf" points="84.5,-213.5 84.5,-243.5 179.5,-243.5 179.5,-213.5 84.5,-213.5"/>
<text text-anchor="start" x="92.5" y="-231.5" font-family="Helvetica,sans-Serif" font-size="10.00">std::basic_string&lt;</text>
<text text-anchor="middle" x="132" y="-220.5" font-family="Helvetica,sans-Serif" font-size="10.00"> Char &gt;</text>
</a>
</g>
</g>
<!-- Node5&#45;&gt;Node4 -->
<g id="edge4" class="edge">
<title>Node5&#45;&gt;Node4</title>
<path fill="none" stroke="midnightblue" d="M132,-203.35C132,-193.51 132,-182.78 132,-175.54"/>
<polygon fill="midnightblue" stroke="midnightblue" points="128.5,-203.47 132,-213.47 135.5,-203.47 128.5,-203.47"/>
</g>
</g>
</svg>
