<?xml version="1.0" encoding="UTF-8" standalone="no"?>
<!DOCTYPE svg PUBLIC "-//W3C//DTD SVG 1.1//EN"
 "http://www.w3.org/Graphics/SVG/1.1/DTD/svg11.dtd">
<!-- Generated by graphviz version 2.47.3 (20210619.1520)
 -->
<!-- Title: AAX_CNumberDisplayDelegate::ValueToString Pages: 1 -->
<svg width="349pt" height="180pt"
 viewBox="0.00 0.00 349.00 180.00" xmlns="http://www.w3.org/2000/svg" xmlns:xlink="http://www.w3.org/1999/xlink">
<g id="graph0" class="graph" transform="scale(1 1) rotate(0) translate(4 176)">
<title>AAX_CNumberDisplayDelegate::ValueToString</title>
<polygon fill="white" stroke="transparent" points="-4,4 -4,-176 345,-176 345,4 -4,4"/>
<!-- Node1 -->
<g id="node1" class="node">
<title>Node1</title>
<g id="a_node1"><a xlink:title="Converts a real parameter value to a string representation using a size hint, useful for control surf...">
<polygon fill="#bfbfbf" stroke="black" points="0,-71 0,-101 156,-101 156,-71 0,-71"/>
<text text-anchor="start" x="8" y="-89" font-family="Helvetica,sans-Serif" font-size="10.00">AAX_CNumberDisplayDelegate</text>
<text text-anchor="middle" x="78" y="-78" font-family="Helvetica,sans-Serif" font-size="10.00">::ValueToString</text>
</a>
</g>
</g>
<!-- Node2 -->
<g id="node2" class="node">
<title>Node2</title>
<g id="a_node2"><a xlink:href="a01853.html#a53b726507fec5a24ffb46e9af194a958" target="_top" xlink:title=" ">
<polygon fill="white" stroke="black" points="209.5,-152.5 209.5,-171.5 323.5,-171.5 323.5,-152.5 209.5,-152.5"/>
<text text-anchor="middle" x="266.5" y="-159.5" font-family="Helvetica,sans-Serif" font-size="10.00">AAX_CString::Append</text>
</a>
</g>
</g>
<!-- Node1&#45;&gt;Node2 -->
<g id="edge1" class="edge">
<title>Node1&#45;&gt;Node2</title>
<path fill="none" stroke="midnightblue" d="M104.76,-101C127.21,-113.58 160.95,-131.31 192,-143 198.46,-145.43 205.36,-147.67 212.24,-149.68"/>
<polygon fill="midnightblue" stroke="midnightblue" points="211.69,-153.16 222.27,-152.47 213.57,-146.42 211.69,-153.16"/>
</g>
<!-- Node3 -->
<g id="node3" class="node">
<title>Node3</title>
<g id="a_node3"><a xlink:href="a01853.html#a3b04d5d9e161a75be5bfe71cfb15d4dc" target="_top" xlink:title=" ">
<polygon fill="white" stroke="black" points="192,-114.5 192,-133.5 341,-133.5 341,-114.5 192,-114.5"/>
<text text-anchor="middle" x="266.5" y="-121.5" font-family="Helvetica,sans-Serif" font-size="10.00">AAX_CString::AppendNumber</text>
</a>
</g>
</g>
<!-- Node1&#45;&gt;Node3 -->
<g id="edge2" class="edge">
<title>Node1&#45;&gt;Node3</title>
<path fill="none" stroke="midnightblue" d="M152.71,-101.02C171.35,-104.82 191.08,-108.84 208.74,-112.43"/>
<polygon fill="midnightblue" stroke="midnightblue" points="208.37,-115.93 218.87,-114.5 209.77,-109.07 208.37,-115.93"/>
</g>
<!-- Node4 -->
<g id="node4" class="node">
<title>Node4</title>
<g id="a_node4"><a xlink:href="a01853.html#a866d456c7cad181d1feda559a0ca3d07" target="_top" xlink:title=" ">
<polygon fill="white" stroke="black" points="214.5,-76.5 214.5,-95.5 318.5,-95.5 318.5,-76.5 214.5,-76.5"/>
<text text-anchor="middle" x="266.5" y="-83.5" font-family="Helvetica,sans-Serif" font-size="10.00">AAX_CString::Clear</text>
</a>
</g>
</g>
<!-- Node1&#45;&gt;Node4 -->
<g id="edge3" class="edge">
<title>Node1&#45;&gt;Node4</title>
<path fill="none" stroke="midnightblue" d="M156.2,-86C172.16,-86 188.77,-86 204.07,-86"/>
<polygon fill="midnightblue" stroke="midnightblue" points="204.44,-89.5 214.44,-86 204.44,-82.5 204.44,-89.5"/>
</g>
<!-- Node5 -->
<g id="node5" class="node">
<title>Node5</title>
<g id="a_node5"><a xlink:href="a01853.html#a78ab9164c3b4aa17d13191fc7ea14fc0" target="_top" xlink:title=" ">
<polygon fill="white" stroke="black" points="213,-38.5 213,-57.5 320,-57.5 320,-38.5 213,-38.5"/>
<text text-anchor="middle" x="266.5" y="-45.5" font-family="Helvetica,sans-Serif" font-size="10.00">AAX_CString::Erase</text>
</a>
</g>
</g>
<!-- Node1&#45;&gt;Node5 -->
<g id="edge4" class="edge">
<title>Node1&#45;&gt;Node5</title>
<path fill="none" stroke="midnightblue" d="M152.71,-70.98C171.35,-67.18 191.08,-63.16 208.74,-59.57"/>
<polygon fill="midnightblue" stroke="midnightblue" points="209.77,-62.93 218.87,-57.5 208.37,-56.07 209.77,-62.93"/>
</g>
<!-- Node6 -->
<g id="node6" class="node">
<title>Node6</title>
<g id="a_node6"><a xlink:href="a01853.html#a34ccfa250b53a721417f32d4a74bfed6" target="_top" xlink:title=" ">
<polygon fill="white" stroke="black" points="211.5,-0.5 211.5,-19.5 321.5,-19.5 321.5,-0.5 211.5,-0.5"/>
<text text-anchor="middle" x="266.5" y="-7.5" font-family="Helvetica,sans-Serif" font-size="10.00">AAX_CString::Length</text>
</a>
</g>
</g>
<!-- Node1&#45;&gt;Node6 -->
<g id="edge5" class="edge">
<title>Node1&#45;&gt;Node6</title>
<path fill="none" stroke="midnightblue" d="M104.76,-71C127.21,-58.42 160.95,-40.69 192,-29 198.46,-26.57 205.36,-24.33 212.24,-22.32"/>
<polygon fill="midnightblue" stroke="midnightblue" points="213.57,-25.58 222.27,-19.53 211.69,-18.84 213.57,-25.58"/>
</g>
</g>
</svg>
