<?xml version="1.0" encoding="UTF-8" standalone="no"?>
<!DOCTYPE svg PUBLIC "-//W3C//DTD SVG 1.1//EN"
 "http://www.w3.org/Graphics/SVG/1.1/DTD/svg11.dtd">
<!-- Generated by graphviz version 6.0.1 (20220911.1526)
 -->
<!-- Title: AAX_CDecibelDisplayDelegateDecorator::StringToValue Pages: 1 -->
<svg width="359pt" height="116pt"
 viewBox="0.00 0.00 359.00 116.00" xmlns="http://www.w3.org/2000/svg" xmlns:xlink="http://www.w3.org/1999/xlink">
<g id="graph0" class="graph" transform="scale(1 1) rotate(0) translate(4 112)">
<title>AAX_CDecibelDisplayDelegateDecorator::StringToValue</title>
<polygon fill="white" stroke="none" points="-4,4 -4,-112 355,-112 355,4 -4,4"/>
<!-- Node1 -->
<g id="node1" class="node">
<title>Node1</title>
<g id="a_node1"><a xlink:title="Converts a string to a real parameter value.">
<polygon fill="#bfbfbf" stroke="black" points="0,-39 0,-69 155,-69 155,-39 0,-39"/>
<text text-anchor="start" x="8" y="-57" font-family="Helvetica,sans-Serif" font-size="10.00">AAX_CDecibelDisplayDelegate</text>
<text text-anchor="middle" x="77.5" y="-46" font-family="Helvetica,sans-Serif" font-size="10.00">Decorator::StringToValue</text>
</a>
</g>
</g>
<!-- Node2 -->
<g id="node2" class="node">
<title>Node2</title>
<g id="a_node2"><a xlink:href="a01853.html#a34ccfa250b53a721417f32d4a74bfed6" target="_top" xlink:title=" ">
<polygon fill="white" stroke="black" points="216,-88.5 216,-107.5 326,-107.5 326,-88.5 216,-88.5"/>
<text text-anchor="middle" x="271" y="-95.5" font-family="Helvetica,sans-Serif" font-size="10.00">AAX_CString::Length</text>
</a>
</g>
</g>
<!-- Node1&#45;&gt;Node2 -->
<g id="edge1" class="edge">
<title>Node1&#45;&gt;Node2</title>
<path fill="none" stroke="midnightblue" d="M143.87,-69.02C168.31,-74.64 195.71,-80.93 218.7,-86.21"/>
<polygon fill="midnightblue" stroke="midnightblue" points="218.07,-89.66 228.6,-88.49 219.64,-82.84 218.07,-89.66"/>
</g>
<!-- Node3 -->
<g id="node3" class="node">
<title>Node3</title>
<g id="a_node3"><a xlink:href="a02093.html#a18d19293f3eca619cb5bb7f1ffde1a8d" target="_top" xlink:title="Converts a string to a real parameter value.">
<polygon fill="white" stroke="black" points="191,-39 191,-69 351,-69 351,-39 191,-39"/>
<text text-anchor="start" x="199" y="-57" font-family="Helvetica,sans-Serif" font-size="10.00">AAX_IDisplayDelegateDecorator</text>
<text text-anchor="middle" x="271" y="-46" font-family="Helvetica,sans-Serif" font-size="10.00">::StringToValue</text>
</a>
</g>
</g>
<!-- Node1&#45;&gt;Node3 -->
<g id="edge2" class="edge">
<title>Node1&#45;&gt;Node3</title>
<path fill="none" stroke="midnightblue" d="M155.01,-54C163.47,-54 172.14,-54 180.74,-54"/>
<polygon fill="midnightblue" stroke="midnightblue" points="180.79,-57.5 190.79,-54 180.79,-50.5 180.79,-57.5"/>
</g>
<!-- Node4 -->
<g id="node4" class="node">
<title>Node4</title>
<g id="a_node4"><a xlink:href="a01853.html#a35132df5b9f73bc2ddbfd673f4a5d22a" target="_top" xlink:title=" ">
<polygon fill="white" stroke="black" points="209,-0.5 209,-19.5 333,-19.5 333,-0.5 209,-0.5"/>
<text text-anchor="middle" x="271" y="-7.5" font-family="Helvetica,sans-Serif" font-size="10.00">AAX_CString::SubString</text>
</a>
</g>
</g>
<!-- Node1&#45;&gt;Node4 -->
<g id="edge3" class="edge">
<title>Node1&#45;&gt;Node4</title>
<path fill="none" stroke="midnightblue" d="M143.87,-38.98C168.31,-33.36 195.71,-27.07 218.7,-21.79"/>
<polygon fill="midnightblue" stroke="midnightblue" points="219.64,-25.16 228.6,-19.51 218.07,-18.34 219.64,-25.16"/>
</g>
</g>
</svg>
