<?xml version="1.0" encoding="UTF-8" standalone="no"?>
<!DOCTYPE svg PUBLIC "-//W3C//DTD SVG 1.1//EN"
 "http://www.w3.org/Graphics/SVG/1.1/DTD/svg11.dtd">
<!-- Generated by graphviz version 6.0.1 (20220911.1526)
 -->
<!-- Title: AAX_CAtomicQueue::Push Pages: 1 -->
<svg width="505pt" height="88pt"
 viewBox="0.00 0.00 505.00 88.00" xmlns="http://www.w3.org/2000/svg" xmlns:xlink="http://www.w3.org/1999/xlink">
<g id="graph0" class="graph" transform="scale(1 1) rotate(0) translate(4 84)">
<title>AAX_CAtomicQueue::Push</title>
<polygon fill="white" stroke="none" points="-4,4 -4,-84 501,-84 501,4 -4,4"/>
<!-- Node1 -->
<g id="node1" class="node">
<title>Node1</title>
<g id="a_node1"><a xlink:title=" ">
<polygon fill="#bfbfbf" stroke="black" points="360,-30 360,-49 497,-49 497,-30 360,-30"/>
<text text-anchor="middle" x="428.5" y="-37" font-family="Helvetica,sans-Serif" font-size="10.00">AAX_CAtomicQueue::Push</text>
</a>
</g>
</g>
<!-- Node2 -->
<g id="node2" class="node">
<title>Node2</title>
<g id="a_node2"><a xlink:href="a02261.html#a626cb2aaa68c64238298acfd6db448f5" target="_top" xlink:title="Generates and dispatches new coefficient packets.">
<polygon fill="white" stroke="black" points="180,-49.5 180,-79.5 324,-79.5 324,-49.5 180,-49.5"/>
<text text-anchor="start" x="188" y="-67.5" font-family="Helvetica,sans-Serif" font-size="10.00">AAX_CMonolithicParameters</text>
<text text-anchor="middle" x="252" y="-56.5" font-family="Helvetica,sans-Serif" font-size="10.00">::GenerateCoefficients</text>
</a>
</g>
</g>
<!-- Node1&#45;&gt;Node2 -->
<g id="edge1" class="edge">
<title>Node1&#45;&gt;Node2</title>
<path fill="none" stroke="midnightblue" d="M351.05,-50.45C342.13,-51.73 333.06,-53.03 324.22,-54.3"/>
<polygon fill="midnightblue" stroke="midnightblue" points="351.63,-53.91 361.03,-49.02 350.64,-46.98 351.63,-53.91"/>
</g>
<!-- Node3 -->
<g id="node3" class="node">
<title>Node3</title>
<g id="a_node3"><a xlink:href="a02261.html#aff6c9ac549ab88231759a9311b2a6640" target="_top" xlink:title=" ">
<polygon fill="white" stroke="black" points="180,-0.5 180,-30.5 324,-30.5 324,-0.5 180,-0.5"/>
<text text-anchor="start" x="188" y="-18.5" font-family="Helvetica,sans-Serif" font-size="10.00">AAX_CMonolithicParameters</text>
<text text-anchor="middle" x="252" y="-7.5" font-family="Helvetica,sans-Serif" font-size="10.00">::StaticRenderAudio</text>
</a>
</g>
</g>
<!-- Node1&#45;&gt;Node3 -->
<g id="edge2" class="edge">
<title>Node1&#45;&gt;Node3</title>
<path fill="none" stroke="midnightblue" d="M349.39,-28.76C341.02,-27.61 332.53,-26.44 324.24,-25.3"/>
<polygon fill="midnightblue" stroke="midnightblue" points="349.15,-32.26 359.53,-30.15 350.1,-25.32 349.15,-32.26"/>
</g>
<!-- Node4 -->
<g id="node4" class="node">
<title>Node4</title>
<g id="a_node4"><a xlink:href="a02261.html#a69f9b80a70ecc6b7b2a7eec372d2502a" target="_top" xlink:title=" ">
<polygon fill="white" stroke="black" points="0,-0.5 0,-30.5 144,-30.5 144,-0.5 0,-0.5"/>
<text text-anchor="start" x="8" y="-18.5" font-family="Helvetica,sans-Serif" font-size="10.00">AAX_CMonolithicParameters</text>
<text text-anchor="middle" x="72" y="-7.5" font-family="Helvetica,sans-Serif" font-size="10.00">::StaticDescribe</text>
</a>
</g>
</g>
<!-- Node3&#45;&gt;Node4 -->
<g id="edge3" class="edge">
<title>Node3&#45;&gt;Node4</title>
<path fill="none" stroke="midnightblue" d="M169.83,-15.5C161.21,-15.5 152.49,-15.5 144,-15.5"/>
<polygon fill="midnightblue" stroke="midnightblue" points="169.88,-19 179.88,-15.5 169.88,-12 169.88,-19"/>
</g>
</g>
</svg>
