<?xml version="1.0" encoding="UTF-8" standalone="no"?>
<!DOCTYPE svg PUBLIC "-//W3C//DTD SVG 1.1//EN"
 "http://www.w3.org/Graphics/SVG/1.1/DTD/svg11.dtd">
<!-- Generated by graphviz version 2.47.3 (20210619.1520)
 -->
<!-- Title: AAX_CNumberDisplayDelegate::ValueToString Pages: 1 -->
<svg width="349pt" height="104pt"
 viewBox="0.00 0.00 349.00 104.00" xmlns="http://www.w3.org/2000/svg" xmlns:xlink="http://www.w3.org/1999/xlink">
<g id="graph0" class="graph" transform="scale(1 1) rotate(0) translate(4 100)">
<title>AAX_CNumberDisplayDelegate::ValueToString</title>
<polygon fill="white" stroke="transparent" points="-4,4 -4,-100 345,-100 345,4 -4,4"/>
<!-- Node1 -->
<g id="node1" class="node">
<title>Node1</title>
<g id="a_node1"><a xlink:title="Converts a real parameter value to a string representation.">
<polygon fill="#bfbfbf" stroke="black" points="0,-33 0,-63 156,-63 156,-33 0,-33"/>
<text text-anchor="start" x="8" y="-51" font-family="Helvetica,sans-Serif" font-size="10.00">AAX_CNumberDisplayDelegate</text>
<text text-anchor="middle" x="78" y="-40" font-family="Helvetica,sans-Serif" font-size="10.00">::ValueToString</text>
</a>
</g>
</g>
<!-- Node2 -->
<g id="node2" class="node">
<title>Node2</title>
<g id="a_node2"><a xlink:href="a01853.html#a53b726507fec5a24ffb46e9af194a958" target="_top" xlink:title=" ">
<polygon fill="white" stroke="black" points="209.5,-76.5 209.5,-95.5 323.5,-95.5 323.5,-76.5 209.5,-76.5"/>
<text text-anchor="middle" x="266.5" y="-83.5" font-family="Helvetica,sans-Serif" font-size="10.00">AAX_CString::Append</text>
</a>
</g>
</g>
<!-- Node1&#45;&gt;Node2 -->
<g id="edge1" class="edge">
<title>Node1&#45;&gt;Node2</title>
<path fill="none" stroke="midnightblue" d="M152.71,-63.02C171.35,-66.82 191.08,-70.84 208.74,-74.43"/>
<polygon fill="midnightblue" stroke="midnightblue" points="208.37,-77.93 218.87,-76.5 209.77,-71.07 208.37,-77.93"/>
</g>
<!-- Node3 -->
<g id="node3" class="node">
<title>Node3</title>
<g id="a_node3"><a xlink:href="a01853.html#a3b04d5d9e161a75be5bfe71cfb15d4dc" target="_top" xlink:title=" ">
<polygon fill="white" stroke="black" points="192,-38.5 192,-57.5 341,-57.5 341,-38.5 192,-38.5"/>
<text text-anchor="middle" x="266.5" y="-45.5" font-family="Helvetica,sans-Serif" font-size="10.00">AAX_CString::AppendNumber</text>
</a>
</g>
</g>
<!-- Node1&#45;&gt;Node3 -->
<g id="edge2" class="edge">
<title>Node1&#45;&gt;Node3</title>
<path fill="none" stroke="midnightblue" d="M156.2,-48C164.61,-48 173.2,-48 181.68,-48"/>
<polygon fill="midnightblue" stroke="midnightblue" points="181.95,-51.5 191.95,-48 181.95,-44.5 181.95,-51.5"/>
</g>
<!-- Node4 -->
<g id="node4" class="node">
<title>Node4</title>
<g id="a_node4"><a xlink:href="a01853.html#a866d456c7cad181d1feda559a0ca3d07" target="_top" xlink:title=" ">
<polygon fill="white" stroke="black" points="214.5,-0.5 214.5,-19.5 318.5,-19.5 318.5,-0.5 214.5,-0.5"/>
<text text-anchor="middle" x="266.5" y="-7.5" font-family="Helvetica,sans-Serif" font-size="10.00">AAX_CString::Clear</text>
</a>
</g>
</g>
<!-- Node1&#45;&gt;Node4 -->
<g id="edge3" class="edge">
<title>Node1&#45;&gt;Node4</title>
<path fill="none" stroke="midnightblue" d="M152.71,-32.98C171.35,-29.18 191.08,-25.16 208.74,-21.57"/>
<polygon fill="midnightblue" stroke="midnightblue" points="209.77,-24.93 218.87,-19.5 208.37,-18.07 209.77,-24.93"/>
</g>
</g>
</svg>
