<?xml version="1.0" encoding="UTF-8" standalone="no"?>
<!DOCTYPE svg PUBLIC "-//W3C//DTD SVG 1.1//EN"
 "http://www.w3.org/Graphics/SVG/1.1/DTD/svg11.dtd">
<!-- Generated by graphviz version 6.0.1 (20220911.1526)
 -->
<!-- Title: AAX_CEffectParameters Pages: 1 -->
<svg width="1576pt" height="266pt"
 viewBox="0.00 0.00 1576.00 266.00" xmlns="http://www.w3.org/2000/svg" xmlns:xlink="http://www.w3.org/1999/xlink">
<g id="graph0" class="graph" transform="scale(1 1) rotate(0) translate(4 262)">
<title>AAX_CEffectParameters</title>
<polygon fill="white" stroke="none" points="-4,4 -4,-262 1572,-262 1572,4 -4,4"/>
<!-- Node1 -->
<g id="node1" class="node">
<title>Node1</title>
<g id="a_node1"><a xlink:title="Default implementation of the AAX_IEffectParameters interface.">
<polygon fill="#bfbfbf" stroke="black" points="1442,-124.5 1442,-143.5 1568,-143.5 1568,-124.5 1442,-124.5"/>
<text text-anchor="middle" x="1505" y="-131.5" font-family="Helvetica,sans-Serif" font-size="10.00">AAX_CEffectParameters</text>
</a>
</g>
</g>
<!-- Node2 -->
<g id="node2" class="node">
<title>Node2</title>
<g id="a_node2"><a xlink:href="a02113.html" target="_top" xlink:title="The interface for an AAX Plug&#45;in&#39;s data model.">
<polygon fill="white" stroke="black" points="1191,-200.5 1191,-219.5 1313,-219.5 1313,-200.5 1191,-200.5"/>
<text text-anchor="middle" x="1252" y="-207.5" font-family="Helvetica,sans-Serif" font-size="10.00">AAX_IEffectParameters</text>
</a>
</g>
</g>
<!-- Node2&#45;&gt;Node1 -->
<g id="edge1" class="edge">
<title>Node2&#45;&gt;Node1</title>
<path fill="none" stroke="midnightblue" d="M1323.01,-200.1C1354.43,-194.53 1391.62,-186.37 1424,-175 1447.41,-166.78 1472.6,-152.95 1488.33,-143.66"/>
<polygon fill="midnightblue" stroke="midnightblue" points="1322.29,-196.67 1313.03,-201.81 1323.48,-203.57 1322.29,-196.67"/>
</g>
<!-- Node3 -->
<g id="node3" class="node">
<title>Node3</title>
<g id="a_node3"><a xlink:href="a01969.html" target="_top" xlink:title="Supplemental interface for an AAX Plug&#45;in&#39;s data model.">
<polygon fill="white" stroke="black" points="899,-200.5 899,-219.5 1058,-219.5 1058,-200.5 899,-200.5"/>
<text text-anchor="middle" x="978.5" y="-207.5" font-family="Helvetica,sans-Serif" font-size="10.00">AAX_IACFEffectParameters_V4</text>
</a>
</g>
</g>
<!-- Node3&#45;&gt;Node2 -->
<g id="edge2" class="edge">
<title>Node3&#45;&gt;Node2</title>
<path fill="none" stroke="midnightblue" d="M1068.1,-210C1108.26,-210 1154.72,-210 1190.76,-210"/>
<polygon fill="midnightblue" stroke="midnightblue" points="1068.03,-206.5 1058.03,-210 1068.03,-213.5 1068.03,-206.5"/>
</g>
<!-- Node4 -->
<g id="node4" class="node">
<title>Node4</title>
<g id="a_node4"><a xlink:href="a01965.html" target="_top" xlink:title="Supplemental interface for an AAX Plug&#45;in&#39;s data model.">
<polygon fill="white" stroke="black" points="661,-217.5 661,-236.5 820,-236.5 820,-217.5 661,-217.5"/>
<text text-anchor="middle" x="740.5" y="-224.5" font-family="Helvetica,sans-Serif" font-size="10.00">AAX_IACFEffectParameters_V3</text>
</a>
</g>
</g>
<!-- Node4&#45;&gt;Node3 -->
<g id="edge3" class="edge">
<title>Node4&#45;&gt;Node3</title>
<path fill="none" stroke="midnightblue" d="M830.31,-220.6C852.84,-218.98 876.88,-217.25 898.86,-215.66"/>
<polygon fill="midnightblue" stroke="midnightblue" points="829.81,-217.13 820.08,-221.34 830.31,-224.11 829.81,-217.13"/>
</g>
<!-- Node5 -->
<g id="node5" class="node">
<title>Node5</title>
<g id="a_node5"><a xlink:href="a01961.html" target="_top" xlink:title="Supplemental interface for an AAX Plug&#45;in&#39;s data model.">
<polygon fill="white" stroke="black" points="354,-231.5 354,-250.5 513,-250.5 513,-231.5 354,-231.5"/>
<text text-anchor="middle" x="433.5" y="-238.5" font-family="Helvetica,sans-Serif" font-size="10.00">AAX_IACFEffectParameters_V2</text>
</a>
</g>
</g>
<!-- Node5&#45;&gt;Node4 -->
<g id="edge4" class="edge">
<title>Node5&#45;&gt;Node4</title>
<path fill="none" stroke="midnightblue" d="M523.07,-236.93C566.67,-234.93 618.79,-232.54 660.96,-230.61"/>
<polygon fill="midnightblue" stroke="midnightblue" points="522.87,-233.44 513.05,-237.39 523.2,-240.43 522.87,-233.44"/>
</g>
<!-- Node6 -->
<g id="node6" class="node">
<title>Node6</title>
<g id="a_node6"><a xlink:href="a01953.html" target="_top" xlink:title="The interface for an AAX Plug&#45;in&#39;s data model.">
<polygon fill="white" stroke="black" points="132,-231.5 132,-250.5 274,-250.5 274,-231.5 132,-231.5"/>
<text text-anchor="middle" x="203" y="-238.5" font-family="Helvetica,sans-Serif" font-size="10.00">AAX_IACFEffectParameters</text>
</a>
</g>
</g>
<!-- Node6&#45;&gt;Node5 -->
<g id="edge5" class="edge">
<title>Node6&#45;&gt;Node5</title>
<path fill="none" stroke="midnightblue" d="M284.31,-241C306.84,-241 331.31,-241 353.74,-241"/>
<polygon fill="midnightblue" stroke="midnightblue" points="284.11,-237.5 274.11,-241 284.11,-244.5 284.11,-237.5"/>
</g>
<!-- Node7 -->
<g id="node7" class="node">
<title>Node7</title>
<g id="a_node7"><a xlink:href="a01689.html" target="_top" xlink:title="COM compatible IUnknown C++ interface.">
<polygon fill="white" stroke="black" points="7,-231.5 7,-250.5 88,-250.5 88,-231.5 7,-231.5"/>
<text text-anchor="middle" x="47.5" y="-238.5" font-family="Helvetica,sans-Serif" font-size="10.00">IACFUnknown</text>
</a>
</g>
</g>
<!-- Node7&#45;&gt;Node6 -->
<g id="edge6" class="edge">
<title>Node7&#45;&gt;Node6</title>
<path fill="none" stroke="midnightblue" d="M98.09,-241C108.89,-241 120.51,-241 131.93,-241"/>
<polygon fill="midnightblue" stroke="midnightblue" points="98.03,-237.5 88.03,-241 98.03,-244.5 98.03,-237.5"/>
</g>
<!-- Node8 -->
<g id="node8" class="node">
<title>Node8</title>
<g id="a_node8"><a xlink:title=" ">
<polygon fill="white" stroke="#bfbfbf" points="935.5,-238.5 935.5,-257.5 1021.5,-257.5 1021.5,-238.5 935.5,-238.5"/>
<text text-anchor="middle" x="978.5" y="-245.5" font-family="Helvetica,sans-Serif" font-size="10.00">CACFUnknown</text>
</a>
</g>
</g>
<!-- Node8&#45;&gt;Node2 -->
<g id="edge7" class="edge">
<title>Node8&#45;&gt;Node2</title>
<path fill="none" stroke="midnightblue" d="M1031.97,-242.05C1070.28,-237.54 1123.44,-230.95 1170,-224 1179.03,-222.65 1188.61,-221.1 1197.9,-219.54"/>
<polygon fill="midnightblue" stroke="midnightblue" points="1031.1,-238.62 1021.57,-243.26 1031.91,-245.58 1031.1,-238.62"/>
</g>
<!-- Node9 -->
<g id="node9" class="node">
<title>Node9</title>
<g id="a_node9"><a xlink:href="a01809.html" target="_top" xlink:title="Helper class for managing AAX packet posting.">
<polygon fill="white" stroke="black" points="1188,-162.5 1188,-181.5 1316,-181.5 1316,-162.5 1188,-162.5"/>
<text text-anchor="middle" x="1252" y="-169.5" font-family="Helvetica,sans-Serif" font-size="10.00">AAX_CPacketDispatcher</text>
</a>
</g>
</g>
<!-- Node9&#45;&gt;Node1 -->
<g id="edge8" class="edge">
<title>Node9&#45;&gt;Node1</title>
<path fill="none" stroke="#9a32cd" stroke-dasharray="5,2" d="M1326.09,-162.3C1356.41,-158.12 1391.94,-153.05 1424,-148 1432.77,-146.62 1442.08,-145.07 1451.11,-143.52"/>
<polygon fill="#9a32cd" stroke="#9a32cd" points="1325.45,-158.85 1316.02,-163.67 1326.4,-165.79 1325.45,-158.85"/>
<text text-anchor="middle" x="1379" y="-163" font-family="Helvetica,sans-Serif" font-size="10.00"> mPacketDispatcher</text>
</g>
<!-- Node10 -->
<g id="node10" class="node">
<title>Node10</title>
<g id="a_node10"><a xlink:title=" ">
<polygon fill="white" stroke="#bfbfbf" points="532,-69.5 532,-88.5 643,-88.5 643,-69.5 532,-69.5"/>
<text text-anchor="middle" x="587.5" y="-76.5" font-family="Helvetica,sans-Serif" font-size="10.00">std::set&lt; std::string &gt;</text>
</a>
</g>
</g>
<!-- Node10&#45;&gt;Node1 -->
<g id="edge9" class="edge">
<title>Node10&#45;&gt;Node1</title>
<path fill="none" stroke="#9a32cd" stroke-dasharray="5,2" d="M653.24,-84.99C707.89,-89.54 788.25,-95 858.5,-95 858.5,-95 858.5,-95 1253,-95 1329.51,-95 1417.6,-112.91 1466.44,-124.46"/>
<polygon fill="#9a32cd" stroke="#9a32cd" points="653.26,-81.48 643,-84.13 652.67,-88.46 653.26,-81.48"/>
<text text-anchor="middle" x="978.5" y="-98" font-family="Helvetica,sans-Serif" font-size="10.00"> mFilteredParameters</text>
</g>
<!-- Node11 -->
<g id="node11" class="node">
<title>Node11</title>
<g id="a_node11"><a xlink:title=" ">
<polygon fill="white" stroke="#bfbfbf" points="173,-67.5 173,-86.5 233,-86.5 233,-67.5 173,-67.5"/>
<text text-anchor="middle" x="203" y="-74.5" font-family="Helvetica,sans-Serif" font-size="10.00">std::string</text>
</a>
</g>
</g>
<!-- Node11&#45;&gt;Node10 -->
<g id="edge10" class="edge">
<title>Node11&#45;&gt;Node10</title>
<path fill="none" stroke="#9a32cd" stroke-dasharray="5,2" d="M243.44,-77.21C312.13,-77.57 453.82,-78.31 531.9,-78.71"/>
<polygon fill="#9a32cd" stroke="#9a32cd" points="243.08,-73.7 233.06,-77.15 243.05,-80.7 243.08,-73.7"/>
<text text-anchor="middle" x="313.5" y="-80" font-family="Helvetica,sans-Serif" font-size="10.00"> keys</text>
</g>
<!-- Node16 -->
<g id="node16" class="node">
<title>Node16</title>
<g id="a_node16"><a xlink:title=" ">
<polygon fill="white" stroke="#bfbfbf" points="378.5,-144 378.5,-174 488.5,-174 488.5,-144 378.5,-144"/>
<text text-anchor="start" x="386.5" y="-162" font-family="Helvetica,sans-Serif" font-size="10.00">std::map&lt; std::string,</text>
<text text-anchor="middle" x="433.5" y="-151" font-family="Helvetica,sans-Serif" font-size="10.00"> AAX_IParameter * &gt;</text>
</a>
</g>
</g>
<!-- Node11&#45;&gt;Node16 -->
<g id="edge16" class="edge">
<title>Node11&#45;&gt;Node16</title>
<path fill="none" stroke="#9a32cd" stroke-dasharray="5,2" d="M237.14,-90.34C267.2,-102.28 312.82,-120.01 353,-134 362.7,-137.38 373.14,-140.8 383.15,-143.99"/>
<polygon fill="#9a32cd" stroke="#9a32cd" points="238.16,-86.98 227.58,-86.53 235.57,-93.48 238.16,-86.98"/>
<text text-anchor="middle" x="313.5" y="-129" font-family="Helvetica,sans-Serif" font-size="10.00"> keys</text>
</g>
<!-- Node21 -->
<g id="node21" class="node">
<title>Node21</title>
<g id="a_node21"><a xlink:href="a01853.html" target="_top" xlink:title="A generic AAX string class with similar functionality to std::string">
<polygon fill="white" stroke="black" points="396,-29.5 396,-48.5 471,-48.5 471,-29.5 396,-29.5"/>
<text text-anchor="middle" x="433.5" y="-36.5" font-family="Helvetica,sans-Serif" font-size="10.00">AAX_CString</text>
</a>
</g>
</g>
<!-- Node11&#45;&gt;Node21 -->
<g id="edge24" class="edge">
<title>Node11&#45;&gt;Node21</title>
<path fill="none" stroke="#9a32cd" stroke-dasharray="5,2" d="M233.01,-63.41C249.84,-56.22 271.67,-48.06 292,-44 326.71,-37.07 367.17,-36.38 395.74,-37.09"/>
<polygon fill="#9a32cd" stroke="#9a32cd" points="231.47,-60.26 223.73,-67.49 234.29,-66.67 231.47,-60.26"/>
<text text-anchor="middle" x="313.5" y="-47" font-family="Helvetica,sans-Serif" font-size="10.00"> mString</text>
</g>
<!-- Node12 -->
<g id="node12" class="node">
<title>Node12</title>
<g id="a_node12"><a xlink:title=" ">
<polygon fill="white" stroke="#bfbfbf" points="0,-62 0,-92 95,-92 95,-62 0,-62"/>
<text text-anchor="start" x="8" y="-80" font-family="Helvetica,sans-Serif" font-size="10.00">std::basic_string&lt;</text>
<text text-anchor="middle" x="47.5" y="-69" font-family="Helvetica,sans-Serif" font-size="10.00"> Char &gt;</text>
</a>
</g>
</g>
<!-- Node12&#45;&gt;Node11 -->
<g id="edge11" class="edge">
<title>Node12&#45;&gt;Node11</title>
<path fill="none" stroke="midnightblue" d="M105.67,-77C128.51,-77 153.82,-77 172.76,-77"/>
<polygon fill="midnightblue" stroke="midnightblue" points="105.39,-73.5 95.39,-77 105.39,-80.5 105.39,-73.5"/>
</g>
<!-- Node13 -->
<g id="node13" class="node">
<title>Node13</title>
<g id="a_node13"><a xlink:href="a01825.html" target="_top" xlink:title="A container object for plug&#45;in parameters.">
<polygon fill="white" stroke="black" points="674.5,-136.5 674.5,-155.5 806.5,-155.5 806.5,-136.5 674.5,-136.5"/>
<text text-anchor="middle" x="740.5" y="-143.5" font-family="Helvetica,sans-Serif" font-size="10.00">AAX_CParameterManager</text>
</a>
</g>
</g>
<!-- Node13&#45;&gt;Node1 -->
<g id="edge12" class="edge">
<title>Node13&#45;&gt;Node1</title>
<path fill="none" stroke="#9a32cd" stroke-dasharray="5,2" d="M816.58,-144.82C967,-142.45 1302.76,-137.17 1441.83,-134.98"/>
<polygon fill="#9a32cd" stroke="#9a32cd" points="816.45,-141.32 806.51,-144.98 816.56,-148.32 816.45,-141.32"/>
<text text-anchor="middle" x="1123" y="-143" font-family="Helvetica,sans-Serif" font-size="10.00"> mParameterManager</text>
</g>
<!-- Node14 -->
<g id="node14" class="node">
<title>Node14</title>
<g id="a_node14"><a xlink:title=" ">
<polygon fill="white" stroke="#bfbfbf" points="353,-193.5 353,-212.5 514,-212.5 514,-193.5 353,-193.5"/>
<text text-anchor="middle" x="433.5" y="-200.5" font-family="Helvetica,sans-Serif" font-size="10.00">std::vector&lt; AAX_IParameter * &gt;</text>
</a>
</g>
</g>
<!-- Node14&#45;&gt;Node13 -->
<g id="edge13" class="edge">
<title>Node14&#45;&gt;Node13</title>
<path fill="none" stroke="#9a32cd" stroke-dasharray="5,2" d="M510.57,-191.95C550.18,-185.85 599.33,-177.75 643,-169 662.59,-165.07 684.24,-159.98 702.06,-155.59"/>
<polygon fill="#9a32cd" stroke="#9a32cd" points="509.81,-188.52 500.45,-193.49 510.87,-195.44 509.81,-188.52"/>
<text text-anchor="middle" x="587.5" y="-191" font-family="Helvetica,sans-Serif" font-size="10.00"> mParameters</text>
</g>
<!-- Node15 -->
<g id="node15" class="node">
<title>Node15</title>
<g id="a_node15"><a xlink:href="a02145.html" target="_top" xlink:title="The base interface for all normalizable plug&#45;in parameters.">
<polygon fill="white" stroke="black" points="158,-171.5 158,-190.5 248,-190.5 248,-171.5 158,-171.5"/>
<text text-anchor="middle" x="203" y="-178.5" font-family="Helvetica,sans-Serif" font-size="10.00">AAX_IParameter</text>
</a>
</g>
</g>
<!-- Node15&#45;&gt;Node14 -->
<g id="edge14" class="edge">
<title>Node15&#45;&gt;Node14</title>
<path fill="none" stroke="#9a32cd" stroke-dasharray="5,2" d="M258.15,-186.21C286.45,-188.94 321.63,-192.33 352.96,-195.34"/>
<polygon fill="#9a32cd" stroke="#9a32cd" points="258.35,-182.72 248.06,-185.24 257.68,-189.68 258.35,-182.72"/>
<text text-anchor="middle" x="313.5" y="-196" font-family="Helvetica,sans-Serif" font-size="10.00"> elements</text>
</g>
<!-- Node15&#45;&gt;Node16 -->
<g id="edge17" class="edge">
<title>Node15&#45;&gt;Node16</title>
<path fill="none" stroke="#9a32cd" stroke-dasharray="5,2" d="M258.42,-175.76C294.6,-172.28 341.92,-167.72 378.1,-164.24"/>
<polygon fill="#9a32cd" stroke="#9a32cd" points="257.68,-172.32 248.06,-176.76 258.35,-179.28 257.68,-172.32"/>
<text text-anchor="middle" x="313.5" y="-174" font-family="Helvetica,sans-Serif" font-size="10.00"> elements</text>
</g>
<!-- Node16&#45;&gt;Node13 -->
<g id="edge15" class="edge">
<title>Node16&#45;&gt;Node13</title>
<path fill="none" stroke="#9a32cd" stroke-dasharray="5,2" d="M498.72,-156.26C550.35,-154.06 622.58,-150.98 674.44,-148.77"/>
<polygon fill="#9a32cd" stroke="#9a32cd" points="498.52,-152.77 488.68,-156.69 498.82,-159.76 498.52,-152.77"/>
<text text-anchor="middle" x="587.5" y="-157" font-family="Helvetica,sans-Serif" font-size="10.00"> mParametersMap</text>
</g>
<!-- Node17 -->
<g id="node17" class="node">
<title>Node17</title>
<g id="a_node17"><a xlink:href="a02061.html" target="_top" xlink:title="Interface allowing an AAX plug&#45;in to interact with the host&#39;s event system.">
<polygon fill="white" stroke="black" points="366.5,-105.5 366.5,-124.5 500.5,-124.5 500.5,-105.5 366.5,-105.5"/>
<text text-anchor="middle" x="433.5" y="-112.5" font-family="Helvetica,sans-Serif" font-size="10.00">AAX_IAutomationDelegate</text>
</a>
</g>
</g>
<!-- Node17&#45;&gt;Node13 -->
<g id="edge18" class="edge">
<title>Node17&#45;&gt;Node13</title>
<path fill="none" stroke="#9a32cd" stroke-dasharray="5,2" d="M510.81,-121.99C550.29,-125.69 599.25,-130.41 643,-135 653.15,-136.06 663.89,-137.24 674.37,-138.42"/>
<polygon fill="#9a32cd" stroke="#9a32cd" points="511.01,-118.49 500.73,-121.05 510.36,-125.46 511.01,-118.49"/>
<text text-anchor="middle" x="587.5" y="-138" font-family="Helvetica,sans-Serif" font-size="10.00"> mAutomationDelegate</text>
</g>
<!-- Node18 -->
<g id="node18" class="node">
<title>Node18</title>
<g id="a_node18"><a xlink:href="a01741.html" target="_top" xlink:title="Parser utility for plugin chunks.">
<polygon fill="white" stroke="black" points="1188,-44.5 1188,-63.5 1316,-63.5 1316,-44.5 1188,-44.5"/>
<text text-anchor="middle" x="1252" y="-51.5" font-family="Helvetica,sans-Serif" font-size="10.00">AAX_CChunkDataParser</text>
</a>
</g>
</g>
<!-- Node18&#45;&gt;Node1 -->
<g id="edge19" class="edge">
<title>Node18&#45;&gt;Node1</title>
<path fill="none" stroke="#9a32cd" stroke-dasharray="5,2" d="M1326.69,-51.68C1357.7,-53.02 1393.57,-57.71 1424,-70 1454.01,-82.13 1481.79,-109.36 1495.33,-124.09"/>
<polygon fill="#9a32cd" stroke="#9a32cd" points="1326.49,-48.18 1316.38,-51.35 1326.26,-55.17 1326.49,-48.18"/>
<text text-anchor="middle" x="1379" y="-73" font-family="Helvetica,sans-Serif" font-size="10.00"> mChunkParser</text>
</g>
<!-- Node19 -->
<g id="node19" class="node">
<title>Node19</title>
<g id="a_node19"><a xlink:title=" ">
<polygon fill="white" stroke="#bfbfbf" points="901.5,-28 901.5,-58 1055.5,-58 1055.5,-28 901.5,-28"/>
<text text-anchor="start" x="909.5" y="-46" font-family="Helvetica,sans-Serif" font-size="10.00">std::vector&lt; AAX_CChunkData</text>
<text text-anchor="middle" x="978.5" y="-35" font-family="Helvetica,sans-Serif" font-size="10.00">Parser::DataValue &gt;</text>
</a>
</g>
</g>
<!-- Node19&#45;&gt;Node18 -->
<g id="edge20" class="edge">
<title>Node19&#45;&gt;Node18</title>
<path fill="none" stroke="#9a32cd" stroke-dasharray="5,2" d="M1066,-46.5C1105.48,-48.1 1151.38,-49.96 1187.59,-51.43"/>
<polygon fill="#9a32cd" stroke="#9a32cd" points="1065.98,-43 1055.85,-46.09 1065.7,-50 1065.98,-43"/>
<text text-anchor="middle" x="1123" y="-53" font-family="Helvetica,sans-Serif" font-size="10.00"> mDataValues</text>
</g>
<!-- Node20 -->
<g id="node20" class="node">
<title>Node20</title>
<g id="a_node20"><a xlink:href="a01745.html" target="_top" xlink:title=" ">
<polygon fill="white" stroke="black" points="676.5,-28 676.5,-58 804.5,-58 804.5,-28 676.5,-28"/>
<text text-anchor="start" x="684.5" y="-46" font-family="Helvetica,sans-Serif" font-size="10.00">AAX_CChunkDataParser</text>
<text text-anchor="middle" x="740.5" y="-35" font-family="Helvetica,sans-Serif" font-size="10.00">::DataValue</text>
</a>
</g>
</g>
<!-- Node20&#45;&gt;Node19 -->
<g id="edge21" class="edge">
<title>Node20&#45;&gt;Node19</title>
<path fill="none" stroke="#9a32cd" stroke-dasharray="5,2" d="M815.07,-43C842.55,-43 873.78,-43 901.47,-43"/>
<polygon fill="#9a32cd" stroke="#9a32cd" points="814.74,-39.5 804.74,-43 814.74,-46.5 814.74,-39.5"/>
<text text-anchor="middle" x="859.5" y="-46" font-family="Helvetica,sans-Serif" font-size="10.00"> elements</text>
</g>
<!-- Node21&#45;&gt;Node20 -->
<g id="edge22" class="edge">
<title>Node21&#45;&gt;Node20</title>
<path fill="none" stroke="#9a32cd" stroke-dasharray="5,2" d="M481.3,-37.96C523.56,-37.21 587.46,-36.56 643,-38 653.82,-38.28 665.31,-38.74 676.45,-39.26"/>
<polygon fill="#9a32cd" stroke="#9a32cd" points="480.97,-34.46 471.04,-38.15 481.1,-41.46 480.97,-34.46"/>
<text text-anchor="middle" x="587.5" y="-52" font-family="Helvetica,sans-Serif" font-size="10.00"> mDataName</text>
<text text-anchor="middle" x="587.5" y="-41" font-family="Helvetica,sans-Serif" font-size="10.00">mStringValue</text>
</g>
<!-- Node22 -->
<g id="node22" class="node">
<title>Node22</title>
<g id="a_node22"><a xlink:href="a02161.html" target="_top" xlink:title="A simple string container that can be passed across a binary boundary. This class,...">
<polygon fill="white" stroke="black" points="167.5,-0.5 167.5,-19.5 238.5,-19.5 238.5,-0.5 167.5,-0.5"/>
<text text-anchor="middle" x="203" y="-7.5" font-family="Helvetica,sans-Serif" font-size="10.00">AAX_IString</text>
</a>
</g>
</g>
<!-- Node22&#45;&gt;Node21 -->
<g id="edge23" class="edge">
<title>Node22&#45;&gt;Node21</title>
<path fill="none" stroke="midnightblue" d="M248.59,-14.25C273.95,-16.8 306.29,-20.26 335,-24 355.21,-26.63 377.7,-30.06 395.98,-32.97"/>
<polygon fill="midnightblue" stroke="midnightblue" points="248.83,-10.76 238.53,-13.25 248.13,-17.72 248.83,-10.76"/>
</g>
</g>
</svg>
