<?xml version="1.0" encoding="UTF-8" standalone="no"?>
<!DOCTYPE svg PUBLIC "-//W3C//DTD SVG 1.1//EN"
 "http://www.w3.org/Graphics/SVG/1.1/DTD/svg11.dtd">
<!-- Generated by graphviz version 2.47.3 (20210619.1520)
 -->
<!-- Title: AAX_CLogTaperDelegate&lt; T, RealPrecision &gt; Pages: 1 -->
<svg width="140pt" height="151pt"
 viewBox="0.00 0.00 140.00 151.00" xmlns="http://www.w3.org/2000/svg" xmlns:xlink="http://www.w3.org/1999/xlink">
<g id="graph0" class="graph" transform="scale(1 1) rotate(0) translate(4 147)">
<title>AAX_CLogTaperDelegate&lt; T, RealPrecision &gt;</title>
<polygon fill="white" stroke="transparent" points="-4,4 -4,-147 136,-147 136,4 -4,4"/>
<!-- Node1 -->
<g id="node1" class="node">
<title>Node1</title>
<g id="a_node1"><a xlink:title="A logarithmic taper conforming to AAX_ITaperDelegate.">
<polygon fill="#bfbfbf" stroke="black" points="2,-0.5 2,-30.5 130,-30.5 130,-0.5 2,-0.5"/>
<text text-anchor="start" x="10" y="-18.5" font-family="Helvetica,sans-Serif" font-size="10.00">AAX_CLogTaperDelegate</text>
<text text-anchor="middle" x="66" y="-7.5" font-family="Helvetica,sans-Serif" font-size="10.00">&lt; T, RealPrecision &gt;</text>
</a>
</g>
</g>
<!-- Node2 -->
<g id="node2" class="node">
<title>Node2</title>
<g id="a_node2"><a xlink:href="a02169.html" target="_top" xlink:title="Classes for conversion to and from normalized parameter values.">
<polygon fill="white" stroke="black" points="0,-67.5 0,-86.5 132,-86.5 132,-67.5 0,-67.5"/>
<text text-anchor="middle" x="66" y="-74.5" font-family="Helvetica,sans-Serif" font-size="10.00">AAX_ITaperDelegate&lt; T &gt;</text>
</a>
</g>
</g>
<!-- Node2&#45;&gt;Node1 -->
<g id="edge1" class="edge">
<title>Node2&#45;&gt;Node1</title>
<path fill="none" stroke="midnightblue" d="M66,-57.23C66,-48.59 66,-38.5 66,-30.52"/>
<polygon fill="midnightblue" stroke="midnightblue" points="62.5,-57.48 66,-67.48 69.5,-57.48 62.5,-57.48"/>
</g>
<!-- Node3 -->
<g id="node3" class="node">
<title>Node3</title>
<g id="a_node3"><a xlink:href="a02165.html" target="_top" xlink:title="Defines the taper conversion behavior for a parameter.">
<polygon fill="white" stroke="black" points="0.5,-123.5 0.5,-142.5 131.5,-142.5 131.5,-123.5 0.5,-123.5"/>
<text text-anchor="middle" x="66" y="-130.5" font-family="Helvetica,sans-Serif" font-size="10.00">AAX_ITaperDelegateBase</text>
</a>
</g>
</g>
<!-- Node3&#45;&gt;Node2 -->
<g id="edge2" class="edge">
<title>Node3&#45;&gt;Node2</title>
<path fill="none" stroke="midnightblue" d="M66,-112.8C66,-103.91 66,-93.78 66,-86.75"/>
<polygon fill="midnightblue" stroke="midnightblue" points="62.5,-113.08 66,-123.08 69.5,-113.08 62.5,-113.08"/>
</g>
</g>
</svg>
