<?xml version="1.0" encoding="UTF-8" standalone="no"?>
<!DOCTYPE svg PUBLIC "-//W3C//DTD SVG 1.1//EN"
 "http://www.w3.org/Graphics/SVG/1.1/DTD/svg11.dtd">
<!-- Generated by graphviz version 6.0.1 (20220911.1526)
 -->
<!-- Title: AAX_CLinearTaperDelegate&lt; T, RealPrecision &gt; Pages: 1 -->
<svg width="147pt" height="151pt"
 viewBox="0.00 0.00 147.00 151.00" xmlns="http://www.w3.org/2000/svg" xmlns:xlink="http://www.w3.org/1999/xlink">
<g id="graph0" class="graph" transform="scale(1 1) rotate(0) translate(4 147)">
<title>AAX_CLinearTaperDelegate&lt; T, RealPrecision &gt;</title>
<polygon fill="white" stroke="none" points="-4,4 -4,-147 143,-147 143,4 -4,4"/>
<!-- Node1 -->
<g id="node1" class="node">
<title>Node1</title>
<g id="a_node1"><a xlink:title="A linear taper conforming to AAX_ITaperDelegate.">
<polygon fill="#bfbfbf" stroke="black" points="0,-0.5 0,-30.5 139,-30.5 139,-0.5 0,-0.5"/>
<text text-anchor="start" x="8" y="-18.5" font-family="Helvetica,sans-Serif" font-size="10.00">AAX_CLinearTaperDelegate</text>
<text text-anchor="middle" x="69.5" y="-7.5" font-family="Helvetica,sans-Serif" font-size="10.00">&lt; T, RealPrecision &gt;</text>
</a>
</g>
</g>
<!-- Node2 -->
<g id="node2" class="node">
<title>Node2</title>
<g id="a_node2"><a xlink:href="a02169.html" target="_top" xlink:title="Classes for conversion to and from normalized parameter values.">
<polygon fill="white" stroke="black" points="3.5,-67.5 3.5,-86.5 135.5,-86.5 135.5,-67.5 3.5,-67.5"/>
<text text-anchor="middle" x="69.5" y="-74.5" font-family="Helvetica,sans-Serif" font-size="10.00">AAX_ITaperDelegate&lt; T &gt;</text>
</a>
</g>
</g>
<!-- Node2&#45;&gt;Node1 -->
<g id="edge1" class="edge">
<title>Node2&#45;&gt;Node1</title>
<path fill="none" stroke="midnightblue" d="M69.5,-57.23C69.5,-48.59 69.5,-38.5 69.5,-30.52"/>
<polygon fill="midnightblue" stroke="midnightblue" points="66,-57.48 69.5,-67.48 73,-57.48 66,-57.48"/>
</g>
<!-- Node3 -->
<g id="node3" class="node">
<title>Node3</title>
<g id="a_node3"><a xlink:href="a02165.html" target="_top" xlink:title="Defines the taper conversion behavior for a parameter.">
<polygon fill="white" stroke="black" points="4,-123.5 4,-142.5 135,-142.5 135,-123.5 4,-123.5"/>
<text text-anchor="middle" x="69.5" y="-130.5" font-family="Helvetica,sans-Serif" font-size="10.00">AAX_ITaperDelegateBase</text>
</a>
</g>
</g>
<!-- Node3&#45;&gt;Node2 -->
<g id="edge2" class="edge">
<title>Node3&#45;&gt;Node2</title>
<path fill="none" stroke="midnightblue" d="M69.5,-112.8C69.5,-103.91 69.5,-93.78 69.5,-86.75"/>
<polygon fill="midnightblue" stroke="midnightblue" points="66,-113.08 69.5,-123.08 73,-113.08 66,-113.08"/>
</g>
</g>
</svg>
