<?xml version="1.0" encoding="UTF-8" standalone="no"?>
<!DOCTYPE svg PUBLIC "-//W3C//DTD SVG 1.1//EN"
 "http://www.w3.org/Graphics/SVG/1.1/DTD/svg11.dtd">
<!-- Generated by graphviz version 2.47.3 (20210619.1520)
 -->
<!-- Title: AAX_CEffectDirectData Pages: 1 -->
<svg width="268pt" height="252pt"
 viewBox="0.00 0.00 268.00 252.00" xmlns="http://www.w3.org/2000/svg" xmlns:xlink="http://www.w3.org/1999/xlink">
<g id="graph0" class="graph" transform="scale(1 1) rotate(0) translate(4 248)">
<title>AAX_CEffectDirectData</title>
<polygon fill="white" stroke="transparent" points="-4,4 -4,-248 264,-248 264,4 -4,4"/>
<!-- Node1 -->
<g id="node1" class="node">
<title>Node1</title>
<g id="a_node1"><a xlink:title="Default implementation of the AAX_IEffectDirectData interface.">
<polygon fill="#bfbfbf" stroke="black" points="85.5,-0.5 85.5,-19.5 208.5,-19.5 208.5,-0.5 85.5,-0.5"/>
<text text-anchor="middle" x="147" y="-7.5" font-family="Helvetica,sans-Serif" font-size="10.00">AAX_CEffectDirectData</text>
</a>
</g>
</g>
<!-- Node2 -->
<g id="node2" class="node">
<title>Node2</title>
<g id="a_node2"><a xlink:href="a02105.html" target="_top" xlink:title="The interface for a AAX Plug&#45;in&#39;s direct data interface.">
<polygon fill="white" stroke="black" points="87.5,-56.5 87.5,-75.5 206.5,-75.5 206.5,-56.5 87.5,-56.5"/>
<text text-anchor="middle" x="147" y="-63.5" font-family="Helvetica,sans-Serif" font-size="10.00">AAX_IEffectDirectData</text>
</a>
</g>
</g>
<!-- Node2&#45;&gt;Node1 -->
<g id="edge1" class="edge">
<title>Node2&#45;&gt;Node1</title>
<path fill="none" stroke="midnightblue" d="M147,-45.8C147,-36.91 147,-26.78 147,-19.75"/>
<polygon fill="midnightblue" stroke="midnightblue" points="143.5,-46.08 147,-56.08 150.5,-46.08 143.5,-46.08"/>
</g>
<!-- Node3 -->
<g id="node3" class="node">
<title>Node3</title>
<g id="a_node3"><a xlink:href="a01945.html" target="_top" xlink:title=" ">
<polygon fill="white" stroke="black" points="0,-112.5 0,-131.5 156,-131.5 156,-112.5 0,-112.5"/>
<text text-anchor="middle" x="78" y="-119.5" font-family="Helvetica,sans-Serif" font-size="10.00">AAX_IACFEffectDirectData_V2</text>
</a>
</g>
</g>
<!-- Node3&#45;&gt;Node2 -->
<g id="edge2" class="edge">
<title>Node3&#45;&gt;Node2</title>
<path fill="none" stroke="midnightblue" d="M97.04,-106.1C109.46,-96.38 125.24,-84.03 135.71,-75.83"/>
<polygon fill="midnightblue" stroke="midnightblue" points="94.8,-103.4 89.09,-112.32 99.12,-108.92 94.8,-103.4"/>
</g>
<!-- Node4 -->
<g id="node4" class="node">
<title>Node4</title>
<g id="a_node4"><a xlink:href="a01941.html" target="_top" xlink:title="Optional interface for direct access to a plug&#45;in&#39;s alg memory.">
<polygon fill="white" stroke="black" points="8.5,-168.5 8.5,-187.5 147.5,-187.5 147.5,-168.5 8.5,-168.5"/>
<text text-anchor="middle" x="78" y="-175.5" font-family="Helvetica,sans-Serif" font-size="10.00">AAX_IACFEffectDirectData</text>
</a>
</g>
</g>
<!-- Node4&#45;&gt;Node3 -->
<g id="edge3" class="edge">
<title>Node4&#45;&gt;Node3</title>
<path fill="none" stroke="midnightblue" d="M78,-157.8C78,-148.91 78,-138.78 78,-131.75"/>
<polygon fill="midnightblue" stroke="midnightblue" points="74.5,-158.08 78,-168.08 81.5,-158.08 74.5,-158.08"/>
</g>
<!-- Node5 -->
<g id="node5" class="node">
<title>Node5</title>
<g id="a_node5"><a xlink:href="a01689.html" target="_top" xlink:title="COM compatible IUnknown C++ interface.">
<polygon fill="white" stroke="black" points="37.5,-224.5 37.5,-243.5 118.5,-243.5 118.5,-224.5 37.5,-224.5"/>
<text text-anchor="middle" x="78" y="-231.5" font-family="Helvetica,sans-Serif" font-size="10.00">IACFUnknown</text>
</a>
</g>
</g>
<!-- Node5&#45;&gt;Node4 -->
<g id="edge4" class="edge">
<title>Node5&#45;&gt;Node4</title>
<path fill="none" stroke="midnightblue" d="M78,-213.8C78,-204.91 78,-194.78 78,-187.75"/>
<polygon fill="midnightblue" stroke="midnightblue" points="74.5,-214.08 78,-224.08 81.5,-214.08 74.5,-214.08"/>
</g>
<!-- Node6 -->
<g id="node6" class="node">
<title>Node6</title>
<g id="a_node6"><a xlink:title=" ">
<polygon fill="white" stroke="#bfbfbf" points="174,-112.5 174,-131.5 260,-131.5 260,-112.5 174,-112.5"/>
<text text-anchor="middle" x="217" y="-119.5" font-family="Helvetica,sans-Serif" font-size="10.00">CACFUnknown</text>
</a>
</g>
</g>
<!-- Node6&#45;&gt;Node2 -->
<g id="edge5" class="edge">
<title>Node6&#45;&gt;Node2</title>
<path fill="none" stroke="midnightblue" d="M197.69,-106.1C185.09,-96.38 169.07,-84.03 158.45,-75.83"/>
<polygon fill="midnightblue" stroke="midnightblue" points="195.7,-108.99 205.75,-112.32 199.97,-103.44 195.7,-108.99"/>
</g>
</g>
</svg>
