<?xml version="1.0" encoding="UTF-8" standalone="no"?>
<!DOCTYPE svg PUBLIC "-//W3C//DTD SVG 1.1//EN"
 "http://www.w3.org/Graphics/SVG/1.1/DTD/svg11.dtd">
<!-- Generated by graphviz version 2.47.3 (20210619.1520)
 -->
<!-- Title: AAX_CEffectParameters::UpdateParameterNormalizedValue Pages: 1 -->
<svg width="366pt" height="50pt"
 viewBox="0.00 0.00 366.00 50.00" xmlns="http://www.w3.org/2000/svg" xmlns:xlink="http://www.w3.org/1999/xlink">
<g id="graph0" class="graph" transform="scale(1 1) rotate(0) translate(4 46)">
<title>AAX_CEffectParameters::UpdateParameterNormalizedValue</title>
<polygon fill="white" stroke="transparent" points="-4,4 -4,-46 362,-46 362,4 -4,4"/>
<!-- Node1 -->
<g id="node1" class="node">
<title>Node1</title>
<g id="a_node1"><a xlink:title="Updates a single parameter&#39;s state to its current value.">
<polygon fill="#bfbfbf" stroke="black" points="209,-0.5 209,-41.5 358,-41.5 358,-0.5 209,-0.5"/>
<text text-anchor="start" x="217" y="-29.5" font-family="Helvetica,sans-Serif" font-size="10.00">AAX_CEffectParameters</text>
<text text-anchor="start" x="217" y="-18.5" font-family="Helvetica,sans-Serif" font-size="10.00">::UpdateParameterNormalized</text>
<text text-anchor="middle" x="283.5" y="-7.5" font-family="Helvetica,sans-Serif" font-size="10.00">Value</text>
</a>
</g>
</g>
<!-- Node2 -->
<g id="node2" class="node">
<title>Node2</title>
<g id="a_node2"><a xlink:href="a02261.html#a9ef4fd6fa467008fcea4455d19c08009" target="_top" xlink:title="Updates a single parameter&#39;s state to its current value.">
<polygon fill="white" stroke="black" points="0,-6 0,-36 173,-36 173,-6 0,-6"/>
<text text-anchor="start" x="8" y="-24" font-family="Helvetica,sans-Serif" font-size="10.00">AAX_CMonolithicParameters</text>
<text text-anchor="middle" x="86.5" y="-13" font-family="Helvetica,sans-Serif" font-size="10.00">::UpdateParameterNormalizedValue</text>
</a>
</g>
</g>
<!-- Node1&#45;&gt;Node2 -->
<g id="edge1" class="edge">
<title>Node1&#45;&gt;Node2</title>
<path fill="none" stroke="midnightblue" d="M198.57,-21C190.14,-21 181.56,-21 173.11,-21"/>
<polygon fill="midnightblue" stroke="midnightblue" points="198.78,-24.5 208.78,-21 198.78,-17.5 198.78,-24.5"/>
</g>
</g>
</svg>
