<?xml version="1.0" encoding="UTF-8" standalone="no"?>
<!DOCTYPE svg PUBLIC "-//W3C//DTD SVG 1.1//EN"
 "http://www.w3.org/Graphics/SVG/1.1/DTD/svg11.dtd">
<!-- Generated by graphviz version 6.0.1 (20220911.1526)
 -->
<!-- Title: AAX_CUnitPrefixDisplayDelegateDecorator::StringToValue Pages: 1 -->
<svg width="369pt" height="116pt"
 viewBox="0.00 0.00 369.00 115.50" xmlns="http://www.w3.org/2000/svg" xmlns:xlink="http://www.w3.org/1999/xlink">
<g id="graph0" class="graph" transform="scale(1 1) rotate(0) translate(4 111.5)">
<title>AAX_CUnitPrefixDisplayDelegateDecorator::StringToValue</title>
<polygon fill="white" stroke="none" points="-4,4 -4,-111.5 365,-111.5 365,4 -4,4"/>
<!-- Node1 -->
<g id="node1" class="node">
<title>Node1</title>
<g id="a_node1"><a xlink:title="Converts a string to a real parameter value.">
<polygon fill="#bfbfbf" stroke="black" points="0,-44.5 0,-74.5 165,-74.5 165,-44.5 0,-44.5"/>
<text text-anchor="start" x="8" y="-62.5" font-family="Helvetica,sans-Serif" font-size="10.00">AAX_CUnitPrefixDisplayDelegate</text>
<text text-anchor="middle" x="82.5" y="-51.5" font-family="Helvetica,sans-Serif" font-size="10.00">Decorator::StringToValue</text>
</a>
</g>
</g>
<!-- Node2 -->
<g id="node2" class="node">
<title>Node2</title>
<g id="a_node2"><a xlink:href="a01853.html#a78ab9164c3b4aa17d13191fc7ea14fc0" target="_top" xlink:title=" ">
<polygon fill="white" stroke="black" points="227.5,-88 227.5,-107 334.5,-107 334.5,-88 227.5,-88"/>
<text text-anchor="middle" x="281" y="-95" font-family="Helvetica,sans-Serif" font-size="10.00">AAX_CString::Erase</text>
</a>
</g>
</g>
<!-- Node1&#45;&gt;Node2 -->
<g id="edge1" class="edge">
<title>Node1&#45;&gt;Node2</title>
<path fill="none" stroke="midnightblue" d="M161.16,-74.52C181.08,-78.37 202.17,-82.45 220.97,-86.09"/>
<polygon fill="midnightblue" stroke="midnightblue" points="220.39,-89.54 230.87,-88 221.72,-82.66 220.39,-89.54"/>
</g>
<!-- Node3 -->
<g id="node3" class="node">
<title>Node3</title>
<g id="a_node3"><a xlink:href="a01853.html#a34ccfa250b53a721417f32d4a74bfed6" target="_top" xlink:title=" ">
<polygon fill="white" stroke="black" points="226,-50 226,-69 336,-69 336,-50 226,-50"/>
<text text-anchor="middle" x="281" y="-57" font-family="Helvetica,sans-Serif" font-size="10.00">AAX_CString::Length</text>
</a>
</g>
</g>
<!-- Node1&#45;&gt;Node3 -->
<g id="edge2" class="edge">
<title>Node1&#45;&gt;Node3</title>
<path fill="none" stroke="midnightblue" d="M165.13,-59.5C181.91,-59.5 199.35,-59.5 215.43,-59.5"/>
<polygon fill="midnightblue" stroke="midnightblue" points="215.78,-63 225.78,-59.5 215.78,-56 215.78,-63"/>
</g>
<!-- Node4 -->
<g id="node4" class="node">
<title>Node4</title>
<g id="a_node4"><a xlink:href="a02093.html#a18d19293f3eca619cb5bb7f1ffde1a8d" target="_top" xlink:title="Converts a string to a real parameter value.">
<polygon fill="white" stroke="black" points="201,-0.5 201,-30.5 361,-30.5 361,-0.5 201,-0.5"/>
<text text-anchor="start" x="209" y="-18.5" font-family="Helvetica,sans-Serif" font-size="10.00">AAX_IDisplayDelegateDecorator</text>
<text text-anchor="middle" x="281" y="-7.5" font-family="Helvetica,sans-Serif" font-size="10.00">::StringToValue</text>
</a>
</g>
</g>
<!-- Node1&#45;&gt;Node4 -->
<g id="edge3" class="edge">
<title>Node1&#45;&gt;Node4</title>
<path fill="none" stroke="midnightblue" d="M150.57,-44.48C167.4,-40.71 185.58,-36.64 202.85,-32.78"/>
<polygon fill="midnightblue" stroke="midnightblue" points="203.9,-36.13 212.89,-30.53 202.37,-29.3 203.9,-36.13"/>
</g>
</g>
</svg>
