<?xml version="1.0" encoding="UTF-8" standalone="no"?>
<!DOCTYPE svg PUBLIC "-//W3C//DTD SVG 1.1//EN"
 "http://www.w3.org/Graphics/SVG/1.1/DTD/svg11.dtd">
<!-- Generated by graphviz version 6.0.1 (20220911.1526)
 -->
<!-- Title: AAX_CParameterManager Pages: 1 -->
<svg width="738pt" height="116pt"
 viewBox="0.00 0.00 738.00 116.00" xmlns="http://www.w3.org/2000/svg" xmlns:xlink="http://www.w3.org/1999/xlink">
<g id="graph0" class="graph" transform="scale(1 1) rotate(0) translate(4 112)">
<title>AAX_CParameterManager</title>
<polygon fill="white" stroke="none" points="-4,4 -4,-112 734,-112 734,4 -4,4"/>
<!-- Node1 -->
<g id="node1" class="node">
<title>Node1</title>
<g id="a_node1"><a xlink:title="A container object for plug&#45;in parameters.">
<polygon fill="#bfbfbf" stroke="black" points="598,-44.5 598,-63.5 730,-63.5 730,-44.5 598,-44.5"/>
<text text-anchor="middle" x="664" y="-51.5" font-family="Helvetica,sans-Serif" font-size="10.00">AAX_CParameterManager</text>
</a>
</g>
</g>
<!-- Node2 -->
<g id="node2" class="node">
<title>Node2</title>
<g id="a_node2"><a xlink:title=" ">
<polygon fill="white" stroke="#bfbfbf" points="301,-88.5 301,-107.5 462,-107.5 462,-88.5 301,-88.5"/>
<text text-anchor="middle" x="381.5" y="-95.5" font-family="Helvetica,sans-Serif" font-size="10.00">std::vector&lt; AAX_IParameter * &gt;</text>
</a>
</g>
</g>
<!-- Node2&#45;&gt;Node1 -->
<g id="edge1" class="edge">
<title>Node2&#45;&gt;Node1</title>
<path fill="none" stroke="#9a32cd" stroke-dasharray="5,2" d="M461.15,-87.06C497.39,-81.86 540.92,-75.4 580,-69 590.26,-67.32 601.21,-65.42 611.69,-63.55"/>
<polygon fill="#9a32cd" stroke="#9a32cd" points="460.54,-83.61 451.14,-88.49 461.53,-90.54 460.54,-83.61"/>
<text text-anchor="middle" x="530" y="-86" font-family="Helvetica,sans-Serif" font-size="10.00"> mParameters</text>
</g>
<!-- Node3 -->
<g id="node3" class="node">
<title>Node3</title>
<g id="a_node3"><a xlink:href="a02145.html" target="_top" xlink:title="The base interface for all normalizable plug&#45;in parameters.">
<polygon fill="white" stroke="black" points="132,-73.5 132,-92.5 222,-92.5 222,-73.5 132,-73.5"/>
<text text-anchor="middle" x="177" y="-80.5" font-family="Helvetica,sans-Serif" font-size="10.00">AAX_IParameter</text>
</a>
</g>
</g>
<!-- Node3&#45;&gt;Node2 -->
<g id="edge2" class="edge">
<title>Node3&#45;&gt;Node2</title>
<path fill="none" stroke="#9a32cd" stroke-dasharray="5,2" d="M232.24,-87.02C253.32,-88.58 277.89,-90.4 300.9,-92.1"/>
<polygon fill="#9a32cd" stroke="#9a32cd" points="232.42,-83.52 222.19,-86.27 231.9,-90.5 232.42,-83.52"/>
<text text-anchor="middle" x="261.5" y="-93" font-family="Helvetica,sans-Serif" font-size="10.00"> elements</text>
</g>
<!-- Node4 -->
<g id="node4" class="node">
<title>Node4</title>
<g id="a_node4"><a xlink:title=" ">
<polygon fill="white" stroke="#bfbfbf" points="326.5,-39 326.5,-69 436.5,-69 436.5,-39 326.5,-39"/>
<text text-anchor="start" x="334.5" y="-57" font-family="Helvetica,sans-Serif" font-size="10.00">std::map&lt; std::string,</text>
<text text-anchor="middle" x="381.5" y="-46" font-family="Helvetica,sans-Serif" font-size="10.00"> AAX_IParameter * &gt;</text>
</a>
</g>
</g>
<!-- Node3&#45;&gt;Node4 -->
<g id="edge6" class="edge">
<title>Node3&#45;&gt;Node4</title>
<path fill="none" stroke="#9a32cd" stroke-dasharray="5,2" d="M232.35,-73.2C234.93,-72.79 237.49,-72.38 240,-72 268.44,-67.66 300.23,-63.52 326.37,-60.32"/>
<polygon fill="#9a32cd" stroke="#9a32cd" points="231.61,-69.78 222.32,-74.87 232.76,-76.68 231.61,-69.78"/>
<text text-anchor="middle" x="261.5" y="-75" font-family="Helvetica,sans-Serif" font-size="10.00"> elements</text>
</g>
<!-- Node4&#45;&gt;Node1 -->
<g id="edge3" class="edge">
<title>Node4&#45;&gt;Node1</title>
<path fill="none" stroke="#9a32cd" stroke-dasharray="5,2" d="M446.59,-54C491.92,-54 552.47,-54 598,-54"/>
<polygon fill="#9a32cd" stroke="#9a32cd" points="446.58,-50.5 436.58,-54 446.58,-57.5 446.58,-50.5"/>
<text text-anchor="middle" x="530" y="-57" font-family="Helvetica,sans-Serif" font-size="10.00"> mParametersMap</text>
</g>
<!-- Node5 -->
<g id="node5" class="node">
<title>Node5</title>
<g id="a_node5"><a xlink:title=" ">
<polygon fill="white" stroke="#bfbfbf" points="147,-20.5 147,-39.5 207,-39.5 207,-20.5 147,-20.5"/>
<text text-anchor="middle" x="177" y="-27.5" font-family="Helvetica,sans-Serif" font-size="10.00">std::string</text>
</a>
</g>
</g>
<!-- Node5&#45;&gt;Node4 -->
<g id="edge4" class="edge">
<title>Node5&#45;&gt;Node4</title>
<path fill="none" stroke="#9a32cd" stroke-dasharray="5,2" d="M217.27,-28.31C237.05,-27.99 261.37,-28.38 283,-31 297.24,-32.73 312.43,-35.73 326.48,-39"/>
<polygon fill="#9a32cd" stroke="#9a32cd" points="217,-24.82 207.08,-28.55 217.16,-31.82 217,-24.82"/>
<text text-anchor="middle" x="261.5" y="-34" font-family="Helvetica,sans-Serif" font-size="10.00"> keys</text>
</g>
<!-- Node6 -->
<g id="node6" class="node">
<title>Node6</title>
<g id="a_node6"><a xlink:title=" ">
<polygon fill="white" stroke="#bfbfbf" points="0,-15 0,-45 95,-45 95,-15 0,-15"/>
<text text-anchor="start" x="8" y="-33" font-family="Helvetica,sans-Serif" font-size="10.00">std::basic_string&lt;</text>
<text text-anchor="middle" x="47.5" y="-22" font-family="Helvetica,sans-Serif" font-size="10.00"> Char &gt;</text>
</a>
</g>
</g>
<!-- Node6&#45;&gt;Node5 -->
<g id="edge5" class="edge">
<title>Node6&#45;&gt;Node5</title>
<path fill="none" stroke="midnightblue" d="M105.49,-30C119.72,-30 134.41,-30 146.67,-30"/>
<polygon fill="midnightblue" stroke="midnightblue" points="105.25,-26.5 95.25,-30 105.25,-33.5 105.25,-26.5"/>
</g>
<!-- Node7 -->
<g id="node7" class="node">
<title>Node7</title>
<g id="a_node7"><a xlink:href="a02061.html" target="_top" xlink:title="Interface allowing an AAX plug&#45;in to interact with the host&#39;s event system.">
<polygon fill="white" stroke="black" points="314.5,-0.5 314.5,-19.5 448.5,-19.5 448.5,-0.5 314.5,-0.5"/>
<text text-anchor="middle" x="381.5" y="-7.5" font-family="Helvetica,sans-Serif" font-size="10.00">AAX_IAutomationDelegate</text>
</a>
</g>
</g>
<!-- Node7&#45;&gt;Node1 -->
<g id="edge7" class="edge">
<title>Node7&#45;&gt;Node1</title>
<path fill="none" stroke="#9a32cd" stroke-dasharray="5,2" d="M458.99,-20.63C495.64,-25.88 540.14,-32.47 580,-39 590.26,-40.68 601.21,-42.58 611.69,-44.45"/>
<polygon fill="#9a32cd" stroke="#9a32cd" points="459.26,-17.14 448.87,-19.19 458.27,-24.07 459.26,-17.14"/>
<text text-anchor="middle" x="530" y="-42" font-family="Helvetica,sans-Serif" font-size="10.00"> mAutomationDelegate</text>
</g>
</g>
</svg>
