<?xml version="1.0" encoding="UTF-8" standalone="no"?>
<!DOCTYPE svg PUBLIC "-//W3C//DTD SVG 1.1//EN"
 "http://www.w3.org/Graphics/SVG/1.1/DTD/svg11.dtd">
<!-- Generated by graphviz version 2.47.3 (20210619.1520)
 -->
<!-- Title: AAX_CStatelessParameter::Touch Pages: 1 -->
<svg width="466pt" height="88pt"
 viewBox="0.00 0.00 466.00 88.00" xmlns="http://www.w3.org/2000/svg" xmlns:xlink="http://www.w3.org/1999/xlink">
<g id="graph0" class="graph" transform="scale(1 1) rotate(0) translate(4 84)">
<title>AAX_CStatelessParameter::Touch</title>
<polygon fill="white" stroke="transparent" points="-4,4 -4,-84 462,-84 462,4 -4,4"/>
<!-- Node1 -->
<g id="node1" class="node">
<title>Node1</title>
<g id="a_node1"><a xlink:title="Signals the automation system that a control has been touched.">
<polygon fill="#bfbfbf" stroke="black" points="0,-24.5 0,-54.5 136,-54.5 136,-24.5 0,-24.5"/>
<text text-anchor="start" x="8" y="-42.5" font-family="Helvetica,sans-Serif" font-size="10.00">AAX_CStatelessParameter</text>
<text text-anchor="middle" x="68" y="-31.5" font-family="Helvetica,sans-Serif" font-size="10.00">::Touch</text>
</a>
</g>
</g>
<!-- Node2 -->
<g id="node2" class="node">
<title>Node2</title>
<g id="a_node2"><a xlink:href="a01821.html#a9ab991e0bad2bc76b7efba3d129f1953" target="_top" xlink:title="Returns the parameter&#39;s unique identifier.">
<polygon fill="white" stroke="black" points="172,-49.5 172,-79.5 308,-79.5 308,-49.5 172,-49.5"/>
<text text-anchor="start" x="180" y="-67.5" font-family="Helvetica,sans-Serif" font-size="10.00">AAX_CStatelessParameter</text>
<text text-anchor="middle" x="240" y="-56.5" font-family="Helvetica,sans-Serif" font-size="10.00">::Identifier</text>
</a>
</g>
</g>
<!-- Node1&#45;&gt;Node2 -->
<g id="edge1" class="edge">
<title>Node1&#45;&gt;Node2</title>
<path fill="none" stroke="midnightblue" d="M136.19,-49.38C144.59,-50.62 153.24,-51.89 161.78,-53.14"/>
<polygon fill="midnightblue" stroke="midnightblue" points="161.34,-56.62 171.74,-54.61 162.36,-49.69 161.34,-56.62"/>
</g>
<!-- Node4 -->
<g id="node4" class="node">
<title>Node4</title>
<g id="a_node4"><a xlink:href="a02061.html#a30fdb67042b8dc9fb42fa9023ed9cce0" target="_top" xlink:title=" ">
<polygon fill="white" stroke="black" points="173,-0.5 173,-30.5 307,-30.5 307,-0.5 173,-0.5"/>
<text text-anchor="start" x="181" y="-18.5" font-family="Helvetica,sans-Serif" font-size="10.00">AAX_IAutomationDelegate</text>
<text text-anchor="middle" x="240" y="-7.5" font-family="Helvetica,sans-Serif" font-size="10.00">::PostTouchRequest</text>
</a>
</g>
</g>
<!-- Node1&#45;&gt;Node4 -->
<g id="edge3" class="edge">
<title>Node1&#45;&gt;Node4</title>
<path fill="none" stroke="midnightblue" d="M136.19,-30.01C144.95,-28.78 153.99,-27.5 162.88,-26.25"/>
<polygon fill="midnightblue" stroke="midnightblue" points="163.44,-29.7 172.86,-24.84 162.46,-22.77 163.44,-29.7"/>
</g>
<!-- Node3 -->
<g id="node3" class="node">
<title>Node3</title>
<g id="a_node3"><a xlink:href="a01853.html#a325db10aee379f7b23e44edcab47893b" target="_top" xlink:title=" ">
<polygon fill="white" stroke="black" points="344,-55 344,-74 458,-74 458,-55 344,-55"/>
<text text-anchor="middle" x="401" y="-62" font-family="Helvetica,sans-Serif" font-size="10.00">AAX_CString::CString</text>
</a>
</g>
</g>
<!-- Node2&#45;&gt;Node3 -->
<g id="edge2" class="edge">
<title>Node2&#45;&gt;Node3</title>
<path fill="none" stroke="midnightblue" d="M308.43,-64.5C316.85,-64.5 325.46,-64.5 333.87,-64.5"/>
<polygon fill="midnightblue" stroke="midnightblue" points="333.99,-68 343.99,-64.5 333.99,-61 333.99,-68"/>
</g>
</g>
</svg>
