<?xml version="1.0" encoding="UTF-8" standalone="no"?>
<!DOCTYPE svg PUBLIC "-//W3C//DTD SVG 1.1//EN"
 "http://www.w3.org/Graphics/SVG/1.1/DTD/svg11.dtd">
<!-- Generated by graphviz version 2.47.3 (20210619.1520)
 -->
<!-- Title: AAX_CUnitDisplayDelegateDecorator&lt; T &gt; Pages: 1 -->
<svg width="368pt" height="241pt"
 viewBox="0.00 0.00 367.50 241.00" xmlns="http://www.w3.org/2000/svg" xmlns:xlink="http://www.w3.org/1999/xlink">
<g id="graph0" class="graph" transform="scale(1 1) rotate(0) translate(4 237)">
<title>AAX_CUnitDisplayDelegateDecorator&lt; T &gt;</title>
<polygon fill="white" stroke="transparent" points="-4,4 -4,-237 363.5,-237 363.5,4 -4,4"/>
<!-- Node1 -->
<g id="node1" class="node">
<title>Node1</title>
<g id="a_node1"><a xlink:title="A unit type decorator conforming to AAX_IDisplayDelegateDecorator.">
<polygon fill="#bfbfbf" stroke="black" points="95,-0.5 95,-30.5 235,-30.5 235,-0.5 95,-0.5"/>
<text text-anchor="start" x="103" y="-18.5" font-family="Helvetica,sans-Serif" font-size="10.00">AAX_CUnitDisplayDelegate</text>
<text text-anchor="middle" x="165" y="-7.5" font-family="Helvetica,sans-Serif" font-size="10.00">Decorator&lt; T &gt;</text>
</a>
</g>
</g>
<!-- Node2 -->
<g id="node2" class="node">
<title>Node2</title>
<g id="a_node2"><a xlink:href="a02093.html" target="_top" xlink:title="The base class for all concrete display delegate decorators.">
<polygon fill="white" stroke="black" points="0,-78.5 0,-97.5 184,-97.5 184,-78.5 0,-78.5"/>
<text text-anchor="middle" x="92" y="-85.5" font-family="Helvetica,sans-Serif" font-size="10.00">AAX_IDisplayDelegateDecorator&lt; T &gt;</text>
</a>
</g>
</g>
<!-- Node2&#45;&gt;Node1 -->
<g id="edge1" class="edge">
<title>Node2&#45;&gt;Node1</title>
<path fill="none" stroke="midnightblue" d="M108.47,-71.09C121.08,-58.91 138.31,-42.27 150.42,-30.58"/>
<polygon fill="midnightblue" stroke="midnightblue" points="105.71,-68.89 100.95,-78.36 110.58,-73.93 105.71,-68.89"/>
</g>
<!-- Node3 -->
<g id="node3" class="node">
<title>Node3</title>
<g id="a_node3"><a xlink:href="a02089.html" target="_top" xlink:title="Classes for parameter value string conversion.">
<polygon fill="white" stroke="black" points="21.5,-145.5 21.5,-164.5 162.5,-164.5 162.5,-145.5 21.5,-145.5"/>
<text text-anchor="middle" x="92" y="-152.5" font-family="Helvetica,sans-Serif" font-size="10.00">AAX_IDisplayDelegate&lt; T &gt;</text>
</a>
</g>
</g>
<!-- Node3&#45;&gt;Node2 -->
<g id="edge2" class="edge">
<title>Node3&#45;&gt;Node2</title>
<path fill="none" stroke="midnightblue" d="M92,-135.04C92,-122.67 92,-107.12 92,-97.63"/>
<polygon fill="midnightblue" stroke="midnightblue" points="88.5,-135.23 92,-145.23 95.5,-135.23 88.5,-135.23"/>
</g>
<!-- Node4 -->
<g id="node4" class="node">
<title>Node4</title>
<g id="a_node4"><a xlink:href="a02085.html" target="_top" xlink:title="Defines the display behavior for a parameter.">
<polygon fill="white" stroke="black" points="22,-208 22,-227 162,-227 162,-208 22,-208"/>
<text text-anchor="middle" x="92" y="-215" font-family="Helvetica,sans-Serif" font-size="10.00">AAX_IDisplayDelegateBase</text>
</a>
</g>
</g>
<!-- Node4&#45;&gt;Node3 -->
<g id="edge3" class="edge">
<title>Node4&#45;&gt;Node3</title>
<path fill="none" stroke="midnightblue" d="M92,-197.5C92,-186.5 92,-173.18 92,-164.65"/>
<polygon fill="midnightblue" stroke="midnightblue" points="88.5,-197.83 92,-207.83 95.5,-197.83 88.5,-197.83"/>
</g>
<!-- Node5 -->
<g id="node5" class="node">
<title>Node5</title>
<g id="a_node5"><a xlink:href="a01853.html" target="_top" xlink:title="A generic AAX string class with similar functionality to std::string">
<polygon fill="white" stroke="black" points="202.5,-78.5 202.5,-97.5 277.5,-97.5 277.5,-78.5 202.5,-78.5"/>
<text text-anchor="middle" x="240" y="-85.5" font-family="Helvetica,sans-Serif" font-size="10.00">AAX_CString</text>
</a>
</g>
</g>
<!-- Node5&#45;&gt;Node1 -->
<g id="edge4" class="edge">
<title>Node5&#45;&gt;Node1</title>
<path fill="none" stroke="#9a32cd" stroke-dasharray="5,2" d="M223.45,-71.44C210.46,-59.23 192.54,-42.39 179.97,-30.58"/>
<polygon fill="#9a32cd" stroke="#9a32cd" points="221.12,-74.06 230.8,-78.36 225.91,-68.96 221.12,-74.06"/>
<text text-anchor="middle" x="237.5" y="-52" font-family="Helvetica,sans-Serif" font-size="10.00"> mUnitString</text>
</g>
<!-- Node6 -->
<g id="node6" class="node">
<title>Node6</title>
<g id="a_node6"><a xlink:href="a02161.html" target="_top" xlink:title="A simple string container that can be passed across a binary boundary. This class,...">
<polygon fill="white" stroke="black" points="192.5,-145.5 192.5,-164.5 263.5,-164.5 263.5,-145.5 192.5,-145.5"/>
<text text-anchor="middle" x="228" y="-152.5" font-family="Helvetica,sans-Serif" font-size="10.00">AAX_IString</text>
</a>
</g>
</g>
<!-- Node6&#45;&gt;Node5 -->
<g id="edge5" class="edge">
<title>Node6&#45;&gt;Node5</title>
<path fill="none" stroke="midnightblue" d="M231.5,-135.04C233.78,-122.67 236.65,-107.12 238.41,-97.63"/>
<polygon fill="midnightblue" stroke="midnightblue" points="227.99,-134.76 229.62,-145.23 234.88,-136.04 227.99,-134.76"/>
</g>
<!-- Node7 -->
<g id="node7" class="node">
<title>Node7</title>
<g id="a_node7"><a xlink:title=" ">
<polygon fill="white" stroke="#bfbfbf" points="282,-145.5 282,-164.5 342,-164.5 342,-145.5 282,-145.5"/>
<text text-anchor="middle" x="312" y="-152.5" font-family="Helvetica,sans-Serif" font-size="10.00">std::string</text>
</a>
</g>
</g>
<!-- Node7&#45;&gt;Node5 -->
<g id="edge6" class="edge">
<title>Node7&#45;&gt;Node5</title>
<path fill="none" stroke="#9a32cd" stroke-dasharray="5,2" d="M294.67,-138.36C280.52,-125.58 261.04,-107.99 249.56,-97.63"/>
<polygon fill="#9a32cd" stroke="#9a32cd" points="292.52,-141.13 302.29,-145.23 297.21,-135.93 292.52,-141.13"/>
<text text-anchor="middle" x="299.5" y="-119" font-family="Helvetica,sans-Serif" font-size="10.00"> mString</text>
</g>
<!-- Node8 -->
<g id="node8" class="node">
<title>Node8</title>
<g id="a_node8"><a xlink:title=" ">
<polygon fill="white" stroke="#bfbfbf" points="264.5,-202.5 264.5,-232.5 359.5,-232.5 359.5,-202.5 264.5,-202.5"/>
<text text-anchor="start" x="272.5" y="-220.5" font-family="Helvetica,sans-Serif" font-size="10.00">std::basic_string&lt;</text>
<text text-anchor="middle" x="312" y="-209.5" font-family="Helvetica,sans-Serif" font-size="10.00"> Char &gt;</text>
</a>
</g>
</g>
<!-- Node8&#45;&gt;Node7 -->
<g id="edge7" class="edge">
<title>Node8&#45;&gt;Node7</title>
<path fill="none" stroke="midnightblue" d="M312,-192.35C312,-182.51 312,-171.78 312,-164.54"/>
<polygon fill="midnightblue" stroke="midnightblue" points="308.5,-192.47 312,-202.47 315.5,-192.47 308.5,-192.47"/>
</g>
</g>
</svg>
