<?xml version="1.0" encoding="UTF-8" standalone="no"?>
<!DOCTYPE svg PUBLIC "-//W3C//DTD SVG 1.1//EN"
 "http://www.w3.org/Graphics/SVG/1.1/DTD/svg11.dtd">
<!-- Generated by graphviz version 6.0.1 (20220911.1526)
 -->
<!-- Title: AAX_CStatelessParameter Pages: 1 -->
<svg width="561pt" height="241pt"
 viewBox="0.00 0.00 560.50 241.00" xmlns="http://www.w3.org/2000/svg" xmlns:xlink="http://www.w3.org/1999/xlink">
<g id="graph0" class="graph" transform="scale(1 1) rotate(0) translate(4 237)">
<title>AAX_CStatelessParameter</title>
<polygon fill="white" stroke="none" points="-4,4 -4,-237 556.5,-237 556.5,4 -4,4"/>
<!-- Node1 -->
<g id="node1" class="node">
<title>Node1</title>
<g id="a_node1"><a xlink:title="A stateless parameter implementation.">
<polygon fill="#bfbfbf" stroke="black" points="183,-0.5 183,-19.5 319,-19.5 319,-0.5 183,-0.5"/>
<text text-anchor="middle" x="251" y="-7.5" font-family="Helvetica,sans-Serif" font-size="10.00">AAX_CStatelessParameter</text>
</a>
</g>
</g>
<!-- Node2 -->
<g id="node2" class="node">
<title>Node2</title>
<g id="a_node2"><a xlink:href="a02145.html" target="_top" xlink:title="The base interface for all normalizable plug&#45;in parameters.">
<polygon fill="white" stroke="black" points="0,-78.5 0,-97.5 90,-97.5 90,-78.5 0,-78.5"/>
<text text-anchor="middle" x="45" y="-85.5" font-family="Helvetica,sans-Serif" font-size="10.00">AAX_IParameter</text>
</a>
</g>
</g>
<!-- Node2&#45;&gt;Node1 -->
<g id="edge1" class="edge">
<title>Node2&#45;&gt;Node1</title>
<path fill="none" stroke="midnightblue" d="M77.7,-74.94C119.6,-59.48 191.18,-33.07 227.85,-19.54"/>
<polygon fill="midnightblue" stroke="midnightblue" points="76.4,-71.68 68.23,-78.43 78.82,-78.25 76.4,-71.68"/>
</g>
<!-- Node3 -->
<g id="node3" class="node">
<title>Node3</title>
<g id="a_node3"><a xlink:href="a01857.html" target="_top" xlink:title="Helper class to store a collection of name abbreviations.">
<polygon fill="white" stroke="black" points="108,-78.5 108,-97.5 242,-97.5 242,-78.5 108,-78.5"/>
<text text-anchor="middle" x="175" y="-85.5" font-family="Helvetica,sans-Serif" font-size="10.00">AAX_CStringAbbreviations</text>
</a>
</g>
</g>
<!-- Node3&#45;&gt;Node1 -->
<g id="edge2" class="edge">
<title>Node3&#45;&gt;Node1</title>
<path fill="none" stroke="#9a32cd" stroke-dasharray="5,2" d="M191.12,-70.88C206.78,-55.22 229.96,-32.04 242.38,-19.62"/>
<polygon fill="#9a32cd" stroke="#9a32cd" points="188.31,-68.74 183.72,-78.28 193.26,-73.69 188.31,-68.74"/>
<text text-anchor="middle" x="244.5" y="-46.5" font-family="Helvetica,sans-Serif" font-size="10.00"> mNames</text>
</g>
<!-- Node4 -->
<g id="node4" class="node">
<title>Node4</title>
<g id="a_node4"><a xlink:href="a02061.html" target="_top" xlink:title="Interface allowing an AAX plug&#45;in to interact with the host&#39;s event system.">
<polygon fill="white" stroke="black" points="260,-78.5 260,-97.5 394,-97.5 394,-78.5 260,-78.5"/>
<text text-anchor="middle" x="327" y="-85.5" font-family="Helvetica,sans-Serif" font-size="10.00">AAX_IAutomationDelegate</text>
</a>
</g>
</g>
<!-- Node4&#45;&gt;Node1 -->
<g id="edge3" class="edge">
<title>Node4&#45;&gt;Node1</title>
<path fill="none" stroke="#9a32cd" stroke-dasharray="5,2" d="M310.88,-70.88C295.22,-55.22 272.04,-32.04 259.62,-19.62"/>
<polygon fill="#9a32cd" stroke="#9a32cd" points="308.74,-73.69 318.28,-78.28 313.69,-68.74 308.74,-73.69"/>
<text text-anchor="middle" x="349" y="-46.5" font-family="Helvetica,sans-Serif" font-size="10.00"> mAutomationDelegate</text>
</g>
<!-- Node5 -->
<g id="node5" class="node">
<title>Node5</title>
<g id="a_node5"><a xlink:href="a01853.html" target="_top" xlink:title="A generic AAX string class with similar functionality to std::string">
<polygon fill="white" stroke="black" points="412.5,-78.5 412.5,-97.5 487.5,-97.5 487.5,-78.5 412.5,-78.5"/>
<text text-anchor="middle" x="450" y="-85.5" font-family="Helvetica,sans-Serif" font-size="10.00">AAX_CString</text>
</a>
</g>
</g>
<!-- Node5&#45;&gt;Node1 -->
<g id="edge4" class="edge">
<title>Node5&#45;&gt;Node1</title>
<path fill="none" stroke="#9a32cd" stroke-dasharray="5,2" d="M438.01,-69.76C429.51,-58.9 417.13,-45.56 403,-38 377.47,-24.35 346.43,-17.41 319.07,-13.95"/>
<polygon fill="#9a32cd" stroke="#9a32cd" points="435.43,-72.16 444.19,-78.12 441.05,-68 435.43,-72.16"/>
<text text-anchor="middle" x="458" y="-52" font-family="Helvetica,sans-Serif" font-size="10.00"> mID</text>
<text text-anchor="middle" x="458" y="-41" font-family="Helvetica,sans-Serif" font-size="10.00">mValueString</text>
</g>
<!-- Node6 -->
<g id="node6" class="node">
<title>Node6</title>
<g id="a_node6"><a xlink:href="a02161.html" target="_top" xlink:title="A simple string container that can be passed across a binary boundary. This class,...">
<polygon fill="white" stroke="black" points="385.5,-145.5 385.5,-164.5 456.5,-164.5 456.5,-145.5 385.5,-145.5"/>
<text text-anchor="middle" x="421" y="-152.5" font-family="Helvetica,sans-Serif" font-size="10.00">AAX_IString</text>
</a>
</g>
</g>
<!-- Node6&#45;&gt;Node5 -->
<g id="edge5" class="edge">
<title>Node6&#45;&gt;Node5</title>
<path fill="none" stroke="midnightblue" d="M429.12,-135.79C434.69,-123.31 441.83,-107.31 446.15,-97.63"/>
<polygon fill="midnightblue" stroke="midnightblue" points="425.79,-134.68 424.91,-145.23 432.18,-137.53 425.79,-134.68"/>
</g>
<!-- Node7 -->
<g id="node7" class="node">
<title>Node7</title>
<g id="a_node7"><a xlink:title=" ">
<polygon fill="white" stroke="#bfbfbf" points="475,-145.5 475,-164.5 535,-164.5 535,-145.5 475,-145.5"/>
<text text-anchor="middle" x="505" y="-152.5" font-family="Helvetica,sans-Serif" font-size="10.00">std::string</text>
</a>
</g>
</g>
<!-- Node7&#45;&gt;Node5 -->
<g id="edge6" class="edge">
<title>Node7&#45;&gt;Node5</title>
<path fill="none" stroke="#9a32cd" stroke-dasharray="5,2" d="M490.84,-137.27C480.12,-124.6 465.82,-107.7 457.3,-97.63"/>
<polygon fill="#9a32cd" stroke="#9a32cd" points="488.45,-139.86 497.58,-145.23 493.79,-135.34 488.45,-139.86"/>
<text text-anchor="middle" x="498.5" y="-119" font-family="Helvetica,sans-Serif" font-size="10.00"> mString</text>
</g>
<!-- Node8 -->
<g id="node8" class="node">
<title>Node8</title>
<g id="a_node8"><a xlink:title=" ">
<polygon fill="white" stroke="#bfbfbf" points="457.5,-202.5 457.5,-232.5 552.5,-232.5 552.5,-202.5 457.5,-202.5"/>
<text text-anchor="start" x="465.5" y="-220.5" font-family="Helvetica,sans-Serif" font-size="10.00">std::basic_string&lt;</text>
<text text-anchor="middle" x="505" y="-209.5" font-family="Helvetica,sans-Serif" font-size="10.00"> Char &gt;</text>
</a>
</g>
</g>
<!-- Node8&#45;&gt;Node7 -->
<g id="edge7" class="edge">
<title>Node8&#45;&gt;Node7</title>
<path fill="none" stroke="midnightblue" d="M505,-192.35C505,-182.51 505,-171.78 505,-164.54"/>
<polygon fill="midnightblue" stroke="midnightblue" points="501.5,-192.47 505,-202.47 508.5,-192.47 501.5,-192.47"/>
</g>
</g>
</svg>
