<?xml version="1.0" encoding="UTF-8" standalone="no"?>
<!DOCTYPE svg PUBLIC "-//W3C//DTD SVG 1.1//EN"
 "http://www.w3.org/Graphics/SVG/1.1/DTD/svg11.dtd">
<!-- Generated by graphviz version 2.47.3 (20210619.1520)
 -->
<!-- Title: AAX_CStatelessParameter::ShortenedName Pages: 1 -->
<svg width="482pt" height="39pt"
 viewBox="0.00 0.00 482.00 39.00" xmlns="http://www.w3.org/2000/svg" xmlns:xlink="http://www.w3.org/1999/xlink">
<g id="graph0" class="graph" transform="scale(1 1) rotate(0) translate(4 35)">
<title>AAX_CStatelessParameter::ShortenedName</title>
<polygon fill="white" stroke="transparent" points="-4,4 -4,-35 478,-35 478,4 -4,4"/>
<!-- Node1 -->
<g id="node1" class="node">
<title>Node1</title>
<g id="a_node1"><a xlink:title="Returns the parameter&#39;s shortened display name.">
<polygon fill="#bfbfbf" stroke="black" points="0,-0.5 0,-30.5 136,-30.5 136,-0.5 0,-0.5"/>
<text text-anchor="start" x="8" y="-18.5" font-family="Helvetica,sans-Serif" font-size="10.00">AAX_CStatelessParameter</text>
<text text-anchor="middle" x="68" y="-7.5" font-family="Helvetica,sans-Serif" font-size="10.00">::ShortenedName</text>
</a>
</g>
</g>
<!-- Node2 -->
<g id="node2" class="node">
<title>Node2</title>
<g id="a_node2"><a xlink:href="a01857.html#af21dca22bf79b4921f81432ba4e99223" target="_top" xlink:title=" ">
<polygon fill="white" stroke="black" points="172,-6 172,-25 328,-25 328,-6 172,-6"/>
<text text-anchor="middle" x="250" y="-13" font-family="Helvetica,sans-Serif" font-size="10.00">AAX_CStringAbbreviations::Get</text>
</a>
</g>
</g>
<!-- Node1&#45;&gt;Node2 -->
<g id="edge1" class="edge">
<title>Node1&#45;&gt;Node2</title>
<path fill="none" stroke="midnightblue" d="M136.03,-15.5C144.43,-15.5 153.12,-15.5 161.78,-15.5"/>
<polygon fill="midnightblue" stroke="midnightblue" points="161.91,-19 171.91,-15.5 161.91,-12 161.91,-19"/>
</g>
<!-- Node3 -->
<g id="node3" class="node">
<title>Node3</title>
<g id="a_node3"><a xlink:href="a01853.html#a34ccfa250b53a721417f32d4a74bfed6" target="_top" xlink:title=" ">
<polygon fill="white" stroke="black" points="364,-6 364,-25 474,-25 474,-6 364,-6"/>
<text text-anchor="middle" x="419" y="-13" font-family="Helvetica,sans-Serif" font-size="10.00">AAX_CString::Length</text>
</a>
</g>
</g>
<!-- Node2&#45;&gt;Node3 -->
<g id="edge2" class="edge">
<title>Node2&#45;&gt;Node3</title>
<path fill="none" stroke="midnightblue" d="M328.15,-15.5C336.65,-15.5 345.25,-15.5 353.57,-15.5"/>
<polygon fill="midnightblue" stroke="midnightblue" points="353.57,-19 363.57,-15.5 353.57,-12 353.57,-19"/>
</g>
</g>
</svg>
