<?xml version="1.0" encoding="UTF-8" standalone="no"?>
<!DOCTYPE svg PUBLIC "-//W3C//DTD SVG 1.1//EN"
 "http://www.w3.org/Graphics/SVG/1.1/DTD/svg11.dtd">
<!-- Generated by graphviz version 6.0.1 (20220911.1526)
 -->
<!-- Title: AAX_CStatelessParameter::SetAutomationDelegate Pages: 1 -->
<svg width="466pt" height="137pt"
 viewBox="0.00 0.00 466.00 137.00" xmlns="http://www.w3.org/2000/svg" xmlns:xlink="http://www.w3.org/1999/xlink">
<g id="graph0" class="graph" transform="scale(1 1) rotate(0) translate(4 133)">
<title>AAX_CStatelessParameter::SetAutomationDelegate</title>
<polygon fill="white" stroke="none" points="-4,4 -4,-133 462,-133 462,4 -4,4"/>
<!-- Node1 -->
<g id="node1" class="node">
<title>Node1</title>
<g id="a_node1"><a xlink:title="Sets the automation delegate (if one is required)">
<polygon fill="#bfbfbf" stroke="black" points="0,-49.5 0,-79.5 136,-79.5 136,-49.5 0,-49.5"/>
<text text-anchor="start" x="8" y="-67.5" font-family="Helvetica,sans-Serif" font-size="10.00">AAX_CStatelessParameter</text>
<text text-anchor="middle" x="68" y="-56.5" font-family="Helvetica,sans-Serif" font-size="10.00">::SetAutomationDelegate</text>
</a>
</g>
</g>
<!-- Node2 -->
<g id="node2" class="node">
<title>Node2</title>
<g id="a_node2"><a xlink:href="a01821.html#a9ab991e0bad2bc76b7efba3d129f1953" target="_top" xlink:title="Returns the parameter&#39;s unique identifier.">
<polygon fill="white" stroke="black" points="172,-98.5 172,-128.5 308,-128.5 308,-98.5 172,-98.5"/>
<text text-anchor="start" x="180" y="-116.5" font-family="Helvetica,sans-Serif" font-size="10.00">AAX_CStatelessParameter</text>
<text text-anchor="middle" x="240" y="-105.5" font-family="Helvetica,sans-Serif" font-size="10.00">::Identifier</text>
</a>
</g>
</g>
<!-- Node1&#45;&gt;Node2 -->
<g id="edge1" class="edge">
<title>Node1&#45;&gt;Node2</title>
<path fill="none" stroke="midnightblue" d="M121.39,-79.6C139.01,-84.68 158.82,-90.39 177.1,-95.66"/>
<polygon fill="midnightblue" stroke="midnightblue" points="176.2,-99.04 186.78,-98.45 178.14,-92.32 176.2,-99.04"/>
</g>
<!-- Node4 -->
<g id="node4" class="node">
<title>Node4</title>
<g id="a_node4"><a xlink:href="a02061.html#a4d91efb2d922729d02e2ea7d7a05ed10" target="_top" xlink:title=" ">
<polygon fill="white" stroke="black" points="173,-49.5 173,-79.5 307,-79.5 307,-49.5 173,-49.5"/>
<text text-anchor="start" x="181" y="-67.5" font-family="Helvetica,sans-Serif" font-size="10.00">AAX_IAutomationDelegate</text>
<text text-anchor="middle" x="240" y="-56.5" font-family="Helvetica,sans-Serif" font-size="10.00">::RegisterParameter</text>
</a>
</g>
</g>
<!-- Node1&#45;&gt;Node4 -->
<g id="edge3" class="edge">
<title>Node1&#45;&gt;Node4</title>
<path fill="none" stroke="midnightblue" d="M136.19,-64.5C144.86,-64.5 153.79,-64.5 162.6,-64.5"/>
<polygon fill="midnightblue" stroke="midnightblue" points="162.86,-68 172.86,-64.5 162.86,-61 162.86,-68"/>
</g>
<!-- Node5 -->
<g id="node5" class="node">
<title>Node5</title>
<g id="a_node5"><a xlink:href="a02061.html#ab1c1d4292460119b22d68247150cc1a0" target="_top" xlink:title=" ">
<polygon fill="white" stroke="black" points="173,-0.5 173,-30.5 307,-30.5 307,-0.5 173,-0.5"/>
<text text-anchor="start" x="181" y="-18.5" font-family="Helvetica,sans-Serif" font-size="10.00">AAX_IAutomationDelegate</text>
<text text-anchor="middle" x="240" y="-7.5" font-family="Helvetica,sans-Serif" font-size="10.00">::UnregisterParameter</text>
</a>
</g>
</g>
<!-- Node1&#45;&gt;Node5 -->
<g id="edge4" class="edge">
<title>Node1&#45;&gt;Node5</title>
<path fill="none" stroke="midnightblue" d="M121.39,-49.4C139.01,-44.32 158.82,-38.61 177.1,-33.34"/>
<polygon fill="midnightblue" stroke="midnightblue" points="178.14,-36.68 186.78,-30.55 176.2,-29.96 178.14,-36.68"/>
</g>
<!-- Node3 -->
<g id="node3" class="node">
<title>Node3</title>
<g id="a_node3"><a xlink:href="a01853.html#a325db10aee379f7b23e44edcab47893b" target="_top" xlink:title=" ">
<polygon fill="white" stroke="black" points="344,-104 344,-123 458,-123 458,-104 344,-104"/>
<text text-anchor="middle" x="401" y="-111" font-family="Helvetica,sans-Serif" font-size="10.00">AAX_CString::CString</text>
</a>
</g>
</g>
<!-- Node2&#45;&gt;Node3 -->
<g id="edge2" class="edge">
<title>Node2&#45;&gt;Node3</title>
<path fill="none" stroke="midnightblue" d="M308.43,-113.5C316.85,-113.5 325.46,-113.5 333.87,-113.5"/>
<polygon fill="midnightblue" stroke="midnightblue" points="333.99,-117 343.99,-113.5 333.99,-110 333.99,-117"/>
</g>
</g>
</svg>
