<?xml version="1.0" encoding="UTF-8" standalone="no"?>
<!DOCTYPE svg PUBLIC "-//W3C//DTD SVG 1.1//EN"
 "http://www.w3.org/Graphics/SVG/1.1/DTD/svg11.dtd">
<!-- Generated by graphviz version 2.47.3 (20210619.1520)
 -->
<!-- Title: AAX_CStringDisplayDelegate&lt; T &gt; Pages: 1 -->
<svg width="472pt" height="297pt"
 viewBox="0.00 0.00 472.00 297.00" xmlns="http://www.w3.org/2000/svg" xmlns:xlink="http://www.w3.org/1999/xlink">
<g id="graph0" class="graph" transform="scale(1 1) rotate(0) translate(4 293)">
<title>AAX_CStringDisplayDelegate&lt; T &gt;</title>
<polygon fill="white" stroke="transparent" points="-4,4 -4,-293 468,-293 468,4 -4,4"/>
<!-- Node1 -->
<g id="node1" class="node">
<title>Node1</title>
<g id="a_node1"><a xlink:title="A string, or list, display format conforming to AAX_IDisplayDelegate.">
<polygon fill="#bfbfbf" stroke="black" points="145,-0.5 145,-19.5 316,-19.5 316,-0.5 145,-0.5"/>
<text text-anchor="middle" x="230.5" y="-7.5" font-family="Helvetica,sans-Serif" font-size="10.00">AAX_CStringDisplayDelegate&lt; T &gt;</text>
</a>
</g>
</g>
<!-- Node2 -->
<g id="node2" class="node">
<title>Node2</title>
<g id="a_node2"><a xlink:href="a02089.html" target="_top" xlink:title="Classes for parameter value string conversion.">
<polygon fill="white" stroke="black" points="0,-67.5 0,-86.5 141,-86.5 141,-67.5 0,-67.5"/>
<text text-anchor="middle" x="70.5" y="-74.5" font-family="Helvetica,sans-Serif" font-size="10.00">AAX_IDisplayDelegate&lt; T &gt;</text>
</a>
</g>
</g>
<!-- Node2&#45;&gt;Node1 -->
<g id="edge1" class="edge">
<title>Node2&#45;&gt;Node1</title>
<path fill="none" stroke="midnightblue" d="M101.01,-63.6C132.78,-50.7 181.69,-30.83 209.42,-19.56"/>
<polygon fill="midnightblue" stroke="midnightblue" points="99.69,-60.36 91.75,-67.37 102.33,-66.85 99.69,-60.36"/>
</g>
<!-- Node3 -->
<g id="node3" class="node">
<title>Node3</title>
<g id="a_node3"><a xlink:href="a02085.html" target="_top" xlink:title="Defines the display behavior for a parameter.">
<polygon fill="white" stroke="black" points="0.5,-134.5 0.5,-153.5 140.5,-153.5 140.5,-134.5 0.5,-134.5"/>
<text text-anchor="middle" x="70.5" y="-141.5" font-family="Helvetica,sans-Serif" font-size="10.00">AAX_IDisplayDelegateBase</text>
</a>
</g>
</g>
<!-- Node3&#45;&gt;Node2 -->
<g id="edge2" class="edge">
<title>Node3&#45;&gt;Node2</title>
<path fill="none" stroke="midnightblue" d="M70.5,-124.04C70.5,-111.67 70.5,-96.12 70.5,-86.63"/>
<polygon fill="midnightblue" stroke="midnightblue" points="67,-124.23 70.5,-134.23 74,-124.23 67,-124.23"/>
</g>
<!-- Node4 -->
<g id="node4" class="node">
<title>Node4</title>
<g id="a_node4"><a xlink:title=" ">
<polygon fill="white" stroke="#bfbfbf" points="320,-67.5 320,-86.5 461,-86.5 461,-67.5 320,-67.5"/>
<text text-anchor="middle" x="390.5" y="-74.5" font-family="Helvetica,sans-Serif" font-size="10.00">std::map&lt; T, AAX_CString &gt;</text>
</a>
</g>
</g>
<!-- Node4&#45;&gt;Node1 -->
<g id="edge3" class="edge">
<title>Node4&#45;&gt;Node1</title>
<path fill="none" stroke="#9a32cd" stroke-dasharray="5,2" d="M368.45,-62.02C355.45,-54.19 338.45,-44.7 322.5,-38 304.54,-30.46 283.78,-24.17 266.53,-19.57"/>
<polygon fill="#9a32cd" stroke="#9a32cd" points="366.8,-65.11 377.15,-67.35 370.46,-59.14 366.8,-65.11"/>
<text text-anchor="middle" x="372.5" y="-41" font-family="Helvetica,sans-Serif" font-size="10.00"> mStringMap</text>
</g>
<!-- Node5 -->
<g id="node5" class="node">
<title>Node5</title>
<g id="a_node5"><a xlink:href="a01853.html" target="_top" xlink:title="A generic AAX string class with similar functionality to std::string">
<polygon fill="white" stroke="black" points="324,-134.5 324,-153.5 399,-153.5 399,-134.5 324,-134.5"/>
<text text-anchor="middle" x="361.5" y="-141.5" font-family="Helvetica,sans-Serif" font-size="10.00">AAX_CString</text>
</a>
</g>
</g>
<!-- Node5&#45;&gt;Node4 -->
<g id="edge4" class="edge">
<title>Node5&#45;&gt;Node4</title>
<path fill="none" stroke="#9a32cd" stroke-dasharray="5,2" d="M369.62,-124.79C375.19,-112.31 382.33,-96.31 386.65,-86.63"/>
<polygon fill="#9a32cd" stroke="#9a32cd" points="366.29,-123.68 365.41,-134.23 372.68,-126.53 366.29,-123.68"/>
<text text-anchor="middle" x="399" y="-108" font-family="Helvetica,sans-Serif" font-size="10.00"> elements</text>
</g>
<!-- Node10 -->
<g id="node10" class="node">
<title>Node10</title>
<g id="a_node10"><a xlink:title=" ">
<polygon fill="white" stroke="#bfbfbf" points="159,-67.5 159,-86.5 302,-86.5 302,-67.5 159,-67.5"/>
<text text-anchor="middle" x="230.5" y="-74.5" font-family="Helvetica,sans-Serif" font-size="10.00">std::map&lt; AAX_CString, T &gt;</text>
</a>
</g>
</g>
<!-- Node5&#45;&gt;Node10 -->
<g id="edge10" class="edge">
<title>Node5&#45;&gt;Node10</title>
<path fill="none" stroke="#9a32cd" stroke-dasharray="5,2" d="M347.6,-126.61C340.47,-119.1 331.24,-110.63 321.5,-105 307.09,-96.67 289.89,-90.71 274.34,-86.55"/>
<polygon fill="#9a32cd" stroke="#9a32cd" points="345.15,-129.12 354.44,-134.21 350.35,-124.44 345.15,-129.12"/>
<text text-anchor="middle" x="349" y="-108" font-family="Helvetica,sans-Serif" font-size="10.00"> keys</text>
</g>
<!-- Node6 -->
<g id="node6" class="node">
<title>Node6</title>
<g id="a_node6"><a xlink:href="a02161.html" target="_top" xlink:title="A simple string container that can be passed across a binary boundary. This class,...">
<polygon fill="white" stroke="black" points="297,-201.5 297,-220.5 368,-220.5 368,-201.5 297,-201.5"/>
<text text-anchor="middle" x="332.5" y="-208.5" font-family="Helvetica,sans-Serif" font-size="10.00">AAX_IString</text>
</a>
</g>
</g>
<!-- Node6&#45;&gt;Node5 -->
<g id="edge5" class="edge">
<title>Node6&#45;&gt;Node5</title>
<path fill="none" stroke="midnightblue" d="M340.62,-191.79C346.19,-179.31 353.33,-163.31 357.65,-153.63"/>
<polygon fill="midnightblue" stroke="midnightblue" points="337.29,-190.68 336.41,-201.23 343.68,-193.53 337.29,-190.68"/>
</g>
<!-- Node7 -->
<g id="node7" class="node">
<title>Node7</title>
<g id="a_node7"><a xlink:title=" ">
<polygon fill="white" stroke="#bfbfbf" points="386.5,-201.5 386.5,-220.5 446.5,-220.5 446.5,-201.5 386.5,-201.5"/>
<text text-anchor="middle" x="416.5" y="-208.5" font-family="Helvetica,sans-Serif" font-size="10.00">std::string</text>
</a>
</g>
</g>
<!-- Node7&#45;&gt;Node5 -->
<g id="edge6" class="edge">
<title>Node7&#45;&gt;Node5</title>
<path fill="none" stroke="#9a32cd" stroke-dasharray="5,2" d="M402.34,-193.27C391.62,-180.6 377.32,-163.7 368.8,-153.63"/>
<polygon fill="#9a32cd" stroke="#9a32cd" points="399.95,-195.86 409.08,-201.23 405.29,-191.34 399.95,-195.86"/>
<text text-anchor="middle" x="410" y="-175" font-family="Helvetica,sans-Serif" font-size="10.00"> mString</text>
</g>
<!-- Node8 -->
<g id="node8" class="node">
<title>Node8</title>
<g id="a_node8"><a xlink:title=" ">
<polygon fill="white" stroke="#bfbfbf" points="369,-258.5 369,-288.5 464,-288.5 464,-258.5 369,-258.5"/>
<text text-anchor="start" x="377" y="-276.5" font-family="Helvetica,sans-Serif" font-size="10.00">std::basic_string&lt;</text>
<text text-anchor="middle" x="416.5" y="-265.5" font-family="Helvetica,sans-Serif" font-size="10.00"> Char &gt;</text>
</a>
</g>
</g>
<!-- Node8&#45;&gt;Node7 -->
<g id="edge7" class="edge">
<title>Node8&#45;&gt;Node7</title>
<path fill="none" stroke="midnightblue" d="M416.5,-248.35C416.5,-238.51 416.5,-227.78 416.5,-220.54"/>
<polygon fill="midnightblue" stroke="midnightblue" points="413,-248.47 416.5,-258.47 420,-248.47 413,-248.47"/>
</g>
<!-- Node9 -->
<g id="node9" class="node">
<title>Node9</title>
<g id="a_node9"><a xlink:title=" ">
<polygon fill="white" stroke="#bfbfbf" points="264,-134.5 264,-153.5 293,-153.5 293,-134.5 264,-134.5"/>
<text text-anchor="middle" x="278.5" y="-141.5" font-family="Helvetica,sans-Serif" font-size="10.00">T</text>
</a>
</g>
</g>
<!-- Node9&#45;&gt;Node4 -->
<g id="edge8" class="edge">
<title>Node9&#45;&gt;Node4</title>
<path fill="none" stroke="#9a32cd" stroke-dasharray="5,2" d="M283.5,-124.87C286.28,-117.78 290.44,-110.14 296.5,-105 306.59,-96.43 319.26,-90.57 332,-86.57"/>
<polygon fill="#9a32cd" stroke="#9a32cd" points="280.14,-123.9 280.35,-134.49 286.79,-126.07 280.14,-123.9"/>
<text text-anchor="middle" x="309" y="-108" font-family="Helvetica,sans-Serif" font-size="10.00"> keys</text>
</g>
<!-- Node9&#45;&gt;Node10 -->
<g id="edge11" class="edge">
<title>Node9&#45;&gt;Node10</title>
<path fill="none" stroke="#9a32cd" stroke-dasharray="5,2" d="M254.32,-135.38C245.19,-131.19 235.75,-124.97 230.5,-116 225.3,-107.12 226.44,-94.95 228.12,-86.8"/>
<polygon fill="#9a32cd" stroke="#9a32cd" points="253.31,-138.74 263.89,-139.16 255.88,-132.23 253.31,-138.74"/>
<text text-anchor="middle" x="252" y="-108" font-family="Helvetica,sans-Serif" font-size="10.00"> elements</text>
</g>
<!-- Node10&#45;&gt;Node1 -->
<g id="edge9" class="edge">
<title>Node10&#45;&gt;Node1</title>
<path fill="none" stroke="#9a32cd" stroke-dasharray="5,2" d="M230.5,-57.04C230.5,-44.67 230.5,-29.12 230.5,-19.63"/>
<polygon fill="#9a32cd" stroke="#9a32cd" points="227,-57.23 230.5,-67.23 234,-57.23 227,-57.23"/>
<text text-anchor="middle" x="274.5" y="-41" font-family="Helvetica,sans-Serif" font-size="10.00"> mInverseStringMap</text>
</g>
</g>
</svg>
