<?xml version="1.0" encoding="UTF-8" standalone="no"?>
<!DOCTYPE svg PUBLIC "-//W3C//DTD SVG 1.1//EN"
 "http://www.w3.org/Graphics/SVG/1.1/DTD/svg11.dtd">
<!-- Generated by graphviz version 6.0.1 (20220911.1526)
 -->
<!-- Title: AAX_CPercentDisplayDelegateDecorator::ValueToString Pages: 1 -->
<svg width="359pt" height="39pt"
 viewBox="0.00 0.00 359.00 39.00" xmlns="http://www.w3.org/2000/svg" xmlns:xlink="http://www.w3.org/1999/xlink">
<g id="graph0" class="graph" transform="scale(1 1) rotate(0) translate(4 35)">
<title>AAX_CPercentDisplayDelegateDecorator::ValueToString</title>
<polygon fill="white" stroke="none" points="-4,4 -4,-35 355,-35 355,4 -4,4"/>
<!-- Node1 -->
<g id="node1" class="node">
<title>Node1</title>
<g id="a_node1"><a xlink:title="Converts a real parameter value to a string representation.">
<polygon fill="#bfbfbf" stroke="black" points="0,-0.5 0,-30.5 155,-30.5 155,-0.5 0,-0.5"/>
<text text-anchor="start" x="8" y="-18.5" font-family="Helvetica,sans-Serif" font-size="10.00">AAX_CPercentDisplayDelegate</text>
<text text-anchor="middle" x="77.5" y="-7.5" font-family="Helvetica,sans-Serif" font-size="10.00">Decorator::ValueToString</text>
</a>
</g>
</g>
<!-- Node2 -->
<g id="node2" class="node">
<title>Node2</title>
<g id="a_node2"><a xlink:href="a02093.html#ada5780cfa332ac7946bf95aa65ae96f5" target="_top" xlink:title="Converts a string to a real parameter value.">
<polygon fill="white" stroke="black" points="191,-0.5 191,-30.5 351,-30.5 351,-0.5 191,-0.5"/>
<text text-anchor="start" x="199" y="-18.5" font-family="Helvetica,sans-Serif" font-size="10.00">AAX_IDisplayDelegateDecorator</text>
<text text-anchor="middle" x="271" y="-7.5" font-family="Helvetica,sans-Serif" font-size="10.00">::ValueToString</text>
</a>
</g>
</g>
<!-- Node1&#45;&gt;Node2 -->
<g id="edge1" class="edge">
<title>Node1&#45;&gt;Node2</title>
<path fill="none" stroke="midnightblue" d="M155.01,-15.5C163.47,-15.5 172.14,-15.5 180.74,-15.5"/>
<polygon fill="midnightblue" stroke="midnightblue" points="180.79,-19 190.79,-15.5 180.79,-12 180.79,-19"/>
</g>
</g>
</svg>
