<?xml version="1.0" encoding="UTF-8" standalone="no"?>
<!DOCTYPE svg PUBLIC "-//W3C//DTD SVG 1.1//EN"
 "http://www.w3.org/Graphics/SVG/1.1/DTD/svg11.dtd">
<!-- Generated by graphviz version 6.0.1 (20220911.1526)
 -->
<!-- Title: AAX_CString::AppendNumber Pages: 1 -->
<svg width="355pt" height="88pt"
 viewBox="0.00 0.00 355.00 88.00" xmlns="http://www.w3.org/2000/svg" xmlns:xlink="http://www.w3.org/1999/xlink">
<g id="graph0" class="graph" transform="scale(1 1) rotate(0) translate(4 84)">
<title>AAX_CString::AppendNumber</title>
<polygon fill="white" stroke="none" points="-4,4 -4,-84 351,-84 351,4 -4,4"/>
<!-- Node1 -->
<g id="node1" class="node">
<title>Node1</title>
<g id="a_node1"><a xlink:title=" ">
<polygon fill="#bfbfbf" stroke="black" points="198,-30 198,-49 347,-49 347,-30 198,-30"/>
<text text-anchor="middle" x="272.5" y="-37" font-family="Helvetica,sans-Serif" font-size="10.00">AAX_CString::AppendNumber</text>
</a>
</g>
</g>
<!-- Node2 -->
<g id="node2" class="node">
<title>Node2</title>
<g id="a_node2"><a xlink:href="a02245.html#a0ed17623300136c5723cd3ea36804fd0" target="_top" xlink:title=" ">
<polygon fill="white" stroke="black" points="0,-49.5 0,-79.5 162,-79.5 162,-49.5 0,-49.5"/>
<text text-anchor="start" x="8" y="-67.5" font-family="Helvetica,sans-Serif" font-size="10.00">AAX_IMIDIMessageInfoDelegate</text>
<text text-anchor="middle" x="81" y="-56.5" font-family="Helvetica,sans-Serif" font-size="10.00">::ToString_AppendNumber</text>
</a>
</g>
</g>
<!-- Node1&#45;&gt;Node2 -->
<g id="edge1" class="edge">
<title>Node1&#45;&gt;Node2</title>
<path fill="none" stroke="midnightblue" d="M189.26,-50.35C180.29,-51.53 171.16,-52.74 162.21,-53.92"/>
<polygon fill="midnightblue" stroke="midnightblue" points="189.86,-53.8 199.32,-49.02 188.95,-46.86 189.86,-53.8"/>
</g>
<!-- Node3 -->
<g id="node3" class="node">
<title>Node3</title>
<g id="a_node3"><a xlink:href="a01789.html#a260439b47a0890a008f7984958e11662" target="_top" xlink:title="Converts a real parameter value to a string representation.">
<polygon fill="white" stroke="black" points="3,-0.5 3,-30.5 159,-30.5 159,-0.5 3,-0.5"/>
<text text-anchor="start" x="11" y="-18.5" font-family="Helvetica,sans-Serif" font-size="10.00">AAX_CNumberDisplayDelegate</text>
<text text-anchor="middle" x="81" y="-7.5" font-family="Helvetica,sans-Serif" font-size="10.00">::ValueToString</text>
</a>
</g>
</g>
<!-- Node1&#45;&gt;Node3 -->
<g id="edge2" class="edge">
<title>Node1&#45;&gt;Node3</title>
<path fill="none" stroke="midnightblue" d="M187.75,-28.89C178.27,-27.69 168.65,-26.47 159.26,-25.28"/>
<polygon fill="midnightblue" stroke="midnightblue" points="187.6,-32.4 197.96,-30.19 188.48,-25.46 187.6,-32.4"/>
</g>
</g>
</svg>
