<?xml version="1.0" encoding="UTF-8" standalone="no"?>
<!DOCTYPE svg PUBLIC "-//W3C//DTD SVG 1.1//EN"
 "http://www.w3.org/Graphics/SVG/1.1/DTD/svg11.dtd">
<!-- Generated by graphviz version 6.0.1 (20220911.1526)
 -->
<!-- Title: AAX_CString::CString Pages: 1 -->
<svg width="466pt" height="137pt"
 viewBox="0.00 0.00 466.00 137.00" xmlns="http://www.w3.org/2000/svg" xmlns:xlink="http://www.w3.org/1999/xlink">
<g id="graph0" class="graph" transform="scale(1 1) rotate(0) translate(4 133)">
<title>AAX_CString::CString</title>
<polygon fill="white" stroke="none" points="-4,4 -4,-133 462,-133 462,4 -4,4"/>
<!-- Node1 -->
<g id="node1" class="node">
<title>Node1</title>
<g id="a_node1"><a xlink:title=" ">
<polygon fill="#bfbfbf" stroke="black" points="344,-77 344,-96 458,-96 458,-77 344,-77"/>
<text text-anchor="middle" x="401" y="-84" font-family="Helvetica,sans-Serif" font-size="10.00">AAX_CString::CString</text>
</a>
</g>
</g>
<!-- Node2 -->
<g id="node2" class="node">
<title>Node2</title>
<g id="a_node2"><a xlink:href="a00868.html#a99fe28eb20cfcef49e99710060c5ebe0" target="_top" xlink:title=" ">
<polygon fill="white" stroke="black" points="184,-99 184,-118 296,-118 296,-99 184,-99"/>
<text text-anchor="middle" x="240" y="-106" font-family="Helvetica,sans-Serif" font-size="10.00">AAX::CopyPageTable</text>
</a>
</g>
</g>
<!-- Node1&#45;&gt;Node2 -->
<g id="edge1" class="edge">
<title>Node1&#45;&gt;Node2</title>
<path fill="none" stroke="midnightblue" d="M333.95,-95.64C321.33,-97.39 308.24,-99.2 296.02,-100.89"/>
<polygon fill="midnightblue" stroke="midnightblue" points="334.52,-99.09 343.94,-94.26 333.56,-92.16 334.52,-99.09"/>
</g>
<!-- Node3 -->
<g id="node3" class="node">
<title>Node3</title>
<g id="a_node3"><a xlink:href="a01821.html#a9ab991e0bad2bc76b7efba3d129f1953" target="_top" xlink:title="Returns the parameter&#39;s unique identifier.">
<polygon fill="white" stroke="black" points="172,-49.5 172,-79.5 308,-79.5 308,-49.5 172,-49.5"/>
<text text-anchor="start" x="180" y="-67.5" font-family="Helvetica,sans-Serif" font-size="10.00">AAX_CStatelessParameter</text>
<text text-anchor="middle" x="240" y="-56.5" font-family="Helvetica,sans-Serif" font-size="10.00">::Identifier</text>
</a>
</g>
</g>
<!-- Node1&#45;&gt;Node3 -->
<g id="edge2" class="edge">
<title>Node1&#45;&gt;Node3</title>
<path fill="none" stroke="midnightblue" d="M333.79,-77.34C325.35,-76.17 316.72,-74.98 308.27,-73.81"/>
<polygon fill="midnightblue" stroke="midnightblue" points="333.56,-80.84 343.94,-78.74 334.52,-73.91 333.56,-80.84"/>
</g>
<!-- Node4 -->
<g id="node4" class="node">
<title>Node4</title>
<g id="a_node4"><a xlink:href="a01821.html#a815f21974e1a75eb9fdcc5cf3e0704c4" target="_top" xlink:title="Signals the automation system that a control has been released.">
<polygon fill="white" stroke="black" points="0,-98.5 0,-128.5 136,-128.5 136,-98.5 0,-98.5"/>
<text text-anchor="start" x="8" y="-116.5" font-family="Helvetica,sans-Serif" font-size="10.00">AAX_CStatelessParameter</text>
<text text-anchor="middle" x="68" y="-105.5" font-family="Helvetica,sans-Serif" font-size="10.00">::Release</text>
</a>
</g>
</g>
<!-- Node3&#45;&gt;Node4 -->
<g id="edge3" class="edge">
<title>Node3&#45;&gt;Node4</title>
<path fill="none" stroke="midnightblue" d="M176.92,-82.39C158.63,-87.66 138.82,-93.38 121.22,-98.45"/>
<polygon fill="midnightblue" stroke="midnightblue" points="177.97,-85.73 186.61,-79.6 176.03,-79.01 177.97,-85.73"/>
</g>
<!-- Node5 -->
<g id="node5" class="node">
<title>Node5</title>
<g id="a_node5"><a xlink:href="a01821.html#acaf1f39e881c14fb3b81f9c0c23fea31" target="_top" xlink:title="Sets the automation delegate (if one is required)">
<polygon fill="white" stroke="black" points="0,-49.5 0,-79.5 136,-79.5 136,-49.5 0,-49.5"/>
<text text-anchor="start" x="8" y="-67.5" font-family="Helvetica,sans-Serif" font-size="10.00">AAX_CStatelessParameter</text>
<text text-anchor="middle" x="68" y="-56.5" font-family="Helvetica,sans-Serif" font-size="10.00">::SetAutomationDelegate</text>
</a>
</g>
</g>
<!-- Node3&#45;&gt;Node5 -->
<g id="edge4" class="edge">
<title>Node3&#45;&gt;Node5</title>
<path fill="none" stroke="midnightblue" d="M161.58,-64.5C153.12,-64.5 144.57,-64.5 136.26,-64.5"/>
<polygon fill="midnightblue" stroke="midnightblue" points="161.81,-68 171.81,-64.5 161.81,-61 161.81,-68"/>
</g>
<!-- Node6 -->
<g id="node6" class="node">
<title>Node6</title>
<g id="a_node6"><a xlink:href="a01821.html#a91eda962cdbf1e211a396240c23c0330" target="_top" xlink:title="Signals the automation system that a control has been touched.">
<polygon fill="white" stroke="black" points="0,-0.5 0,-30.5 136,-30.5 136,-0.5 0,-0.5"/>
<text text-anchor="start" x="8" y="-18.5" font-family="Helvetica,sans-Serif" font-size="10.00">AAX_CStatelessParameter</text>
<text text-anchor="middle" x="68" y="-7.5" font-family="Helvetica,sans-Serif" font-size="10.00">::Touch</text>
</a>
</g>
</g>
<!-- Node3&#45;&gt;Node6 -->
<g id="edge5" class="edge">
<title>Node3&#45;&gt;Node6</title>
<path fill="none" stroke="midnightblue" d="M176.92,-46.61C158.63,-41.34 138.82,-35.62 121.22,-30.55"/>
<polygon fill="midnightblue" stroke="midnightblue" points="176.03,-49.99 186.61,-49.4 177.97,-43.27 176.03,-49.99"/>
</g>
</g>
</svg>
