<?xml version="1.0" encoding="UTF-8" standalone="no"?>
<!DOCTYPE svg PUBLIC "-//W3C//DTD SVG 1.1//EN"
 "http://www.w3.org/Graphics/SVG/1.1/DTD/svg11.dtd">
<!-- Generated by graphviz version 2.47.3 (20210619.1520)
 -->
<!-- Title: AAX_CPacketHandler&lt; TWorker &gt; Pages: 1 -->
<svg width="216pt" height="117pt"
 viewBox="0.00 0.00 216.00 117.00" xmlns="http://www.w3.org/2000/svg" xmlns:xlink="http://www.w3.org/1999/xlink">
<g id="graph0" class="graph" transform="scale(1 1) rotate(0) translate(4 113)">
<title>AAX_CPacketHandler&lt; TWorker &gt;</title>
<polygon fill="white" stroke="transparent" points="-4,4 -4,-113 212,-113 212,4 -4,4"/>
<!-- Node1 -->
<g id="node1" class="node">
<title>Node1</title>
<g id="a_node1"><a xlink:title="Callback container used by AAX_CPacketDispatcher.">
<polygon fill="#bfbfbf" stroke="black" points="54,-0.5 54,-30.5 168,-30.5 168,-0.5 54,-0.5"/>
<text text-anchor="start" x="62" y="-18.5" font-family="Helvetica,sans-Serif" font-size="10.00">AAX_CPacketHandler</text>
<text text-anchor="middle" x="111" y="-7.5" font-family="Helvetica,sans-Serif" font-size="10.00">&lt; TWorker &gt;</text>
</a>
</g>
</g>
<!-- Node2 -->
<g id="node2" class="node">
<title>Node2</title>
<g id="a_node2"><a xlink:href="a01801.html" target="_top" xlink:title="Callback container used by AAX_CPacketDispatcher.">
<polygon fill="white" stroke="black" points="0,-89.5 0,-108.5 110,-108.5 110,-89.5 0,-89.5"/>
<text text-anchor="middle" x="55" y="-96.5" font-family="Helvetica,sans-Serif" font-size="10.00">AAX_IPacketHandler</text>
</a>
</g>
</g>
<!-- Node2&#45;&gt;Node1 -->
<g id="edge1" class="edge">
<title>Node2&#45;&gt;Node1</title>
<path fill="none" stroke="midnightblue" d="M66.72,-80.95C76.98,-66.01 91.71,-44.58 101.31,-30.6"/>
<polygon fill="midnightblue" stroke="midnightblue" points="63.77,-79.05 60.99,-89.28 69.54,-83.02 63.77,-79.05"/>
</g>
<!-- Node3 -->
<g id="node3" class="node">
<title>Node3</title>
<g id="a_node3"><a xlink:href="a01793.html" target="_top" xlink:title="Container for packet&#45;related data.">
<polygon fill="white" stroke="black" points="128,-89.5 128,-108.5 208,-108.5 208,-89.5 128,-89.5"/>
<text text-anchor="middle" x="168" y="-96.5" font-family="Helvetica,sans-Serif" font-size="10.00">AAX_CPacket</text>
</a>
</g>
</g>
<!-- Node3&#45;&gt;Node1 -->
<g id="edge2" class="edge">
<title>Node3&#45;&gt;Node1</title>
<path fill="none" stroke="#9a32cd" stroke-dasharray="5,2" d="M156.07,-80.95C145.63,-66.01 130.64,-44.58 120.86,-30.6"/>
<polygon fill="#9a32cd" stroke="#9a32cd" points="153.3,-83.09 161.9,-89.28 159.04,-79.08 153.3,-83.09"/>
<text text-anchor="middle" x="159" y="-63" font-family="Helvetica,sans-Serif" font-size="10.00"> fpt</text>
<text text-anchor="middle" x="159" y="-52" font-family="Helvetica,sans-Serif" font-size="10.00">fptEx</text>
</g>
</g>
</svg>
