<?xml version="1.0" encoding="UTF-8" standalone="no"?>
<!DOCTYPE svg PUBLIC "-//W3C//DTD SVG 1.1//EN"
 "http://www.w3.org/Graphics/SVG/1.1/DTD/svg11.dtd">
<!-- Generated by graphviz version 2.47.3 (20210619.1520)
 -->
<!-- Title: AAX_CString::SubString Pages: 1 -->
<svg width="323pt" height="137pt"
 viewBox="0.00 0.00 323.00 137.00" xmlns="http://www.w3.org/2000/svg" xmlns:xlink="http://www.w3.org/1999/xlink">
<g id="graph0" class="graph" transform="scale(1 1) rotate(0) translate(4 133)">
<title>AAX_CString::SubString</title>
<polygon fill="white" stroke="transparent" points="-4,4 -4,-133 319,-133 319,4 -4,4"/>
<!-- Node1 -->
<g id="node1" class="node">
<title>Node1</title>
<g id="a_node1"><a xlink:title=" ">
<polygon fill="#bfbfbf" stroke="black" points="191,-55 191,-74 315,-74 315,-55 191,-55"/>
<text text-anchor="middle" x="253" y="-62" font-family="Helvetica,sans-Serif" font-size="10.00">AAX_CString::SubString</text>
</a>
</g>
</g>
<!-- Node2 -->
<g id="node2" class="node">
<title>Node2</title>
<g id="a_node2"><a xlink:href="a01749.html#a7f4645d7e464d63ef22e93c4a99f3f09" target="_top" xlink:title="Converts a string to a real parameter value.">
<polygon fill="white" stroke="black" points="0,-98.5 0,-128.5 155,-128.5 155,-98.5 0,-98.5"/>
<text text-anchor="start" x="8" y="-116.5" font-family="Helvetica,sans-Serif" font-size="10.00">AAX_CDecibelDisplayDelegate</text>
<text text-anchor="middle" x="77.5" y="-105.5" font-family="Helvetica,sans-Serif" font-size="10.00">Decorator::StringToValue</text>
</a>
</g>
</g>
<!-- Node1&#45;&gt;Node2 -->
<g id="edge1" class="edge">
<title>Node1&#45;&gt;Node2</title>
<path fill="none" stroke="midnightblue" d="M208.22,-76.87C184.98,-83.43 156.26,-91.54 131.74,-98.46"/>
<polygon fill="midnightblue" stroke="midnightblue" points="209.46,-80.15 218.14,-74.06 207.56,-73.41 209.46,-80.15"/>
</g>
<!-- Node3 -->
<g id="node3" class="node">
<title>Node3</title>
<g id="a_node3"><a xlink:href="a01829.html#a702a4dea21a72dc8edf6b91b5a5bf5e5" target="_top" xlink:title="Converts a string to a real parameter value.">
<polygon fill="white" stroke="black" points="0,-49.5 0,-79.5 155,-79.5 155,-49.5 0,-49.5"/>
<text text-anchor="start" x="8" y="-67.5" font-family="Helvetica,sans-Serif" font-size="10.00">AAX_CPercentDisplayDelegate</text>
<text text-anchor="middle" x="77.5" y="-56.5" font-family="Helvetica,sans-Serif" font-size="10.00">Decorator::StringToValue</text>
</a>
</g>
</g>
<!-- Node1&#45;&gt;Node3 -->
<g id="edge2" class="edge">
<title>Node1&#45;&gt;Node3</title>
<path fill="none" stroke="midnightblue" d="M180.7,-64.5C172.3,-64.5 163.7,-64.5 155.23,-64.5"/>
<polygon fill="midnightblue" stroke="midnightblue" points="180.83,-68 190.83,-64.5 180.83,-61 180.83,-68"/>
</g>
<!-- Node4 -->
<g id="node4" class="node">
<title>Node4</title>
<g id="a_node4"><a xlink:href="a01865.html#a4577b27d63067a75deead21c25f1b932" target="_top" xlink:title="Converts a string to a real parameter value.">
<polygon fill="white" stroke="black" points="7.5,-0.5 7.5,-30.5 147.5,-30.5 147.5,-0.5 7.5,-0.5"/>
<text text-anchor="start" x="15.5" y="-18.5" font-family="Helvetica,sans-Serif" font-size="10.00">AAX_CUnitDisplayDelegate</text>
<text text-anchor="middle" x="77.5" y="-7.5" font-family="Helvetica,sans-Serif" font-size="10.00">Decorator::StringToValue</text>
</a>
</g>
</g>
<!-- Node1&#45;&gt;Node4 -->
<g id="edge3" class="edge">
<title>Node1&#45;&gt;Node4</title>
<path fill="none" stroke="midnightblue" d="M208.22,-52.13C184.98,-45.57 156.26,-37.46 131.74,-30.54"/>
<polygon fill="midnightblue" stroke="midnightblue" points="207.56,-55.59 218.14,-54.94 209.46,-48.85 207.56,-55.59"/>
</g>
</g>
</svg>
