<?xml version="1.0" encoding="UTF-8" standalone="no"?>
<!DOCTYPE svg PUBLIC "-//W3C//DTD SVG 1.1//EN"
 "http://www.w3.org/Graphics/SVG/1.1/DTD/svg11.dtd">
<!-- Generated by graphviz version 2.47.3 (20210619.1520)
 -->
<!-- Title: AAX_CUnitPrefixDisplayDelegateDecorator::ValueToString Pages: 1 -->
<svg width="565pt" height="78pt"
 viewBox="0.00 0.00 565.00 77.50" xmlns="http://www.w3.org/2000/svg" xmlns:xlink="http://www.w3.org/1999/xlink">
<g id="graph0" class="graph" transform="scale(1 1) rotate(0) translate(4 73.5)">
<title>AAX_CUnitPrefixDisplayDelegateDecorator::ValueToString</title>
<polygon fill="white" stroke="transparent" points="-4,4 -4,-73.5 561,-73.5 561,4 -4,4"/>
<!-- Node1 -->
<g id="node1" class="node">
<title>Node1</title>
<g id="a_node1"><a xlink:title="Converts a real parameter value to a string representation using a size hint, useful for control surf...">
<polygon fill="#bfbfbf" stroke="black" points="0,-22.5 0,-52.5 165,-52.5 165,-22.5 0,-22.5"/>
<text text-anchor="start" x="8" y="-40.5" font-family="Helvetica,sans-Serif" font-size="10.00">AAX_CUnitPrefixDisplayDelegate</text>
<text text-anchor="middle" x="82.5" y="-29.5" font-family="Helvetica,sans-Serif" font-size="10.00">Decorator::ValueToString</text>
</a>
</g>
</g>
<!-- Node2 -->
<g id="node2" class="node">
<title>Node2</title>
<g id="a_node2"><a xlink:href="a00868.html#a7fc4d4cd59850b8b875d085467ff5850" target="_top" xlink:title=" ">
<polygon fill="white" stroke="black" points="248.5,-50 248.5,-69 313.5,-69 313.5,-50 248.5,-50"/>
<text text-anchor="middle" x="281" y="-57" font-family="Helvetica,sans-Serif" font-size="10.00">AAX::fabsf</text>
</a>
</g>
</g>
<!-- Node1&#45;&gt;Node2 -->
<g id="edge1" class="edge">
<title>Node1&#45;&gt;Node2</title>
<path fill="none" stroke="midnightblue" d="M165.13,-46.64C190.32,-49.46 217.01,-52.45 238.32,-54.83"/>
<polygon fill="midnightblue" stroke="midnightblue" points="237.99,-58.32 248.32,-55.95 238.77,-51.36 237.99,-58.32"/>
</g>
<!-- Node5 -->
<g id="node5" class="node">
<title>Node5</title>
<g id="a_node5"><a xlink:href="a02093.html#ada5780cfa332ac7946bf95aa65ae96f5" target="_top" xlink:title="Converts a string to a real parameter value.">
<polygon fill="white" stroke="black" points="201,-0.5 201,-30.5 361,-30.5 361,-0.5 201,-0.5"/>
<text text-anchor="start" x="209" y="-18.5" font-family="Helvetica,sans-Serif" font-size="10.00">AAX_IDisplayDelegateDecorator</text>
<text text-anchor="middle" x="281" y="-7.5" font-family="Helvetica,sans-Serif" font-size="10.00">::ValueToString</text>
</a>
</g>
</g>
<!-- Node1&#45;&gt;Node5 -->
<g id="edge4" class="edge">
<title>Node1&#45;&gt;Node5</title>
<path fill="none" stroke="midnightblue" d="M165.13,-28.36C173.61,-27.41 182.27,-26.44 190.84,-25.48"/>
<polygon fill="midnightblue" stroke="midnightblue" points="191.29,-28.95 200.84,-24.36 190.51,-22 191.29,-28.95"/>
</g>
<!-- Node3 -->
<g id="node3" class="node">
<title>Node3</title>
<g id="a_node3"><a xlink:href="a00868.html#aa4fa4d0765a764b020102cdbff8b45b0" target="_top" xlink:title=" ">
<polygon fill="white" stroke="black" points="397,-50 397,-69 459,-69 459,-50 397,-50"/>
<text text-anchor="middle" x="428" y="-57" font-family="Helvetica,sans-Serif" font-size="10.00">AAX::fabs</text>
</a>
</g>
</g>
<!-- Node2&#45;&gt;Node3 -->
<g id="edge2" class="edge">
<title>Node2&#45;&gt;Node3</title>
<path fill="none" stroke="midnightblue" d="M313.82,-59.5C335.22,-59.5 363.61,-59.5 386.6,-59.5"/>
<polygon fill="midnightblue" stroke="midnightblue" points="386.74,-63 396.74,-59.5 386.74,-56 386.74,-63"/>
</g>
<!-- Node4 -->
<g id="node4" class="node">
<title>Node4</title>
<g id="a_node4"><a xlink:href="a00868.html#af486dfb226661e4a47d7b42eca881759" target="_top" xlink:title=" ">
<polygon fill="white" stroke="black" points="495,-50 495,-69 557,-69 557,-50 495,-50"/>
<text text-anchor="middle" x="526" y="-57" font-family="Helvetica,sans-Serif" font-size="10.00">AAX::fabs</text>
</a>
</g>
</g>
<!-- Node3&#45;&gt;Node4 -->
<g id="edge3" class="edge">
<title>Node3&#45;&gt;Node4</title>
<path fill="none" stroke="midnightblue" d="M459.11,-59.5C467.24,-59.5 476.17,-59.5 484.76,-59.5"/>
<polygon fill="midnightblue" stroke="midnightblue" points="485,-63 495,-59.5 485,-56 485,-63"/>
</g>
</g>
</svg>
