<?xml version="1.0" encoding="UTF-8" standalone="no"?>
<!DOCTYPE svg PUBLIC "-//W3C//DTD SVG 1.1//EN"
 "http://www.w3.org/Graphics/SVG/1.1/DTD/svg11.dtd">
<!-- Generated by graphviz version 2.47.3 (20210619.1520)
 -->
<!-- Title: AAX_CString::Get Pages: 1 -->
<svg width="482pt" height="116pt"
 viewBox="0.00 0.00 482.00 116.00" xmlns="http://www.w3.org/2000/svg" xmlns:xlink="http://www.w3.org/1999/xlink">
<g id="graph0" class="graph" transform="scale(1 1) rotate(0) translate(4 112)">
<title>AAX_CString::Get</title>
<polygon fill="white" stroke="transparent" points="-4,4 -4,-112 478,-112 478,4 -4,4"/>
<!-- Node1 -->
<g id="node1" class="node">
<title>Node1</title>
<g id="a_node1"><a xlink:title=" ">
<polygon fill="#bfbfbf" stroke="black" points="377,-44.5 377,-63.5 474,-63.5 474,-44.5 377,-44.5"/>
<text text-anchor="middle" x="425.5" y="-51.5" font-family="Helvetica,sans-Serif" font-size="10.00">AAX_CString::Get</text>
</a>
</g>
</g>
<!-- Node2 -->
<g id="node2" class="node">
<title>Node2</title>
<g id="a_node2"><a xlink:href="a00868.html#a99fe28eb20cfcef49e99710060c5ebe0" target="_top" xlink:title=" ">
<polygon fill="white" stroke="black" points="199.5,-88.5 199.5,-107.5 311.5,-107.5 311.5,-88.5 199.5,-88.5"/>
<text text-anchor="middle" x="255.5" y="-95.5" font-family="Helvetica,sans-Serif" font-size="10.00">AAX::CopyPageTable</text>
</a>
</g>
</g>
<!-- Node1&#45;&gt;Node2 -->
<g id="edge1" class="edge">
<title>Node1&#45;&gt;Node2</title>
<path fill="none" stroke="midnightblue" d="M384.81,-66.5C371,-70.68 355.37,-75.24 341,-79 328.34,-82.31 314.53,-85.57 301.81,-88.42"/>
<polygon fill="midnightblue" stroke="midnightblue" points="385.96,-69.81 394.5,-63.54 383.91,-63.11 385.96,-69.81"/>
</g>
<!-- Node3 -->
<g id="node3" class="node">
<title>Node3</title>
<g id="a_node3"><a xlink:href="a00868.html#a2e75756c486e5db4ffa91579bb486a6a" target="_top" xlink:title=" ">
<polygon fill="white" stroke="black" points="175.5,-39 175.5,-69 335.5,-69 335.5,-39 175.5,-39"/>
<text text-anchor="start" x="183.5" y="-57" font-family="Helvetica,sans-Serif" font-size="10.00">AAX::PageTableParameterName</text>
<text text-anchor="middle" x="255.5" y="-46" font-family="Helvetica,sans-Serif" font-size="10.00">VariationsAreEqual</text>
</a>
</g>
</g>
<!-- Node1&#45;&gt;Node3 -->
<g id="edge2" class="edge">
<title>Node1&#45;&gt;Node3</title>
<path fill="none" stroke="midnightblue" d="M366.65,-54C356.69,-54 346.19,-54 335.78,-54"/>
<polygon fill="midnightblue" stroke="midnightblue" points="366.81,-57.5 376.81,-54 366.81,-50.5 366.81,-57.5"/>
</g>
<!-- Node5 -->
<g id="node5" class="node">
<title>Node5</title>
<g id="a_node5"><a xlink:href="a01817.html#a3a804fb1ba33f9b748294bc868915813" target="_top" xlink:title="Returns the parameter&#39;s shortened display name.">
<polygon fill="white" stroke="black" points="170,-0.5 170,-19.5 341,-19.5 341,-0.5 170,-0.5"/>
<text text-anchor="middle" x="255.5" y="-7.5" font-family="Helvetica,sans-Serif" font-size="10.00">AAX_CParameter::ShortenedName</text>
</a>
</g>
</g>
<!-- Node1&#45;&gt;Node5 -->
<g id="edge4" class="edge">
<title>Node1&#45;&gt;Node5</title>
<path fill="none" stroke="midnightblue" d="M382.66,-41.55C369.37,-37.71 354.6,-33.56 341,-30 327.29,-26.41 312.26,-22.76 298.72,-19.58"/>
<polygon fill="midnightblue" stroke="midnightblue" points="381.9,-44.98 392.48,-44.41 383.86,-38.26 381.9,-44.98"/>
</g>
<!-- Node4 -->
<g id="node4" class="node">
<title>Node4</title>
<g id="a_node4"><a xlink:href="a00868.html#a315085bafc0ddf4e7043a69d070da2fb" target="_top" xlink:title=" ">
<polygon fill="white" stroke="black" points="0,-44.5 0,-63.5 134,-63.5 134,-44.5 0,-44.5"/>
<text text-anchor="middle" x="67" y="-51.5" font-family="Helvetica,sans-Serif" font-size="10.00">AAX::PageTablesAreEqual</text>
</a>
</g>
</g>
<!-- Node3&#45;&gt;Node4 -->
<g id="edge3" class="edge">
<title>Node3&#45;&gt;Node4</title>
<path fill="none" stroke="midnightblue" d="M165.4,-54C154.92,-54 144.36,-54 134.27,-54"/>
<polygon fill="midnightblue" stroke="midnightblue" points="165.41,-57.5 175.41,-54 165.41,-50.5 165.41,-57.5"/>
</g>
</g>
</svg>
