<?xml version="1.0" encoding="UTF-8" standalone="no"?>
<!DOCTYPE svg PUBLIC "-//W3C//DTD SVG 1.1//EN"
 "http://www.w3.org/Graphics/SVG/1.1/DTD/svg11.dtd">
<!-- Generated by graphviz version 2.47.3 (20210619.1520)
 -->
<!-- Title: AAX_CUnitDisplayDelegateDecorator::StringToValue Pages: 1 -->
<svg width="344pt" height="116pt"
 viewBox="0.00 0.00 344.00 116.00" xmlns="http://www.w3.org/2000/svg" xmlns:xlink="http://www.w3.org/1999/xlink">
<g id="graph0" class="graph" transform="scale(1 1) rotate(0) translate(4 112)">
<title>AAX_CUnitDisplayDelegateDecorator::StringToValue</title>
<polygon fill="white" stroke="transparent" points="-4,4 -4,-112 340,-112 340,4 -4,4"/>
<!-- Node1 -->
<g id="node1" class="node">
<title>Node1</title>
<g id="a_node1"><a xlink:title="Converts a string to a real parameter value.">
<polygon fill="#bfbfbf" stroke="black" points="0,-39 0,-69 140,-69 140,-39 0,-39"/>
<text text-anchor="start" x="8" y="-57" font-family="Helvetica,sans-Serif" font-size="10.00">AAX_CUnitDisplayDelegate</text>
<text text-anchor="middle" x="70" y="-46" font-family="Helvetica,sans-Serif" font-size="10.00">Decorator::StringToValue</text>
</a>
</g>
</g>
<!-- Node2 -->
<g id="node2" class="node">
<title>Node2</title>
<g id="a_node2"><a xlink:href="a01853.html#a34ccfa250b53a721417f32d4a74bfed6" target="_top" xlink:title=" ">
<polygon fill="white" stroke="black" points="201,-88.5 201,-107.5 311,-107.5 311,-88.5 201,-88.5"/>
<text text-anchor="middle" x="256" y="-95.5" font-family="Helvetica,sans-Serif" font-size="10.00">AAX_CString::Length</text>
</a>
</g>
</g>
<!-- Node1&#45;&gt;Node2 -->
<g id="edge1" class="edge">
<title>Node1&#45;&gt;Node2</title>
<path fill="none" stroke="midnightblue" d="M133.81,-69.02C157.19,-74.61 183.38,-80.87 205.41,-86.14"/>
<polygon fill="midnightblue" stroke="midnightblue" points="204.68,-89.57 215.22,-88.49 206.31,-82.76 204.68,-89.57"/>
</g>
<!-- Node3 -->
<g id="node3" class="node">
<title>Node3</title>
<g id="a_node3"><a xlink:href="a02093.html#a18d19293f3eca619cb5bb7f1ffde1a8d" target="_top" xlink:title="Converts a string to a real parameter value.">
<polygon fill="white" stroke="black" points="176,-39 176,-69 336,-69 336,-39 176,-39"/>
<text text-anchor="start" x="184" y="-57" font-family="Helvetica,sans-Serif" font-size="10.00">AAX_IDisplayDelegateDecorator</text>
<text text-anchor="middle" x="256" y="-46" font-family="Helvetica,sans-Serif" font-size="10.00">::StringToValue</text>
</a>
</g>
</g>
<!-- Node1&#45;&gt;Node3 -->
<g id="edge2" class="edge">
<title>Node1&#45;&gt;Node3</title>
<path fill="none" stroke="midnightblue" d="M140.04,-54C148.47,-54 157.17,-54 165.84,-54"/>
<polygon fill="midnightblue" stroke="midnightblue" points="165.98,-57.5 175.98,-54 165.98,-50.5 165.98,-57.5"/>
</g>
<!-- Node4 -->
<g id="node4" class="node">
<title>Node4</title>
<g id="a_node4"><a xlink:href="a01853.html#a35132df5b9f73bc2ddbfd673f4a5d22a" target="_top" xlink:title=" ">
<polygon fill="white" stroke="black" points="194,-0.5 194,-19.5 318,-19.5 318,-0.5 194,-0.5"/>
<text text-anchor="middle" x="256" y="-7.5" font-family="Helvetica,sans-Serif" font-size="10.00">AAX_CString::SubString</text>
</a>
</g>
</g>
<!-- Node1&#45;&gt;Node4 -->
<g id="edge3" class="edge">
<title>Node1&#45;&gt;Node4</title>
<path fill="none" stroke="midnightblue" d="M133.81,-38.98C157.19,-33.39 183.38,-27.13 205.41,-21.86"/>
<polygon fill="midnightblue" stroke="midnightblue" points="206.31,-25.24 215.22,-19.51 204.68,-18.43 206.31,-25.24"/>
</g>
</g>
</svg>
