<?xml version="1.0" encoding="UTF-8" standalone="no"?>
<!DOCTYPE svg PUBLIC "-//W3C//DTD SVG 1.1//EN"
 "http://www.w3.org/Graphics/SVG/1.1/DTD/svg11.dtd">
<!-- Generated by graphviz version 2.47.3 (20210619.1520)
 -->
<!-- Title: AAX_CString::Append Pages: 1 -->
<svg width="518pt" height="186pt"
 viewBox="0.00 0.00 518.00 186.00" xmlns="http://www.w3.org/2000/svg" xmlns:xlink="http://www.w3.org/1999/xlink">
<g id="graph0" class="graph" transform="scale(1 1) rotate(0) translate(4 182)">
<title>AAX_CString::Append</title>
<polygon fill="white" stroke="transparent" points="-4,4 -4,-182 514,-182 514,4 -4,4"/>
<!-- Node1 -->
<g id="node1" class="node">
<title>Node1</title>
<g id="a_node1"><a xlink:title=" ">
<polygon fill="#bfbfbf" stroke="black" points="396,-79 396,-98 510,-98 510,-79 396,-79"/>
<text text-anchor="middle" x="453" y="-86" font-family="Helvetica,sans-Serif" font-size="10.00">AAX_CString::Append</text>
</a>
</g>
</g>
<!-- Node2 -->
<g id="node2" class="node">
<title>Node2</title>
<g id="a_node2"><a xlink:href="a02245.html#a459b5e82caa345b2d0e4f80d3d2a0a0b" target="_top" xlink:title=" ">
<polygon fill="white" stroke="black" points="198,-147.5 198,-177.5 360,-177.5 360,-147.5 198,-147.5"/>
<text text-anchor="start" x="206" y="-165.5" font-family="Helvetica,sans-Serif" font-size="10.00">AAX_IMIDIMessageInfoDelegate</text>
<text text-anchor="middle" x="279" y="-154.5" font-family="Helvetica,sans-Serif" font-size="10.00">::ToString_AppendByteRange</text>
</a>
</g>
</g>
<!-- Node1&#45;&gt;Node2 -->
<g id="edge1" class="edge">
<title>Node1&#45;&gt;Node2</title>
<path fill="none" stroke="midnightblue" d="M428.1,-103.27C409.91,-114.06 384.01,-128.5 360,-138.5 352.24,-141.73 343.88,-144.73 335.61,-147.44"/>
<polygon fill="midnightblue" stroke="midnightblue" points="430.09,-106.16 436.85,-98 426.48,-100.16 430.09,-106.16"/>
</g>
<!-- Node3 -->
<g id="node3" class="node">
<title>Node3</title>
<g id="a_node3"><a xlink:href="a02245.html#a020ec843c8ec267a5afa66415c3df95a" target="_top" xlink:title=" ">
<polygon fill="white" stroke="black" points="198,-98.5 198,-128.5 360,-128.5 360,-98.5 198,-98.5"/>
<text text-anchor="start" x="206" y="-116.5" font-family="Helvetica,sans-Serif" font-size="10.00">AAX_IMIDIMessageInfoDelegate</text>
<text text-anchor="middle" x="279" y="-105.5" font-family="Helvetica,sans-Serif" font-size="10.00">::ToString_AppendCStr</text>
</a>
</g>
</g>
<!-- Node1&#45;&gt;Node3 -->
<g id="edge2" class="edge">
<title>Node1&#45;&gt;Node3</title>
<path fill="none" stroke="midnightblue" d="M385.65,-98.14C377.3,-99.36 368.69,-100.61 360.16,-101.85"/>
<polygon fill="midnightblue" stroke="midnightblue" points="386.29,-101.59 395.68,-96.69 385.28,-94.66 386.29,-101.59"/>
</g>
<!-- Node5 -->
<g id="node5" class="node">
<title>Node5</title>
<g id="a_node5"><a xlink:href="a01789.html#a260439b47a0890a008f7984958e11662" target="_top" xlink:title="Converts a real parameter value to a string representation.">
<polygon fill="white" stroke="black" points="201,-49.5 201,-79.5 357,-79.5 357,-49.5 201,-49.5"/>
<text text-anchor="start" x="209" y="-67.5" font-family="Helvetica,sans-Serif" font-size="10.00">AAX_CNumberDisplayDelegate</text>
<text text-anchor="middle" x="279" y="-56.5" font-family="Helvetica,sans-Serif" font-size="10.00">::ValueToString</text>
</a>
</g>
</g>
<!-- Node1&#45;&gt;Node5 -->
<g id="edge4" class="edge">
<title>Node1&#45;&gt;Node5</title>
<path fill="none" stroke="midnightblue" d="M385.67,-79.24C376.3,-77.94 366.61,-76.58 357.06,-75.25"/>
<polygon fill="midnightblue" stroke="midnightblue" points="385.29,-82.73 395.68,-80.64 386.26,-75.79 385.29,-82.73"/>
</g>
<!-- Node6 -->
<g id="node6" class="node">
<title>Node6</title>
<g id="a_node6"><a xlink:href="a01749.html#ab301958be3d376757bf1bb88ded1c911" target="_top" xlink:title="Converts a real parameter value to a string representation using a size hint, useful for control surf...">
<polygon fill="white" stroke="black" points="201.5,-0.5 201.5,-30.5 356.5,-30.5 356.5,-0.5 201.5,-0.5"/>
<text text-anchor="start" x="209.5" y="-18.5" font-family="Helvetica,sans-Serif" font-size="10.00">AAX_CDecibelDisplayDelegate</text>
<text text-anchor="middle" x="279" y="-7.5" font-family="Helvetica,sans-Serif" font-size="10.00">Decorator::ValueToString</text>
</a>
</g>
</g>
<!-- Node1&#45;&gt;Node6 -->
<g id="edge5" class="edge">
<title>Node1&#45;&gt;Node6</title>
<path fill="none" stroke="midnightblue" d="M427.01,-73.91C408.82,-63.68 383.39,-50.17 360,-40.5 351.39,-36.94 342.09,-33.6 332.98,-30.59"/>
<polygon fill="midnightblue" stroke="midnightblue" points="425.38,-77.01 435.8,-78.92 428.85,-70.93 425.38,-77.01"/>
</g>
<!-- Node4 -->
<g id="node4" class="node">
<title>Node4</title>
<g id="a_node4"><a xlink:href="a02245.html#acf29d3b4be3defe93bb3fad8dda3e7ea" target="_top" xlink:title=" ">
<polygon fill="white" stroke="black" points="0,-98.5 0,-128.5 162,-128.5 162,-98.5 0,-98.5"/>
<text text-anchor="start" x="8" y="-116.5" font-family="Helvetica,sans-Serif" font-size="10.00">AAX_IMIDIMessageInfoDelegate</text>
<text text-anchor="middle" x="81" y="-105.5" font-family="Helvetica,sans-Serif" font-size="10.00">::ToString_AppendValid</text>
</a>
</g>
</g>
<!-- Node3&#45;&gt;Node4 -->
<g id="edge3" class="edge">
<title>Node3&#45;&gt;Node4</title>
<path fill="none" stroke="midnightblue" d="M187.92,-113.5C179.3,-113.5 170.59,-113.5 162.07,-113.5"/>
<polygon fill="midnightblue" stroke="midnightblue" points="188,-117 198,-113.5 188,-110 188,-117"/>
</g>
</g>
</svg>
