<?xml version="1.0" encoding="UTF-8" standalone="no"?>
<!DOCTYPE svg PUBLIC "-//W3C//DTD SVG 1.1//EN"
 "http://www.w3.org/Graphics/SVG/1.1/DTD/svg11.dtd">
<!-- Generated by graphviz version 2.47.3 (20210619.1520)
 -->
<!-- Title: AAX_CUnitPrefixDisplayDelegateDecorator&lt; T &gt; Pages: 1 -->
<svg width="192pt" height="207pt"
 viewBox="0.00 0.00 192.00 207.00" xmlns="http://www.w3.org/2000/svg" xmlns:xlink="http://www.w3.org/1999/xlink">
<g id="graph0" class="graph" transform="scale(1 1) rotate(0) translate(4 203)">
<title>AAX_CUnitPrefixDisplayDelegateDecorator&lt; T &gt;</title>
<polygon fill="white" stroke="transparent" points="-4,4 -4,-203 188,-203 188,4 -4,4"/>
<!-- Node1 -->
<g id="node1" class="node">
<title>Node1</title>
<g id="a_node1"><a xlink:title="A unit prefix decorator conforming to AAX_IDisplayDelegateDecorator.">
<polygon fill="#bfbfbf" stroke="black" points="9.5,-0.5 9.5,-30.5 174.5,-30.5 174.5,-0.5 9.5,-0.5"/>
<text text-anchor="start" x="17.5" y="-18.5" font-family="Helvetica,sans-Serif" font-size="10.00">AAX_CUnitPrefixDisplayDelegate</text>
<text text-anchor="middle" x="92" y="-7.5" font-family="Helvetica,sans-Serif" font-size="10.00">Decorator&lt; T &gt;</text>
</a>
</g>
</g>
<!-- Node2 -->
<g id="node2" class="node">
<title>Node2</title>
<g id="a_node2"><a xlink:href="a02093.html" target="_top" xlink:title="The base class for all concrete display delegate decorators.">
<polygon fill="white" stroke="black" points="0,-67.5 0,-86.5 184,-86.5 184,-67.5 0,-67.5"/>
<text text-anchor="middle" x="92" y="-74.5" font-family="Helvetica,sans-Serif" font-size="10.00">AAX_IDisplayDelegateDecorator&lt; T &gt;</text>
</a>
</g>
</g>
<!-- Node2&#45;&gt;Node1 -->
<g id="edge1" class="edge">
<title>Node2&#45;&gt;Node1</title>
<path fill="none" stroke="midnightblue" d="M92,-57.23C92,-48.59 92,-38.5 92,-30.52"/>
<polygon fill="midnightblue" stroke="midnightblue" points="88.5,-57.48 92,-67.48 95.5,-57.48 88.5,-57.48"/>
</g>
<!-- Node3 -->
<g id="node3" class="node">
<title>Node3</title>
<g id="a_node3"><a xlink:href="a02089.html" target="_top" xlink:title="Classes for parameter value string conversion.">
<polygon fill="white" stroke="black" points="21.5,-123.5 21.5,-142.5 162.5,-142.5 162.5,-123.5 21.5,-123.5"/>
<text text-anchor="middle" x="92" y="-130.5" font-family="Helvetica,sans-Serif" font-size="10.00">AAX_IDisplayDelegate&lt; T &gt;</text>
</a>
</g>
</g>
<!-- Node3&#45;&gt;Node2 -->
<g id="edge2" class="edge">
<title>Node3&#45;&gt;Node2</title>
<path fill="none" stroke="midnightblue" d="M92,-112.8C92,-103.91 92,-93.78 92,-86.75"/>
<polygon fill="midnightblue" stroke="midnightblue" points="88.5,-113.08 92,-123.08 95.5,-113.08 88.5,-113.08"/>
</g>
<!-- Node4 -->
<g id="node4" class="node">
<title>Node4</title>
<g id="a_node4"><a xlink:href="a02085.html" target="_top" xlink:title="Defines the display behavior for a parameter.">
<polygon fill="white" stroke="black" points="22,-179.5 22,-198.5 162,-198.5 162,-179.5 22,-179.5"/>
<text text-anchor="middle" x="92" y="-186.5" font-family="Helvetica,sans-Serif" font-size="10.00">AAX_IDisplayDelegateBase</text>
</a>
</g>
</g>
<!-- Node4&#45;&gt;Node3 -->
<g id="edge3" class="edge">
<title>Node4&#45;&gt;Node3</title>
<path fill="none" stroke="midnightblue" d="M92,-168.8C92,-159.91 92,-149.78 92,-142.75"/>
<polygon fill="midnightblue" stroke="midnightblue" points="88.5,-169.08 92,-179.08 95.5,-169.08 88.5,-169.08"/>
</g>
</g>
</svg>
