<?xml version="1.0" encoding="UTF-8" standalone="no"?>
<!DOCTYPE svg PUBLIC "-//W3C//DTD SVG 1.1//EN"
 "http://www.w3.org/Graphics/SVG/1.1/DTD/svg11.dtd">
<!-- Generated by graphviz version 2.47.3 (20210619.1520)
 -->
<!-- Title: AAX_CParameter&lt; T &gt; Pages: 1 -->
<svg width="402pt" height="95pt"
 viewBox="0.00 0.00 402.00 95.00" xmlns="http://www.w3.org/2000/svg" xmlns:xlink="http://www.w3.org/1999/xlink">
<g id="graph0" class="graph" transform="scale(1 1) rotate(0) translate(4 91)">
<title>AAX_CParameter&lt; T &gt;</title>
<polygon fill="white" stroke="transparent" points="-4,4 -4,-91 398,-91 398,4 -4,4"/>
<!-- Node1 -->
<g id="node1" class="node">
<title>Node1</title>
<g id="a_node1"><a xlink:title="Generic implementation of an AAX_IParameter.">
<polygon fill="#bfbfbf" stroke="black" points="115.5,-0.5 115.5,-19.5 234.5,-19.5 234.5,-0.5 115.5,-0.5"/>
<text text-anchor="middle" x="175" y="-7.5" font-family="Helvetica,sans-Serif" font-size="10.00">AAX_CParameter&lt; T &gt;</text>
</a>
</g>
</g>
<!-- Node2 -->
<g id="node2" class="node">
<title>Node2</title>
<g id="a_node2"><a xlink:href="a02145.html" target="_top" xlink:title="The base interface for all normalizable plug&#45;in parameters.">
<polygon fill="white" stroke="black" points="0,-67.5 0,-86.5 90,-86.5 90,-67.5 0,-67.5"/>
<text text-anchor="middle" x="45" y="-74.5" font-family="Helvetica,sans-Serif" font-size="10.00">AAX_IParameter</text>
</a>
</g>
</g>
<!-- Node2&#45;&gt;Node1 -->
<g id="edge1" class="edge">
<title>Node2&#45;&gt;Node1</title>
<path fill="none" stroke="midnightblue" d="M71.45,-62.77C97.2,-49.9 135.58,-30.71 157.67,-19.67"/>
<polygon fill="midnightblue" stroke="midnightblue" points="69.64,-59.77 62.26,-67.37 72.77,-66.03 69.64,-59.77"/>
</g>
<!-- Node3 -->
<g id="node3" class="node">
<title>Node3</title>
<g id="a_node3"><a xlink:href="a01857.html" target="_top" xlink:title="Helper class to store a collection of name abbreviations.">
<polygon fill="white" stroke="black" points="108,-67.5 108,-86.5 242,-86.5 242,-67.5 108,-67.5"/>
<text text-anchor="middle" x="175" y="-74.5" font-family="Helvetica,sans-Serif" font-size="10.00">AAX_CStringAbbreviations</text>
</a>
</g>
</g>
<!-- Node3&#45;&gt;Node1 -->
<g id="edge2" class="edge">
<title>Node3&#45;&gt;Node1</title>
<path fill="none" stroke="#9a32cd" stroke-dasharray="5,2" d="M175,-57.04C175,-44.67 175,-29.12 175,-19.63"/>
<polygon fill="#9a32cd" stroke="#9a32cd" points="171.5,-57.23 175,-67.23 178.5,-57.23 171.5,-57.23"/>
<text text-anchor="middle" x="196.5" y="-41" font-family="Helvetica,sans-Serif" font-size="10.00"> mNames</text>
</g>
<!-- Node4 -->
<g id="node4" class="node">
<title>Node4</title>
<g id="a_node4"><a xlink:href="a02061.html" target="_top" xlink:title="Interface allowing an AAX plug&#45;in to interact with the host&#39;s event system.">
<polygon fill="white" stroke="black" points="260,-67.5 260,-86.5 394,-86.5 394,-67.5 260,-67.5"/>
<text text-anchor="middle" x="327" y="-74.5" font-family="Helvetica,sans-Serif" font-size="10.00">AAX_IAutomationDelegate</text>
</a>
</g>
</g>
<!-- Node4&#45;&gt;Node1 -->
<g id="edge3" class="edge">
<title>Node4&#45;&gt;Node1</title>
<path fill="none" stroke="#9a32cd" stroke-dasharray="5,2" d="M297.26,-63.28C267.16,-50.41 221.43,-30.85 195.27,-19.67"/>
<polygon fill="#9a32cd" stroke="#9a32cd" points="296.24,-66.65 306.82,-67.37 299,-60.22 296.24,-66.65"/>
<text text-anchor="middle" x="310" y="-41" font-family="Helvetica,sans-Serif" font-size="10.00"> mAutomationDelegate</text>
</g>
</g>
</svg>
