<?xml version="1.0" encoding="UTF-8" standalone="no"?>
<!DOCTYPE svg PUBLIC "-//W3C//DTD SVG 1.1//EN"
 "http://www.w3.org/Graphics/SVG/1.1/DTD/svg11.dtd">
<!-- Generated by graphviz version 6.0.1 (20220911.1526)
 -->
<!-- Title: AAX_CStringDisplayDelegate&lt; T &gt; Pages: 1 -->
<svg width="179pt" height="140pt"
 viewBox="0.00 0.00 179.00 140.00" xmlns="http://www.w3.org/2000/svg" xmlns:xlink="http://www.w3.org/1999/xlink">
<g id="graph0" class="graph" transform="scale(1 1) rotate(0) translate(4 136)">
<title>AAX_CStringDisplayDelegate&lt; T &gt;</title>
<polygon fill="white" stroke="none" points="-4,4 -4,-136 175,-136 175,4 -4,4"/>
<!-- Node1 -->
<g id="node1" class="node">
<title>Node1</title>
<g id="a_node1"><a xlink:title="A string, or list, display format conforming to AAX_IDisplayDelegate.">
<polygon fill="#bfbfbf" stroke="black" points="0,-0.5 0,-19.5 171,-19.5 171,-0.5 0,-0.5"/>
<text text-anchor="middle" x="85.5" y="-7.5" font-family="Helvetica,sans-Serif" font-size="10.00">AAX_CStringDisplayDelegate&lt; T &gt;</text>
</a>
</g>
</g>
<!-- Node2 -->
<g id="node2" class="node">
<title>Node2</title>
<g id="a_node2"><a xlink:href="a02089.html" target="_top" xlink:title="Classes for parameter value string conversion.">
<polygon fill="white" stroke="black" points="15,-56.5 15,-75.5 156,-75.5 156,-56.5 15,-56.5"/>
<text text-anchor="middle" x="85.5" y="-63.5" font-family="Helvetica,sans-Serif" font-size="10.00">AAX_IDisplayDelegate&lt; T &gt;</text>
</a>
</g>
</g>
<!-- Node2&#45;&gt;Node1 -->
<g id="edge1" class="edge">
<title>Node2&#45;&gt;Node1</title>
<path fill="none" stroke="midnightblue" d="M85.5,-45.8C85.5,-36.91 85.5,-26.78 85.5,-19.75"/>
<polygon fill="midnightblue" stroke="midnightblue" points="82,-46.08 85.5,-56.08 89,-46.08 82,-46.08"/>
</g>
<!-- Node3 -->
<g id="node3" class="node">
<title>Node3</title>
<g id="a_node3"><a xlink:href="a02085.html" target="_top" xlink:title="Defines the display behavior for a parameter.">
<polygon fill="white" stroke="black" points="15.5,-112.5 15.5,-131.5 155.5,-131.5 155.5,-112.5 15.5,-112.5"/>
<text text-anchor="middle" x="85.5" y="-119.5" font-family="Helvetica,sans-Serif" font-size="10.00">AAX_IDisplayDelegateBase</text>
</a>
</g>
</g>
<!-- Node3&#45;&gt;Node2 -->
<g id="edge2" class="edge">
<title>Node3&#45;&gt;Node2</title>
<path fill="none" stroke="midnightblue" d="M85.5,-101.8C85.5,-92.91 85.5,-82.78 85.5,-75.75"/>
<polygon fill="midnightblue" stroke="midnightblue" points="82,-102.08 85.5,-112.08 89,-102.08 82,-102.08"/>
</g>
</g>
</svg>
