<?xml version="1.0" encoding="UTF-8" standalone="no"?>
<!DOCTYPE svg PUBLIC "-//W3C//DTD SVG 1.1//EN"
 "http://www.w3.org/Graphics/SVG/1.1/DTD/svg11.dtd">
<!-- Generated by graphviz version 2.47.3 (20210619.1520)
 -->
<!-- Title: AAX_CParameter::SetToDefaultValue Pages: 1 -->
<svg width="323pt" height="39pt"
 viewBox="0.00 0.00 323.00 39.00" xmlns="http://www.w3.org/2000/svg" xmlns:xlink="http://www.w3.org/1999/xlink">
<g id="graph0" class="graph" transform="scale(1 1) rotate(0) translate(4 35)">
<title>AAX_CParameter::SetToDefaultValue</title>
<polygon fill="white" stroke="transparent" points="-4,4 -4,-35 319,-35 319,4 -4,4"/>
<!-- Node1 -->
<g id="node1" class="node">
<title>Node1</title>
<g id="a_node1"><a xlink:title="Restores the state of this parameter to its default value.">
<polygon fill="#bfbfbf" stroke="black" points="157,-0.5 157,-30.5 315,-30.5 315,-0.5 157,-0.5"/>
<text text-anchor="start" x="165" y="-18.5" font-family="Helvetica,sans-Serif" font-size="10.00">AAX_CParameter::SetToDefault</text>
<text text-anchor="middle" x="236" y="-7.5" font-family="Helvetica,sans-Serif" font-size="10.00">Value</text>
</a>
</g>
</g>
<!-- Node2 -->
<g id="node2" class="node">
<title>Node2</title>
<g id="a_node2"><a xlink:href="a01817.html#a37efc08612535de4712bd59445ce8fbf" target="_top" xlink:title="Constructs an AAX_CParameter object using the specified taper and display delegates.">
<polygon fill="white" stroke="black" points="0,-0.5 0,-30.5 121,-30.5 121,-0.5 0,-0.5"/>
<text text-anchor="start" x="8" y="-18.5" font-family="Helvetica,sans-Serif" font-size="10.00">AAX_CParameter::AAX</text>
<text text-anchor="middle" x="60.5" y="-7.5" font-family="Helvetica,sans-Serif" font-size="10.00">_CParameter</text>
</a>
</g>
</g>
<!-- Node1&#45;&gt;Node2 -->
<g id="edge1" class="edge">
<title>Node1&#45;&gt;Node2</title>
<path fill="none" stroke="midnightblue" d="M146.75,-15.5C138.12,-15.5 129.5,-15.5 121.25,-15.5"/>
<polygon fill="midnightblue" stroke="midnightblue" points="146.88,-19 156.88,-15.5 146.88,-12 146.88,-19"/>
</g>
</g>
</svg>
