<?xml version="1.0" encoding="UTF-8" standalone="no"?>
<!DOCTYPE svg PUBLIC "-//W3C//DTD SVG 1.1//EN"
 "http://www.w3.org/Graphics/SVG/1.1/DTD/svg11.dtd">
<!-- Generated by graphviz version 6.0.1 (20220911.1526)
 -->
<!-- Title: AAX_CParameterManager::GetParameterByID Pages: 1 -->
<svg width="349pt" height="39pt"
 viewBox="0.00 0.00 349.00 39.00" xmlns="http://www.w3.org/2000/svg" xmlns:xlink="http://www.w3.org/1999/xlink">
<g id="graph0" class="graph" transform="scale(1 1) rotate(0) translate(4 35)">
<title>AAX_CParameterManager::GetParameterByID</title>
<polygon fill="white" stroke="none" points="-4,4 -4,-35 345,-35 345,4 -4,4"/>
<!-- Node1 -->
<g id="node1" class="node">
<title>Node1</title>
<g id="a_node1"><a xlink:title="Given a parameter ID, retrieves a reference to the requested parameter.">
<polygon fill="#bfbfbf" stroke="black" points="209,-0.5 209,-30.5 341,-30.5 341,-0.5 209,-0.5"/>
<text text-anchor="start" x="217" y="-18.5" font-family="Helvetica,sans-Serif" font-size="10.00">AAX_CParameterManager</text>
<text text-anchor="middle" x="275" y="-7.5" font-family="Helvetica,sans-Serif" font-size="10.00">::GetParameterByID</text>
</a>
</g>
</g>
<!-- Node2 -->
<g id="node2" class="node">
<title>Node2</title>
<g id="a_node2"><a xlink:href="a02261.html#a9ef4fd6fa467008fcea4455d19c08009" target="_top" xlink:title="Updates a single parameter&#39;s state to its current value.">
<polygon fill="white" stroke="black" points="0,-0.5 0,-30.5 173,-30.5 173,-0.5 0,-0.5"/>
<text text-anchor="start" x="8" y="-18.5" font-family="Helvetica,sans-Serif" font-size="10.00">AAX_CMonolithicParameters</text>
<text text-anchor="middle" x="86.5" y="-7.5" font-family="Helvetica,sans-Serif" font-size="10.00">::UpdateParameterNormalizedValue</text>
</a>
</g>
</g>
<!-- Node1&#45;&gt;Node2 -->
<g id="edge1" class="edge">
<title>Node1&#45;&gt;Node2</title>
<path fill="none" stroke="midnightblue" d="M198.61,-15.5C190.19,-15.5 181.56,-15.5 173.01,-15.5"/>
<polygon fill="midnightblue" stroke="midnightblue" points="198.77,-19 208.77,-15.5 198.77,-12 198.77,-19"/>
</g>
</g>
</svg>
