<?xml version="1.0" encoding="UTF-8" standalone="no"?>
<!DOCTYPE svg PUBLIC "-//W3C//DTD SVG 1.1//EN"
 "http://www.w3.org/Graphics/SVG/1.1/DTD/svg11.dtd">
<!-- Generated by graphviz version 6.0.1 (20220911.1526)
 -->
<!-- Title: AAX::Exception::ResultError::FormatResult Pages: 1 -->
<svg width="295pt" height="66pt"
 viewBox="0.00 0.00 295.00 66.00" xmlns="http://www.w3.org/2000/svg" xmlns:xlink="http://www.w3.org/1999/xlink">
<g id="graph0" class="graph" transform="scale(1 1) rotate(0) translate(4 62)">
<title>AAX::Exception::ResultError::FormatResult</title>
<polygon fill="white" stroke="none" points="-4,4 -4,-62 291,-62 291,4 -4,4"/>
<!-- Node1 -->
<g id="node1" class="node">
<title>Node1</title>
<g id="a_node1"><a xlink:title=" ">
<polygon fill="#bfbfbf" stroke="black" points="0,-14 0,-44 142,-44 142,-14 0,-14"/>
<text text-anchor="start" x="8" y="-32" font-family="Helvetica,sans-Serif" font-size="10.00">AAX::Exception::ResultError</text>
<text text-anchor="middle" x="71" y="-21" font-family="Helvetica,sans-Serif" font-size="10.00">::FormatResult</text>
</a>
</g>
</g>
<!-- Node2 -->
<g id="node2" class="node">
<title>Node2</title>
<g id="a_node2"><a xlink:href="a00868.html#ab024a3d9ac9c68350b377b2c70ec4727" target="_top" xlink:title=" ">
<polygon fill="white" stroke="black" points="181.5,-38.5 181.5,-57.5 283.5,-57.5 283.5,-38.5 181.5,-38.5"/>
<text text-anchor="middle" x="232.5" y="-45.5" font-family="Helvetica,sans-Serif" font-size="10.00">AAX::AsStringInt32</text>
</a>
</g>
</g>
<!-- Node1&#45;&gt;Node2 -->
<g id="edge1" class="edge">
<title>Node1&#45;&gt;Node2</title>
<path fill="none" stroke="midnightblue" d="M142.42,-37.39C151.98,-38.53 161.73,-39.69 171.09,-40.8"/>
<polygon fill="midnightblue" stroke="midnightblue" points="170.73,-44.29 181.07,-41.99 171.56,-37.33 170.73,-44.29"/>
</g>
<!-- Node3 -->
<g id="node3" class="node">
<title>Node3</title>
<g id="a_node3"><a xlink:href="a00868.html#a354029650cebc5f23636c9984a65ea0d" target="_top" xlink:title=" ">
<polygon fill="white" stroke="black" points="178,-0.5 178,-19.5 287,-19.5 287,-0.5 178,-0.5"/>
<text text-anchor="middle" x="232.5" y="-7.5" font-family="Helvetica,sans-Serif" font-size="10.00">AAX::AsStringResult</text>
</a>
</g>
</g>
<!-- Node1&#45;&gt;Node3 -->
<g id="edge2" class="edge">
<title>Node1&#45;&gt;Node3</title>
<path fill="none" stroke="midnightblue" d="M142.42,-20.61C150.85,-19.61 159.41,-18.59 167.74,-17.6"/>
<polygon fill="midnightblue" stroke="midnightblue" points="168.23,-21.06 177.74,-16.4 167.4,-14.11 168.23,-21.06"/>
</g>
</g>
</svg>
