<?xml version="1.0" encoding="UTF-8" standalone="no"?>
<!DOCTYPE svg PUBLIC "-//W3C//DTD SVG 1.1//EN"
 "http://www.w3.org/Graphics/SVG/1.1/DTD/svg11.dtd">
<!-- Generated by graphviz version 2.47.3 (20210619.1520)
 -->
<!-- Title: AAX_CString::Erase Pages: 1 -->
<svg width="316pt" height="88pt"
 viewBox="0.00 0.00 316.00 88.00" xmlns="http://www.w3.org/2000/svg" xmlns:xlink="http://www.w3.org/1999/xlink">
<g id="graph0" class="graph" transform="scale(1 1) rotate(0) translate(4 84)">
<title>AAX_CString::Erase</title>
<polygon fill="white" stroke="transparent" points="-4,4 -4,-84 312,-84 312,4 -4,4"/>
<!-- Node1 -->
<g id="node1" class="node">
<title>Node1</title>
<g id="a_node1"><a xlink:title=" ">
<polygon fill="#bfbfbf" stroke="black" points="201,-30 201,-49 308,-49 308,-30 201,-30"/>
<text text-anchor="middle" x="254.5" y="-37" font-family="Helvetica,sans-Serif" font-size="10.00">AAX_CString::Erase</text>
</a>
</g>
</g>
<!-- Node2 -->
<g id="node2" class="node">
<title>Node2</title>
<g id="a_node2"><a xlink:href="a01869.html#a6d930afe0a249f6936504c25d9c29764" target="_top" xlink:title="Converts a string to a real parameter value.">
<polygon fill="white" stroke="black" points="0,-49.5 0,-79.5 165,-79.5 165,-49.5 0,-49.5"/>
<text text-anchor="start" x="8" y="-67.5" font-family="Helvetica,sans-Serif" font-size="10.00">AAX_CUnitPrefixDisplayDelegate</text>
<text text-anchor="middle" x="82.5" y="-56.5" font-family="Helvetica,sans-Serif" font-size="10.00">Decorator::StringToValue</text>
</a>
</g>
</g>
<!-- Node1&#45;&gt;Node2 -->
<g id="edge1" class="edge">
<title>Node1&#45;&gt;Node2</title>
<path fill="none" stroke="midnightblue" d="M190.64,-48.74C182.29,-49.97 173.64,-51.24 165.04,-52.51"/>
<polygon fill="midnightblue" stroke="midnightblue" points="191.26,-52.19 200.64,-47.27 190.24,-45.27 191.26,-52.19"/>
</g>
<!-- Node3 -->
<g id="node3" class="node">
<title>Node3</title>
<g id="a_node3"><a xlink:href="a01789.html#a8cb553887b6a334fbcb6432770c67ed8" target="_top" xlink:title="Converts a real parameter value to a string representation using a size hint, useful for control surf...">
<polygon fill="white" stroke="black" points="4.5,-0.5 4.5,-30.5 160.5,-30.5 160.5,-0.5 4.5,-0.5"/>
<text text-anchor="start" x="12.5" y="-18.5" font-family="Helvetica,sans-Serif" font-size="10.00">AAX_CNumberDisplayDelegate</text>
<text text-anchor="middle" x="82.5" y="-7.5" font-family="Helvetica,sans-Serif" font-size="10.00">::ValueToString</text>
</a>
</g>
</g>
<!-- Node1&#45;&gt;Node3 -->
<g id="edge2" class="edge">
<title>Node1&#45;&gt;Node3</title>
<path fill="none" stroke="midnightblue" d="M190.64,-30.63C180.88,-29.25 170.7,-27.81 160.66,-26.39"/>
<polygon fill="midnightblue" stroke="midnightblue" points="190.25,-34.11 200.64,-32.04 191.23,-27.17 190.25,-34.11"/>
</g>
</g>
</svg>
