<?xml version="1.0" encoding="UTF-8" standalone="no"?>
<!DOCTYPE svg PUBLIC "-//W3C//DTD SVG 1.1//EN"
 "http://www.w3.org/Graphics/SVG/1.1/DTD/svg11.dtd">
<!-- Generated by graphviz version 6.0.1 (20220911.1526)
 -->
<!-- Title: AAX_CString::Length Pages: 1 -->
<svg width="491pt" height="459pt"
 viewBox="0.00 0.00 491.00 459.00" xmlns="http://www.w3.org/2000/svg" xmlns:xlink="http://www.w3.org/1999/xlink">
<g id="graph0" class="graph" transform="scale(1 1) rotate(0) translate(4 455)">
<title>AAX_CString::Length</title>
<polygon fill="white" stroke="none" points="-4,4 -4,-455 487,-455 487,4 -4,4"/>
<!-- Node1 -->
<g id="node1" class="node">
<title>Node1</title>
<g id="a_node1"><a xlink:title=" ">
<polygon fill="#bfbfbf" stroke="black" points="373,-226 373,-245 483,-245 483,-226 373,-226"/>
<text text-anchor="middle" x="428" y="-233" font-family="Helvetica,sans-Serif" font-size="10.00">AAX_CString::Length</text>
</a>
</g>
</g>
<!-- Node2 -->
<g id="node2" class="node">
<title>Node2</title>
<g id="a_node2"><a xlink:href="a01729.html#a7261174f82f961b2573bfbf334ed064c" target="_top" xlink:title="Constructor.">
<polygon fill="white" stroke="black" points="177,-420.5 177,-450.5 332,-450.5 332,-420.5 177,-420.5"/>
<text text-anchor="start" x="185" y="-438.5" font-family="Helvetica,sans-Serif" font-size="10.00">AAX_CBinaryDisplayDelegate</text>
<text text-anchor="middle" x="254.5" y="-427.5" font-family="Helvetica,sans-Serif" font-size="10.00">::AAX_CBinaryDisplayDelegate</text>
</a>
</g>
</g>
<!-- Node1&#45;&gt;Node2 -->
<g id="edge1" class="edge">
<title>Node1&#45;&gt;Node2</title>
<path fill="none" stroke="midnightblue" d="M422.39,-254.88C412.81,-290.92 387.34,-368.38 337,-410.5 332.35,-414.39 327.09,-417.68 321.55,-420.46"/>
<polygon fill="midnightblue" stroke="midnightblue" points="425.8,-255.67 424.86,-245.11 419.01,-253.95 425.8,-255.67"/>
</g>
<!-- Node3 -->
<g id="node3" class="node">
<title>Node3</title>
<g id="a_node3"><a xlink:href="a01857.html#a840d1e71735c21a38136812a01693f91" target="_top" xlink:title=" ">
<polygon fill="white" stroke="black" points="175.5,-382 175.5,-401 333.5,-401 333.5,-382 175.5,-382"/>
<text text-anchor="middle" x="254.5" y="-389" font-family="Helvetica,sans-Serif" font-size="10.00">AAX_CStringAbbreviations::Add</text>
</a>
</g>
</g>
<!-- Node1&#45;&gt;Node3 -->
<g id="edge2" class="edge">
<title>Node1&#45;&gt;Node3</title>
<path fill="none" stroke="midnightblue" d="M419.89,-254.67C407.73,-284.7 380,-342.49 337,-372.5 331.52,-376.32 325.38,-379.39 318.99,-381.84"/>
<polygon fill="midnightblue" stroke="midnightblue" points="423.17,-255.89 423.54,-245.3 416.65,-253.34 423.17,-255.89"/>
</g>
<!-- Node5 -->
<g id="node5" class="node">
<title>Node5</title>
<g id="a_node5"><a xlink:href="a01857.html#af21dca22bf79b4921f81432ba4e99223" target="_top" xlink:title=" ">
<polygon fill="white" stroke="black" points="176.5,-344 176.5,-363 332.5,-363 332.5,-344 176.5,-344"/>
<text text-anchor="middle" x="254.5" y="-351" font-family="Helvetica,sans-Serif" font-size="10.00">AAX_CStringAbbreviations::Get</text>
</a>
</g>
</g>
<!-- Node1&#45;&gt;Node5 -->
<g id="edge4" class="edge">
<title>Node1&#45;&gt;Node5</title>
<path fill="none" stroke="midnightblue" d="M415.43,-253.55C400.19,-275.82 371.27,-313.22 337,-333.5 329.6,-337.88 321.29,-341.3 312.87,-343.97"/>
<polygon fill="midnightblue" stroke="midnightblue" points="418.48,-255.29 421.1,-245.02 412.65,-251.41 418.48,-255.29"/>
</g>
<!-- Node7 -->
<g id="node7" class="node">
<title>Node7</title>
<g id="a_node7"><a xlink:href="a01749.html#a7f4645d7e464d63ef22e93c4a99f3f09" target="_top" xlink:title="Converts a string to a real parameter value.">
<polygon fill="white" stroke="black" points="177,-294.5 177,-324.5 332,-324.5 332,-294.5 177,-294.5"/>
<text text-anchor="start" x="185" y="-312.5" font-family="Helvetica,sans-Serif" font-size="10.00">AAX_CDecibelDisplayDelegate</text>
<text text-anchor="middle" x="254.5" y="-301.5" font-family="Helvetica,sans-Serif" font-size="10.00">Decorator::StringToValue</text>
</a>
</g>
</g>
<!-- Node1&#45;&gt;Node7 -->
<g id="edge6" class="edge">
<title>Node1&#45;&gt;Node7</title>
<path fill="none" stroke="midnightblue" d="M402.97,-250.31C385.2,-260.83 360.18,-274.75 337,-284.5 328.41,-288.11 319.1,-291.46 309.97,-294.46"/>
<polygon fill="midnightblue" stroke="midnightblue" points="404.77,-253.31 411.54,-245.17 401.17,-247.31 404.77,-253.31"/>
</g>
<!-- Node8 -->
<g id="node8" class="node">
<title>Node8</title>
<g id="a_node8"><a xlink:href="a01829.html#a702a4dea21a72dc8edf6b91b5a5bf5e5" target="_top" xlink:title="Converts a string to a real parameter value.">
<polygon fill="white" stroke="black" points="177,-245.5 177,-275.5 332,-275.5 332,-245.5 177,-245.5"/>
<text text-anchor="start" x="185" y="-263.5" font-family="Helvetica,sans-Serif" font-size="10.00">AAX_CPercentDisplayDelegate</text>
<text text-anchor="middle" x="254.5" y="-252.5" font-family="Helvetica,sans-Serif" font-size="10.00">Decorator::StringToValue</text>
</a>
</g>
</g>
<!-- Node1&#45;&gt;Node8 -->
<g id="edge7" class="edge">
<title>Node1&#45;&gt;Node8</title>
<path fill="none" stroke="midnightblue" d="M362.6,-244.89C352.71,-246.33 342.41,-247.83 332.28,-249.31"/>
<polygon fill="midnightblue" stroke="midnightblue" points="363.35,-248.32 372.74,-243.41 362.34,-241.39 363.35,-248.32"/>
</g>
<!-- Node9 -->
<g id="node9" class="node">
<title>Node9</title>
<g id="a_node9"><a xlink:href="a01865.html#a4577b27d63067a75deead21c25f1b932" target="_top" xlink:title="Converts a string to a real parameter value.">
<polygon fill="white" stroke="black" points="184.5,-196.5 184.5,-226.5 324.5,-226.5 324.5,-196.5 184.5,-196.5"/>
<text text-anchor="start" x="192.5" y="-214.5" font-family="Helvetica,sans-Serif" font-size="10.00">AAX_CUnitDisplayDelegate</text>
<text text-anchor="middle" x="254.5" y="-203.5" font-family="Helvetica,sans-Serif" font-size="10.00">Decorator::StringToValue</text>
</a>
</g>
</g>
<!-- Node1&#45;&gt;Node9 -->
<g id="edge8" class="edge">
<title>Node1&#45;&gt;Node9</title>
<path fill="none" stroke="midnightblue" d="M362.49,-226.47C350.09,-224.74 337.05,-222.91 324.51,-221.16"/>
<polygon fill="midnightblue" stroke="midnightblue" points="362.35,-229.99 372.74,-227.91 363.32,-223.05 362.35,-229.99"/>
</g>
<!-- Node10 -->
<g id="node10" class="node">
<title>Node10</title>
<g id="a_node10"><a xlink:href="a01869.html#a6d930afe0a249f6936504c25d9c29764" target="_top" xlink:title="Converts a string to a real parameter value.">
<polygon fill="white" stroke="black" points="172,-147.5 172,-177.5 337,-177.5 337,-147.5 172,-147.5"/>
<text text-anchor="start" x="180" y="-165.5" font-family="Helvetica,sans-Serif" font-size="10.00">AAX_CUnitPrefixDisplayDelegate</text>
<text text-anchor="middle" x="254.5" y="-154.5" font-family="Helvetica,sans-Serif" font-size="10.00">Decorator::StringToValue</text>
</a>
</g>
</g>
<!-- Node1&#45;&gt;Node10 -->
<g id="edge9" class="edge">
<title>Node1&#45;&gt;Node10</title>
<path fill="none" stroke="midnightblue" d="M403.32,-220.8C385.55,-210.22 360.38,-196.18 337,-186.5 329.23,-183.28 320.88,-180.31 312.6,-177.63"/>
<polygon fill="midnightblue" stroke="midnightblue" points="401.51,-223.8 411.88,-225.97 405.13,-217.81 401.51,-223.8"/>
</g>
<!-- Node11 -->
<g id="node11" class="node">
<title>Node11</title>
<g id="a_node11"><a xlink:href="a01749.html#ab301958be3d376757bf1bb88ded1c911" target="_top" xlink:title="Converts a real parameter value to a string representation using a size hint, useful for control surf...">
<polygon fill="white" stroke="black" points="177,-98.5 177,-128.5 332,-128.5 332,-98.5 177,-98.5"/>
<text text-anchor="start" x="185" y="-116.5" font-family="Helvetica,sans-Serif" font-size="10.00">AAX_CDecibelDisplayDelegate</text>
<text text-anchor="middle" x="254.5" y="-105.5" font-family="Helvetica,sans-Serif" font-size="10.00">Decorator::ValueToString</text>
</a>
</g>
</g>
<!-- Node1&#45;&gt;Node11 -->
<g id="edge10" class="edge">
<title>Node1&#45;&gt;Node11</title>
<path fill="none" stroke="midnightblue" d="M415.05,-217.36C399.59,-195.31 370.63,-158.45 337,-137.5 331.49,-134.07 325.47,-131.11 319.27,-128.56"/>
<polygon fill="midnightblue" stroke="midnightblue" points="412.29,-219.53 420.82,-225.82 418.07,-215.59 412.29,-219.53"/>
</g>
<!-- Node12 -->
<g id="node12" class="node">
<title>Node12</title>
<g id="a_node12"><a xlink:href="a01789.html#a8cb553887b6a334fbcb6432770c67ed8" target="_top" xlink:title="Converts a real parameter value to a string representation using a size hint, useful for control surf...">
<polygon fill="white" stroke="black" points="176.5,-49.5 176.5,-79.5 332.5,-79.5 332.5,-49.5 176.5,-49.5"/>
<text text-anchor="start" x="184.5" y="-67.5" font-family="Helvetica,sans-Serif" font-size="10.00">AAX_CNumberDisplayDelegate</text>
<text text-anchor="middle" x="254.5" y="-56.5" font-family="Helvetica,sans-Serif" font-size="10.00">::ValueToString</text>
</a>
</g>
</g>
<!-- Node1&#45;&gt;Node12 -->
<g id="edge11" class="edge">
<title>Node1&#45;&gt;Node12</title>
<path fill="none" stroke="midnightblue" d="M420.41,-216.16C408.69,-184.66 381.19,-122.37 337,-88.5 332.55,-85.09 327.63,-82.16 322.47,-79.65"/>
<polygon fill="midnightblue" stroke="midnightblue" points="417.24,-217.69 423.9,-225.93 423.83,-215.33 417.24,-217.69"/>
</g>
<!-- Node13 -->
<g id="node13" class="node">
<title>Node13</title>
<g id="a_node13"><a xlink:href="a01865.html#a2a5d19b4d616c56e2c5e671cd3741ad3" target="_top" xlink:title="Converts a real parameter value to a string representation using a size hint, useful for control surf...">
<polygon fill="white" stroke="black" points="184.5,-0.5 184.5,-30.5 324.5,-30.5 324.5,-0.5 184.5,-0.5"/>
<text text-anchor="start" x="192.5" y="-18.5" font-family="Helvetica,sans-Serif" font-size="10.00">AAX_CUnitDisplayDelegate</text>
<text text-anchor="middle" x="254.5" y="-7.5" font-family="Helvetica,sans-Serif" font-size="10.00">Decorator::ValueToString</text>
</a>
</g>
</g>
<!-- Node1&#45;&gt;Node13 -->
<g id="edge12" class="edge">
<title>Node1&#45;&gt;Node13</title>
<path fill="none" stroke="midnightblue" d="M423.53,-215.67C415.58,-176.17 392.27,-87.33 337,-39.5 332.98,-36.03 328.49,-33.05 323.72,-30.51"/>
<polygon fill="midnightblue" stroke="midnightblue" points="420.12,-216.46 425.42,-225.64 427,-215.16 420.12,-216.46"/>
</g>
<!-- Node4 -->
<g id="node4" class="node">
<title>Node4</title>
<g id="a_node4"><a xlink:href="a01821.html#a332e391a496d741f0f86ee7e46dbe6a4" target="_top" xlink:title="Sets the parameter&#39;s shortened display name.">
<polygon fill="white" stroke="black" points="0,-381.5 0,-411.5 136,-411.5 136,-381.5 0,-381.5"/>
<text text-anchor="start" x="8" y="-399.5" font-family="Helvetica,sans-Serif" font-size="10.00">AAX_CStatelessParameter</text>
<text text-anchor="middle" x="68" y="-388.5" font-family="Helvetica,sans-Serif" font-size="10.00">::AddShortenedName</text>
</a>
</g>
</g>
<!-- Node3&#45;&gt;Node4 -->
<g id="edge3" class="edge">
<title>Node3&#45;&gt;Node4</title>
<path fill="none" stroke="midnightblue" d="M165.17,-393.89C155.46,-394.16 145.68,-394.42 136.29,-394.68"/>
<polygon fill="midnightblue" stroke="midnightblue" points="165.35,-397.39 175.26,-393.62 165.16,-390.39 165.35,-397.39"/>
</g>
<!-- Node6 -->
<g id="node6" class="node">
<title>Node6</title>
<g id="a_node6"><a xlink:href="a01821.html#a2cf8f9e426e01d3eabea95447e856c23" target="_top" xlink:title="Returns the parameter&#39;s shortened display name.">
<polygon fill="white" stroke="black" points="0,-332.5 0,-362.5 136,-362.5 136,-332.5 0,-332.5"/>
<text text-anchor="start" x="8" y="-350.5" font-family="Helvetica,sans-Serif" font-size="10.00">AAX_CStatelessParameter</text>
<text text-anchor="middle" x="68" y="-339.5" font-family="Helvetica,sans-Serif" font-size="10.00">::ShortenedName</text>
</a>
</g>
</g>
<!-- Node5&#45;&gt;Node6 -->
<g id="edge5" class="edge">
<title>Node5&#45;&gt;Node6</title>
<path fill="none" stroke="midnightblue" d="M166.26,-350.66C156.16,-350.33 145.97,-350 136.19,-349.69"/>
<polygon fill="midnightblue" stroke="midnightblue" points="166.22,-354.16 176.32,-350.99 166.44,-347.17 166.22,-354.16"/>
</g>
</g>
</svg>
