<?xml version="1.0" encoding="UTF-8" standalone="no"?>
<!DOCTYPE svg PUBLIC "-//W3C//DTD SVG 1.1//EN"
 "http://www.w3.org/Graphics/SVG/1.1/DTD/svg11.dtd">
<!-- Generated by graphviz version 6.0.1 (20220911.1526)
 -->
<!-- Title: AAX_CString Pages: 1 -->
<svg width="175pt" height="163pt"
 viewBox="0.00 0.00 175.00 163.00" xmlns="http://www.w3.org/2000/svg" xmlns:xlink="http://www.w3.org/1999/xlink">
<g id="graph0" class="graph" transform="scale(1 1) rotate(0) translate(4 159)">
<title>AAX_CString</title>
<polygon fill="white" stroke="none" points="-4,4 -4,-159 171,-159 171,4 -4,4"/>
<!-- Node1 -->
<g id="node1" class="node">
<title>Node1</title>
<g id="a_node1"><a xlink:title="A generic AAX string class with similar functionality to std::string">
<polygon fill="#bfbfbf" stroke="black" points="14,-0.5 14,-19.5 89,-19.5 89,-0.5 14,-0.5"/>
<text text-anchor="middle" x="51.5" y="-7.5" font-family="Helvetica,sans-Serif" font-size="10.00">AAX_CString</text>
</a>
</g>
</g>
<!-- Node2 -->
<g id="node2" class="node">
<title>Node2</title>
<g id="a_node2"><a xlink:href="a02161.html" target="_top" xlink:title="A simple string container that can be passed across a binary boundary. This class,...">
<polygon fill="white" stroke="black" points="0,-67.5 0,-86.5 71,-86.5 71,-67.5 0,-67.5"/>
<text text-anchor="middle" x="35.5" y="-74.5" font-family="Helvetica,sans-Serif" font-size="10.00">AAX_IString</text>
</a>
</g>
</g>
<!-- Node2&#45;&gt;Node1 -->
<g id="edge1" class="edge">
<title>Node2&#45;&gt;Node1</title>
<path fill="none" stroke="midnightblue" d="M40.07,-57.41C43.13,-44.99 47.02,-29.22 49.38,-19.63"/>
<polygon fill="midnightblue" stroke="midnightblue" points="36.65,-56.69 37.66,-67.23 43.45,-58.36 36.65,-56.69"/>
</g>
<!-- Node3 -->
<g id="node3" class="node">
<title>Node3</title>
<g id="a_node3"><a xlink:title=" ">
<polygon fill="white" stroke="#bfbfbf" points="89.5,-67.5 89.5,-86.5 149.5,-86.5 149.5,-67.5 89.5,-67.5"/>
<text text-anchor="middle" x="119.5" y="-74.5" font-family="Helvetica,sans-Serif" font-size="10.00">std::string</text>
</a>
</g>
</g>
<!-- Node3&#45;&gt;Node1 -->
<g id="edge2" class="edge">
<title>Node3&#45;&gt;Node1</title>
<path fill="none" stroke="#9a32cd" stroke-dasharray="5,2" d="M102.76,-60C89.42,-47.25 71.27,-29.89 60.53,-19.63"/>
<polygon fill="#9a32cd" stroke="#9a32cd" points="100.68,-62.85 110.33,-67.23 105.52,-57.79 100.68,-62.85"/>
<text text-anchor="middle" x="108" y="-41" font-family="Helvetica,sans-Serif" font-size="10.00"> mString</text>
</g>
<!-- Node4 -->
<g id="node4" class="node">
<title>Node4</title>
<g id="a_node4"><a xlink:title=" ">
<polygon fill="white" stroke="#bfbfbf" points="72,-124.5 72,-154.5 167,-154.5 167,-124.5 72,-124.5"/>
<text text-anchor="start" x="80" y="-142.5" font-family="Helvetica,sans-Serif" font-size="10.00">std::basic_string&lt;</text>
<text text-anchor="middle" x="119.5" y="-131.5" font-family="Helvetica,sans-Serif" font-size="10.00"> Char &gt;</text>
</a>
</g>
</g>
<!-- Node4&#45;&gt;Node3 -->
<g id="edge3" class="edge">
<title>Node4&#45;&gt;Node3</title>
<path fill="none" stroke="midnightblue" d="M119.5,-114.35C119.5,-104.51 119.5,-93.78 119.5,-86.54"/>
<polygon fill="midnightblue" stroke="midnightblue" points="116,-114.47 119.5,-124.47 123,-114.47 116,-114.47"/>
</g>
</g>
</svg>
