<?xml version="1.0" encoding="UTF-8" standalone="no"?>
<!DOCTYPE svg PUBLIC "-//W3C//DTD SVG 1.1//EN"
 "http://www.w3.org/Graphics/SVG/1.1/DTD/svg11.dtd">
<!-- Generated by graphviz version 6.0.1 (20220911.1526)
 -->
<!-- Title: AAX_IACFEffectParameters Pages: 1 -->
<svg width="167pt" height="420pt"
 viewBox="0.00 0.00 167.00 420.00" xmlns="http://www.w3.org/2000/svg" xmlns:xlink="http://www.w3.org/1999/xlink">
<g id="graph0" class="graph" transform="scale(1 1) rotate(0) translate(4 416)">
<title>AAX_IACFEffectParameters</title>
<polygon fill="white" stroke="none" points="-4,4 -4,-416 163,-416 163,4 -4,4"/>
<!-- Node1 -->
<g id="node1" class="node">
<title>Node1</title>
<g id="a_node1"><a xlink:title="The interface for an AAX Plug&#45;in&#39;s data model.">
<polygon fill="#bfbfbf" stroke="black" points="8.5,-336.5 8.5,-355.5 150.5,-355.5 150.5,-336.5 8.5,-336.5"/>
<text text-anchor="middle" x="79.5" y="-343.5" font-family="Helvetica,sans-Serif" font-size="10.00">AAX_IACFEffectParameters</text>
</a>
</g>
</g>
<!-- Node3 -->
<g id="node3" class="node">
<title>Node3</title>
<g id="a_node3"><a xlink:href="a01961.html" target="_top" xlink:title="Supplemental interface for an AAX Plug&#45;in&#39;s data model.">
<polygon fill="white" stroke="black" points="0,-280.5 0,-299.5 159,-299.5 159,-280.5 0,-280.5"/>
<text text-anchor="middle" x="79.5" y="-287.5" font-family="Helvetica,sans-Serif" font-size="10.00">AAX_IACFEffectParameters_V2</text>
</a>
</g>
</g>
<!-- Node1&#45;&gt;Node3 -->
<g id="edge2" class="edge">
<title>Node1&#45;&gt;Node3</title>
<path fill="none" stroke="midnightblue" d="M79.5,-325.8C79.5,-316.91 79.5,-306.78 79.5,-299.75"/>
<polygon fill="midnightblue" stroke="midnightblue" points="76,-326.08 79.5,-336.08 83,-326.08 76,-326.08"/>
</g>
<!-- Node2 -->
<g id="node2" class="node">
<title>Node2</title>
<g id="a_node2"><a xlink:href="a01689.html" target="_top" xlink:title="COM compatible IUnknown C++ interface.">
<polygon fill="white" stroke="black" points="39,-392.5 39,-411.5 120,-411.5 120,-392.5 39,-392.5"/>
<text text-anchor="middle" x="79.5" y="-399.5" font-family="Helvetica,sans-Serif" font-size="10.00">IACFUnknown</text>
</a>
</g>
</g>
<!-- Node2&#45;&gt;Node1 -->
<g id="edge1" class="edge">
<title>Node2&#45;&gt;Node1</title>
<path fill="none" stroke="midnightblue" d="M79.5,-381.8C79.5,-372.91 79.5,-362.78 79.5,-355.75"/>
<polygon fill="midnightblue" stroke="midnightblue" points="76,-382.08 79.5,-392.08 83,-382.08 76,-382.08"/>
</g>
<!-- Node4 -->
<g id="node4" class="node">
<title>Node4</title>
<g id="a_node4"><a xlink:href="a01965.html" target="_top" xlink:title="Supplemental interface for an AAX Plug&#45;in&#39;s data model.">
<polygon fill="white" stroke="black" points="0,-224.5 0,-243.5 159,-243.5 159,-224.5 0,-224.5"/>
<text text-anchor="middle" x="79.5" y="-231.5" font-family="Helvetica,sans-Serif" font-size="10.00">AAX_IACFEffectParameters_V3</text>
</a>
</g>
</g>
<!-- Node3&#45;&gt;Node4 -->
<g id="edge3" class="edge">
<title>Node3&#45;&gt;Node4</title>
<path fill="none" stroke="midnightblue" d="M79.5,-269.8C79.5,-260.91 79.5,-250.78 79.5,-243.75"/>
<polygon fill="midnightblue" stroke="midnightblue" points="76,-270.08 79.5,-280.08 83,-270.08 76,-270.08"/>
</g>
<!-- Node5 -->
<g id="node5" class="node">
<title>Node5</title>
<g id="a_node5"><a xlink:href="a01969.html" target="_top" xlink:title="Supplemental interface for an AAX Plug&#45;in&#39;s data model.">
<polygon fill="white" stroke="black" points="0,-168.5 0,-187.5 159,-187.5 159,-168.5 0,-168.5"/>
<text text-anchor="middle" x="79.5" y="-175.5" font-family="Helvetica,sans-Serif" font-size="10.00">AAX_IACFEffectParameters_V4</text>
</a>
</g>
</g>
<!-- Node4&#45;&gt;Node5 -->
<g id="edge4" class="edge">
<title>Node4&#45;&gt;Node5</title>
<path fill="none" stroke="midnightblue" d="M79.5,-213.8C79.5,-204.91 79.5,-194.78 79.5,-187.75"/>
<polygon fill="midnightblue" stroke="midnightblue" points="76,-214.08 79.5,-224.08 83,-214.08 76,-214.08"/>
</g>
<!-- Node6 -->
<g id="node6" class="node">
<title>Node6</title>
<g id="a_node6"><a xlink:href="a02113.html" target="_top" xlink:title="The interface for an AAX Plug&#45;in&#39;s data model.">
<polygon fill="white" stroke="black" points="18.5,-112.5 18.5,-131.5 140.5,-131.5 140.5,-112.5 18.5,-112.5"/>
<text text-anchor="middle" x="79.5" y="-119.5" font-family="Helvetica,sans-Serif" font-size="10.00">AAX_IEffectParameters</text>
</a>
</g>
</g>
<!-- Node5&#45;&gt;Node6 -->
<g id="edge5" class="edge">
<title>Node5&#45;&gt;Node6</title>
<path fill="none" stroke="midnightblue" d="M79.5,-157.8C79.5,-148.91 79.5,-138.78 79.5,-131.75"/>
<polygon fill="midnightblue" stroke="midnightblue" points="76,-158.08 79.5,-168.08 83,-158.08 76,-158.08"/>
</g>
<!-- Node7 -->
<g id="node7" class="node">
<title>Node7</title>
<g id="a_node7"><a xlink:href="a01761.html" target="_top" xlink:title="Default implementation of the AAX_IEffectParameters interface.">
<polygon fill="white" stroke="black" points="16.5,-56.5 16.5,-75.5 142.5,-75.5 142.5,-56.5 16.5,-56.5"/>
<text text-anchor="middle" x="79.5" y="-63.5" font-family="Helvetica,sans-Serif" font-size="10.00">AAX_CEffectParameters</text>
</a>
</g>
</g>
<!-- Node6&#45;&gt;Node7 -->
<g id="edge6" class="edge">
<title>Node6&#45;&gt;Node7</title>
<path fill="none" stroke="midnightblue" d="M79.5,-101.8C79.5,-92.91 79.5,-82.78 79.5,-75.75"/>
<polygon fill="midnightblue" stroke="midnightblue" points="76,-102.08 79.5,-112.08 83,-102.08 76,-102.08"/>
</g>
<!-- Node8 -->
<g id="node8" class="node">
<title>Node8</title>
<g id="a_node8"><a xlink:href="a02261.html" target="_top" xlink:title="Extension of the AAX_CEffectParameters class for monolithic VIs and effects.">
<polygon fill="white" stroke="black" points="7.5,-0.5 7.5,-19.5 151.5,-19.5 151.5,-0.5 7.5,-0.5"/>
<text text-anchor="middle" x="79.5" y="-7.5" font-family="Helvetica,sans-Serif" font-size="10.00">AAX_CMonolithicParameters</text>
</a>
</g>
</g>
<!-- Node7&#45;&gt;Node8 -->
<g id="edge7" class="edge">
<title>Node7&#45;&gt;Node8</title>
<path fill="none" stroke="midnightblue" d="M79.5,-45.8C79.5,-36.91 79.5,-26.78 79.5,-19.75"/>
<polygon fill="midnightblue" stroke="midnightblue" points="76,-46.08 79.5,-56.08 83,-46.08 76,-46.08"/>
</g>
</g>
</svg>
