<?xml version="1.0" encoding="UTF-8" standalone="no"?>
<!DOCTYPE svg PUBLIC "-//W3C//DTD SVG 1.1//EN"
 "http://www.w3.org/Graphics/SVG/1.1/DTD/svg11.dtd">
<!-- Generated by graphviz version 6.0.1 (20220911.1526)
 -->
<!-- Title: AAX_IDisplayDelegate&lt; T &gt; Pages: 1 -->
<svg width="746pt" height="271pt"
 viewBox="0.00 0.00 746.00 270.50" xmlns="http://www.w3.org/2000/svg" xmlns:xlink="http://www.w3.org/1999/xlink">
<g id="graph0" class="graph" transform="scale(1 1) rotate(0) translate(4 266.5)">
<title>AAX_IDisplayDelegate&lt; T &gt;</title>
<polygon fill="white" stroke="none" points="-4,4 -4,-266.5 742,-266.5 742,4 -4,4"/>
<!-- Node1 -->
<g id="node1" class="node">
<title>Node1</title>
<g id="a_node1"><a xlink:title="Classes for parameter value string conversion.">
<polygon fill="#bfbfbf" stroke="black" points="176,-155 176,-174 317,-174 317,-155 176,-155"/>
<text text-anchor="middle" x="246.5" y="-162" font-family="Helvetica,sans-Serif" font-size="10.00">AAX_IDisplayDelegate&lt; T &gt;</text>
</a>
</g>
</g>
<!-- Node3 -->
<g id="node3" class="node">
<title>Node3</title>
<g id="a_node3"><a xlink:href="a01729.html" target="_top" xlink:title="A binary display format conforming to AAX_IDisplayDelegate.">
<polygon fill="white" stroke="black" points="358.5,-243 358.5,-262 531.5,-262 531.5,-243 358.5,-243"/>
<text text-anchor="middle" x="445" y="-250" font-family="Helvetica,sans-Serif" font-size="10.00">AAX_CBinaryDisplayDelegate&lt; T &gt;</text>
</a>
</g>
</g>
<!-- Node1&#45;&gt;Node3 -->
<g id="edge2" class="edge">
<title>Node1&#45;&gt;Node3</title>
<path fill="none" stroke="midnightblue" d="M266.85,-180.39C287.11,-196.21 320.44,-220.02 353,-233.5 362.25,-237.33 372.35,-240.42 382.36,-242.9"/>
<polygon fill="midnightblue" stroke="midnightblue" points="269.02,-177.63 259.01,-174.15 264.66,-183.11 269.02,-177.63"/>
</g>
<!-- Node4 -->
<g id="node4" class="node">
<title>Node4</title>
<g id="a_node4"><a xlink:href="a01789.html" target="_top" xlink:title="A numeric display format conforming to AAX_IDisplayDelegate.">
<polygon fill="white" stroke="black" points="367,-193.5 367,-223.5 523,-223.5 523,-193.5 367,-193.5"/>
<text text-anchor="start" x="375" y="-211.5" font-family="Helvetica,sans-Serif" font-size="10.00">AAX_CNumberDisplayDelegate</text>
<text text-anchor="middle" x="445" y="-200.5" font-family="Helvetica,sans-Serif" font-size="10.00">&lt; T, Precision, SpaceAfter &gt;</text>
</a>
</g>
</g>
<!-- Node1&#45;&gt;Node4 -->
<g id="edge3" class="edge">
<title>Node1&#45;&gt;Node4</title>
<path fill="none" stroke="midnightblue" d="M299.94,-176.24C323.51,-181.52 351.62,-187.81 376.72,-193.43"/>
<polygon fill="midnightblue" stroke="midnightblue" points="300.66,-172.82 290.14,-174.05 299.13,-179.65 300.66,-172.82"/>
</g>
<!-- Node5 -->
<g id="node5" class="node">
<title>Node5</title>
<g id="a_node5"><a xlink:href="a01841.html" target="_top" xlink:title="A generic display format conforming to AAX_IDisplayDelegate.">
<polygon fill="white" stroke="black" points="360.5,-155 360.5,-174 529.5,-174 529.5,-155 360.5,-155"/>
<text text-anchor="middle" x="445" y="-162" font-family="Helvetica,sans-Serif" font-size="10.00">AAX_CStateDisplayDelegate&lt; T &gt;</text>
</a>
</g>
</g>
<!-- Node1&#45;&gt;Node5 -->
<g id="edge4" class="edge">
<title>Node1&#45;&gt;Node5</title>
<path fill="none" stroke="midnightblue" d="M327.37,-164.5C338.26,-164.5 349.45,-164.5 360.4,-164.5"/>
<polygon fill="midnightblue" stroke="midnightblue" points="327.06,-161 317.06,-164.5 327.06,-168 327.06,-161"/>
</g>
<!-- Node6 -->
<g id="node6" class="node">
<title>Node6</title>
<g id="a_node6"><a xlink:href="a01861.html" target="_top" xlink:title="A string, or list, display format conforming to AAX_IDisplayDelegate.">
<polygon fill="white" stroke="black" points="359.5,-117 359.5,-136 530.5,-136 530.5,-117 359.5,-117"/>
<text text-anchor="middle" x="445" y="-124" font-family="Helvetica,sans-Serif" font-size="10.00">AAX_CStringDisplayDelegate&lt; T &gt;</text>
</a>
</g>
</g>
<!-- Node1&#45;&gt;Node6 -->
<g id="edge5" class="edge">
<title>Node1&#45;&gt;Node6</title>
<path fill="none" stroke="midnightblue" d="M306.91,-153.01C334.95,-147.59 368.02,-141.19 394.65,-136.04"/>
<polygon fill="midnightblue" stroke="midnightblue" points="305.99,-149.62 296.83,-154.96 307.31,-156.5 305.99,-149.62"/>
</g>
<!-- Node7 -->
<g id="node7" class="node">
<title>Node7</title>
<g id="a_node7"><a xlink:href="a02093.html" target="_top" xlink:title="The base class for all concrete display delegate decorators.">
<polygon fill="white" stroke="black" points="353,-79 353,-98 537,-98 537,-79 353,-79"/>
<text text-anchor="middle" x="445" y="-86" font-family="Helvetica,sans-Serif" font-size="10.00">AAX_IDisplayDelegateDecorator&lt; T &gt;</text>
</a>
</g>
</g>
<!-- Node1&#45;&gt;Node7 -->
<g id="edge6" class="edge">
<title>Node1&#45;&gt;Node7</title>
<path fill="none" stroke="midnightblue" d="M270.62,-149.46C291.4,-136.57 323.16,-118.41 353,-107.5 363.31,-103.73 374.56,-100.62 385.53,-98.09"/>
<polygon fill="midnightblue" stroke="midnightblue" points="268.48,-146.67 261.89,-154.97 272.21,-152.59 268.48,-146.67"/>
</g>
<!-- Node2 -->
<g id="node2" class="node">
<title>Node2</title>
<g id="a_node2"><a xlink:href="a02085.html" target="_top" xlink:title="Defines the display behavior for a parameter.">
<polygon fill="white" stroke="black" points="0,-155 0,-174 140,-174 140,-155 0,-155"/>
<text text-anchor="middle" x="70" y="-162" font-family="Helvetica,sans-Serif" font-size="10.00">AAX_IDisplayDelegateBase</text>
</a>
</g>
</g>
<!-- Node2&#45;&gt;Node1 -->
<g id="edge1" class="edge">
<title>Node2&#45;&gt;Node1</title>
<path fill="none" stroke="midnightblue" d="M150.46,-164.5C158.91,-164.5 167.47,-164.5 175.79,-164.5"/>
<polygon fill="midnightblue" stroke="midnightblue" points="150.22,-161 140.22,-164.5 150.22,-168 150.22,-161"/>
</g>
<!-- Node8 -->
<g id="node8" class="node">
<title>Node8</title>
<g id="a_node8"><a xlink:href="a01749.html" target="_top" xlink:title="A percent decorator conforming to AAX_IDisplayDelegateDecorator.">
<polygon fill="white" stroke="black" points="578,-147.5 578,-177.5 733,-177.5 733,-147.5 578,-147.5"/>
<text text-anchor="start" x="586" y="-165.5" font-family="Helvetica,sans-Serif" font-size="10.00">AAX_CDecibelDisplayDelegate</text>
<text text-anchor="middle" x="655.5" y="-154.5" font-family="Helvetica,sans-Serif" font-size="10.00">Decorator&lt; T &gt;</text>
</a>
</g>
</g>
<!-- Node7&#45;&gt;Node8 -->
<g id="edge7" class="edge">
<title>Node7&#45;&gt;Node8</title>
<path fill="none" stroke="midnightblue" d="M521.29,-101.14C526.71,-102.98 532.01,-105.09 537,-107.5 555.75,-116.56 554.68,-127.58 573,-137.5 580.03,-141.3 587.72,-144.62 595.48,-147.47"/>
<polygon fill="midnightblue" stroke="midnightblue" points="522.01,-97.7 511.42,-98.1 519.95,-104.39 522.01,-97.7"/>
</g>
<!-- Node9 -->
<g id="node9" class="node">
<title>Node9</title>
<g id="a_node9"><a xlink:href="a01829.html" target="_top" xlink:title="A percent decorator conforming to AAX_IDisplayDelegateDecorator.">
<polygon fill="white" stroke="black" points="578,-98.5 578,-128.5 733,-128.5 733,-98.5 578,-98.5"/>
<text text-anchor="start" x="586" y="-116.5" font-family="Helvetica,sans-Serif" font-size="10.00">AAX_CPercentDisplayDelegate</text>
<text text-anchor="middle" x="655.5" y="-105.5" font-family="Helvetica,sans-Serif" font-size="10.00">Decorator&lt; T &gt;</text>
</a>
</g>
</g>
<!-- Node7&#45;&gt;Node9 -->
<g id="edge8" class="edge">
<title>Node7&#45;&gt;Node9</title>
<path fill="none" stroke="midnightblue" d="M535.56,-99.24C549.6,-100.92 563.99,-102.65 577.71,-104.29"/>
<polygon fill="midnightblue" stroke="midnightblue" points="535.77,-95.74 525.42,-98.02 534.93,-102.69 535.77,-95.74"/>
</g>
<!-- Node10 -->
<g id="node10" class="node">
<title>Node10</title>
<g id="a_node10"><a xlink:href="a01865.html" target="_top" xlink:title="A unit type decorator conforming to AAX_IDisplayDelegateDecorator.">
<polygon fill="white" stroke="black" points="585.5,-49.5 585.5,-79.5 725.5,-79.5 725.5,-49.5 585.5,-49.5"/>
<text text-anchor="start" x="593.5" y="-67.5" font-family="Helvetica,sans-Serif" font-size="10.00">AAX_CUnitDisplayDelegate</text>
<text text-anchor="middle" x="655.5" y="-56.5" font-family="Helvetica,sans-Serif" font-size="10.00">Decorator&lt; T &gt;</text>
</a>
</g>
</g>
<!-- Node7&#45;&gt;Node10 -->
<g id="edge9" class="edge">
<title>Node7&#45;&gt;Node10</title>
<path fill="none" stroke="midnightblue" d="M538.9,-77.81C554.5,-76.01 570.45,-74.17 585.33,-72.46"/>
<polygon fill="midnightblue" stroke="midnightblue" points="538.24,-74.36 528.7,-78.98 539.04,-81.31 538.24,-74.36"/>
</g>
<!-- Node11 -->
<g id="node11" class="node">
<title>Node11</title>
<g id="a_node11"><a xlink:href="a01869.html" target="_top" xlink:title="A unit prefix decorator conforming to AAX_IDisplayDelegateDecorator.">
<polygon fill="white" stroke="black" points="573,-0.5 573,-30.5 738,-30.5 738,-0.5 573,-0.5"/>
<text text-anchor="start" x="581" y="-18.5" font-family="Helvetica,sans-Serif" font-size="10.00">AAX_CUnitPrefixDisplayDelegate</text>
<text text-anchor="middle" x="655.5" y="-7.5" font-family="Helvetica,sans-Serif" font-size="10.00">Decorator&lt; T &gt;</text>
</a>
</g>
</g>
<!-- Node7&#45;&gt;Node11 -->
<g id="edge10" class="edge">
<title>Node7&#45;&gt;Node11</title>
<path fill="none" stroke="midnightblue" d="M478.74,-75.02C504.23,-64.73 540.6,-50.5 573,-39.5 581.94,-36.47 591.5,-33.45 600.82,-30.63"/>
<polygon fill="midnightblue" stroke="midnightblue" points="477.15,-71.89 469.2,-78.89 479.78,-78.37 477.15,-71.89"/>
</g>
</g>
</svg>
