<?xml version="1.0" encoding="UTF-8" standalone="no"?>
<!DOCTYPE svg PUBLIC "-//W3C//DTD SVG 1.1//EN"
 "http://www.w3.org/Graphics/SVG/1.1/DTD/svg11.dtd">
<!-- Generated by graphviz version 6.0.1 (20220911.1526)
 -->
<!-- Title: AAX_IDisplayDelegateDecorator&lt; T &gt; Pages: 1 -->
<svg width="746pt" height="186pt"
 viewBox="0.00 0.00 746.00 186.00" xmlns="http://www.w3.org/2000/svg" xmlns:xlink="http://www.w3.org/1999/xlink">
<g id="graph0" class="graph" transform="scale(1 1) rotate(0) translate(4 182)">
<title>AAX_IDisplayDelegateDecorator&lt; T &gt;</title>
<polygon fill="white" stroke="none" points="-4,4 -4,-182 742,-182 742,4 -4,4"/>
<!-- Node1 -->
<g id="node1" class="node">
<title>Node1</title>
<g id="a_node1"><a xlink:title="The base class for all concrete display delegate decorators.">
<polygon fill="#bfbfbf" stroke="black" points="353,-79 353,-98 537,-98 537,-79 353,-79"/>
<text text-anchor="middle" x="445" y="-86" font-family="Helvetica,sans-Serif" font-size="10.00">AAX_IDisplayDelegateDecorator&lt; T &gt;</text>
</a>
</g>
</g>
<!-- Node4 -->
<g id="node4" class="node">
<title>Node4</title>
<g id="a_node4"><a xlink:href="a01749.html" target="_top" xlink:title="A percent decorator conforming to AAX_IDisplayDelegateDecorator.">
<polygon fill="white" stroke="black" points="578,-147.5 578,-177.5 733,-177.5 733,-147.5 578,-147.5"/>
<text text-anchor="start" x="586" y="-165.5" font-family="Helvetica,sans-Serif" font-size="10.00">AAX_CDecibelDisplayDelegate</text>
<text text-anchor="middle" x="655.5" y="-154.5" font-family="Helvetica,sans-Serif" font-size="10.00">Decorator&lt; T &gt;</text>
</a>
</g>
</g>
<!-- Node1&#45;&gt;Node4 -->
<g id="edge3" class="edge">
<title>Node1&#45;&gt;Node4</title>
<path fill="none" stroke="midnightblue" d="M478.25,-102.11C503.74,-112.65 540.35,-127.29 573,-138.5 581.93,-141.57 591.49,-144.6 600.8,-147.42"/>
<polygon fill="midnightblue" stroke="midnightblue" points="479.29,-98.76 468.72,-98.15 476.61,-105.22 479.29,-98.76"/>
</g>
<!-- Node5 -->
<g id="node5" class="node">
<title>Node5</title>
<g id="a_node5"><a xlink:href="a01829.html" target="_top" xlink:title="A percent decorator conforming to AAX_IDisplayDelegateDecorator.">
<polygon fill="white" stroke="black" points="578,-98.5 578,-128.5 733,-128.5 733,-98.5 578,-98.5"/>
<text text-anchor="start" x="586" y="-116.5" font-family="Helvetica,sans-Serif" font-size="10.00">AAX_CPercentDisplayDelegate</text>
<text text-anchor="middle" x="655.5" y="-105.5" font-family="Helvetica,sans-Serif" font-size="10.00">Decorator&lt; T &gt;</text>
</a>
</g>
</g>
<!-- Node1&#45;&gt;Node5 -->
<g id="edge4" class="edge">
<title>Node1&#45;&gt;Node5</title>
<path fill="none" stroke="midnightblue" d="M535.56,-99.24C549.6,-100.92 563.99,-102.65 577.71,-104.29"/>
<polygon fill="midnightblue" stroke="midnightblue" points="535.77,-95.74 525.42,-98.02 534.93,-102.69 535.77,-95.74"/>
</g>
<!-- Node6 -->
<g id="node6" class="node">
<title>Node6</title>
<g id="a_node6"><a xlink:href="a01865.html" target="_top" xlink:title="A unit type decorator conforming to AAX_IDisplayDelegateDecorator.">
<polygon fill="white" stroke="black" points="585.5,-49.5 585.5,-79.5 725.5,-79.5 725.5,-49.5 585.5,-49.5"/>
<text text-anchor="start" x="593.5" y="-67.5" font-family="Helvetica,sans-Serif" font-size="10.00">AAX_CUnitDisplayDelegate</text>
<text text-anchor="middle" x="655.5" y="-56.5" font-family="Helvetica,sans-Serif" font-size="10.00">Decorator&lt; T &gt;</text>
</a>
</g>
</g>
<!-- Node1&#45;&gt;Node6 -->
<g id="edge5" class="edge">
<title>Node1&#45;&gt;Node6</title>
<path fill="none" stroke="midnightblue" d="M538.9,-77.81C554.5,-76.01 570.45,-74.17 585.33,-72.46"/>
<polygon fill="midnightblue" stroke="midnightblue" points="538.24,-74.36 528.7,-78.98 539.04,-81.31 538.24,-74.36"/>
</g>
<!-- Node7 -->
<g id="node7" class="node">
<title>Node7</title>
<g id="a_node7"><a xlink:href="a01869.html" target="_top" xlink:title="A unit prefix decorator conforming to AAX_IDisplayDelegateDecorator.">
<polygon fill="white" stroke="black" points="573,-0.5 573,-30.5 738,-30.5 738,-0.5 573,-0.5"/>
<text text-anchor="start" x="581" y="-18.5" font-family="Helvetica,sans-Serif" font-size="10.00">AAX_CUnitPrefixDisplayDelegate</text>
<text text-anchor="middle" x="655.5" y="-7.5" font-family="Helvetica,sans-Serif" font-size="10.00">Decorator&lt; T &gt;</text>
</a>
</g>
</g>
<!-- Node1&#45;&gt;Node7 -->
<g id="edge6" class="edge">
<title>Node1&#45;&gt;Node7</title>
<path fill="none" stroke="midnightblue" d="M478.74,-75.02C504.23,-64.73 540.6,-50.5 573,-39.5 581.94,-36.47 591.5,-33.45 600.82,-30.63"/>
<polygon fill="midnightblue" stroke="midnightblue" points="477.15,-71.89 469.2,-78.89 479.78,-78.37 477.15,-71.89"/>
</g>
<!-- Node2 -->
<g id="node2" class="node">
<title>Node2</title>
<g id="a_node2"><a xlink:href="a02089.html" target="_top" xlink:title="Classes for parameter value string conversion.">
<polygon fill="white" stroke="black" points="176,-79 176,-98 317,-98 317,-79 176,-79"/>
<text text-anchor="middle" x="246.5" y="-86" font-family="Helvetica,sans-Serif" font-size="10.00">AAX_IDisplayDelegate&lt; T &gt;</text>
</a>
</g>
</g>
<!-- Node2&#45;&gt;Node1 -->
<g id="edge1" class="edge">
<title>Node2&#45;&gt;Node1</title>
<path fill="none" stroke="midnightblue" d="M327.24,-88.5C335.68,-88.5 344.3,-88.5 352.86,-88.5"/>
<polygon fill="midnightblue" stroke="midnightblue" points="327.06,-85 317.06,-88.5 327.06,-92 327.06,-85"/>
</g>
<!-- Node3 -->
<g id="node3" class="node">
<title>Node3</title>
<g id="a_node3"><a xlink:href="a02085.html" target="_top" xlink:title="Defines the display behavior for a parameter.">
<polygon fill="white" stroke="black" points="0,-79 0,-98 140,-98 140,-79 0,-79"/>
<text text-anchor="middle" x="70" y="-86" font-family="Helvetica,sans-Serif" font-size="10.00">AAX_IDisplayDelegateBase</text>
</a>
</g>
</g>
<!-- Node3&#45;&gt;Node2 -->
<g id="edge2" class="edge">
<title>Node3&#45;&gt;Node2</title>
<path fill="none" stroke="midnightblue" d="M150.46,-88.5C158.91,-88.5 167.47,-88.5 175.79,-88.5"/>
<polygon fill="midnightblue" stroke="midnightblue" points="150.22,-85 140.22,-88.5 150.22,-92 150.22,-85"/>
</g>
</g>
</svg>
