<?xml version="1.0" encoding="UTF-8" standalone="no"?>
<!DOCTYPE svg PUBLIC "-//W3C//DTD SVG 1.1//EN"
 "http://www.w3.org/Graphics/SVG/1.1/DTD/svg11.dtd">
<!-- Generated by graphviz version 2.47.3 (20210619.1520)
 -->
<!-- Title: AAX_IComponentDescriptor::AddProcessProc_Native Pages: 1 -->
<svg width="328pt" height="88pt"
 viewBox="0.00 0.00 328.00 88.00" xmlns="http://www.w3.org/2000/svg" xmlns:xlink="http://www.w3.org/1999/xlink">
<g id="graph0" class="graph" transform="scale(1 1) rotate(0) translate(4 84)">
<title>AAX_IComponentDescriptor::AddProcessProc_Native</title>
<polygon fill="white" stroke="transparent" points="-4,4 -4,-84 324,-84 324,4 -4,4"/>
<!-- Node1 -->
<g id="node1" class="node">
<title>Node1</title>
<g id="a_node1"><a xlink:title="Registers an algorithm processing entrypoint (process procedure) for the native architecture.">
<polygon fill="#bfbfbf" stroke="black" points="180,-24.5 180,-54.5 320,-54.5 320,-24.5 180,-24.5"/>
<text text-anchor="start" x="188" y="-42.5" font-family="Helvetica,sans-Serif" font-size="10.00">AAX_IComponentDescriptor</text>
<text text-anchor="middle" x="250" y="-31.5" font-family="Helvetica,sans-Serif" font-size="10.00">::AddProcessProc_Native</text>
</a>
</g>
</g>
<!-- Node2 -->
<g id="node2" class="node">
<title>Node2</title>
<g id="a_node2"><a xlink:href="a02069.html#a38f0d50814689dc720147de1dfd324d2" target="_top" xlink:title="Registers an algorithm processing entrypoint (process procedure) for the native architecture.">
<polygon fill="white" stroke="black" points="2,-49.5 2,-79.5 142,-79.5 142,-49.5 2,-49.5"/>
<text text-anchor="start" x="10" y="-67.5" font-family="Helvetica,sans-Serif" font-size="10.00">AAX_IComponentDescriptor</text>
<text text-anchor="middle" x="72" y="-56.5" font-family="Helvetica,sans-Serif" font-size="10.00">::AddProcessProc_Native</text>
</a>
</g>
</g>
<!-- Node1&#45;&gt;Node2 -->
<g id="edge1" class="edge">
<title>Node1&#45;&gt;Node2</title>
<path fill="none" stroke="midnightblue" d="M169.95,-50.73C160.68,-52.05 151.27,-53.38 142.14,-54.68"/>
<polygon fill="midnightblue" stroke="midnightblue" points="170.54,-54.18 179.95,-49.31 169.55,-47.25 170.54,-54.18"/>
</g>
<!-- Node3 -->
<g id="node3" class="node">
<title>Node3</title>
<g id="a_node3"><a xlink:href="a02261.html#a69f9b80a70ecc6b7b2a7eec372d2502a" target="_top" xlink:title=" ">
<polygon fill="white" stroke="black" points="0,-0.5 0,-30.5 144,-30.5 144,-0.5 0,-0.5"/>
<text text-anchor="start" x="8" y="-18.5" font-family="Helvetica,sans-Serif" font-size="10.00">AAX_CMonolithicParameters</text>
<text text-anchor="middle" x="72" y="-7.5" font-family="Helvetica,sans-Serif" font-size="10.00">::StaticDescribe</text>
</a>
</g>
</g>
<!-- Node1&#45;&gt;Node3 -->
<g id="edge2" class="edge">
<title>Node1&#45;&gt;Node3</title>
<path fill="none" stroke="midnightblue" d="M169.94,-28.72C161.35,-27.55 152.65,-26.36 144.17,-25.21"/>
<polygon fill="midnightblue" stroke="midnightblue" points="169.56,-32.2 179.95,-30.08 170.51,-25.26 169.56,-32.2"/>
</g>
</g>
</svg>
