<?xml version="1.0" encoding="UTF-8" standalone="no"?>
<!DOCTYPE svg PUBLIC "-//W3C//DTD SVG 1.1//EN"
 "http://www.w3.org/Graphics/SVG/1.1/DTD/svg11.dtd">
<!-- Generated by graphviz version 6.0.1 (20220911.1526)
 -->
<!-- Title: AAX_IDisplayDelegateDecorator::StringToValue Pages: 1 -->
<svg width="369pt" height="186pt"
 viewBox="0.00 0.00 369.00 186.00" xmlns="http://www.w3.org/2000/svg" xmlns:xlink="http://www.w3.org/1999/xlink">
<g id="graph0" class="graph" transform="scale(1 1) rotate(0) translate(4 182)">
<title>AAX_IDisplayDelegateDecorator::StringToValue</title>
<polygon fill="white" stroke="none" points="-4,4 -4,-182 365,-182 365,4 -4,4"/>
<!-- Node1 -->
<g id="node1" class="node">
<title>Node1</title>
<g id="a_node1"><a xlink:title="Converts a string to a real parameter value.">
<polygon fill="#bfbfbf" stroke="black" points="201,-73.5 201,-103.5 361,-103.5 361,-73.5 201,-73.5"/>
<text text-anchor="start" x="209" y="-91.5" font-family="Helvetica,sans-Serif" font-size="10.00">AAX_IDisplayDelegateDecorator</text>
<text text-anchor="middle" x="281" y="-80.5" font-family="Helvetica,sans-Serif" font-size="10.00">::StringToValue</text>
</a>
</g>
</g>
<!-- Node2 -->
<g id="node2" class="node">
<title>Node2</title>
<g id="a_node2"><a xlink:href="a01749.html#a7f4645d7e464d63ef22e93c4a99f3f09" target="_top" xlink:title="Converts a string to a real parameter value.">
<polygon fill="white" stroke="black" points="5,-147.5 5,-177.5 160,-177.5 160,-147.5 5,-147.5"/>
<text text-anchor="start" x="13" y="-165.5" font-family="Helvetica,sans-Serif" font-size="10.00">AAX_CDecibelDisplayDelegate</text>
<text text-anchor="middle" x="82.5" y="-154.5" font-family="Helvetica,sans-Serif" font-size="10.00">Decorator::StringToValue</text>
</a>
</g>
</g>
<!-- Node1&#45;&gt;Node2 -->
<g id="edge1" class="edge">
<title>Node1&#45;&gt;Node2</title>
<path fill="none" stroke="midnightblue" d="M238.96,-107.82C217.23,-117.66 189.96,-129.44 165,-138.5 156.4,-141.62 147.19,-144.64 138.16,-147.42"/>
<polygon fill="midnightblue" stroke="midnightblue" points="240.57,-110.93 248.21,-103.59 237.66,-104.56 240.57,-110.93"/>
</g>
<!-- Node3 -->
<g id="node3" class="node">
<title>Node3</title>
<g id="a_node3"><a xlink:href="a01829.html#a702a4dea21a72dc8edf6b91b5a5bf5e5" target="_top" xlink:title="Converts a string to a real parameter value.">
<polygon fill="white" stroke="black" points="5,-98.5 5,-128.5 160,-128.5 160,-98.5 5,-98.5"/>
<text text-anchor="start" x="13" y="-116.5" font-family="Helvetica,sans-Serif" font-size="10.00">AAX_CPercentDisplayDelegate</text>
<text text-anchor="middle" x="82.5" y="-105.5" font-family="Helvetica,sans-Serif" font-size="10.00">Decorator::StringToValue</text>
</a>
</g>
</g>
<!-- Node1&#45;&gt;Node3 -->
<g id="edge2" class="edge">
<title>Node1&#45;&gt;Node3</title>
<path fill="none" stroke="midnightblue" d="M190.77,-99.85C180.56,-101.15 170.21,-102.47 160.18,-103.74"/>
<polygon fill="midnightblue" stroke="midnightblue" points="191.45,-103.29 200.93,-98.56 190.56,-96.35 191.45,-103.29"/>
</g>
<!-- Node4 -->
<g id="node4" class="node">
<title>Node4</title>
<g id="a_node4"><a xlink:href="a01865.html#a4577b27d63067a75deead21c25f1b932" target="_top" xlink:title="Converts a string to a real parameter value.">
<polygon fill="white" stroke="black" points="12.5,-49.5 12.5,-79.5 152.5,-79.5 152.5,-49.5 12.5,-49.5"/>
<text text-anchor="start" x="20.5" y="-67.5" font-family="Helvetica,sans-Serif" font-size="10.00">AAX_CUnitDisplayDelegate</text>
<text text-anchor="middle" x="82.5" y="-56.5" font-family="Helvetica,sans-Serif" font-size="10.00">Decorator::StringToValue</text>
</a>
</g>
</g>
<!-- Node1&#45;&gt;Node4 -->
<g id="edge3" class="edge">
<title>Node1&#45;&gt;Node4</title>
<path fill="none" stroke="midnightblue" d="M190.72,-77.6C177.93,-76.03 164.93,-74.45 152.6,-72.94"/>
<polygon fill="midnightblue" stroke="midnightblue" points="190.57,-81.1 200.93,-78.84 191.42,-74.16 190.57,-81.1"/>
</g>
<!-- Node5 -->
<g id="node5" class="node">
<title>Node5</title>
<g id="a_node5"><a xlink:href="a01869.html#a6d930afe0a249f6936504c25d9c29764" target="_top" xlink:title="Converts a string to a real parameter value.">
<polygon fill="white" stroke="black" points="0,-0.5 0,-30.5 165,-30.5 165,-0.5 0,-0.5"/>
<text text-anchor="start" x="8" y="-18.5" font-family="Helvetica,sans-Serif" font-size="10.00">AAX_CUnitPrefixDisplayDelegate</text>
<text text-anchor="middle" x="82.5" y="-7.5" font-family="Helvetica,sans-Serif" font-size="10.00">Decorator::StringToValue</text>
</a>
</g>
</g>
<!-- Node1&#45;&gt;Node5 -->
<g id="edge4" class="edge">
<title>Node1&#45;&gt;Node5</title>
<path fill="none" stroke="midnightblue" d="M236.67,-69.24C215.29,-60.03 189,-49.17 165,-40.5 155.53,-37.08 145.35,-33.72 135.49,-30.62"/>
<polygon fill="midnightblue" stroke="midnightblue" points="235.56,-72.57 246.13,-73.33 238.34,-66.15 235.56,-72.57"/>
</g>
</g>
</svg>
