<?xml version="1.0" encoding="UTF-8" standalone="no"?>
<!DOCTYPE svg PUBLIC "-//W3C//DTD SVG 1.1//EN"
 "http://www.w3.org/Graphics/SVG/1.1/DTD/svg11.dtd">
<!-- Generated by graphviz version 2.47.3 (20210619.1520)
 -->
<!-- Title: AAX_IAutomationDelegate::RegisterParameter Pages: 1 -->
<svg width="343pt" height="88pt"
 viewBox="0.00 0.00 343.00 88.00" xmlns="http://www.w3.org/2000/svg" xmlns:xlink="http://www.w3.org/1999/xlink">
<g id="graph0" class="graph" transform="scale(1 1) rotate(0) translate(4 84)">
<title>AAX_IAutomationDelegate::RegisterParameter</title>
<polygon fill="white" stroke="transparent" points="-4,4 -4,-84 339,-84 339,4 -4,4"/>
<!-- Node1 -->
<g id="node1" class="node">
<title>Node1</title>
<g id="a_node1"><a xlink:title=" ">
<polygon fill="#bfbfbf" stroke="black" points="201,-24.5 201,-54.5 335,-54.5 335,-24.5 201,-24.5"/>
<text text-anchor="start" x="209" y="-42.5" font-family="Helvetica,sans-Serif" font-size="10.00">AAX_IAutomationDelegate</text>
<text text-anchor="middle" x="268" y="-31.5" font-family="Helvetica,sans-Serif" font-size="10.00">::RegisterParameter</text>
</a>
</g>
</g>
<!-- Node2 -->
<g id="node2" class="node">
<title>Node2</title>
<g id="a_node2"><a xlink:href="a01817.html#aceb34aeadaca054f318004d49a0bd5b7" target="_top" xlink:title="Sets the automation delegate (if one is required)">
<polygon fill="white" stroke="black" points="0,-49.5 0,-79.5 165,-79.5 165,-49.5 0,-49.5"/>
<text text-anchor="start" x="8" y="-67.5" font-family="Helvetica,sans-Serif" font-size="10.00">AAX_CParameter::SetAutomation</text>
<text text-anchor="middle" x="82.5" y="-56.5" font-family="Helvetica,sans-Serif" font-size="10.00">Delegate</text>
</a>
</g>
</g>
<!-- Node1&#45;&gt;Node2 -->
<g id="edge1" class="edge">
<title>Node1&#45;&gt;Node2</title>
<path fill="none" stroke="midnightblue" d="M190.84,-49.88C182.31,-51.04 173.6,-52.23 165,-53.4"/>
<polygon fill="midnightblue" stroke="midnightblue" points="191.32,-53.34 200.75,-48.53 190.37,-46.41 191.32,-53.34"/>
</g>
<!-- Node3 -->
<g id="node3" class="node">
<title>Node3</title>
<g id="a_node3"><a xlink:href="a01821.html#acaf1f39e881c14fb3b81f9c0c23fea31" target="_top" xlink:title="Sets the automation delegate (if one is required)">
<polygon fill="white" stroke="black" points="14.5,-0.5 14.5,-30.5 150.5,-30.5 150.5,-0.5 14.5,-0.5"/>
<text text-anchor="start" x="22.5" y="-18.5" font-family="Helvetica,sans-Serif" font-size="10.00">AAX_CStatelessParameter</text>
<text text-anchor="middle" x="82.5" y="-7.5" font-family="Helvetica,sans-Serif" font-size="10.00">::SetAutomationDelegate</text>
</a>
</g>
</g>
<!-- Node1&#45;&gt;Node3 -->
<g id="edge2" class="edge">
<title>Node1&#45;&gt;Node3</title>
<path fill="none" stroke="midnightblue" d="M190.68,-29.52C177.37,-27.78 163.61,-25.98 150.58,-24.27"/>
<polygon fill="midnightblue" stroke="midnightblue" points="190.38,-33.01 200.75,-30.84 191.29,-26.07 190.38,-33.01"/>
</g>
</g>
</svg>
