<?xml version="1.0" encoding="UTF-8" standalone="no"?>
<!DOCTYPE svg PUBLIC "-//W3C//DTD SVG 1.1//EN"
 "http://www.w3.org/Graphics/SVG/1.1/DTD/svg11.dtd">
<!-- Generated by graphviz version 2.47.3 (20210619.1520)
 -->
<!-- Title: AAX_IHostProcessor Pages: 1 -->
<svg width="260pt" height="252pt"
 viewBox="0.00 0.00 260.00 252.00" xmlns="http://www.w3.org/2000/svg" xmlns:xlink="http://www.w3.org/1999/xlink">
<g id="graph0" class="graph" transform="scale(1 1) rotate(0) translate(4 248)">
<title>AAX_IHostProcessor</title>
<polygon fill="white" stroke="transparent" points="-4,4 -4,-248 256,-248 256,4 -4,4"/>
<!-- Node1 -->
<g id="node1" class="node">
<title>Node1</title>
<g id="a_node1"><a xlink:title="Base class for the host processor interface.">
<polygon fill="#bfbfbf" stroke="black" points="86,-56.5 86,-75.5 196,-75.5 196,-56.5 86,-56.5"/>
<text text-anchor="middle" x="141" y="-63.5" font-family="Helvetica,sans-Serif" font-size="10.00">AAX_IHostProcessor</text>
</a>
</g>
</g>
<!-- Node6 -->
<g id="node6" class="node">
<title>Node6</title>
<g id="a_node6"><a xlink:href="a01765.html" target="_top" xlink:title="Concrete implementation of the AAX_IHostProcessor interface for non&#45;real&#45;time processing.">
<polygon fill="white" stroke="black" points="83.5,-0.5 83.5,-19.5 198.5,-19.5 198.5,-0.5 83.5,-0.5"/>
<text text-anchor="middle" x="141" y="-7.5" font-family="Helvetica,sans-Serif" font-size="10.00">AAX_CHostProcessor</text>
</a>
</g>
</g>
<!-- Node1&#45;&gt;Node6 -->
<g id="edge5" class="edge">
<title>Node1&#45;&gt;Node6</title>
<path fill="none" stroke="midnightblue" d="M141,-45.8C141,-36.91 141,-26.78 141,-19.75"/>
<polygon fill="midnightblue" stroke="midnightblue" points="137.5,-46.08 141,-56.08 144.5,-46.08 137.5,-46.08"/>
</g>
<!-- Node2 -->
<g id="node2" class="node">
<title>Node2</title>
<g id="a_node2"><a xlink:href="a01981.html" target="_top" xlink:title="Supplemental interface for an AAX host processing component.">
<polygon fill="white" stroke="black" points="0,-112.5 0,-131.5 148,-131.5 148,-112.5 0,-112.5"/>
<text text-anchor="middle" x="74" y="-119.5" font-family="Helvetica,sans-Serif" font-size="10.00">AAX_IACFHostProcessor_V2</text>
</a>
</g>
</g>
<!-- Node2&#45;&gt;Node1 -->
<g id="edge1" class="edge">
<title>Node2&#45;&gt;Node1</title>
<path fill="none" stroke="midnightblue" d="M92.83,-105.82C104.84,-96.15 119.97,-83.95 130.04,-75.83"/>
<polygon fill="midnightblue" stroke="midnightblue" points="90.35,-103.32 84.76,-112.32 94.75,-108.77 90.35,-103.32"/>
</g>
<!-- Node3 -->
<g id="node3" class="node">
<title>Node3</title>
<g id="a_node3"><a xlink:href="a01977.html" target="_top" xlink:title="Versioned interface for an AAX host processing component.">
<polygon fill="white" stroke="black" points="8.5,-168.5 8.5,-187.5 139.5,-187.5 139.5,-168.5 8.5,-168.5"/>
<text text-anchor="middle" x="74" y="-175.5" font-family="Helvetica,sans-Serif" font-size="10.00">AAX_IACFHostProcessor</text>
</a>
</g>
</g>
<!-- Node3&#45;&gt;Node2 -->
<g id="edge2" class="edge">
<title>Node3&#45;&gt;Node2</title>
<path fill="none" stroke="midnightblue" d="M74,-157.8C74,-148.91 74,-138.78 74,-131.75"/>
<polygon fill="midnightblue" stroke="midnightblue" points="70.5,-158.08 74,-168.08 77.5,-158.08 70.5,-158.08"/>
</g>
<!-- Node4 -->
<g id="node4" class="node">
<title>Node4</title>
<g id="a_node4"><a xlink:href="a01689.html" target="_top" xlink:title="COM compatible IUnknown C++ interface.">
<polygon fill="white" stroke="black" points="33.5,-224.5 33.5,-243.5 114.5,-243.5 114.5,-224.5 33.5,-224.5"/>
<text text-anchor="middle" x="74" y="-231.5" font-family="Helvetica,sans-Serif" font-size="10.00">IACFUnknown</text>
</a>
</g>
</g>
<!-- Node4&#45;&gt;Node3 -->
<g id="edge3" class="edge">
<title>Node4&#45;&gt;Node3</title>
<path fill="none" stroke="midnightblue" d="M74,-213.8C74,-204.91 74,-194.78 74,-187.75"/>
<polygon fill="midnightblue" stroke="midnightblue" points="70.5,-214.08 74,-224.08 77.5,-214.08 70.5,-214.08"/>
</g>
<!-- Node5 -->
<g id="node5" class="node">
<title>Node5</title>
<g id="a_node5"><a xlink:title=" ">
<polygon fill="white" stroke="#bfbfbf" points="166,-112.5 166,-131.5 252,-131.5 252,-112.5 166,-112.5"/>
<text text-anchor="middle" x="209" y="-119.5" font-family="Helvetica,sans-Serif" font-size="10.00">CACFUnknown</text>
</a>
</g>
</g>
<!-- Node5&#45;&gt;Node1 -->
<g id="edge4" class="edge">
<title>Node5&#45;&gt;Node1</title>
<path fill="none" stroke="midnightblue" d="M190.24,-106.1C178,-96.38 162.44,-84.03 152.12,-75.83"/>
<polygon fill="midnightblue" stroke="midnightblue" points="188.07,-108.85 198.07,-112.32 192.42,-103.36 188.07,-108.85"/>
</g>
</g>
</svg>
