<?xml version="1.0" encoding="UTF-8" standalone="no"?>
<!DOCTYPE svg PUBLIC "-//W3C//DTD SVG 1.1//EN"
 "http://www.w3.org/Graphics/SVG/1.1/DTD/svg11.dtd">
<!-- Generated by graphviz version 6.0.1 (20220911.1526)
 -->
<!-- Title: AAX_IPointerQueue&lt; T &gt; Pages: 1 -->
<svg width="467pt" height="138pt"
 viewBox="0.00 0.00 467.00 137.50" xmlns="http://www.w3.org/2000/svg" xmlns:xlink="http://www.w3.org/1999/xlink">
<g id="graph0" class="graph" transform="scale(1 1) rotate(0) translate(4 133.5)">
<title>AAX_IPointerQueue&lt; T &gt;</title>
<polygon fill="white" stroke="none" points="-4,4 -4,-133.5 463,-133.5 463,4 -4,4"/>
<!-- Node1 -->
<g id="node1" class="node">
<title>Node1</title>
<g id="a_node1"><a xlink:title=" ">
<polygon fill="#bfbfbf" stroke="black" points="123,-49.5 123,-68.5 251,-68.5 251,-49.5 123,-49.5"/>
<text text-anchor="middle" x="187" y="-56.5" font-family="Helvetica,sans-Serif" font-size="10.00">AAX_IPointerQueue&lt; T &gt;</text>
</a>
</g>
</g>
<!-- Node3 -->
<g id="node3" class="node">
<title>Node3</title>
<g id="a_node3"><a xlink:href="a01721.html" target="_top" xlink:title=" ">
<polygon fill="white" stroke="black" points="288.5,-99 288.5,-129 457.5,-129 457.5,-99 288.5,-99"/>
<text text-anchor="start" x="296.5" y="-117" font-family="Helvetica,sans-Serif" font-size="10.00">AAX_CAtomicQueue&lt; TNumbered</text>
<text text-anchor="middle" x="373" y="-106" font-family="Helvetica,sans-Serif" font-size="10.00">ParamStateList, 256 &gt;</text>
</a>
</g>
</g>
<!-- Node1&#45;&gt;Node3 -->
<g id="edge2" class="edge">
<title>Node1&#45;&gt;Node3</title>
<path fill="none" stroke="midnightblue" d="M229.24,-71.58C247,-76.97 268.01,-83.33 287,-89 297.91,-92.26 309.61,-95.72 320.74,-99"/>
<polygon fill="midnightblue" stroke="midnightblue" points="229.78,-68.08 219.19,-68.52 227.74,-74.78 229.78,-68.08"/>
</g>
<!-- Node4 -->
<g id="node4" class="node">
<title>Node4</title>
<g id="a_node4"><a xlink:href="a01721.html" target="_top" xlink:title=" ">
<polygon fill="white" stroke="black" points="287,-38.5 287,-79.5 459,-79.5 459,-38.5 287,-38.5"/>
<text text-anchor="start" x="295" y="-67.5" font-family="Helvetica,sans-Serif" font-size="10.00">AAX_CAtomicQueue&lt; const</text>
<text text-anchor="start" x="295" y="-56.5" font-family="Helvetica,sans-Serif" font-size="10.00"> TParamValPair, 16 *kSynchronized</text>
<text text-anchor="middle" x="373" y="-45.5" font-family="Helvetica,sans-Serif" font-size="10.00">ParameterQueueSize &gt;</text>
</a>
</g>
</g>
<!-- Node1&#45;&gt;Node4 -->
<g id="edge3" class="edge">
<title>Node1&#45;&gt;Node4</title>
<path fill="none" stroke="midnightblue" d="M261.23,-59C269.67,-59 278.32,-59 286.9,-59"/>
<polygon fill="midnightblue" stroke="midnightblue" points="261.06,-55.5 251.06,-59 261.06,-62.5 261.06,-55.5"/>
</g>
<!-- Node5 -->
<g id="node5" class="node">
<title>Node5</title>
<g id="a_node5"><a xlink:href="a01721.html" target="_top" xlink:title=" ">
<polygon fill="white" stroke="black" points="301,-0.5 301,-19.5 445,-19.5 445,-0.5 301,-0.5"/>
<text text-anchor="middle" x="373" y="-7.5" font-family="Helvetica,sans-Serif" font-size="10.00">AAX_CAtomicQueue&lt; T, S &gt;</text>
</a>
</g>
</g>
<!-- Node1&#45;&gt;Node5 -->
<g id="edge4" class="edge">
<title>Node1&#45;&gt;Node5</title>
<path fill="none" stroke="midnightblue" d="M226.96,-46.46C245.11,-40.81 267.07,-34.24 287,-29 299.72,-25.66 313.62,-22.39 326.41,-19.54"/>
<polygon fill="midnightblue" stroke="midnightblue" points="225.79,-43.16 217.29,-49.5 227.88,-49.84 225.79,-43.16"/>
</g>
<!-- Node2 -->
<g id="node2" class="node">
<title>Node2</title>
<g id="a_node2"><a xlink:href="a02073.html" target="_top" xlink:title=" ">
<polygon fill="white" stroke="black" points="0,-49.5 0,-68.5 87,-68.5 87,-49.5 0,-49.5"/>
<text text-anchor="middle" x="43.5" y="-56.5" font-family="Helvetica,sans-Serif" font-size="10.00">AAX_IContainer</text>
</a>
</g>
</g>
<!-- Node2&#45;&gt;Node1 -->
<g id="edge1" class="edge">
<title>Node2&#45;&gt;Node1</title>
<path fill="none" stroke="midnightblue" d="M97.59,-59C105.87,-59 114.48,-59 122.95,-59"/>
<polygon fill="midnightblue" stroke="midnightblue" points="97.34,-55.5 87.34,-59 97.34,-62.5 97.34,-55.5"/>
</g>
</g>
</svg>
