<?xml version="1.0" encoding="UTF-8" standalone="no"?>
<!DOCTYPE svg PUBLIC "-//W3C//DTD SVG 1.1//EN"
 "http://www.w3.org/Graphics/SVG/1.1/DTD/svg11.dtd">
<!-- Generated by graphviz version 2.47.3 (20210619.1520)
 -->
<!-- Title: AAX_IEffectDescriptor::NewComponentDescriptor Pages: 1 -->
<svg width="326pt" height="39pt"
 viewBox="0.00 0.00 326.00 39.00" xmlns="http://www.w3.org/2000/svg" xmlns:xlink="http://www.w3.org/1999/xlink">
<g id="graph0" class="graph" transform="scale(1 1) rotate(0) translate(4 35)">
<title>AAX_IEffectDescriptor::NewComponentDescriptor</title>
<polygon fill="white" stroke="transparent" points="-4,4 -4,-35 322,-35 322,4 -4,4"/>
<!-- Node1 -->
<g id="node1" class="node">
<title>Node1</title>
<g id="a_node1"><a xlink:title="Create an instance of a component descriptor.">
<polygon fill="#bfbfbf" stroke="black" points="180,-0.5 180,-30.5 318,-30.5 318,-0.5 180,-0.5"/>
<text text-anchor="start" x="188" y="-18.5" font-family="Helvetica,sans-Serif" font-size="10.00">AAX_IEffectDescriptor</text>
<text text-anchor="middle" x="249" y="-7.5" font-family="Helvetica,sans-Serif" font-size="10.00">::NewComponentDescriptor</text>
</a>
</g>
</g>
<!-- Node2 -->
<g id="node2" class="node">
<title>Node2</title>
<g id="a_node2"><a xlink:href="a02261.html#a69f9b80a70ecc6b7b2a7eec372d2502a" target="_top" xlink:title=" ">
<polygon fill="white" stroke="black" points="0,-0.5 0,-30.5 144,-30.5 144,-0.5 0,-0.5"/>
<text text-anchor="start" x="8" y="-18.5" font-family="Helvetica,sans-Serif" font-size="10.00">AAX_CMonolithicParameters</text>
<text text-anchor="middle" x="72" y="-7.5" font-family="Helvetica,sans-Serif" font-size="10.00">::StaticDescribe</text>
</a>
</g>
</g>
<!-- Node1&#45;&gt;Node2 -->
<g id="edge1" class="edge">
<title>Node1&#45;&gt;Node2</title>
<path fill="none" stroke="midnightblue" d="M169.59,-15.5C161.12,-15.5 152.53,-15.5 144.15,-15.5"/>
<polygon fill="midnightblue" stroke="midnightblue" points="169.84,-19 179.84,-15.5 169.84,-12 169.84,-19"/>
</g>
</g>
</svg>
