<?xml version="1.0" encoding="UTF-8" standalone="no"?>
<!DOCTYPE svg PUBLIC "-//W3C//DTD SVG 1.1//EN"
 "http://www.w3.org/Graphics/SVG/1.1/DTD/svg11.dtd">
<!-- Generated by graphviz version 6.0.1 (20220911.1526)
 -->
<!-- Title: AAX_IEffectParameters Pages: 1 -->
<svg width="272pt" height="308pt"
 viewBox="0.00 0.00 271.50 308.00" xmlns="http://www.w3.org/2000/svg" xmlns:xlink="http://www.w3.org/1999/xlink">
<g id="graph0" class="graph" transform="scale(1 1) rotate(0) translate(4 304)">
<title>AAX_IEffectParameters</title>
<polygon fill="white" stroke="none" points="-4,4 -4,-304 267.5,-304 267.5,4 -4,4"/>
<!-- Node1 -->
<g id="node1" class="node">
<title>Node1</title>
<g id="a_node1"><a xlink:title="The interface for an AAX Plug&#45;in&#39;s data model.">
<polygon fill="#bfbfbf" stroke="black" points="88.5,-0.5 88.5,-19.5 210.5,-19.5 210.5,-0.5 88.5,-0.5"/>
<text text-anchor="middle" x="149.5" y="-7.5" font-family="Helvetica,sans-Serif" font-size="10.00">AAX_IEffectParameters</text>
</a>
</g>
</g>
<!-- Node2 -->
<g id="node2" class="node">
<title>Node2</title>
<g id="a_node2"><a xlink:href="a01969.html" target="_top" xlink:title="Supplemental interface for an AAX Plug&#45;in&#39;s data model.">
<polygon fill="white" stroke="black" points="0,-56.5 0,-75.5 159,-75.5 159,-56.5 0,-56.5"/>
<text text-anchor="middle" x="79.5" y="-63.5" font-family="Helvetica,sans-Serif" font-size="10.00">AAX_IACFEffectParameters_V4</text>
</a>
</g>
</g>
<!-- Node2&#45;&gt;Node1 -->
<g id="edge1" class="edge">
<title>Node2&#45;&gt;Node1</title>
<path fill="none" stroke="midnightblue" d="M98.81,-50.1C111.41,-40.38 127.43,-28.03 138.05,-19.83"/>
<polygon fill="midnightblue" stroke="midnightblue" points="96.53,-47.44 90.75,-56.32 100.8,-52.99 96.53,-47.44"/>
</g>
<!-- Node3 -->
<g id="node3" class="node">
<title>Node3</title>
<g id="a_node3"><a xlink:href="a01965.html" target="_top" xlink:title="Supplemental interface for an AAX Plug&#45;in&#39;s data model.">
<polygon fill="white" stroke="black" points="0,-112.5 0,-131.5 159,-131.5 159,-112.5 0,-112.5"/>
<text text-anchor="middle" x="79.5" y="-119.5" font-family="Helvetica,sans-Serif" font-size="10.00">AAX_IACFEffectParameters_V3</text>
</a>
</g>
</g>
<!-- Node3&#45;&gt;Node2 -->
<g id="edge2" class="edge">
<title>Node3&#45;&gt;Node2</title>
<path fill="none" stroke="midnightblue" d="M79.5,-101.8C79.5,-92.91 79.5,-82.78 79.5,-75.75"/>
<polygon fill="midnightblue" stroke="midnightblue" points="76,-102.08 79.5,-112.08 83,-102.08 76,-102.08"/>
</g>
<!-- Node4 -->
<g id="node4" class="node">
<title>Node4</title>
<g id="a_node4"><a xlink:href="a01961.html" target="_top" xlink:title="Supplemental interface for an AAX Plug&#45;in&#39;s data model.">
<polygon fill="white" stroke="black" points="0,-168.5 0,-187.5 159,-187.5 159,-168.5 0,-168.5"/>
<text text-anchor="middle" x="79.5" y="-175.5" font-family="Helvetica,sans-Serif" font-size="10.00">AAX_IACFEffectParameters_V2</text>
</a>
</g>
</g>
<!-- Node4&#45;&gt;Node3 -->
<g id="edge3" class="edge">
<title>Node4&#45;&gt;Node3</title>
<path fill="none" stroke="midnightblue" d="M79.5,-157.8C79.5,-148.91 79.5,-138.78 79.5,-131.75"/>
<polygon fill="midnightblue" stroke="midnightblue" points="76,-158.08 79.5,-168.08 83,-158.08 76,-158.08"/>
</g>
<!-- Node5 -->
<g id="node5" class="node">
<title>Node5</title>
<g id="a_node5"><a xlink:href="a01953.html" target="_top" xlink:title="The interface for an AAX Plug&#45;in&#39;s data model.">
<polygon fill="white" stroke="black" points="8.5,-224.5 8.5,-243.5 150.5,-243.5 150.5,-224.5 8.5,-224.5"/>
<text text-anchor="middle" x="79.5" y="-231.5" font-family="Helvetica,sans-Serif" font-size="10.00">AAX_IACFEffectParameters</text>
</a>
</g>
</g>
<!-- Node5&#45;&gt;Node4 -->
<g id="edge4" class="edge">
<title>Node5&#45;&gt;Node4</title>
<path fill="none" stroke="midnightblue" d="M79.5,-213.8C79.5,-204.91 79.5,-194.78 79.5,-187.75"/>
<polygon fill="midnightblue" stroke="midnightblue" points="76,-214.08 79.5,-224.08 83,-214.08 76,-214.08"/>
</g>
<!-- Node6 -->
<g id="node6" class="node">
<title>Node6</title>
<g id="a_node6"><a xlink:href="a01689.html" target="_top" xlink:title="COM compatible IUnknown C++ interface.">
<polygon fill="white" stroke="black" points="39,-280.5 39,-299.5 120,-299.5 120,-280.5 39,-280.5"/>
<text text-anchor="middle" x="79.5" y="-287.5" font-family="Helvetica,sans-Serif" font-size="10.00">IACFUnknown</text>
</a>
</g>
</g>
<!-- Node6&#45;&gt;Node5 -->
<g id="edge5" class="edge">
<title>Node6&#45;&gt;Node5</title>
<path fill="none" stroke="midnightblue" d="M79.5,-269.8C79.5,-260.91 79.5,-250.78 79.5,-243.75"/>
<polygon fill="midnightblue" stroke="midnightblue" points="76,-270.08 79.5,-280.08 83,-270.08 76,-270.08"/>
</g>
<!-- Node7 -->
<g id="node7" class="node">
<title>Node7</title>
<g id="a_node7"><a xlink:title=" ">
<polygon fill="white" stroke="#bfbfbf" points="177.5,-56.5 177.5,-75.5 263.5,-75.5 263.5,-56.5 177.5,-56.5"/>
<text text-anchor="middle" x="220.5" y="-63.5" font-family="Helvetica,sans-Serif" font-size="10.00">CACFUnknown</text>
</a>
</g>
</g>
<!-- Node7&#45;&gt;Node1 -->
<g id="edge6" class="edge">
<title>Node7&#45;&gt;Node1</title>
<path fill="none" stroke="midnightblue" d="M200.91,-50.1C188.13,-40.38 171.89,-28.03 161.11,-19.83"/>
<polygon fill="midnightblue" stroke="midnightblue" points="199.01,-53.06 209.09,-56.32 203.25,-47.48 199.01,-53.06"/>
</g>
</g>
</svg>
