<?xml version="1.0" encoding="UTF-8" standalone="no"?>
<!DOCTYPE svg PUBLIC "-//W3C//DTD SVG 1.1//EN"
 "http://www.w3.org/Graphics/SVG/1.1/DTD/svg11.dtd">
<!-- Generated by graphviz version 2.47.3 (20210619.1520)
 -->
<!-- Title: AAX_IParameter::Identifier Pages: 1 -->
<svg width="322pt" height="88pt"
 viewBox="0.00 0.00 322.00 88.00" xmlns="http://www.w3.org/2000/svg" xmlns:xlink="http://www.w3.org/1999/xlink">
<g id="graph0" class="graph" transform="scale(1 1) rotate(0) translate(4 84)">
<title>AAX_IParameter::Identifier</title>
<polygon fill="white" stroke="transparent" points="-4,4 -4,-84 318,-84 318,4 -4,4"/>
<!-- Node1 -->
<g id="node1" class="node">
<title>Node1</title>
<g id="a_node1"><a xlink:title="Returns the parameter&#39;s unique identifier.">
<polygon fill="#bfbfbf" stroke="black" points="180,-30 180,-49 314,-49 314,-30 180,-30"/>
<text text-anchor="middle" x="247" y="-37" font-family="Helvetica,sans-Serif" font-size="10.00">AAX_IParameter::Identifier</text>
</a>
</g>
</g>
<!-- Node2 -->
<g id="node2" class="node">
<title>Node2</title>
<g id="a_node2"><a xlink:href="a02261.html#a1b23573e8aa3f8e64c61813b721559c2" target="_top" xlink:title=" ">
<polygon fill="white" stroke="black" points="0,-49.5 0,-79.5 144,-79.5 144,-49.5 0,-49.5"/>
<text text-anchor="start" x="8" y="-67.5" font-family="Helvetica,sans-Serif" font-size="10.00">AAX_CMonolithicParameters</text>
<text text-anchor="middle" x="72" y="-56.5" font-family="Helvetica,sans-Serif" font-size="10.00">::AddSynchronizedParameter</text>
</a>
</g>
</g>
<!-- Node1&#45;&gt;Node2 -->
<g id="edge1" class="edge">
<title>Node1&#45;&gt;Node2</title>
<path fill="none" stroke="midnightblue" d="M170.09,-50.47C161.48,-51.71 152.73,-52.98 144.19,-54.21"/>
<polygon fill="midnightblue" stroke="midnightblue" points="170.71,-53.92 180.1,-49.02 169.7,-46.99 170.71,-53.92"/>
</g>
<!-- Node3 -->
<g id="node3" class="node">
<title>Node3</title>
<g id="a_node3"><a xlink:href="a02261.html#a626cb2aaa68c64238298acfd6db448f5" target="_top" xlink:title="Generates and dispatches new coefficient packets.">
<polygon fill="white" stroke="black" points="0,-0.5 0,-30.5 144,-30.5 144,-0.5 0,-0.5"/>
<text text-anchor="start" x="8" y="-18.5" font-family="Helvetica,sans-Serif" font-size="10.00">AAX_CMonolithicParameters</text>
<text text-anchor="middle" x="72" y="-7.5" font-family="Helvetica,sans-Serif" font-size="10.00">::GenerateCoefficients</text>
</a>
</g>
</g>
<!-- Node1&#45;&gt;Node3 -->
<g id="edge2" class="edge">
<title>Node1&#45;&gt;Node3</title>
<path fill="none" stroke="midnightblue" d="M169.7,-28.91C161.19,-27.73 152.54,-26.53 144.1,-25.36"/>
<polygon fill="midnightblue" stroke="midnightblue" points="169.22,-32.38 179.61,-30.29 170.18,-25.45 169.22,-32.38"/>
</g>
</g>
</svg>
