<?xml version="1.0" encoding="UTF-8" standalone="no"?>
<!DOCTYPE svg PUBLIC "-//W3C//DTD SVG 1.1//EN"
 "http://www.w3.org/Graphics/SVG/1.1/DTD/svg11.dtd">
<!-- Generated by graphviz version 6.0.1 (20220911.1526)
 -->
<!-- Title: AAX_IEffectDirectData Pages: 1 -->
<svg width="268pt" height="196pt"
 viewBox="0.00 0.00 268.00 196.00" xmlns="http://www.w3.org/2000/svg" xmlns:xlink="http://www.w3.org/1999/xlink">
<g id="graph0" class="graph" transform="scale(1 1) rotate(0) translate(4 192)">
<title>AAX_IEffectDirectData</title>
<polygon fill="white" stroke="none" points="-4,4 -4,-192 264,-192 264,4 -4,4"/>
<!-- Node1 -->
<g id="node1" class="node">
<title>Node1</title>
<g id="a_node1"><a xlink:title="The interface for a AAX Plug&#45;in&#39;s direct data interface.">
<polygon fill="#bfbfbf" stroke="black" points="87.5,-0.5 87.5,-19.5 206.5,-19.5 206.5,-0.5 87.5,-0.5"/>
<text text-anchor="middle" x="147" y="-7.5" font-family="Helvetica,sans-Serif" font-size="10.00">AAX_IEffectDirectData</text>
</a>
</g>
</g>
<!-- Node2 -->
<g id="node2" class="node">
<title>Node2</title>
<g id="a_node2"><a xlink:href="a01945.html" target="_top" xlink:title=" ">
<polygon fill="white" stroke="black" points="0,-56.5 0,-75.5 156,-75.5 156,-56.5 0,-56.5"/>
<text text-anchor="middle" x="78" y="-63.5" font-family="Helvetica,sans-Serif" font-size="10.00">AAX_IACFEffectDirectData_V2</text>
</a>
</g>
</g>
<!-- Node2&#45;&gt;Node1 -->
<g id="edge1" class="edge">
<title>Node2&#45;&gt;Node1</title>
<path fill="none" stroke="midnightblue" d="M97.04,-50.1C109.46,-40.38 125.24,-28.03 135.71,-19.83"/>
<polygon fill="midnightblue" stroke="midnightblue" points="94.8,-47.4 89.09,-56.32 99.12,-52.92 94.8,-47.4"/>
</g>
<!-- Node3 -->
<g id="node3" class="node">
<title>Node3</title>
<g id="a_node3"><a xlink:href="a01941.html" target="_top" xlink:title="Optional interface for direct access to a plug&#45;in&#39;s alg memory.">
<polygon fill="white" stroke="black" points="8.5,-112.5 8.5,-131.5 147.5,-131.5 147.5,-112.5 8.5,-112.5"/>
<text text-anchor="middle" x="78" y="-119.5" font-family="Helvetica,sans-Serif" font-size="10.00">AAX_IACFEffectDirectData</text>
</a>
</g>
</g>
<!-- Node3&#45;&gt;Node2 -->
<g id="edge2" class="edge">
<title>Node3&#45;&gt;Node2</title>
<path fill="none" stroke="midnightblue" d="M78,-101.8C78,-92.91 78,-82.78 78,-75.75"/>
<polygon fill="midnightblue" stroke="midnightblue" points="74.5,-102.08 78,-112.08 81.5,-102.08 74.5,-102.08"/>
</g>
<!-- Node4 -->
<g id="node4" class="node">
<title>Node4</title>
<g id="a_node4"><a xlink:href="a01689.html" target="_top" xlink:title="COM compatible IUnknown C++ interface.">
<polygon fill="white" stroke="black" points="37.5,-168.5 37.5,-187.5 118.5,-187.5 118.5,-168.5 37.5,-168.5"/>
<text text-anchor="middle" x="78" y="-175.5" font-family="Helvetica,sans-Serif" font-size="10.00">IACFUnknown</text>
</a>
</g>
</g>
<!-- Node4&#45;&gt;Node3 -->
<g id="edge3" class="edge">
<title>Node4&#45;&gt;Node3</title>
<path fill="none" stroke="midnightblue" d="M78,-157.8C78,-148.91 78,-138.78 78,-131.75"/>
<polygon fill="midnightblue" stroke="midnightblue" points="74.5,-158.08 78,-168.08 81.5,-158.08 74.5,-158.08"/>
</g>
<!-- Node5 -->
<g id="node5" class="node">
<title>Node5</title>
<g id="a_node5"><a xlink:title=" ">
<polygon fill="white" stroke="#bfbfbf" points="174,-56.5 174,-75.5 260,-75.5 260,-56.5 174,-56.5"/>
<text text-anchor="middle" x="217" y="-63.5" font-family="Helvetica,sans-Serif" font-size="10.00">CACFUnknown</text>
</a>
</g>
</g>
<!-- Node5&#45;&gt;Node1 -->
<g id="edge4" class="edge">
<title>Node5&#45;&gt;Node1</title>
<path fill="none" stroke="midnightblue" d="M197.69,-50.1C185.09,-40.38 169.07,-28.03 158.45,-19.83"/>
<polygon fill="midnightblue" stroke="midnightblue" points="195.7,-52.99 205.75,-56.32 199.97,-47.44 195.7,-52.99"/>
</g>
</g>
</svg>
