<?xml version="1.0" encoding="UTF-8" standalone="no"?>
<!DOCTYPE svg PUBLIC "-//W3C//DTD SVG 1.1//EN"
 "http://www.w3.org/Graphics/SVG/1.1/DTD/svg11.dtd">
<!-- Generated by graphviz version 2.47.3 (20210619.1520)
 -->
<!-- Title: AAX_IParameter Pages: 1 -->
<svg width="282pt" height="84pt"
 viewBox="0.00 0.00 281.50 84.00" xmlns="http://www.w3.org/2000/svg" xmlns:xlink="http://www.w3.org/1999/xlink">
<g id="graph0" class="graph" transform="scale(1 1) rotate(0) translate(4 80)">
<title>AAX_IParameter</title>
<polygon fill="white" stroke="transparent" points="-4,4 -4,-80 277.5,-80 277.5,4 -4,4"/>
<!-- Node1 -->
<g id="node1" class="node">
<title>Node1</title>
<g id="a_node1"><a xlink:title="The base interface for all normalizable plug&#45;in parameters.">
<polygon fill="#bfbfbf" stroke="black" points="87.5,-56.5 87.5,-75.5 177.5,-75.5 177.5,-56.5 87.5,-56.5"/>
<text text-anchor="middle" x="132.5" y="-63.5" font-family="Helvetica,sans-Serif" font-size="10.00">AAX_IParameter</text>
</a>
</g>
</g>
<!-- Node2 -->
<g id="node2" class="node">
<title>Node2</title>
<g id="a_node2"><a xlink:href="a01817.html" target="_top" xlink:title="Generic implementation of an AAX_IParameter.">
<polygon fill="white" stroke="black" points="0,-0.5 0,-19.5 119,-19.5 119,-0.5 0,-0.5"/>
<text text-anchor="middle" x="59.5" y="-7.5" font-family="Helvetica,sans-Serif" font-size="10.00">AAX_CParameter&lt; T &gt;</text>
</a>
</g>
</g>
<!-- Node1&#45;&gt;Node2 -->
<g id="edge1" class="edge">
<title>Node1&#45;&gt;Node2</title>
<path fill="none" stroke="midnightblue" d="M112.36,-50.1C99.22,-40.38 82.52,-28.03 71.44,-19.83"/>
<polygon fill="midnightblue" stroke="midnightblue" points="110.65,-53.19 120.77,-56.32 114.81,-47.56 110.65,-53.19"/>
</g>
<!-- Node3 -->
<g id="node3" class="node">
<title>Node3</title>
<g id="a_node3"><a xlink:href="a01821.html" target="_top" xlink:title="A stateless parameter implementation.">
<polygon fill="white" stroke="black" points="137.5,-0.5 137.5,-19.5 273.5,-19.5 273.5,-0.5 137.5,-0.5"/>
<text text-anchor="middle" x="205.5" y="-7.5" font-family="Helvetica,sans-Serif" font-size="10.00">AAX_CStatelessParameter</text>
</a>
</g>
</g>
<!-- Node1&#45;&gt;Node3 -->
<g id="edge2" class="edge">
<title>Node1&#45;&gt;Node3</title>
<path fill="none" stroke="midnightblue" d="M152.64,-50.1C165.78,-40.38 182.48,-28.03 193.56,-19.83"/>
<polygon fill="midnightblue" stroke="midnightblue" points="150.19,-47.56 144.23,-56.32 154.35,-53.19 150.19,-47.56"/>
</g>
</g>
</svg>
