<?xml version="1.0" encoding="UTF-8" standalone="no"?>
<!DOCTYPE svg PUBLIC "-//W3C//DTD SVG 1.1//EN"
 "http://www.w3.org/Graphics/SVG/1.1/DTD/svg11.dtd">
<!-- Generated by graphviz version 2.47.3 (20210619.1520)
 -->
<!-- Title: AAX_CMonolithicParameters::AddSynchronizedParameter Pages: 1 -->
<svg width="339pt" height="66pt"
 viewBox="0.00 0.00 339.00 66.00" xmlns="http://www.w3.org/2000/svg" xmlns:xlink="http://www.w3.org/1999/xlink">
<g id="graph0" class="graph" transform="scale(1 1) rotate(0) translate(4 62)">
<title>AAX_CMonolithicParameters::AddSynchronizedParameter</title>
<polygon fill="white" stroke="transparent" points="-4,4 -4,-62 335,-62 335,4 -4,4"/>
<!-- Node1 -->
<g id="node1" class="node">
<title>Node1</title>
<g id="a_node1"><a xlink:title=" ">
<polygon fill="#bfbfbf" stroke="black" points="0,-14 0,-44 144,-44 144,-14 0,-14"/>
<text text-anchor="start" x="8" y="-32" font-family="Helvetica,sans-Serif" font-size="10.00">AAX_CMonolithicParameters</text>
<text text-anchor="middle" x="72" y="-21" font-family="Helvetica,sans-Serif" font-size="10.00">::AddSynchronizedParameter</text>
</a>
</g>
</g>
<!-- Node2 -->
<g id="node2" class="node">
<title>Node2</title>
<g id="a_node2"><a xlink:href="a02145.html#a253ff336b79cfb454f07d4fa21f2884f" target="_top" xlink:title="Returns true if the parameter is automatable, false if it is not.">
<polygon fill="white" stroke="black" points="180,-38.5 180,-57.5 331,-57.5 331,-38.5 180,-38.5"/>
<text text-anchor="middle" x="255.5" y="-45.5" font-family="Helvetica,sans-Serif" font-size="10.00">AAX_IParameter::Automatable</text>
</a>
</g>
</g>
<!-- Node1&#45;&gt;Node2 -->
<g id="edge1" class="edge">
<title>Node1&#45;&gt;Node2</title>
<path fill="none" stroke="midnightblue" d="M144.21,-36.45C152.64,-37.34 161.29,-38.24 169.88,-39.14"/>
<polygon fill="midnightblue" stroke="midnightblue" points="169.6,-42.63 179.91,-40.19 170.32,-35.67 169.6,-42.63"/>
</g>
<!-- Node3 -->
<g id="node3" class="node">
<title>Node3</title>
<g id="a_node3"><a xlink:href="a02145.html#a28807db424a720daa9880ed9ee5d4d21" target="_top" xlink:title="Returns the parameter&#39;s unique identifier.">
<polygon fill="white" stroke="black" points="188.5,-0.5 188.5,-19.5 322.5,-19.5 322.5,-0.5 188.5,-0.5"/>
<text text-anchor="middle" x="255.5" y="-7.5" font-family="Helvetica,sans-Serif" font-size="10.00">AAX_IParameter::Identifier</text>
</a>
</g>
</g>
<!-- Node1&#45;&gt;Node3 -->
<g id="edge2" class="edge">
<title>Node1&#45;&gt;Node3</title>
<path fill="none" stroke="midnightblue" d="M144.21,-21.55C155.31,-20.38 166.82,-19.18 178.04,-18"/>
<polygon fill="midnightblue" stroke="midnightblue" points="178.65,-21.46 188.23,-16.94 177.92,-14.5 178.65,-21.46"/>
</g>
</g>
</svg>
