<?xml version="1.0" encoding="UTF-8" standalone="no"?>
<!DOCTYPE svg PUBLIC "-//W3C//DTD SVG 1.1//EN"
 "http://www.w3.org/Graphics/SVG/1.1/DTD/svg11.dtd">
<!-- Generated by graphviz version 6.0.1 (20220911.1526)
 -->
<!-- Title: AAX_CMonolithicParameters::StaticDescribe Pages: 1 -->
<svg width="529pt" height="737pt"
 viewBox="0.00 0.00 529.00 737.00" xmlns="http://www.w3.org/2000/svg" xmlns:xlink="http://www.w3.org/1999/xlink">
<g id="graph0" class="graph" transform="scale(1 1) rotate(0) translate(4 733)">
<title>AAX_CMonolithicParameters::StaticDescribe</title>
<polygon fill="white" stroke="none" points="-4,4 -4,-733 525,-733 525,4 -4,4"/>
<!-- Node1 -->
<g id="node1" class="node">
<title>Node1</title>
<g id="a_node1"><a xlink:title=" ">
<polygon fill="#bfbfbf" stroke="black" points="0,-355.5 0,-385.5 144,-385.5 144,-355.5 0,-355.5"/>
<text text-anchor="start" x="8" y="-373.5" font-family="Helvetica,sans-Serif" font-size="10.00">AAX_CMonolithicParameters</text>
<text text-anchor="middle" x="72" y="-362.5" font-family="Helvetica,sans-Serif" font-size="10.00">::StaticDescribe</text>
</a>
</g>
</g>
<!-- Node2 -->
<g id="node2" class="node">
<title>Node2</title>
<g id="a_node2"><a xlink:href="a02069.html#a55d6cdb4a9c860c9ed4cb685e346f0dc" target="_top" xlink:title="Subscribes a buffer length context field.">
<polygon fill="white" stroke="black" points="190.5,-698.5 190.5,-728.5 330.5,-728.5 330.5,-698.5 190.5,-698.5"/>
<text text-anchor="start" x="198.5" y="-716.5" font-family="Helvetica,sans-Serif" font-size="10.00">AAX_IComponentDescriptor</text>
<text text-anchor="middle" x="260.5" y="-705.5" font-family="Helvetica,sans-Serif" font-size="10.00">::AddAudioBufferLength</text>
</a>
</g>
</g>
<!-- Node1&#45;&gt;Node2 -->
<g id="edge1" class="edge">
<title>Node1&#45;&gt;Node2</title>
<path fill="none" stroke="midnightblue" d="M73.42,-385.7C75.65,-436.49 89.85,-602.06 180,-689.5 181.1,-690.57 182.24,-691.59 183.43,-692.56"/>
<polygon fill="midnightblue" stroke="midnightblue" points="181.56,-695.53 191.77,-698.36 185.56,-689.78 181.56,-695.53"/>
</g>
<!-- Node3 -->
<g id="node3" class="node">
<title>Node3</title>
<g id="a_node3"><a xlink:href="a02069.html#a5fad32eff268756c9b4309431321f9b3" target="_top" xlink:title="Subscribes an audio input context field.">
<polygon fill="white" stroke="black" points="190.5,-649.5 190.5,-679.5 330.5,-679.5 330.5,-649.5 190.5,-649.5"/>
<text text-anchor="start" x="198.5" y="-667.5" font-family="Helvetica,sans-Serif" font-size="10.00">AAX_IComponentDescriptor</text>
<text text-anchor="middle" x="260.5" y="-656.5" font-family="Helvetica,sans-Serif" font-size="10.00">::AddAudioIn</text>
</a>
</g>
</g>
<!-- Node1&#45;&gt;Node3 -->
<g id="edge2" class="edge">
<title>Node1&#45;&gt;Node3</title>
<path fill="none" stroke="midnightblue" d="M74.46,-385.6C79.67,-431.12 101.49,-568.33 180,-640.5 181.28,-641.67 182.61,-642.79 183.99,-643.85"/>
<polygon fill="midnightblue" stroke="midnightblue" points="182.08,-646.79 192.36,-649.36 185.93,-640.94 182.08,-646.79"/>
</g>
<!-- Node4 -->
<g id="node4" class="node">
<title>Node4</title>
<g id="a_node4"><a xlink:href="a02069.html#afea50c52b3c2e68eef2857b75859a954" target="_top" xlink:title="Subscribes an audio output context field.">
<polygon fill="white" stroke="black" points="190.5,-600.5 190.5,-630.5 330.5,-630.5 330.5,-600.5 190.5,-600.5"/>
<text text-anchor="start" x="198.5" y="-618.5" font-family="Helvetica,sans-Serif" font-size="10.00">AAX_IComponentDescriptor</text>
<text text-anchor="middle" x="260.5" y="-607.5" font-family="Helvetica,sans-Serif" font-size="10.00">::AddAudioOut</text>
</a>
</g>
</g>
<!-- Node1&#45;&gt;Node4 -->
<g id="edge3" class="edge">
<title>Node1&#45;&gt;Node4</title>
<path fill="none" stroke="midnightblue" d="M75.94,-385.68C84.49,-425.6 113.05,-534.35 180,-591.5 181.52,-592.8 183.11,-594.03 184.76,-595.19"/>
<polygon fill="midnightblue" stroke="midnightblue" points="183.05,-598.25 193.41,-600.46 186.69,-592.27 183.05,-598.25"/>
</g>
<!-- Node5 -->
<g id="node5" class="node">
<title>Node5</title>
<g id="a_node5"><a xlink:href="a02069.html#a76266e8a07ce20cdbe5721172c32a93d" target="_top" xlink:title="Adds an auxiliary output stem for a plug&#45;in.">
<polygon fill="white" stroke="black" points="190.5,-551.5 190.5,-581.5 330.5,-581.5 330.5,-551.5 190.5,-551.5"/>
<text text-anchor="start" x="198.5" y="-569.5" font-family="Helvetica,sans-Serif" font-size="10.00">AAX_IComponentDescriptor</text>
<text text-anchor="middle" x="260.5" y="-558.5" font-family="Helvetica,sans-Serif" font-size="10.00">::AddAuxOutputStem</text>
</a>
</g>
</g>
<!-- Node1&#45;&gt;Node5 -->
<g id="edge4" class="edge">
<title>Node1&#45;&gt;Node5</title>
<path fill="none" stroke="midnightblue" d="M78.2,-385.7C90.43,-419.21 124.31,-499.83 180,-542.5 181.81,-543.89 183.71,-545.2 185.66,-546.43"/>
<polygon fill="midnightblue" stroke="midnightblue" points="184.15,-549.59 194.59,-551.37 187.54,-543.47 184.15,-549.59"/>
</g>
<!-- Node6 -->
<g id="node6" class="node">
<title>Node6</title>
<g id="a_node6"><a xlink:href="a02069.html#a59727dee1043fcd7f14da130ab254445" target="_top" xlink:title="Subscribes a clock context field.">
<polygon fill="white" stroke="black" points="190.5,-502.5 190.5,-532.5 330.5,-532.5 330.5,-502.5 190.5,-502.5"/>
<text text-anchor="start" x="198.5" y="-520.5" font-family="Helvetica,sans-Serif" font-size="10.00">AAX_IComponentDescriptor</text>
<text text-anchor="middle" x="260.5" y="-509.5" font-family="Helvetica,sans-Serif" font-size="10.00">::AddClock</text>
</a>
</g>
</g>
<!-- Node1&#45;&gt;Node6 -->
<g id="edge5" class="edge">
<title>Node1&#45;&gt;Node6</title>
<path fill="none" stroke="midnightblue" d="M82.18,-385.81C98.56,-411.82 135.32,-464.61 180,-493.5 182.58,-495.17 185.28,-496.73 188.07,-498.18"/>
<polygon fill="midnightblue" stroke="midnightblue" points="186.66,-501.38 197.2,-502.47 189.64,-495.05 186.66,-501.38"/>
</g>
<!-- Node7 -->
<g id="node7" class="node">
<title>Node7</title>
<g id="a_node7"><a xlink:href="a02101.html#aec33938f50461dd5e7c1dcc25faf6917" target="_top" xlink:title="Add a component to an instance of a component descriptor.">
<polygon fill="white" stroke="black" points="202.5,-453.5 202.5,-483.5 318.5,-483.5 318.5,-453.5 202.5,-453.5"/>
<text text-anchor="start" x="210.5" y="-471.5" font-family="Helvetica,sans-Serif" font-size="10.00">AAX_IEffectDescriptor</text>
<text text-anchor="middle" x="260.5" y="-460.5" font-family="Helvetica,sans-Serif" font-size="10.00">::AddComponent</text>
</a>
</g>
</g>
<!-- Node1&#45;&gt;Node7 -->
<g id="edge6" class="edge">
<title>Node1&#45;&gt;Node7</title>
<path fill="none" stroke="midnightblue" d="M91.22,-385.77C111.68,-402.26 146.43,-428.32 180,-444.5 184.05,-446.45 188.3,-448.29 192.64,-450"/>
<polygon fill="midnightblue" stroke="midnightblue" points="191.63,-453.36 202.22,-453.57 194.07,-446.8 191.63,-453.36"/>
</g>
<!-- Node8 -->
<g id="node8" class="node">
<title>Node8</title>
<g id="a_node8"><a xlink:href="a02069.html#a230293b9f6bb413626cd487ca501df75" target="_top" xlink:title="Adds a custom data port to the algorithm context.">
<polygon fill="white" stroke="black" points="190.5,-404.5 190.5,-434.5 330.5,-434.5 330.5,-404.5 190.5,-404.5"/>
<text text-anchor="start" x="198.5" y="-422.5" font-family="Helvetica,sans-Serif" font-size="10.00">AAX_IComponentDescriptor</text>
<text text-anchor="middle" x="260.5" y="-411.5" font-family="Helvetica,sans-Serif" font-size="10.00">::AddDataInPort</text>
</a>
</g>
</g>
<!-- Node1&#45;&gt;Node8 -->
<g id="edge7" class="edge">
<title>Node1&#45;&gt;Node8</title>
<path fill="none" stroke="midnightblue" d="M130.22,-385.53C149.92,-390.71 172.14,-396.55 192.54,-401.91"/>
<polygon fill="midnightblue" stroke="midnightblue" points="191.82,-405.34 202.38,-404.49 193.6,-398.57 191.82,-405.34"/>
</g>
<!-- Node9 -->
<g id="node9" class="node">
<title>Node9</title>
<g id="a_node9"><a xlink:href="a02069.html#a5e4a61afa3d6510891e16d7179bdaa64" target="_top" xlink:title="Adds a meter field to the plug&#45;in&#39;s context.">
<polygon fill="white" stroke="black" points="190.5,-355.5 190.5,-385.5 330.5,-385.5 330.5,-355.5 190.5,-355.5"/>
<text text-anchor="start" x="198.5" y="-373.5" font-family="Helvetica,sans-Serif" font-size="10.00">AAX_IComponentDescriptor</text>
<text text-anchor="middle" x="260.5" y="-362.5" font-family="Helvetica,sans-Serif" font-size="10.00">::AddMeters</text>
</a>
</g>
</g>
<!-- Node1&#45;&gt;Node9 -->
<g id="edge8" class="edge">
<title>Node1&#45;&gt;Node9</title>
<path fill="none" stroke="midnightblue" d="M144.04,-370.5C155.74,-370.5 167.94,-370.5 179.84,-370.5"/>
<polygon fill="midnightblue" stroke="midnightblue" points="180.2,-374 190.2,-370.5 180.2,-367 180.2,-374"/>
</g>
<!-- Node10 -->
<g id="node10" class="node">
<title>Node10</title>
<g id="a_node10"><a xlink:href="a02069.html#a6284dda9ccca898e33075de29dad4e39" target="_top" xlink:title="Adds a MIDI node field to the plug&#45;in&#39;s context.">
<polygon fill="white" stroke="black" points="190.5,-306.5 190.5,-336.5 330.5,-336.5 330.5,-306.5 190.5,-306.5"/>
<text text-anchor="start" x="198.5" y="-324.5" font-family="Helvetica,sans-Serif" font-size="10.00">AAX_IComponentDescriptor</text>
<text text-anchor="middle" x="260.5" y="-313.5" font-family="Helvetica,sans-Serif" font-size="10.00">::AddMIDINode</text>
</a>
</g>
</g>
<!-- Node1&#45;&gt;Node10 -->
<g id="edge9" class="edge">
<title>Node1&#45;&gt;Node10</title>
<path fill="none" stroke="midnightblue" d="M130.22,-355.47C149.92,-350.29 172.14,-344.45 192.54,-339.09"/>
<polygon fill="midnightblue" stroke="midnightblue" points="193.6,-342.43 202.38,-336.51 191.82,-335.66 193.6,-342.43"/>
</g>
<!-- Node11 -->
<g id="node11" class="node">
<title>Node11</title>
<g id="a_node11"><a xlink:href="a02069.html#a125949841a13e97ff93fa321f2050433" target="_top" xlink:title="Adds a private data port to the algorithm context.">
<polygon fill="white" stroke="black" points="190.5,-257.5 190.5,-287.5 330.5,-287.5 330.5,-257.5 190.5,-257.5"/>
<text text-anchor="start" x="198.5" y="-275.5" font-family="Helvetica,sans-Serif" font-size="10.00">AAX_IComponentDescriptor</text>
<text text-anchor="middle" x="260.5" y="-264.5" font-family="Helvetica,sans-Serif" font-size="10.00">::AddPrivateData</text>
</a>
</g>
</g>
<!-- Node1&#45;&gt;Node11 -->
<g id="edge10" class="edge">
<title>Node1&#45;&gt;Node11</title>
<path fill="none" stroke="midnightblue" d="M91.67,-355.23C112.24,-339.03 146.82,-313.6 180,-297.5 184.68,-295.23 189.61,-293.1 194.64,-291.13"/>
<polygon fill="midnightblue" stroke="midnightblue" points="196.21,-294.27 204.37,-287.51 193.77,-287.71 196.21,-294.27"/>
</g>
<!-- Node12 -->
<g id="node12" class="node">
<title>Node12</title>
<g id="a_node12"><a xlink:href="a02069.html#a1c069508cf54a523905c8160ebf628ad" target="_top" xlink:title="Registers an algorithm processing entrypoint (process procedure) for the native architecture.">
<polygon fill="white" stroke="black" points="190.5,-208.5 190.5,-238.5 330.5,-238.5 330.5,-208.5 190.5,-208.5"/>
<text text-anchor="start" x="198.5" y="-226.5" font-family="Helvetica,sans-Serif" font-size="10.00">AAX_IComponentDescriptor</text>
<text text-anchor="middle" x="260.5" y="-215.5" font-family="Helvetica,sans-Serif" font-size="10.00">::AddProcessProc_Native</text>
</a>
</g>
</g>
<!-- Node1&#45;&gt;Node12 -->
<g id="edge11" class="edge">
<title>Node1&#45;&gt;Node12</title>
<path fill="none" stroke="midnightblue" d="M82.25,-355.37C98.72,-329.66 135.63,-277.43 180,-248.5 183.16,-246.44 186.49,-244.55 189.94,-242.8"/>
<polygon fill="midnightblue" stroke="midnightblue" points="191.65,-245.86 199.27,-238.51 188.72,-239.5 191.65,-245.86"/>
</g>
<!-- Node13 -->
<g id="node13" class="node">
<title>Node13</title>
<g id="a_node13"><a xlink:href="a02157.html#a0997671afce9a2367662c764c1d055dd" target="_top" xlink:title="Add a property to a property map.">
<polygon fill="white" stroke="black" points="180,-170 180,-189 341,-189 341,-170 180,-170"/>
<text text-anchor="middle" x="260.5" y="-177" font-family="Helvetica,sans-Serif" font-size="10.00">AAX_IPropertyMap::AddProperty</text>
</a>
</g>
</g>
<!-- Node1&#45;&gt;Node13 -->
<g id="edge12" class="edge">
<title>Node1&#45;&gt;Node13</title>
<path fill="none" stroke="midnightblue" d="M77.99,-355.45C89.92,-321.9 123.37,-240.71 180,-199.5 183.27,-197.12 186.8,-195.02 190.48,-193.17"/>
<polygon fill="midnightblue" stroke="midnightblue" points="192.14,-196.27 199.91,-189.06 189.34,-189.85 192.14,-196.27"/>
</g>
<!-- Node14 -->
<g id="node14" class="node">
<title>Node14</title>
<g id="a_node14"><a xlink:href="a02101.html#a2102ea4391f5b60e4d5e860a997383e4" target="_top" xlink:title="Create an instance of a component descriptor.">
<polygon fill="white" stroke="black" points="191.5,-120.5 191.5,-150.5 329.5,-150.5 329.5,-120.5 191.5,-120.5"/>
<text text-anchor="start" x="199.5" y="-138.5" font-family="Helvetica,sans-Serif" font-size="10.00">AAX_IEffectDescriptor</text>
<text text-anchor="middle" x="260.5" y="-127.5" font-family="Helvetica,sans-Serif" font-size="10.00">::NewComponentDescriptor</text>
</a>
</g>
</g>
<!-- Node1&#45;&gt;Node14 -->
<g id="edge13" class="edge">
<title>Node1&#45;&gt;Node14</title>
<path fill="none" stroke="midnightblue" d="M76.42,-355.27C85.87,-316.75 115.96,-214.67 180,-160.5 181.98,-158.82 184.08,-157.26 186.26,-155.8"/>
<polygon fill="midnightblue" stroke="midnightblue" points="188.17,-158.74 195.05,-150.67 184.65,-152.69 188.17,-158.74"/>
</g>
<!-- Node15 -->
<g id="node15" class="node">
<title>Node15</title>
<g id="a_node15"><a xlink:href="a02069.html#a0d7dd21daa8bc588d6a1145c3eb7ef98" target="_top" xlink:title="Creates a new, empty property map.">
<polygon fill="white" stroke="black" points="190.5,-71.5 190.5,-101.5 330.5,-101.5 330.5,-71.5 190.5,-71.5"/>
<text text-anchor="start" x="198.5" y="-89.5" font-family="Helvetica,sans-Serif" font-size="10.00">AAX_IComponentDescriptor</text>
<text text-anchor="middle" x="260.5" y="-78.5" font-family="Helvetica,sans-Serif" font-size="10.00">::NewPropertyMap</text>
</a>
</g>
</g>
<!-- Node1&#45;&gt;Node15 -->
<g id="edge14" class="edge">
<title>Node1&#45;&gt;Node15</title>
<path fill="none" stroke="midnightblue" d="M74.78,-355.42C80.82,-311.21 104.5,-180.69 180,-111.5 181.73,-109.91 183.57,-108.42 185.48,-107.03"/>
<polygon fill="midnightblue" stroke="midnightblue" points="187.7,-109.77 194.33,-101.51 183.99,-103.83 187.7,-109.77"/>
</g>
<!-- Node16 -->
<g id="node16" class="node">
<title>Node16</title>
<g id="a_node16"><a xlink:href="a02261.html#aff6c9ac549ab88231759a9311b2a6640" target="_top" xlink:title=" ">
<polygon fill="white" stroke="black" points="188.5,-22.5 188.5,-52.5 332.5,-52.5 332.5,-22.5 188.5,-22.5"/>
<text text-anchor="start" x="196.5" y="-40.5" font-family="Helvetica,sans-Serif" font-size="10.00">AAX_CMonolithicParameters</text>
<text text-anchor="middle" x="260.5" y="-29.5" font-family="Helvetica,sans-Serif" font-size="10.00">::StaticRenderAudio</text>
</a>
</g>
</g>
<!-- Node1&#45;&gt;Node16 -->
<g id="edge15" class="edge">
<title>Node1&#45;&gt;Node16</title>
<path fill="none" stroke="midnightblue" d="M73.68,-355.16C76.71,-305.41 93.08,-146.88 180,-62.5 181.48,-61.06 183.04,-59.71 184.67,-58.43"/>
<polygon fill="midnightblue" stroke="midnightblue" points="186.93,-61.13 193.32,-52.68 183.05,-55.31 186.93,-61.13"/>
</g>
<!-- Node17 -->
<g id="node17" class="node">
<title>Node17</title>
<g id="a_node17"><a xlink:href="a01721.html#a2304d6ba1f1026b6a42de48056ab3050" target="_top" xlink:title=" ">
<polygon fill="white" stroke="black" points="380.5,-50 380.5,-69 517.5,-69 517.5,-50 380.5,-50"/>
<text text-anchor="middle" x="449" y="-57" font-family="Helvetica,sans-Serif" font-size="10.00">AAX_CAtomicQueue::Push</text>
</a>
</g>
</g>
<!-- Node16&#45;&gt;Node17 -->
<g id="edge16" class="edge">
<title>Node16&#45;&gt;Node17</title>
<path fill="none" stroke="midnightblue" d="M332.54,-45.88C344.89,-47.34 357.78,-48.86 370.3,-50.33"/>
<polygon fill="midnightblue" stroke="midnightblue" points="369.89,-53.81 380.23,-51.51 370.71,-46.86 369.89,-53.81"/>
</g>
<!-- Node18 -->
<g id="node18" class="node">
<title>Node18</title>
<g id="a_node18"><a xlink:href="a02261.html#a04f2f73d70ea28c17747c68fc3a20fc8" target="_top" xlink:title=" ">
<polygon fill="white" stroke="black" points="377,-0.5 377,-30.5 521,-30.5 521,-0.5 377,-0.5"/>
<text text-anchor="start" x="385" y="-18.5" font-family="Helvetica,sans-Serif" font-size="10.00">AAX_CMonolithicParameters</text>
<text text-anchor="middle" x="449" y="-7.5" font-family="Helvetica,sans-Serif" font-size="10.00">::RenderAudio</text>
</a>
</g>
</g>
<!-- Node16&#45;&gt;Node18 -->
<g id="edge17" class="edge">
<title>Node16&#45;&gt;Node18</title>
<path fill="none" stroke="midnightblue" d="M332.54,-29.12C343.77,-27.8 355.45,-26.42 366.88,-25.07"/>
<polygon fill="midnightblue" stroke="midnightblue" points="367.33,-28.54 376.85,-23.89 366.51,-21.59 367.33,-28.54"/>
</g>
</g>
</svg>
