<?xml version="1.0" encoding="UTF-8" standalone="no"?>
<!DOCTYPE svg PUBLIC "-//W3C//DTD SVG 1.1//EN"
 "http://www.w3.org/Graphics/SVG/1.1/DTD/svg11.dtd">
<!-- Generated by graphviz version 2.47.3 (20210619.1520)
 -->
<!-- Title: AAX_CMonolithicParameters::GenerateCoefficients Pages: 1 -->
<svg width="334pt" height="241pt"
 viewBox="0.00 0.00 334.00 241.00" xmlns="http://www.w3.org/2000/svg" xmlns:xlink="http://www.w3.org/1999/xlink">
<g id="graph0" class="graph" transform="scale(1 1) rotate(0) translate(4 237)">
<title>AAX_CMonolithicParameters::GenerateCoefficients</title>
<polygon fill="white" stroke="transparent" points="-4,4 -4,-237 330,-237 330,4 -4,4"/>
<!-- Node1 -->
<g id="node1" class="node">
<title>Node1</title>
<g id="a_node1"><a xlink:title="Generates and dispatches new coefficient packets.">
<polygon fill="#bfbfbf" stroke="black" points="0,-93 0,-123 144,-123 144,-93 0,-93"/>
<text text-anchor="start" x="8" y="-111" font-family="Helvetica,sans-Serif" font-size="10.00">AAX_CMonolithicParameters</text>
<text text-anchor="middle" x="72" y="-100" font-family="Helvetica,sans-Serif" font-size="10.00">::GenerateCoefficients</text>
</a>
</g>
</g>
<!-- Node2 -->
<g id="node2" class="node">
<title>Node2</title>
<g id="a_node2"><a xlink:href="a02145.html#a85ce34797e0a9bb3cf05458757144cb9" target="_top" xlink:title="Clone the parameter&#39;s value to a new AAX_IParameterValue object.">
<polygon fill="white" stroke="black" points="180,-213.5 180,-232.5 326,-232.5 326,-213.5 180,-213.5"/>
<text text-anchor="middle" x="253" y="-220.5" font-family="Helvetica,sans-Serif" font-size="10.00">AAX_IParameter::CloneValue</text>
</a>
</g>
</g>
<!-- Node1&#45;&gt;Node2 -->
<g id="edge1" class="edge">
<title>Node1&#45;&gt;Node2</title>
<path fill="none" stroke="midnightblue" d="M85.55,-123.07C104.03,-144.31 140.68,-182.79 180,-204 184.26,-206.3 188.81,-208.33 193.47,-210.12"/>
<polygon fill="midnightblue" stroke="midnightblue" points="192.56,-213.51 203.16,-213.48 194.86,-206.9 192.56,-213.51"/>
</g>
<!-- Node3 -->
<g id="node3" class="node">
<title>Node3</title>
<g id="a_node3"><a xlink:href="a01761.html#a2aad1f84d38b40fee029629c53273a56" target="_top" xlink:title="Access to the Effect controller.">
<polygon fill="white" stroke="black" points="190,-164 190,-194 316,-194 316,-164 190,-164"/>
<text text-anchor="start" x="198" y="-182" font-family="Helvetica,sans-Serif" font-size="10.00">AAX_CEffectParameters</text>
<text text-anchor="middle" x="253" y="-171" font-family="Helvetica,sans-Serif" font-size="10.00">::Controller</text>
</a>
</g>
</g>
<!-- Node1&#45;&gt;Node3 -->
<g id="edge2" class="edge">
<title>Node1&#45;&gt;Node3</title>
<path fill="none" stroke="midnightblue" d="M105.46,-123.19C126.5,-132.8 154.63,-145.22 180,-155 184.99,-156.92 190.22,-158.84 195.47,-160.71"/>
<polygon fill="midnightblue" stroke="midnightblue" points="194.32,-164.01 204.91,-164 196.62,-157.4 194.32,-164.01"/>
</g>
<!-- Node4 -->
<g id="node4" class="node">
<title>Node4</title>
<g id="a_node4"><a xlink:href="a01761.html#a2ae4c7e4ed12f2763934da50aa5730f3" target="_top" xlink:title="Generates and dispatches new coefficient packets.">
<polygon fill="white" stroke="black" points="190,-115 190,-145 316,-145 316,-115 190,-115"/>
<text text-anchor="start" x="198" y="-133" font-family="Helvetica,sans-Serif" font-size="10.00">AAX_CEffectParameters</text>
<text text-anchor="middle" x="253" y="-122" font-family="Helvetica,sans-Serif" font-size="10.00">::GenerateCoefficients</text>
</a>
</g>
</g>
<!-- Node1&#45;&gt;Node4 -->
<g id="edge3" class="edge">
<title>Node1&#45;&gt;Node4</title>
<path fill="none" stroke="midnightblue" d="M144,-116.73C155.7,-118.16 167.85,-119.66 179.58,-121.1"/>
<polygon fill="midnightblue" stroke="midnightblue" points="179.42,-124.61 189.77,-122.35 180.27,-117.66 179.42,-124.61"/>
</g>
<!-- Node5 -->
<g id="node5" class="node">
<title>Node5</title>
<g id="a_node5"><a xlink:href="a02145.html#a28807db424a720daa9880ed9ee5d4d21" target="_top" xlink:title="Returns the parameter&#39;s unique identifier.">
<polygon fill="white" stroke="black" points="186,-76.5 186,-95.5 320,-95.5 320,-76.5 186,-76.5"/>
<text text-anchor="middle" x="253" y="-83.5" font-family="Helvetica,sans-Serif" font-size="10.00">AAX_IParameter::Identifier</text>
</a>
</g>
</g>
<!-- Node1&#45;&gt;Node5 -->
<g id="edge4" class="edge">
<title>Node1&#45;&gt;Node5</title>
<path fill="none" stroke="midnightblue" d="M144,-99.27C154.43,-97.99 165.21,-96.67 175.74,-95.37"/>
<polygon fill="midnightblue" stroke="midnightblue" points="176.24,-98.84 185.74,-94.14 175.39,-91.89 176.24,-98.84"/>
</g>
<!-- Node6 -->
<g id="node6" class="node">
<title>Node6</title>
<g id="a_node6"><a xlink:href="a02077.html#ae5dd2b5925dbc181513bca1c4ac5e716" target="_top" xlink:title="CALL: Posts a data packet to the host for routing between plug&#45;in components.">
<polygon fill="white" stroke="black" points="181,-38.5 181,-57.5 325,-57.5 325,-38.5 181,-38.5"/>
<text text-anchor="middle" x="253" y="-45.5" font-family="Helvetica,sans-Serif" font-size="10.00">AAX_IController::PostPacket</text>
</a>
</g>
</g>
<!-- Node1&#45;&gt;Node6 -->
<g id="edge5" class="edge">
<title>Node1&#45;&gt;Node6</title>
<path fill="none" stroke="midnightblue" d="M109.3,-92.97C129.85,-84.75 156.14,-74.69 180,-67 187.27,-64.65 195.02,-62.38 202.65,-60.27"/>
<polygon fill="midnightblue" stroke="midnightblue" points="203.8,-63.58 212.54,-57.59 201.97,-56.82 203.8,-63.58"/>
</g>
<!-- Node7 -->
<g id="node7" class="node">
<title>Node7</title>
<g id="a_node7"><a xlink:href="a01721.html#a2304d6ba1f1026b6a42de48056ab3050" target="_top" xlink:title=" ">
<polygon fill="white" stroke="black" points="184.5,-0.5 184.5,-19.5 321.5,-19.5 321.5,-0.5 184.5,-0.5"/>
<text text-anchor="middle" x="253" y="-7.5" font-family="Helvetica,sans-Serif" font-size="10.00">AAX_CAtomicQueue::Push</text>
</a>
</g>
</g>
<!-- Node1&#45;&gt;Node7 -->
<g id="edge6" class="edge">
<title>Node1&#45;&gt;Node7</title>
<path fill="none" stroke="midnightblue" d="M89.13,-92.99C109.03,-75.24 144.6,-45.97 180,-29 184.95,-26.63 190.25,-24.51 195.63,-22.65"/>
<polygon fill="midnightblue" stroke="midnightblue" points="196.9,-25.92 205.37,-19.54 194.78,-19.25 196.9,-25.92"/>
</g>
</g>
</svg>
