<?xml version="1.0" encoding="UTF-8" standalone="no"?>
<!DOCTYPE svg PUBLIC "-//W3C//DTD SVG 1.1//EN"
 "http://www.w3.org/Graphics/SVG/1.1/DTD/svg11.dtd">
<!-- Generated by graphviz version 2.47.3 (20210619.1520)
 -->
<!-- Title: AAX_FastInterpolatedTableLookup::DoTableLookupExtraFastMulti Pages: 1 -->
<svg width="497pt" height="39pt"
 viewBox="0.00 0.00 497.00 39.00" xmlns="http://www.w3.org/2000/svg" xmlns:xlink="http://www.w3.org/1999/xlink">
<g id="graph0" class="graph" transform="scale(1 1) rotate(0) translate(4 35)">
<title>AAX_FastInterpolatedTableLookup::DoTableLookupExtraFastMulti</title>
<polygon fill="white" stroke="transparent" points="-4,4 -4,-35 493,-35 493,4 -4,4"/>
<!-- Node1 -->
<g id="node1" class="node">
<title>Node1</title>
<g id="a_node1"><a xlink:title=" ">
<polygon fill="#bfbfbf" stroke="black" points="0,-0.5 0,-30.5 185,-30.5 185,-0.5 0,-0.5"/>
<text text-anchor="start" x="8" y="-18.5" font-family="Helvetica,sans-Serif" font-size="10.00">AAX_FastInterpolatedTable</text>
<text text-anchor="middle" x="92.5" y="-7.5" font-family="Helvetica,sans-Serif" font-size="10.00">Lookup::DoTableLookupExtraFastMulti</text>
</a>
</g>
</g>
<!-- Node2 -->
<g id="node2" class="node">
<title>Node2</title>
<g id="a_node2"><a xlink:href="a00868.html#ad2b2872b49146cf0859c403fea702a39" target="_top" xlink:title="Float to Int conversion with truncation.">
<polygon fill="white" stroke="black" points="221,-6 221,-25 335,-25 335,-6 221,-6"/>
<text text-anchor="middle" x="278" y="-13" font-family="Helvetica,sans-Serif" font-size="10.00">AAX::FastTrunc2Int32</text>
</a>
</g>
</g>
<!-- Node1&#45;&gt;Node2 -->
<g id="edge1" class="edge">
<title>Node1&#45;&gt;Node2</title>
<path fill="none" stroke="midnightblue" d="M185.25,-15.5C193.91,-15.5 202.58,-15.5 210.93,-15.5"/>
<polygon fill="midnightblue" stroke="midnightblue" points="210.95,-19 220.95,-15.5 210.95,-12 210.95,-19"/>
</g>
<!-- Node3 -->
<g id="node3" class="node">
<title>Node3</title>
<g id="a_node3"><a xlink:href="a00868.html#af0bbeabd87aa74be4ecca4f767aedc41" target="_top" xlink:title="Round to Int32.">
<polygon fill="white" stroke="black" points="371,-6 371,-25 489,-25 489,-6 371,-6"/>
<text text-anchor="middle" x="430" y="-13" font-family="Helvetica,sans-Serif" font-size="10.00">AAX::FastRound2Int32</text>
</a>
</g>
</g>
<!-- Node2&#45;&gt;Node3 -->
<g id="edge2" class="edge">
<title>Node2&#45;&gt;Node3</title>
<path fill="none" stroke="midnightblue" d="M335.28,-15.5C343.56,-15.5 352.15,-15.5 360.64,-15.5"/>
<polygon fill="midnightblue" stroke="midnightblue" points="360.9,-19 370.9,-15.5 360.9,-12 360.9,-19"/>
</g>
</g>
</svg>
