<?xml version="1.0" encoding="UTF-8" standalone="no"?>
<!DOCTYPE svg PUBLIC "-//W3C//DTD SVG 1.1//EN"
 "http://www.w3.org/Graphics/SVG/1.1/DTD/svg11.dtd">
<!-- Generated by graphviz version 2.47.3 (20210619.1520)
 -->
<!-- Title: AAX_IMIDIMessageInfoDelegate::ToString_AppendByteRange Pages: 1 -->
<svg width="338pt" height="66pt"
 viewBox="0.00 0.00 338.00 66.00" xmlns="http://www.w3.org/2000/svg" xmlns:xlink="http://www.w3.org/1999/xlink">
<g id="graph0" class="graph" transform="scale(1 1) rotate(0) translate(4 62)">
<title>AAX_IMIDIMessageInfoDelegate::ToString_AppendByteRange</title>
<polygon fill="white" stroke="transparent" points="-4,4 -4,-62 334,-62 334,4 -4,4"/>
<!-- Node1 -->
<g id="node1" class="node">
<title>Node1</title>
<g id="a_node1"><a xlink:title=" ">
<polygon fill="#bfbfbf" stroke="black" points="0,-14 0,-44 162,-44 162,-14 0,-14"/>
<text text-anchor="start" x="8" y="-32" font-family="Helvetica,sans-Serif" font-size="10.00">AAX_IMIDIMessageInfoDelegate</text>
<text text-anchor="middle" x="81" y="-21" font-family="Helvetica,sans-Serif" font-size="10.00">::ToString_AppendByteRange</text>
</a>
</g>
</g>
<!-- Node2 -->
<g id="node2" class="node">
<title>Node2</title>
<g id="a_node2"><a xlink:href="a01853.html#a53b726507fec5a24ffb46e9af194a958" target="_top" xlink:title=" ">
<polygon fill="white" stroke="black" points="207,-38.5 207,-57.5 321,-57.5 321,-38.5 207,-38.5"/>
<text text-anchor="middle" x="264" y="-45.5" font-family="Helvetica,sans-Serif" font-size="10.00">AAX_CString::Append</text>
</a>
</g>
</g>
<!-- Node1&#45;&gt;Node2 -->
<g id="edge1" class="edge">
<title>Node1&#45;&gt;Node2</title>
<path fill="none" stroke="midnightblue" d="M162.18,-37.42C173.69,-38.62 185.43,-39.86 196.63,-41.03"/>
<polygon fill="midnightblue" stroke="midnightblue" points="196.44,-44.53 206.75,-42.1 197.17,-37.57 196.44,-44.53"/>
</g>
<!-- Node3 -->
<g id="node3" class="node">
<title>Node3</title>
<g id="a_node3"><a xlink:href="a01853.html#a245305cf7cea6f5ba710bdbf7803b535" target="_top" xlink:title=" ">
<polygon fill="white" stroke="black" points="198,-0.5 198,-19.5 330,-19.5 330,-0.5 198,-0.5"/>
<text text-anchor="middle" x="264" y="-7.5" font-family="Helvetica,sans-Serif" font-size="10.00">AAX_CString::AppendHex</text>
</a>
</g>
</g>
<!-- Node1&#45;&gt;Node3 -->
<g id="edge2" class="edge">
<title>Node1&#45;&gt;Node3</title>
<path fill="none" stroke="midnightblue" d="M162.18,-20.58C170.65,-19.69 179.24,-18.79 187.66,-17.91"/>
<polygon fill="midnightblue" stroke="midnightblue" points="188.23,-21.37 197.81,-16.84 187.5,-14.41 188.23,-21.37"/>
</g>
</g>
</svg>
