<?xml version="1.0" encoding="UTF-8" standalone="no"?>
<!DOCTYPE svg PUBLIC "-//W3C//DTD SVG 1.1//EN"
 "http://www.w3.org/Graphics/SVG/1.1/DTD/svg11.dtd">
<!-- Generated by graphviz version 6.0.1 (20220911.1526)
 -->
<!-- Title: AAX_CMonolithicParameters::UpdateParameterNormalizedValue Pages: 1 -->
<svg width="366pt" height="100pt"
 viewBox="0.00 0.00 366.00 99.50" xmlns="http://www.w3.org/2000/svg" xmlns:xlink="http://www.w3.org/1999/xlink">
<g id="graph0" class="graph" transform="scale(1 1) rotate(0) translate(4 95.5)">
<title>AAX_CMonolithicParameters::UpdateParameterNormalizedValue</title>
<polygon fill="white" stroke="none" points="-4,4 -4,-95.5 362,-95.5 362,4 -4,4"/>
<!-- Node1 -->
<g id="node1" class="node">
<title>Node1</title>
<g id="a_node1"><a xlink:title="Updates a single parameter&#39;s state to its current value.">
<polygon fill="#bfbfbf" stroke="black" points="0,-33 0,-63 173,-63 173,-33 0,-33"/>
<text text-anchor="start" x="8" y="-51" font-family="Helvetica,sans-Serif" font-size="10.00">AAX_CMonolithicParameters</text>
<text text-anchor="middle" x="86.5" y="-40" font-family="Helvetica,sans-Serif" font-size="10.00">::UpdateParameterNormalizedValue</text>
</a>
</g>
</g>
<!-- Node2 -->
<g id="node2" class="node">
<title>Node2</title>
<g id="a_node2"><a xlink:href="a01825.html#a405918dfca50993f8c0b5259b3c5ee95" target="_top" xlink:title="Given a parameter ID, retrieves a reference to the requested parameter.">
<polygon fill="white" stroke="black" points="217.5,-61 217.5,-91 349.5,-91 349.5,-61 217.5,-61"/>
<text text-anchor="start" x="225.5" y="-79" font-family="Helvetica,sans-Serif" font-size="10.00">AAX_CParameterManager</text>
<text text-anchor="middle" x="283.5" y="-68" font-family="Helvetica,sans-Serif" font-size="10.00">::GetParameterByID</text>
</a>
</g>
</g>
<!-- Node1&#45;&gt;Node2 -->
<g id="edge1" class="edge">
<title>Node1&#45;&gt;Node2</title>
<path fill="none" stroke="midnightblue" d="M173.03,-60.28C184.39,-61.91 195.97,-63.58 207.14,-65.18"/>
<polygon fill="midnightblue" stroke="midnightblue" points="206.87,-68.68 217.27,-66.63 207.87,-61.75 206.87,-68.68"/>
</g>
<!-- Node3 -->
<g id="node3" class="node">
<title>Node3</title>
<g id="a_node3"><a xlink:href="a01761.html#aeff79c1e5cc6b65c7ed21d9912f87caf" target="_top" xlink:title="Updates a single parameter&#39;s state to its current value.">
<polygon fill="white" stroke="black" points="209,-0.5 209,-41.5 358,-41.5 358,-0.5 209,-0.5"/>
<text text-anchor="start" x="217" y="-29.5" font-family="Helvetica,sans-Serif" font-size="10.00">AAX_CEffectParameters</text>
<text text-anchor="start" x="217" y="-18.5" font-family="Helvetica,sans-Serif" font-size="10.00">::UpdateParameterNormalized</text>
<text text-anchor="middle" x="283.5" y="-7.5" font-family="Helvetica,sans-Serif" font-size="10.00">Value</text>
</a>
</g>
</g>
<!-- Node1&#45;&gt;Node3 -->
<g id="edge2" class="edge">
<title>Node1&#45;&gt;Node3</title>
<path fill="none" stroke="midnightblue" d="M173.03,-36.16C181.64,-34.97 190.37,-33.76 198.95,-32.57"/>
<polygon fill="midnightblue" stroke="midnightblue" points="199.52,-36.02 208.94,-31.18 198.56,-29.09 199.52,-36.02"/>
</g>
</g>
</svg>
