<?xml version="1.0" encoding="UTF-8" standalone="no"?>
<!DOCTYPE svg PUBLIC "-//W3C//DTD SVG 1.1//EN"
 "http://www.w3.org/Graphics/SVG/1.1/DTD/svg11.dtd">
<!-- Generated by graphviz version 6.0.1 (20220911.1526)
 -->
<!-- Title: Extensions Pages: 1 -->
<svg width="324pt" height="132pt"
 viewBox="0.00 0.00 324.00 132.00" xmlns="http://www.w3.org/2000/svg" xmlns:xlink="http://www.w3.org/1999/xlink">
<g id="graph0" class="graph" transform="scale(1 1) rotate(0) translate(4 128)">
<title>Extensions</title>
<polygon fill="white" stroke="none" points="-4,4 -4,-128 320,-128 320,4 -4,4"/>
<g id="clust1" class="cluster">
<title>clusterdir_d7fae9a3fd56a9d342acf337a7814969</title>
<g id="a_clust1"><a xlink:href="dir_d7fae9a3fd56a9d342acf337a7814969.html" target="_top">
<polygon fill="#eeeeff" stroke="black" points="8,-64 8,-116 308,-116 308,-64 8,-64"/>
</a>
</g>
</g>
<!-- dir_d7fae9a3fd56a9d342acf337a7814969 -->
<g id="node1" class="node">
<title>dir_d7fae9a3fd56a9d342acf337a7814969</title>
<text text-anchor="middle" x="267" y="-87.5" font-family="Helvetica,sans-Serif" font-size="10.00">Extensions</text>
</g>
<!-- dir_8938e986915dd6338b424b446fe60a38 -->
<g id="node2" class="node">
<title>dir_8938e986915dd6338b424b446fe60a38</title>
<g id="a_node2"><a xlink:href="dir_8938e986915dd6338b424b446fe60a38.html" target="_top" xlink:title="MIDI">
<polygon fill="white" stroke="black" points="216,-108 162,-108 162,-72 216,-72 216,-108"/>
<text text-anchor="middle" x="189" y="-87.5" font-family="Helvetica,sans-Serif" font-size="10.00">MIDI</text>
</a>
</g>
</g>
<!-- dir_d7a24015de3ad3397ba9b230e38f5b53 -->
<g id="node5" class="node">
<title>dir_d7a24015de3ad3397ba9b230e38f5b53</title>
<g id="a_node5"><a xlink:href="dir_d7a24015de3ad3397ba9b230e38f5b53.html" target="_top" xlink:title="Interfaces">
<polygon fill="none" stroke="black" points="146,-36 86,-36 86,0 146,0 146,-36"/>
<text text-anchor="middle" x="116" y="-15.5" font-family="Helvetica,sans-Serif" font-size="10.00">Interfaces</text>
</a>
</g>
</g>
<!-- dir_8938e986915dd6338b424b446fe60a38&#45;&gt;dir_d7a24015de3ad3397ba9b230e38f5b53 -->
<g id="edge2" class="edge">
<title>dir_8938e986915dd6338b424b446fe60a38&#45;&gt;dir_d7a24015de3ad3397ba9b230e38f5b53</title>
<path fill="none" stroke="black" d="M170.96,-71.7C161.94,-63.05 150.88,-52.45 141.06,-43.03"/>
<polygon fill="black" stroke="black" points="143.48,-40.5 133.84,-36.1 138.63,-45.55 143.48,-40.5"/>
<g id="a_edge2&#45;headlabel"><a xlink:href="dir_000006_000000.html" target="_top" xlink:title="3">
<text text-anchor="middle" x="148.04" y="-38.44" font-family="Helvetica,sans-Serif" font-size="10.00">3</text>
</a>
</g>
</g>
<!-- dir_8a2dc5f0f79dfe7c8778349800128187 -->
<g id="node3" class="node">
<title>dir_8a2dc5f0f79dfe7c8778349800128187</title>
<g id="a_node3"><a xlink:href="dir_8a2dc5f0f79dfe7c8778349800128187.html" target="_top" xlink:title="Platform">
<polygon fill="white" stroke="red" points="144,-108 90,-108 90,-72 144,-72 144,-108"/>
<text text-anchor="middle" x="117" y="-87.5" font-family="Helvetica,sans-Serif" font-size="10.00">Platform</text>
</a>
</g>
</g>
<!-- dir_ed76cf27bbc7a032c9b242c87067a4fc -->
<g id="node4" class="node">
<title>dir_ed76cf27bbc7a032c9b242c87067a4fc</title>
<g id="a_node4"><a xlink:href="dir_ed76cf27bbc7a032c9b242c87067a4fc.html" target="_top" xlink:title="Topology">
<polygon fill="white" stroke="black" points="72,-108 16,-108 16,-72 72,-72 72,-108"/>
<text text-anchor="middle" x="44" y="-87.5" font-family="Helvetica,sans-Serif" font-size="10.00">Topology</text>
</a>
</g>
</g>
<!-- dir_ed76cf27bbc7a032c9b242c87067a4fc&#45;&gt;dir_d7a24015de3ad3397ba9b230e38f5b53 -->
<g id="edge1" class="edge">
<title>dir_ed76cf27bbc7a032c9b242c87067a4fc&#45;&gt;dir_d7a24015de3ad3397ba9b230e38f5b53</title>
<path fill="none" stroke="black" d="M61.8,-71.7C70.6,-63.14 81.38,-52.66 91,-43.3"/>
<polygon fill="black" stroke="black" points="93.68,-45.58 98.41,-36.1 88.8,-40.57 93.68,-45.58"/>
<g id="a_edge1&#45;headlabel"><a xlink:href="dir_000005_000000.html" target="_top" xlink:title="9">
<text text-anchor="middle" x="93.08" y="-47.63" font-family="Helvetica,sans-Serif" font-size="10.00">9</text>
</a>
</g>
</g>
</g>
</svg>
