<?xml version="1.0" encoding="UTF-8" standalone="no"?>
<!DOCTYPE svg PUBLIC "-//W3C//DTD SVG 1.1//EN"
 "http://www.w3.org/Graphics/SVG/1.1/DTD/svg11.dtd">
<!-- Generated by graphviz version 6.0.1 (20220911.1526)
 -->
<!-- Title: TI Pages: 1 -->
<svg width="204pt" height="132pt"
 viewBox="0.00 0.00 204.00 132.00" xmlns="http://www.w3.org/2000/svg" xmlns:xlink="http://www.w3.org/1999/xlink">
<g id="graph0" class="graph" transform="scale(1 1) rotate(0) translate(4 128)">
<title>TI</title>
<polygon fill="white" stroke="none" points="-4,4 -4,-128 200,-128 200,4 -4,4"/>
<g id="clust1" class="cluster">
<title>clusterdir_3b498c29aaebc2610560e78ad9e8bd5b</title>
<g id="a_clust1"><a xlink:href="dir_3b498c29aaebc2610560e78ad9e8bd5b.html" target="_top">
<polygon fill="#eeeeff" stroke="black" points="8,-64 8,-116 188,-116 188,-64 8,-64"/>
</a>
</g>
</g>
<!-- dir_3b498c29aaebc2610560e78ad9e8bd5b -->
<g id="node1" class="node">
<title>dir_3b498c29aaebc2610560e78ad9e8bd5b</title>
<text text-anchor="middle" x="153" y="-87.5" font-family="Helvetica,sans-Serif" font-size="10.00">TI</text>
</g>
<!-- dir_6a5af44a8a9e02696f0c161a8e3cb644 -->
<g id="node2" class="node">
<title>dir_6a5af44a8a9e02696f0c161a8e3cb644</title>
<g id="a_node2"><a xlink:href="dir_6a5af44a8a9e02696f0c161a8e3cb644.html" target="_top" xlink:title="SignalProcessing">
<polygon fill="white" stroke="black" points="108,-108 16,-108 16,-72 108,-72 108,-108"/>
<text text-anchor="middle" x="62" y="-87.5" font-family="Helvetica,sans-Serif" font-size="10.00">SignalProcessing</text>
</a>
</g>
</g>
<!-- dir_d7a24015de3ad3397ba9b230e38f5b53 -->
<g id="node3" class="node">
<title>dir_d7a24015de3ad3397ba9b230e38f5b53</title>
<g id="a_node3"><a xlink:href="dir_d7a24015de3ad3397ba9b230e38f5b53.html" target="_top" xlink:title="Interfaces">
<polygon fill="none" stroke="black" points="92,-36 32,-36 32,0 92,0 92,-36"/>
<text text-anchor="middle" x="62" y="-15.5" font-family="Helvetica,sans-Serif" font-size="10.00">Interfaces</text>
</a>
</g>
</g>
<!-- dir_6a5af44a8a9e02696f0c161a8e3cb644&#45;&gt;dir_d7a24015de3ad3397ba9b230e38f5b53 -->
<g id="edge1" class="edge">
<title>dir_6a5af44a8a9e02696f0c161a8e3cb644&#45;&gt;dir_d7a24015de3ad3397ba9b230e38f5b53</title>
<path fill="none" stroke="black" d="M62,-71.7C62,-63.98 62,-54.71 62,-46.11"/>
<polygon fill="black" stroke="black" points="65.5,-46.1 62,-36.1 58.5,-46.1 65.5,-46.1"/>
<g id="a_edge1&#45;headlabel"><a xlink:href="dir_000003_000000.html" target="_top" xlink:title="4">
<text text-anchor="middle" x="68.34" y="-47.2" font-family="Helvetica,sans-Serif" font-size="10.00">4</text>
</a>
</g>
</g>
</g>
</svg>
