<?xml version="1.0" encoding="UTF-8" standalone="no"?>
<!DOCTYPE svg PUBLIC "-//W3C//DTD SVG 1.1//EN"
 "http://www.w3.org/Graphics/SVG/1.1/DTD/svg11.dtd">
<!-- Generated by graphviz version 2.47.3 (20210619.1520)
 -->
<!-- Title: Topology Pages: 1 -->
<svg width="96pt" height="151pt"
 viewBox="0.00 0.00 96.00 151.00" xmlns="http://www.w3.org/2000/svg" xmlns:xlink="http://www.w3.org/1999/xlink">
<g id="graph0" class="graph" transform="scale(1 1) rotate(0) translate(4 147)">
<title>Topology</title>
<polygon fill="white" stroke="transparent" points="-4,4 -4,-147 92,-147 92,4 -4,4"/>
<g id="clust1" class="cluster">
<title>clusterdir_d7fae9a3fd56a9d342acf337a7814969</title>
<g id="a_clust1"><a xlink:href="dir_d7fae9a3fd56a9d342acf337a7814969.html" target="_top" xlink:title="Extensions">
<polygon fill="#ddddee" stroke="black" points="8,-64 8,-135 80,-135 80,-64 8,-64"/>
<text text-anchor="middle" x="44" y="-123" font-family="Helvetica,sans-Serif" font-size="10.00">Extensions</text>
</a>
</g>
</g>
<!-- dir_ed76cf27bbc7a032c9b242c87067a4fc -->
<g id="node1" class="node">
<title>dir_ed76cf27bbc7a032c9b242c87067a4fc</title>
<g id="a_node1"><a xlink:href="dir_ed76cf27bbc7a032c9b242c87067a4fc.html" target="_top" xlink:title="Topology">
<polygon fill="#eeeeff" stroke="black" points="72,-108 16,-108 16,-72 72,-72 72,-108"/>
<text text-anchor="middle" x="44" y="-87.5" font-family="Helvetica,sans-Serif" font-size="10.00">Topology</text>
</a>
</g>
</g>
<!-- dir_d7a24015de3ad3397ba9b230e38f5b53 -->
<g id="node2" class="node">
<title>dir_d7a24015de3ad3397ba9b230e38f5b53</title>
<g id="a_node2"><a xlink:href="dir_d7a24015de3ad3397ba9b230e38f5b53.html" target="_top" xlink:title="Interfaces">
<polygon fill="none" stroke="black" points="74,-36 14,-36 14,0 74,0 74,-36"/>
<text text-anchor="middle" x="44" y="-15.5" font-family="Helvetica,sans-Serif" font-size="10.00">Interfaces</text>
</a>
</g>
</g>
<!-- dir_ed76cf27bbc7a032c9b242c87067a4fc&#45;&gt;dir_d7a24015de3ad3397ba9b230e38f5b53 -->
<g id="edge1" class="edge">
<title>dir_ed76cf27bbc7a032c9b242c87067a4fc&#45;&gt;dir_d7a24015de3ad3397ba9b230e38f5b53</title>
<path fill="none" stroke="black" d="M44,-71.7C44,-63.98 44,-54.71 44,-46.11"/>
<polygon fill="black" stroke="black" points="47.5,-46.1 44,-36.1 40.5,-46.1 47.5,-46.1"/>
<g id="a_edge1&#45;headlabel"><a xlink:href="dir_000005_000000.html" target="_top" xlink:title="9">
<text text-anchor="middle" x="50.34" y="-47.2" font-family="Helvetica,sans-Serif" font-size="10.00">9</text>
</a>
</g>
</g>
</g>
</svg>
