<?xml version="1.0" encoding="UTF-8" standalone="no"?>
<!DOCTYPE svg PUBLIC "-//W3C//DTD SVG 1.1//EN"
 "http://www.w3.org/Graphics/SVG/1.1/DTD/svg11.dtd">
<!-- Generated by graphviz version 2.47.3 (20210619.1520)
 -->
<!-- Title: aax_ieffectparams_related Pages: 1 -->
<svg width="399pt" height="191pt"
 viewBox="0.00 0.00 399.00 191.00" xmlns="http://www.w3.org/2000/svg" xmlns:xlink="http://www.w3.org/1999/xlink">
<g id="graph0" class="graph" transform="scale(1 1) rotate(0) translate(4 187)">
<title>aax_ieffectparams_related</title>
<polygon fill="white" stroke="transparent" points="-4,4 -4,-187 395,-187 395,4 -4,4"/>
<!-- iacfdata -->
<g id="node1" class="node">
<title>iacfdata</title>
<g id="a_node1"><a xlink:href="a01953.html" target="_top" xlink:title="AAX_IACFEffectParameters">
<polygon fill="none" stroke="black" points="0,-146.5 0,-182.5 142,-182.5 142,-146.5 0,-146.5"/>
<text text-anchor="middle" x="71" y="-162" font-family="Helvetica,sans-Serif" font-size="10.00">AAX_IACFEffectParameters</text>
</a>
</g>
</g>
<!-- idata -->
<g id="node2" class="node">
<title>idata</title>
<g id="a_node2"><a xlink:href="a02113.html" target="_top" xlink:title="AAX_IEffectParameters">
<polygon fill="none" stroke="black" points="10,-73.5 10,-109.5 132,-109.5 132,-73.5 10,-73.5"/>
<text text-anchor="middle" x="71" y="-89" font-family="Helvetica,sans-Serif" font-size="10.00">AAX_IEffectParameters</text>
</a>
</g>
</g>
<!-- idata&#45;&gt;iacfdata -->
<g id="edge4" class="edge">
<title>idata&#45;&gt;iacfdata</title>
<path fill="none" stroke="black" d="M71,-109.69C71,-117.71 71,-127.45 71,-136.43"/>
<polygon fill="black" stroke="black" points="67.5,-136.47 71,-146.47 74.5,-136.47 67.5,-136.47"/>
</g>
<!-- cdata -->
<g id="node3" class="node">
<title>cdata</title>
<g id="a_node3"><a xlink:href="a01761.html" target="_top" xlink:title="AAX_CEffectParameters">
<polygon fill="none" stroke="black" points="134,-0.5 134,-36.5 260,-36.5 260,-0.5 134,-0.5"/>
<text text-anchor="middle" x="197" y="-16" font-family="Helvetica,sans-Serif" font-size="10.00">AAX_CEffectParameters</text>
</a>
</g>
</g>
<!-- cdata&#45;&gt;idata -->
<g id="edge1" class="edge">
<title>cdata&#45;&gt;idata</title>
<path fill="none" stroke="black" d="M166.82,-36.51C149.96,-46.01 128.74,-57.96 110.56,-68.21"/>
<polygon fill="black" stroke="black" points="108.36,-65.43 101.37,-73.39 111.8,-71.53 108.36,-65.43"/>
</g>
<!-- iplugin -->
<g id="node5" class="node">
<title>iplugin</title>
<g id="a_node5"><a xlink:href="a02077.html" target="_top" xlink:title="AAX_IController">
<polygon fill="none" stroke="black" points="151.5,-73.5 151.5,-109.5 238.5,-109.5 238.5,-73.5 151.5,-73.5"/>
<text text-anchor="middle" x="195" y="-89" font-family="Helvetica,sans-Serif" font-size="10.00">AAX_IController</text>
</a>
</g>
</g>
<!-- cdata&#45;&gt;iplugin -->
<g id="edge2" class="edge">
<title>cdata&#45;&gt;iplugin</title>
<path fill="none" stroke="black" stroke-dasharray="5,2" d="M196.52,-36.69C196.29,-44.71 196.02,-54.45 195.76,-63.43"/>
<polygon fill="black" stroke="black" points="195.48,-73.47 191.26,-63.35 195.62,-68.47 195.76,-63.48 195.76,-63.48 195.76,-63.48 195.62,-68.47 200.26,-63.6 195.48,-73.47 195.48,-73.47"/>
</g>
<!-- iauto -->
<g id="node6" class="node">
<title>iauto</title>
<g id="a_node6"><a xlink:href="a02061.html" target="_top" xlink:title="AAX_IAutomationDelegate">
<polygon fill="none" stroke="black" points="257,-73.5 257,-109.5 391,-109.5 391,-73.5 257,-73.5"/>
<text text-anchor="middle" x="324" y="-89" font-family="Helvetica,sans-Serif" font-size="10.00">AAX_IAutomationDelegate</text>
</a>
</g>
</g>
<!-- cdata&#45;&gt;iauto -->
<g id="edge3" class="edge">
<title>cdata&#45;&gt;iauto</title>
<path fill="none" stroke="black" stroke-dasharray="5,2" d="M227.42,-36.51C244.57,-46.1 266.19,-58.18 284.63,-68.49"/>
<polygon fill="black" stroke="black" points="293.39,-73.39 282.46,-72.43 289.02,-70.95 284.66,-68.51 284.66,-68.51 284.66,-68.51 289.02,-70.95 286.86,-64.58 293.39,-73.39 293.39,-73.39"/>
</g>
<!-- cgui -->
<g id="node4" class="node">
<title>cgui</title>
<g id="a_node4"><a xlink:href="a01757.html" target="_top" xlink:title="AAX_CEffectGUI">
<polygon fill="none" stroke="black" points="22,-0.5 22,-36.5 116,-36.5 116,-0.5 22,-0.5"/>
<text text-anchor="middle" x="69" y="-16" font-family="Helvetica,sans-Serif" font-size="10.00">AAX_CEffectGUI</text>
</a>
</g>
</g>
<!-- cgui&#45;&gt;idata -->
<g id="edge5" class="edge">
<title>cgui&#45;&gt;idata</title>
<path fill="none" stroke="black" stroke-dasharray="5,2" d="M69.48,-36.69C69.71,-44.71 69.98,-54.45 70.24,-63.43"/>
<polygon fill="black" stroke="black" points="70.52,-73.47 65.74,-63.6 70.38,-68.47 70.24,-63.48 70.24,-63.48 70.24,-63.48 70.38,-68.47 74.74,-63.35 70.52,-73.47 70.52,-73.47"/>
</g>
</g>
</svg>
