<?xml version="1.0" encoding="UTF-8" standalone="no"?>
<!DOCTYPE svg PUBLIC "-//W3C//DTD SVG 1.1//EN"
 "http://www.w3.org/Graphics/SVG/1.1/DTD/svg11.dtd">
<!-- Generated by graphviz version 6.0.1 (20220911.1526)
 -->
<!-- Title: aax_cparammgr_contained Pages: 1 -->
<svg width="436pt" height="184pt"
 viewBox="0.00 0.00 436.00 184.00" xmlns="http://www.w3.org/2000/svg" xmlns:xlink="http://www.w3.org/1999/xlink">
<g id="graph0" class="graph" transform="scale(1 1) rotate(0) translate(4 180)">
<title>aax_cparammgr_contained</title>
<polygon fill="white" stroke="none" points="-4,4 -4,-180 432,-180 432,4 -4,4"/>
<g id="clust1" class="cluster">
<title>cluster_parammgr</title>
<g id="a_clust1"><a xlink:href="a01825.html" target="_top" xlink:title="AAX_CParameterManager">
<polygon fill="none" stroke="black" points="138,-92 138,-168 317,-168 317,-92 138,-92"/>
<text text-anchor="middle" x="227.5" y="-152.8" font-family="Helvetica,sans-Serif" font-size="14.00">AAX_CParameterManager</text>
</a>
</g>
</g>
<g id="clust2" class="cluster">
<title>cluster_cparam2</title>
<g id="a_clust2"><a xlink:href="a01817.html" target="_top" xlink:title="AAX_CParameter">
<polygon fill="none" stroke="black" points="8,-8 8,-84 420,-84 420,-8 8,-8"/>
<text text-anchor="middle" x="214" y="-68.8" font-family="Helvetica,sans-Serif" font-size="14.00">AAX_CParameter</text>
</a>
</g>
</g>
<!-- structparams -->
<g id="node1" class="node">
<title>structparams</title>
<g id="a_node1"><a xlink:href="a02145.html" target="_top" xlink:title="&lt;f0&gt;...|&lt;f1&gt;AAX_IParameter|&lt;f2&gt;...">
<polygon fill="none" stroke="black" points="156,-100.5 156,-136.5 298,-136.5 298,-100.5 156,-100.5"/>
<text text-anchor="middle" x="169" y="-116" font-family="Helvetica,sans-Serif" font-size="10.00">...</text>
<polyline fill="none" stroke="black" points="182,-100.5 182,-136.5"/>
<text text-anchor="middle" x="227" y="-116" font-family="Helvetica,sans-Serif" font-size="10.00">AAX_IParameter</text>
<polyline fill="none" stroke="black" points="272,-100.5 272,-136.5"/>
<text text-anchor="middle" x="285" y="-116" font-family="Helvetica,sans-Serif" font-size="10.00">...</text>
</a>
</g>
</g>
<!-- idisplaydel -->
<g id="node3" class="node">
<title>idisplaydel</title>
<g id="a_node3"><a xlink:href="a02089.html" target="_top" xlink:title="AAX_IDisplayDelegate">
<polygon fill="none" stroke="black" points="168.5,-16.5 168.5,-52.5 285.5,-52.5 285.5,-16.5 168.5,-16.5"/>
<text text-anchor="middle" x="227" y="-32" font-family="Helvetica,sans-Serif" font-size="10.00">AAX_IDisplayDelegate</text>
</a>
</g>
</g>
<!-- structparams&#45;&gt;idisplaydel -->
<g id="edge1" class="edge">
<title>structparams:f1&#45;&gt;idisplaydel</title>
<path fill="none" stroke="black" d="M227,-99.5C227,-94.48 227,-89.23 227,-84"/>
</g>
<!-- itaperdel -->
<g id="node2" class="node">
<title>itaperdel</title>
<g id="a_node2"><a xlink:href="a02169.html" target="_top" xlink:title="AAX_ITaperDelegate">
<polygon fill="none" stroke="black" points="304,-16.5 304,-52.5 412,-52.5 412,-16.5 304,-16.5"/>
<text text-anchor="middle" x="358" y="-32" font-family="Helvetica,sans-Serif" font-size="10.00">AAX_ITaperDelegate</text>
</a>
</g>
</g>
<!-- iautodel -->
<g id="node4" class="node">
<title>iautodel</title>
<g id="a_node4"><a xlink:href="a02061.html" target="_top" xlink:title="AAX_IAutomationDelegate">
<polygon fill="none" stroke="black" points="16,-16.5 16,-52.5 150,-52.5 150,-16.5 16,-16.5"/>
<text text-anchor="middle" x="83" y="-32" font-family="Helvetica,sans-Serif" font-size="10.00">AAX_IAutomationDelegate</text>
</a>
</g>
</g>
</g>
</svg>
