<?xml version="1.0" encoding="UTF-8" standalone="no"?>
<!DOCTYPE svg PUBLIC "-//W3C//DTD SVG 1.1//EN"
 "http://www.w3.org/Graphics/SVG/1.1/DTD/svg11.dtd">
<!-- Generated by graphviz version 2.47.3 (20210619.1520)
 -->
<!-- Title: aax_acf_versioning Pages: 1 -->
<svg width="752pt" height="555pt"
 viewBox="0.00 0.00 751.76 555.00" xmlns="http://www.w3.org/2000/svg" xmlns:xlink="http://www.w3.org/1999/xlink">
<g id="graph0" class="graph" transform="scale(1 1) rotate(0) translate(4 551)">
<title>aax_acf_versioning</title>
<polygon fill="white" stroke="transparent" points="-4,4 -4,-551 747.76,-551 747.76,4 -4,4"/>
<g id="clust1" class="cluster">
<title>cluster_plugin</title>
<g id="a_clust1"><a xlink:href="a00813.html" target="_top" xlink:title="AAX Effect">
<polygon fill="none" stroke="lightgrey" points="10.76,-8 10.76,-266 262.76,-266 262.76,-8 10.76,-8"/>
<text text-anchor="middle" x="136.76" y="-15.8" font-family="Helvetica,sans-Serif" font-size="14.00">AAX Effect</text>
</a>
</g>
</g>
<g id="clust2" class="cluster">
<title>cluster_host</title>
<polygon fill="none" stroke="lightgrey" points="496.76,-190 496.76,-357 735.76,-357 735.76,-190 496.76,-190"/>
<text text-anchor="middle" x="616.26" y="-197.8" font-family="Helvetica,sans-Serif" font-size="14.00">AAX Host</text>
</g>
<g id="clust3" class="cluster">
<title>cluster_acfinterfaces</title>
<polygon fill="none" stroke="lightgrey" points="177.76,-281 177.76,-448 485.76,-448 485.76,-281 177.76,-281"/>
<text text-anchor="middle" x="331.76" y="-288.8" font-family="Helvetica,sans-Serif" font-size="14.00">AAX ACF Interfaces</text>
</g>
<g id="clust4" class="cluster">
<title>cluster_acf</title>
<polygon fill="none" stroke="lightgrey" points="169.76,-463 169.76,-539 371.76,-539 371.76,-463 169.76,-463"/>
<text text-anchor="middle" x="270.76" y="-470.8" font-family="Helvetica,sans-Serif" font-size="14.00">ACF</text>
</g>
<!-- iacfunknown -->
<g id="node1" class="node">
<title>iacfunknown</title>
<g id="a_node1"><a xlink:href="a01689.html" target="_top" xlink:title="IACFUnknown">
<polygon fill="none" stroke="black" points="282.26,-494.5 282.26,-530.5 363.26,-530.5 363.26,-494.5 282.26,-494.5"/>
<text text-anchor="middle" x="322.76" y="-510" font-family="Helvetica,sans-Serif" font-size="10.00">IACFUnknown</text>
</a>
</g>
</g>
<!-- cacfunknown -->
<g id="node2" class="node">
<title>cacfunknown</title>
<polygon fill="none" stroke="black" points="177.76,-494.5 177.76,-530.5 263.76,-530.5 263.76,-494.5 177.76,-494.5"/>
<text text-anchor="middle" x="220.76" y="-510" font-family="Helvetica,sans-Serif" font-size="10.00">CACFUnknown</text>
</g>
<!-- iacfdata -->
<g id="node3" class="node">
<title>iacfdata</title>
<g id="a_node3"><a xlink:href="a01953.html" target="_top" xlink:title="AAX_IACFEffectParameters">
<polygon fill="none" stroke="black" points="323.76,-403.5 323.76,-439.5 465.76,-439.5 465.76,-403.5 323.76,-403.5"/>
<text text-anchor="middle" x="394.76" y="-419" font-family="Helvetica,sans-Serif" font-size="10.00">AAX_IACFEffectParameters</text>
</a>
</g>
</g>
<!-- iacfdata&#45;&gt;iacfunknown -->
<g id="edge15" class="edge">
<title>iacfdata&#45;&gt;iacfunknown</title>
<path fill="none" stroke="black" d="M380.87,-439.66C370.12,-452.96 355.06,-471.57 342.96,-486.52"/>
<polygon fill="none" stroke="black" points="340.16,-484.42 336.6,-494.39 345.61,-488.82 340.16,-484.42"/>
</g>
<!-- iacfdata2 -->
<g id="node4" class="node">
<title>iacfdata2</title>
<polygon fill="none" stroke="black" points="185.76,-312.5 185.76,-348.5 339.76,-348.5 339.76,-312.5 185.76,-312.5"/>
<text text-anchor="middle" x="262.76" y="-328" font-family="Helvetica,sans-Serif" font-size="10.00">AAX_IACFEffectParametersV2</text>
</g>
<!-- iacfdata2&#45;&gt;iacfdata -->
<g id="edge8" class="edge">
<title>iacfdata2&#45;&gt;iacfdata</title>
<path fill="none" stroke="black" d="M288.21,-348.66C308.93,-362.63 338.37,-382.48 361.05,-397.78"/>
<polygon fill="none" stroke="black" points="359.13,-400.7 369.38,-403.39 363.05,-394.9 359.13,-400.7"/>
</g>
<!-- idata -->
<g id="node5" class="node">
<title>idata</title>
<g id="a_node5"><a xlink:href="a02113.html" target="_top" xlink:title="AAX_IEffectParameters">
<polygon fill="none" stroke="black" points="130.76,-221.5 130.76,-257.5 252.76,-257.5 252.76,-221.5 130.76,-221.5"/>
<text text-anchor="middle" x="191.76" y="-237" font-family="Helvetica,sans-Serif" font-size="10.00">AAX_IEffectParameters</text>
</a>
</g>
</g>
<!-- idata&#45;&gt;cacfunknown -->
<g id="edge16" class="edge">
<title>idata&#45;&gt;cacfunknown</title>
<path fill="none" stroke="black" d="M182.2,-257.7C178.83,-264.71 175.45,-273.02 173.76,-281 158.35,-353.61 150.51,-377.51 173.76,-448 178.41,-462.12 187.55,-475.66 196.54,-486.59"/>
<polygon fill="none" stroke="black" points="194.11,-489.13 203.31,-494.4 199.4,-484.55 194.11,-489.13"/>
</g>
<!-- idata&#45;&gt;iacfdata2 -->
<g id="edge7" class="edge">
<title>idata&#45;&gt;iacfdata2</title>
<path fill="none" stroke="black" d="M205.44,-257.66C216.05,-270.96 230.9,-289.57 242.83,-304.52"/>
<polygon fill="none" stroke="black" points="240.14,-306.76 249.11,-312.39 245.61,-302.39 240.14,-306.76"/>
</g>
<!-- cdata -->
<g id="node6" class="node">
<title>cdata</title>
<g id="a_node6"><a xlink:href="a01761.html" target="_top" xlink:title="AAX_CEffectParameters">
<polygon fill="none" stroke="black" points="128.76,-130.5 128.76,-166.5 254.76,-166.5 254.76,-130.5 128.76,-130.5"/>
<text text-anchor="middle" x="191.76" y="-146" font-family="Helvetica,sans-Serif" font-size="10.00">AAX_CEffectParameters</text>
</a>
</g>
</g>
<!-- cdata&#45;&gt;idata -->
<g id="edge1" class="edge">
<title>cdata&#45;&gt;idata</title>
<path fill="none" stroke="black" d="M191.76,-166.66C191.76,-179.22 191.76,-196.52 191.76,-211"/>
<polygon fill="none" stroke="black" points="188.26,-211.39 191.76,-221.39 195.26,-211.39 188.26,-211.39"/>
</g>
<!-- icontroller -->
<g id="node10" class="node">
<title>icontroller</title>
<g id="a_node10"><a xlink:href="a02077.html" target="_top" xlink:title="AAX_IController">
<polygon fill="none" stroke="black" points="21.26,-221.5 21.26,-257.5 108.26,-257.5 108.26,-221.5 21.26,-221.5"/>
<text text-anchor="middle" x="64.76" y="-237" font-family="Helvetica,sans-Serif" font-size="10.00">AAX_IController</text>
</a>
</g>
</g>
<!-- cdata&#45;&gt;icontroller -->
<g id="edge3" class="edge">
<title>cdata&#45;&gt;icontroller</title>
<path fill="none" stroke="black" stroke-dasharray="5,2" d="M148.8,-172.71C139.68,-178.09 130.25,-184.01 121.76,-190 111.14,-197.49 100.12,-206.53 90.63,-214.77"/>
<polygon fill="none" stroke="black" points="148.89,-172.66 152.1,-166.2 159.29,-166.67 156.09,-173.13 148.89,-172.66"/>
<polygon fill="black" stroke="black" points="83.07,-221.44 87.59,-211.45 86.82,-218.14 90.56,-214.83 90.56,-214.83 90.56,-214.83 86.82,-218.14 93.54,-218.2 83.07,-221.44 83.07,-221.44"/>
</g>
<!-- mydata -->
<g id="node7" class="node">
<title>mydata</title>
<polygon fill="none" stroke="gray" points="150.26,-39.5 150.26,-75.5 233.26,-75.5 233.26,-39.5 150.26,-39.5"/>
<text text-anchor="middle" x="191.76" y="-55" font-family="Helvetica,sans-Serif" font-size="10.00">My Data Model</text>
</g>
<!-- mydata&#45;&gt;cdata -->
<g id="edge2" class="edge">
<title>mydata&#45;&gt;cdata</title>
<path fill="none" stroke="black" d="M191.76,-75.66C191.76,-88.22 191.76,-105.52 191.76,-120"/>
<polygon fill="none" stroke="black" points="188.26,-120.39 191.76,-130.39 195.26,-120.39 188.26,-120.39"/>
</g>
<!-- iacfcontroller -->
<g id="node8" class="node">
<title>iacfcontroller</title>
<g id="a_node8"><a xlink:href="a01917.html" target="_top" xlink:title="AAX_IACFController">
<polygon fill="none" stroke="black" points="198.26,-403.5 198.26,-439.5 305.26,-439.5 305.26,-403.5 198.26,-403.5"/>
<text text-anchor="middle" x="251.76" y="-419" font-family="Helvetica,sans-Serif" font-size="10.00">AAX_IACFController</text>
</a>
</g>
</g>
<!-- iacfcontroller&#45;&gt;iacfunknown -->
<g id="edge17" class="edge">
<title>iacfcontroller&#45;&gt;iacfunknown</title>
<path fill="none" stroke="black" d="M265.44,-439.66C276.05,-452.96 290.9,-471.57 302.83,-486.52"/>
<polygon fill="none" stroke="black" points="300.14,-488.76 309.11,-494.39 305.61,-484.39 300.14,-488.76"/>
</g>
<!-- iacfcontroller2 -->
<g id="node9" class="node">
<title>iacfcontroller2</title>
<polygon fill="none" stroke="black" points="358.26,-312.5 358.26,-348.5 477.26,-348.5 477.26,-312.5 358.26,-312.5"/>
<text text-anchor="middle" x="417.76" y="-328" font-family="Helvetica,sans-Serif" font-size="10.00">AAX_IACFControllerV2</text>
</g>
<!-- iacfcontroller2&#45;&gt;iacfcontroller -->
<g id="edge12" class="edge">
<title>iacfcontroller2&#45;&gt;iacfcontroller</title>
<path fill="none" stroke="black" d="M385.75,-348.66C359.22,-362.88 321.36,-383.18 292.64,-398.58"/>
<polygon fill="none" stroke="black" points="290.82,-395.58 283.66,-403.39 294.13,-401.75 290.82,-395.58"/>
</g>
<!-- vcontroller -->
<g id="node11" class="node">
<title>vcontroller</title>
<polygon fill="none" stroke="black" points="19.26,-130.5 19.26,-166.5 110.26,-166.5 110.26,-130.5 19.26,-130.5"/>
<text text-anchor="middle" x="64.76" y="-146" font-family="Helvetica,sans-Serif" font-size="10.00">AAX_VController</text>
</g>
<!-- vcontroller&#45;&gt;iacfcontroller -->
<g id="edge9" class="edge">
<title>vcontroller&#45;&gt;iacfcontroller</title>
<path fill="none" stroke="black" stroke-dasharray="5,2" d="M23.38,-174.52C18.7,-179.08 14.6,-184.24 11.76,-190 -3.21,-220.28 -4.42,-236.35 11.76,-266 49.07,-334.4 131.1,-377.07 188.83,-399.8"/>
<polygon fill="none" stroke="black" points="23.72,-174.24 25.74,-167.31 32.91,-166.51 30.89,-173.44 23.72,-174.24"/>
<polygon fill="black" stroke="black" points="198.23,-403.42 187.28,-404.03 193.56,-401.62 188.9,-399.83 188.9,-399.83 188.9,-399.83 193.56,-401.62 190.51,-395.63 198.23,-403.42 198.23,-403.42"/>
</g>
<!-- vcontroller&#45;&gt;iacfcontroller2 -->
<g id="edge10" class="edge">
<title>vcontroller&#45;&gt;iacfcontroller2</title>
<path fill="none" stroke="black" stroke-dasharray="5,2" d="M122.59,-167.29C184.65,-179.73 207.43,-164.09 261.76,-190 318.95,-217.28 370.62,-272.14 397.75,-304.34"/>
<polygon fill="none" stroke="black" points="122.25,-167.21 115.52,-169.82 110.53,-164.62 117.25,-162.01 122.25,-167.21"/>
<polygon fill="black" stroke="black" points="404.42,-312.39 394.57,-307.56 401.23,-308.54 398.04,-304.69 398.04,-304.69 398.04,-304.69 401.23,-308.54 401.51,-301.82 404.42,-312.39 404.42,-312.39"/>
</g>
<!-- vcontroller&#45;&gt;icontroller -->
<g id="edge4" class="edge">
<title>vcontroller&#45;&gt;icontroller</title>
<path fill="none" stroke="black" d="M64.76,-166.66C64.76,-179.22 64.76,-196.52 64.76,-211"/>
<polygon fill="none" stroke="black" points="61.26,-211.39 64.76,-221.39 68.26,-211.39 61.26,-211.39"/>
</g>
<!-- host_idata -->
<g id="node12" class="node">
<title>host_idata</title>
<polygon fill="none" stroke="black" points="534.26,-312.5 534.26,-348.5 663.26,-348.5 663.26,-312.5 534.26,-312.5"/>
<text text-anchor="middle" x="598.76" y="-328" font-family="Helvetica,sans-Serif" font-size="10.00">AAXH_IEffectParameters</text>
</g>
<!-- host_vdata -->
<g id="node13" class="node">
<title>host_vdata</title>
<polygon fill="none" stroke="black" points="505.26,-221.5 505.26,-257.5 638.26,-257.5 638.26,-221.5 505.26,-221.5"/>
<text text-anchor="middle" x="571.76" y="-237" font-family="Helvetica,sans-Serif" font-size="10.00">AAXH_VEffectParameters</text>
</g>
<!-- host_vdata&#45;&gt;iacfdata -->
<g id="edge13" class="edge">
<title>host_vdata&#45;&gt;iacfdata</title>
<path fill="none" stroke="black" stroke-dasharray="5,2" d="M539.94,-265.66C534.87,-270.45 529.92,-275.65 525.76,-281 502.43,-310.96 511.8,-328.47 486.76,-357 472.58,-373.15 453.46,-387.2 436.33,-397.96"/>
<polygon fill="none" stroke="black" points="540.11,-265.51 541.94,-258.53 549.08,-257.54 547.25,-264.51 540.11,-265.51"/>
<polygon fill="black" stroke="black" points="427.58,-403.27 433.79,-394.23 431.85,-400.68 436.13,-398.08 436.13,-398.08 436.13,-398.08 431.85,-400.68 438.46,-401.92 427.58,-403.27 427.58,-403.27"/>
</g>
<!-- host_vdata&#45;&gt;iacfdata2 -->
<g id="edge14" class="edge">
<title>host_vdata&#45;&gt;iacfdata2</title>
<path fill="none" stroke="black" stroke-dasharray="5,2" d="M493.02,-248.47C449.82,-254.42 395.83,-264.47 349.76,-281 331.52,-287.54 312.59,-297.64 297.06,-306.94"/>
<polygon fill="none" stroke="black" points="493.3,-248.44 498.72,-243.69 505.19,-246.87 499.77,-251.62 493.3,-248.44"/>
<polygon fill="black" stroke="black" points="288.34,-312.29 294.51,-303.22 292.6,-309.67 296.86,-307.06 296.86,-307.06 296.86,-307.06 292.6,-309.67 299.22,-310.9 288.34,-312.29 288.34,-312.29"/>
</g>
<!-- host_vdata&#45;&gt;host_idata -->
<g id="edge6" class="edge">
<title>host_vdata&#45;&gt;host_idata</title>
<path fill="none" stroke="black" d="M576.96,-257.66C580.81,-270.34 586.12,-287.86 590.54,-302.42"/>
<polygon fill="none" stroke="black" points="587.31,-303.84 593.57,-312.39 594.01,-301.81 587.31,-303.84"/>
</g>
<!-- hostplugin -->
<g id="node14" class="node">
<title>hostplugin</title>
<polygon fill="none" stroke="gray" points="656.26,-221.5 656.26,-257.5 727.26,-257.5 727.26,-221.5 656.26,-221.5"/>
<text text-anchor="middle" x="691.76" y="-237" font-family="Helvetica,sans-Serif" font-size="10.00">Host Plug&#45;In</text>
</g>
<!-- hostplugin&#45;&gt;cacfunknown -->
<g id="edge18" class="edge">
<title>hostplugin&#45;&gt;cacfunknown</title>
<path fill="none" stroke="black" d="M693.54,-257.77C695.14,-282.28 694.53,-327.48 672.76,-357 618.84,-430.1 577.41,-424.17 489.76,-448 443.32,-460.62 317.97,-444.03 273.76,-463 261.4,-468.3 250.05,-477.74 241.05,-486.89"/>
<polygon fill="none" stroke="black" points="238.31,-484.7 234.07,-494.41 243.44,-489.46 238.31,-484.7"/>
</g>
<!-- hostplugin&#45;&gt;iacfcontroller2 -->
<g id="edge11" class="edge">
<title>hostplugin&#45;&gt;iacfcontroller2</title>
<path fill="none" stroke="black" d="M666.56,-257.55C660.62,-260.87 654.14,-263.95 647.76,-266 581.86,-287.17 558.11,-258.23 492.76,-281 476.3,-286.73 459.84,-296.78 446.55,-306.25"/>
<polygon fill="none" stroke="black" points="444.27,-303.58 438.3,-312.33 448.43,-309.21 444.27,-303.58"/>
</g>
<!-- hostplugin&#45;&gt;host_idata -->
<g id="edge5" class="edge">
<title>hostplugin&#45;&gt;host_idata</title>
<path fill="none" stroke="black" stroke-dasharray="5,2" d="M664.72,-266.37C651.9,-278.64 636.68,-293.21 624.09,-305.26"/>
<polygon fill="none" stroke="black" points="665.15,-265.96 666.72,-258.92 673.82,-257.66 672.25,-264.7 665.15,-265.96"/>
<polygon fill="black" stroke="black" points="616.63,-312.39 620.75,-302.23 620.24,-308.94 623.86,-305.48 623.86,-305.48 623.86,-305.48 620.24,-308.94 626.97,-308.73 616.63,-312.39 616.63,-312.39"/>
</g>
</g>
</svg>
