<?xml version="1.0" encoding="UTF-8" standalone="no"?>
<!DOCTYPE svg PUBLIC "-//W3C//DTD SVG 1.1//EN"
 "http://www.w3.org/Graphics/SVG/1.1/DTD/svg11.dtd">
<!-- Generated by graphviz version 2.47.3 (20210619.1520)
 -->
<!-- Title: aax_ieffectparams_contained Pages: 1 -->
<svg width="464pt" height="100pt"
 viewBox="0.00 0.00 464.00 100.00" xmlns="http://www.w3.org/2000/svg" xmlns:xlink="http://www.w3.org/1999/xlink">
<g id="graph0" class="graph" transform="scale(1 1) rotate(0) translate(4 96)">
<title>aax_ieffectparams_contained</title>
<polygon fill="white" stroke="transparent" points="-4,4 -4,-96 460,-96 460,4 -4,4"/>
<g id="clust1" class="cluster">
<title>cluster_cdata</title>
<g id="a_clust1"><a xlink:href="a01761.html" target="_top" xlink:title="AAX_CEffectParameters">
<polygon fill="none" stroke="black" points="8,-8 8,-84 448,-84 448,-8 8,-8"/>
<text text-anchor="middle" x="228" y="-68.8" font-family="Helvetica,sans-Serif" font-size="14.00">AAX_CEffectParameters</text>
</a>
</g>
</g>
<!-- cparam -->
<g id="node1" class="node">
<title>cparam</title>
<g id="a_node1"><a xlink:href="a01825.html" target="_top" xlink:title="AAX_CParameterManager">
<polygon fill="none" stroke="black" points="308,-16.5 308,-52.5 440,-52.5 440,-16.5 308,-16.5"/>
<text text-anchor="middle" x="374" y="-32" font-family="Helvetica,sans-Serif" font-size="10.00">AAX_CParameterManager</text>
</a>
</g>
</g>
<!-- chunk -->
<g id="node2" class="node">
<title>chunk</title>
<g id="a_node2"><a xlink:href="a01741.html" target="_top" xlink:title="AAX_CChunkDataParser">
<polygon fill="none" stroke="black" points="162,-16.5 162,-52.5 290,-52.5 290,-16.5 162,-16.5"/>
<text text-anchor="middle" x="226" y="-32" font-family="Helvetica,sans-Serif" font-size="10.00">AAX_CChunkDataParser</text>
</a>
</g>
</g>
<!-- cpacket -->
<g id="node3" class="node">
<title>cpacket</title>
<g id="a_node3"><a xlink:href="a01809.html" target="_top" xlink:title="AAX_CPacketDispatcher">
<polygon fill="none" stroke="black" points="16,-16.5 16,-52.5 144,-52.5 144,-16.5 16,-16.5"/>
<text text-anchor="middle" x="80" y="-32" font-family="Helvetica,sans-Serif" font-size="10.00">AAX_CPacketDispatcher</text>
</a>
</g>
</g>
</g>
</svg>
