<?xml version="1.0" encoding="UTF-8" standalone="no"?>
<!DOCTYPE svg PUBLIC "-//W3C//DTD SVG 1.1//EN"
 "http://www.w3.org/Graphics/SVG/1.1/DTD/svg11.dtd">
<!-- Generated by graphviz version 6.0.1 (20220911.1526)
 -->
<!-- Title: aax_parameter_entities_curvalue Pages: 1 -->
<svg width="482pt" height="244pt"
 viewBox="0.00 0.00 482.00 244.00" xmlns="http://www.w3.org/2000/svg" xmlns:xlink="http://www.w3.org/1999/xlink">
<g id="graph0" class="graph" transform="scale(1 1) rotate(0) translate(4 240)">
<title>aax_parameter_entities_curvalue</title>
<polygon fill="white" stroke="none" points="-4,4 -4,-240 478,-240 478,4 -4,4"/>
<g id="clust1" class="cluster">
<title>cluster_view1</title>
<path fill="none" stroke="black" d="M20,-8C20,-8 182,-8 182,-8 188,-8 194,-14 194,-20 194,-20 194,-71 194,-71 194,-77 188,-83 182,-83 182,-83 20,-83 20,-83 14,-83 8,-77 8,-71 8,-71 8,-20 8,-20 8,-14 14,-8 20,-8"/>
<text text-anchor="middle" x="101" y="-15.8" font-family="Helvetica,sans-Serif" font-size="14.00">Client 1</text>
</g>
<g id="clust2" class="cluster">
<title>cluster_view2</title>
<path fill="none" stroke="black" d="M214,-8C214,-8 376,-8 376,-8 382,-8 388,-14 388,-20 388,-20 388,-71 388,-71 388,-77 382,-83 376,-83 376,-83 214,-83 214,-83 208,-83 202,-77 202,-71 202,-71 202,-20 202,-20 202,-14 208,-8 214,-8"/>
<text text-anchor="middle" x="295" y="-15.8" font-family="Helvetica,sans-Serif" font-size="14.00">Client 2</text>
</g>
<g id="clust3" class="cluster">
<title>cluster_view3</title>
<path fill="none" stroke="black" d="M408,-8C408,-8 454,-8 454,-8 460,-8 466,-14 466,-20 466,-20 466,-71 466,-71 466,-77 460,-83 454,-83 454,-83 408,-83 408,-83 402,-83 396,-77 396,-71 396,-71 396,-20 396,-20 396,-14 402,-8 408,-8"/>
<text text-anchor="middle" x="431" y="-15.8" font-family="Helvetica,sans-Serif" font-size="14.00">Client 3</text>
</g>
<!-- node_host -->
<g id="node1" class="node">
<title>node_host</title>
<polygon fill="none" stroke="black" points="259,-236 227.23,-218 259,-200 290.77,-218 259,-236"/>
<text text-anchor="middle" x="259" y="-215.5" font-family="Helvetica,sans-Serif" font-size="10.00">Host</text>
</g>
<!-- node_view1 -->
<g id="node3" class="node">
<title>node_view1</title>
<ellipse fill="salmon" stroke="black" cx="159" cy="-57" rx="27" ry="18"/>
<text text-anchor="middle" x="159" y="-54.5" font-family="Helvetica,sans-Serif" font-size="10.00">View</text>
</g>
<!-- node_host&#45;&#45;node_view1 -->
<g id="edge6" class="edge">
<title>node_host&#45;&#45;node_view1</title>
<g id="a_edge6"><a xlink:href="a01949.html#a45b468fef806611581f748af9301ab4d" target="_top" xlink:title="update\r(async)">
<path fill="none" stroke="black" d="M241.56,-209.64C219.91,-199.49 183.8,-178.97 167,-149 156.12,-129.6 154.76,-104.14 155.76,-85.09"/>
<polygon fill="black" stroke="black" points="159.26,-85.21 156.53,-74.97 152.28,-84.67 159.26,-85.21"/>
</a>
</g>
<g id="a_edge6&#45;label"><a xlink:href="a01949.html#a45b468fef806611581f748af9301ab4d" target="_top" xlink:title="update\r(async)">
<text text-anchor="end" x="207" y="-134.3" font-family="Times,serif" font-size="14.00">update</text>
<text text-anchor="middle" x="187" y="-119.3" font-family="Times,serif" font-size="14.00">(async)</text>
</a>
</g>
</g>
<!-- node_view2 -->
<g id="node5" class="node">
<title>node_view2</title>
<ellipse fill="salmon" stroke="black" cx="353" cy="-57" rx="27" ry="18"/>
<text text-anchor="middle" x="353" y="-54.5" font-family="Helvetica,sans-Serif" font-size="10.00">View</text>
</g>
<!-- node_host&#45;&#45;node_view2 -->
<g id="edge7" class="edge">
<title>node_host&#45;&#45;node_view2</title>
<g id="a_edge7"><a xlink:href="a01949.html#a45b468fef806611581f748af9301ab4d" target="_top" xlink:title="update\r(async)">
<path fill="none" stroke="black" d="M284.77,-214.3C305.18,-210.66 332.42,-202.1 346,-182 368.46,-148.76 319.89,-131.54 331,-93 332.11,-89.15 333.78,-85.32 335.71,-81.68"/>
<polygon fill="black" stroke="black" points="338.71,-83.49 340.9,-73.12 332.72,-79.86 338.71,-83.49"/>
</a>
</g>
<g id="a_edge7&#45;label"><a xlink:href="a01949.html#a45b468fef806611581f748af9301ab4d" target="_top" xlink:title="update\r(async)">
<text text-anchor="end" x="387" y="-134.3" font-family="Times,serif" font-size="14.00">update</text>
<text text-anchor="middle" x="367" y="-119.3" font-family="Times,serif" font-size="14.00">(async)</text>
</a>
</g>
</g>
<!-- node_view3 -->
<g id="node7" class="node">
<title>node_view3</title>
<ellipse fill="salmon" stroke="black" cx="431" cy="-57" rx="27" ry="18"/>
<text text-anchor="middle" x="431" y="-54.5" font-family="Helvetica,sans-Serif" font-size="10.00">View</text>
</g>
<!-- node_host&#45;&#45;node_view3 -->
<g id="edge8" class="edge">
<title>node_host&#45;&#45;node_view3</title>
<g id="a_edge8"><a xlink:href="a01949.html#a45b468fef806611581f748af9301ab4d" target="_top" xlink:title="update\r(async)">
<path fill="none" stroke="black" d="M281.82,-212.82C303.76,-208.02 337.18,-198.57 362,-182 395.94,-159.34 414.85,-114.08 423.97,-84.96"/>
<polygon fill="black" stroke="black" points="427.42,-85.62 426.89,-75.04 420.71,-83.64 427.42,-85.62"/>
</a>
</g>
<g id="a_edge8&#45;label"><a xlink:href="a01949.html#a45b468fef806611581f748af9301ab4d" target="_top" xlink:title="update\r(async)">
<text text-anchor="end" x="453" y="-134.3" font-family="Times,serif" font-size="14.00">update</text>
<text text-anchor="middle" x="433" y="-119.3" font-family="Times,serif" font-size="14.00">(async)</text>
</a>
</g>
</g>
<!-- node_parameterdata -->
<g id="node2" class="node">
<title>node_parameterdata</title>
<polygon fill="salmon" stroke="black" points="216,-112.5 216,-148.5 302,-148.5 302,-112.5 216,-112.5"/>
<text text-anchor="middle" x="259" y="-128" font-family="Helvetica,sans-Serif" font-size="10.00">Parameter Data</text>
</g>
<!-- node_parameterdata&#45;&#45;node_host -->
<!-- node_parameterdata&#45;&#45;node_host -->
<g id="edge5" class="edge">
<title>node_parameterdata&#45;&#45;node_host</title>
<g id="a_edge5"><a xlink:href="a02061.html#a20cb518bb470b6f4cadf58e4af64ac96" target="_top" xlink:title="current value">
<path fill="none" stroke="black" d="M265.96,-148.7C269.08,-158.42 271.71,-170.82 270,-182 269.44,-185.64 268.58,-189.41 267.57,-193.08"/>
<polygon fill="black" stroke="black" points="264.13,-192.34 264.5,-202.93 270.82,-194.42 264.13,-192.34"/>
</a>
</g>
<g id="a_edge5&#45;label"><a xlink:href="a02061.html#a20cb518bb470b6f4cadf58e4af64ac96" target="_top" xlink:title="current value">
<text text-anchor="middle" x="306" y="-170.8" font-family="Times,serif" font-size="14.00">current value</text>
</a>
</g>
</g>
<!-- node_viewcontroller1 -->
<g id="node4" class="node">
<title>node_viewcontroller1</title>
<ellipse fill="lightgrey" stroke="black" cx="65" cy="-57" rx="48.72" ry="18"/>
<text text-anchor="middle" x="65" y="-54.5" font-family="Helvetica,sans-Serif" font-size="10.00">View Controller</text>
</g>
<!-- node_viewcontroller1&#45;&#45;node_parameterdata -->
<!-- node_viewcontroller2 -->
<g id="node6" class="node">
<title>node_viewcontroller2</title>
<ellipse fill="lightgrey" stroke="black" cx="259" cy="-57" rx="48.72" ry="18"/>
<text text-anchor="middle" x="259" y="-54.5" font-family="Helvetica,sans-Serif" font-size="10.00">View Controller</text>
</g>
<!-- node_viewcontroller2&#45;&#45;node_parameterdata -->
<!-- node_view3&#45;&#45;node_parameterdata -->
</g>
</svg>
