<?xml version="1.0" encoding="UTF-8" standalone="no"?>
<!DOCTYPE svg PUBLIC "-//W3C//DTD SVG 1.1//EN"
 "http://www.w3.org/Graphics/SVG/1.1/DTD/svg11.dtd">
<!-- Generated by graphviz version 2.47.3 (20210619.1520)
 -->
<!-- Title: aax_alg_context Pages: 1 -->
<svg width="266pt" height="548pt"
 viewBox="0.00 0.00 266.00 548.00" xmlns="http://www.w3.org/2000/svg" xmlns:xlink="http://www.w3.org/1999/xlink">
<g id="graph0" class="graph" transform="scale(1 1) rotate(0) translate(4 544)">
<title>aax_alg_context</title>
<polygon fill="white" stroke="transparent" points="-4,4 -4,-544 262,-544 262,4 -4,4"/>
<!-- alg -->
<g id="node1" class="node">
<title>alg</title>
<g id="a_node1"><a xlink:href="a00812.html" target="_top" xlink:title="Algorithm callback">
<polygon fill="none" stroke="gray" points="69.61,-461.05 73.32,-461.15 77,-461.3 80.62,-461.49 84.17,-461.74 87.65,-462.03 91.02,-462.36 94.29,-462.75 97.43,-463.18 100.44,-463.65 103.31,-464.16 106.02,-464.71 108.58,-465.31 110.95,-465.94 113.15,-466.61 115.17,-467.31 117,-468.04 118.63,-468.8 120.07,-469.59 121.31,-470.41 122.35,-471.25 123.19,-472.11 123.84,-472.99 124.29,-473.89 124.55,-474.8 124.62,-475.72 124.5,-476.65 124.21,-477.59 123.74,-478.53 123.11,-479.47 122.32,-480.41 121.38,-481.35 120.29,-482.28 119.06,-483.2 117.71,-484.11 116.24,-485.01 114.65,-485.89 112.96,-486.75 111.18,-487.59 109.3,-488.41 107.35,-489.2 105.33,-489.96 103.24,-490.69 101.09,-491.39 98.89,-492.06 96.64,-492.69 94.35,-493.29 92.03,-493.84 89.68,-494.35 87.3,-494.82 84.9,-495.25 82.48,-495.64 80.04,-495.97 77.59,-496.26 75.13,-496.51 72.67,-496.7 70.2,-496.85 67.72,-496.95 65.24,-497 62.76,-497 60.28,-496.95 57.8,-496.85 55.33,-496.7 52.87,-496.51 50.41,-496.26 47.96,-495.97 45.52,-495.64 43.1,-495.25 40.7,-494.82 38.32,-494.35 35.97,-493.84 33.65,-493.29 31.36,-492.69 29.11,-492.06 26.91,-491.39 24.76,-490.69 22.67,-489.96 20.65,-489.2 18.7,-488.41 16.82,-487.59 15.04,-486.75 13.35,-485.89 11.76,-485.01 10.29,-484.11 8.94,-483.2 7.71,-482.28 6.62,-481.35 5.68,-480.41 4.89,-479.47 4.26,-478.53 3.79,-477.59 3.5,-476.65 3.38,-475.72 3.45,-474.8 3.71,-473.89 4.16,-472.99 4.81,-472.11 5.65,-471.25 6.69,-470.41 7.93,-469.59 9.37,-468.8 11,-468.04 12.83,-467.31 14.85,-466.61 17.05,-465.94 19.42,-465.31 21.98,-464.71 24.69,-464.16 27.56,-463.65 30.57,-463.18 33.71,-462.75 36.98,-462.36 40.35,-462.03 43.83,-461.74 47.38,-461.49 51,-461.3 54.68,-461.15 58.39,-461.05 62.13,-461 65.87,-461 69.61,-461.05"/>
<text text-anchor="middle" x="64" y="-476.5" font-family="Helvetica,sans-Serif" font-size="10.00">Algorithm callback</text>
</a>
</g>
</g>
<!-- icontext -->
<g id="node2" class="node">
<title>icontext</title>
<g id="a_node2"><a xlink:title="Custom context structure">
<polygon fill="lightgray" stroke="transparent" points="1,-423 1,-442 127,-442 127,-423 1,-423"/>
<text text-anchor="start" x="5" y="-431" font-family="Helvetica,sans-Serif" font-weight="bold" font-size="10.00">Custom context structure</text>
<text text-anchor="start" x="39.5" y="-411" font-family="Helvetica,sans-Serif" font-size="10.00">Audio input</text>
<text text-anchor="start" x="36.5" y="-392" font-family="Helvetica,sans-Serif" font-size="10.00">Audio output</text>
<text text-anchor="start" x="40.5" y="-373" font-family="Helvetica,sans-Serif" font-size="10.00">Meter taps</text>
<text text-anchor="start" x="37.5" y="-354" font-family="Helvetica,sans-Serif" font-size="10.00">Coefficients</text>
<text text-anchor="start" x="37.5" y="-335" font-family="Helvetica,sans-Serif" font-size="10.00">Coefficients</text>
<text text-anchor="start" x="36.5" y="-316" font-family="Helvetica,sans-Serif" font-size="10.00">Private Data</text>
<text text-anchor="start" x="36.5" y="-297" font-family="Helvetica,sans-Serif" font-size="10.00">Private Data</text>
<polygon fill="none" stroke="black" points="0,-289 0,-443 128,-443 128,-289 0,-289"/>
</a>
</g>
</g>
<!-- alg&#45;&gt;icontext -->
<g id="edge1" class="edge">
<title>alg&#45;&gt;icontext:head</title>
<path fill="none" stroke="black" d="M64,-443C64,-448.83 64,-455.21 64,-460.91"/>
</g>
<!-- audioin -->
<g id="node3" class="node">
<title>audioin</title>
<g id="a_node3"><a xlink:title="Custom context structure">
<polygon fill="none" stroke="black" points="186,-519 186,-540 196,-540 196,-519 186,-519"/>
<polygon fill="none" stroke="black" points="196,-519 196,-540 206,-540 206,-519 196,-519"/>
<polygon fill="none" stroke="black" points="206,-519 206,-540 216,-540 216,-519 206,-519"/>
<polygon fill="none" stroke="black" points="216,-519 216,-540 236,-540 236,-519 216,-519"/>
<text text-anchor="start" x="221" y="-527" font-family="Helvetica,sans-Serif" font-size="10.00">...</text>
<polygon fill="none" stroke="black" points="186,-498 186,-519 196,-519 196,-498 186,-498"/>
<polygon fill="none" stroke="black" points="196,-498 196,-519 206,-519 206,-498 196,-498"/>
<polygon fill="none" stroke="black" points="206,-498 206,-519 216,-519 216,-498 206,-498"/>
<polygon fill="none" stroke="black" points="216,-498 216,-519 236,-519 236,-498 216,-498"/>
<text text-anchor="start" x="221" y="-506" font-family="Helvetica,sans-Serif" font-size="10.00">...</text>
</a>
</g>
</g>
<!-- icontext&#45;&gt;audioin -->
<g id="edge2" class="edge">
<title>icontext:audioin&#45;&gt;audioin:L1</title>
<path fill="none" stroke="black" d="M128,-414C181.63,-414 134.74,-515.11 175.01,-528.53"/>
<polygon fill="black" stroke="black" points="174.6,-532.01 185,-530 175.61,-525.08 174.6,-532.01"/>
</g>
<!-- audioout -->
<g id="node4" class="node">
<title>audioout</title>
<g id="a_node4"><a xlink:title="Custom context structure">
<polygon fill="none" stroke="black" points="186,-459 186,-480 196,-480 196,-459 186,-459"/>
<polygon fill="none" stroke="black" points="196,-459 196,-480 206,-480 206,-459 196,-459"/>
<polygon fill="none" stroke="black" points="206,-459 206,-480 216,-480 216,-459 206,-459"/>
<polygon fill="none" stroke="black" points="216,-459 216,-480 236,-480 236,-459 216,-459"/>
<text text-anchor="start" x="221" y="-467" font-family="Helvetica,sans-Serif" font-size="10.00">...</text>
<polygon fill="none" stroke="black" points="186,-438 186,-459 196,-459 196,-438 186,-438"/>
<polygon fill="none" stroke="black" points="196,-438 196,-459 206,-459 206,-438 196,-438"/>
<polygon fill="none" stroke="black" points="206,-438 206,-459 216,-459 216,-438 206,-438"/>
<polygon fill="none" stroke="black" points="216,-438 216,-459 236,-459 236,-438 216,-438"/>
<text text-anchor="start" x="221" y="-446" font-family="Helvetica,sans-Serif" font-size="10.00">...</text>
</a>
</g>
</g>
<!-- icontext&#45;&gt;audioout -->
<g id="edge3" class="edge">
<title>icontext:audioout&#45;&gt;audioout:L1</title>
<path fill="none" stroke="black" d="M128,-395C165.94,-395 147.54,-456.6 174.92,-468.15"/>
<polygon fill="black" stroke="black" points="174.53,-471.63 185,-470 175.8,-464.75 174.53,-471.63"/>
</g>
<!-- metertaps -->
<g id="node5" class="node">
<title>metertaps</title>
<g id="a_node5"><a xlink:title="Custom context structure">
<polygon fill="none" stroke="black" points="196,-397 196,-407 206,-407 206,-397 196,-397"/>
<polygon fill="none" stroke="black" points="206,-397 206,-407 216,-407 216,-397 206,-397"/>
<polygon fill="none" stroke="black" points="216,-397 216,-407 226,-407 226,-397 216,-397"/>
</a>
</g>
</g>
<!-- icontext&#45;&gt;metertaps -->
<g id="edge4" class="edge">
<title>icontext:metertaps&#45;&gt;metertaps:T1</title>
<path fill="none" stroke="black" d="M128,-376C156.2,-376 161.93,-396.26 184.87,-401.01"/>
<polygon fill="black" stroke="black" points="184.71,-404.51 195,-402 185.39,-397.55 184.71,-404.51"/>
</g>
<!-- coef1 -->
<g id="node6" class="node">
<title>coef1</title>
<g id="a_node6"><a xlink:title="Custom context structure">
<polygon fill="lightgray" stroke="transparent" points="168,-346 168,-365 255,-365 255,-346 168,-346"/>
<text text-anchor="start" x="172" y="-354" font-family="Helvetica,sans-Serif" font-weight="bold" font-size="10.00">Coefficient block</text>
<text text-anchor="start" x="209.5" y="-334" font-family="Helvetica,sans-Serif" font-size="10.00">.</text>
<text text-anchor="start" x="209.5" y="-315" font-family="Helvetica,sans-Serif" font-size="10.00">.</text>
<text text-anchor="start" x="209.5" y="-296" font-family="Helvetica,sans-Serif" font-size="10.00">.</text>
<polygon fill="none" stroke="black" points="166.5,-288 166.5,-366 255.5,-366 255.5,-288 166.5,-288"/>
</a>
</g>
</g>
<!-- icontext&#45;&gt;coef1 -->
<g id="edge5" class="edge">
<title>icontext:coef1&#45;&gt;coef1:head</title>
<path fill="none" stroke="black" d="M128,-356C141.41,-356 147.04,-356 156.92,-356"/>
<polygon fill="black" stroke="black" points="157,-359.5 167,-356 157,-352.5 157,-359.5"/>
</g>
<!-- coef2 -->
<g id="node7" class="node">
<title>coef2</title>
<g id="a_node7"><a xlink:title="Custom context structure">
<polygon fill="lightgray" stroke="transparent" points="168,-250 168,-269 255,-269 255,-250 168,-250"/>
<text text-anchor="start" x="172" y="-258" font-family="Helvetica,sans-Serif" font-weight="bold" font-size="10.00">Coefficient block</text>
<text text-anchor="start" x="209.5" y="-238" font-family="Helvetica,sans-Serif" font-size="10.00">.</text>
<text text-anchor="start" x="209.5" y="-219" font-family="Helvetica,sans-Serif" font-size="10.00">.</text>
<text text-anchor="start" x="209.5" y="-200" font-family="Helvetica,sans-Serif" font-size="10.00">.</text>
<polygon fill="none" stroke="black" points="166.5,-192 166.5,-270 255.5,-270 255.5,-192 166.5,-192"/>
</a>
</g>
</g>
<!-- icontext&#45;&gt;coef2 -->
<g id="edge6" class="edge">
<title>icontext:coef2&#45;&gt;coef2:head</title>
<path fill="none" stroke="black" d="M128,-337C162.32,-337 135.75,-275.39 157.22,-262.39"/>
<polygon fill="black" stroke="black" points="158.12,-265.77 167,-260 156.46,-258.97 158.12,-265.77"/>
</g>
<!-- pd1 -->
<g id="node8" class="node">
<title>pd1</title>
<g id="a_node8"><a xlink:title="Custom context structure">
<polygon fill="lightgray" stroke="transparent" points="165,-154 165,-173 257,-173 257,-154 165,-154"/>
<text text-anchor="start" x="169" y="-162" font-family="Helvetica,sans-Serif" font-weight="bold" font-size="10.00">Private data block</text>
<text text-anchor="start" x="209" y="-142" font-family="Helvetica,sans-Serif" font-size="10.00">.</text>
<text text-anchor="start" x="209" y="-123" font-family="Helvetica,sans-Serif" font-size="10.00">.</text>
<text text-anchor="start" x="209" y="-104" font-family="Helvetica,sans-Serif" font-size="10.00">.</text>
<polygon fill="none" stroke="black" points="164,-96 164,-174 258,-174 258,-96 164,-96"/>
</a>
</g>
</g>
<!-- icontext&#45;&gt;pd1 -->
<g id="edge7" class="edge">
<title>icontext:pd1&#45;&gt;pd1:head</title>
<path fill="none" stroke="black" d="M128,-318C194.45,-318 104.63,-180.38 153.98,-165.33"/>
<polygon fill="black" stroke="black" points="154.55,-168.79 164,-164 153.63,-161.85 154.55,-168.79"/>
</g>
<!-- pd2 -->
<g id="node9" class="node">
<title>pd2</title>
<g id="a_node9"><a xlink:title="Custom context structure">
<polygon fill="lightgray" stroke="transparent" points="165,-58 165,-77 257,-77 257,-58 165,-58"/>
<text text-anchor="start" x="169" y="-66" font-family="Helvetica,sans-Serif" font-weight="bold" font-size="10.00">Private data block</text>
<text text-anchor="start" x="209" y="-46" font-family="Helvetica,sans-Serif" font-size="10.00">.</text>
<text text-anchor="start" x="209" y="-27" font-family="Helvetica,sans-Serif" font-size="10.00">.</text>
<text text-anchor="start" x="209" y="-8" font-family="Helvetica,sans-Serif" font-size="10.00">.</text>
<polygon fill="none" stroke="black" points="164,0 164,-78 258,-78 258,0 164,0"/>
</a>
</g>
</g>
<!-- icontext&#45;&gt;pd2 -->
<g id="edge8" class="edge">
<title>icontext:pd2&#45;&gt;pd2:head</title>
<path fill="none" stroke="black" d="M128,-299C228.05,-299 72.47,-84.83 153.54,-68.93"/>
<polygon fill="black" stroke="black" points="154.35,-72.37 164,-68 153.73,-65.4 154.35,-72.37"/>
</g>
</g>
</svg>
