<?xml version="1.0" encoding="UTF-8" standalone="no"?>
<!DOCTYPE svg PUBLIC "-//W3C//DTD SVG 1.1//EN"
 "http://www.w3.org/Graphics/SVG/1.1/DTD/svg11.dtd">
<!-- Generated by graphviz version 6.0.1 (20220911.1526)
 -->
<!-- Title: aax_acf_versioning Pages: 1 -->
<svg width="578pt" height="464pt"
 viewBox="0.00 0.00 578.00 464.00" xmlns="http://www.w3.org/2000/svg" xmlns:xlink="http://www.w3.org/1999/xlink">
<g id="graph0" class="graph" transform="scale(1 1) rotate(0) translate(4 460)">
<title>aax_acf_versioning</title>
<polygon fill="white" stroke="none" points="-4,4 -4,-460 574,-460 574,4 -4,4"/>
<g id="clust1" class="cluster">
<title>cluster_plugin</title>
<g id="a_clust1"><a xlink:href="a00813.html" target="_top" xlink:title="AAX Effect">
<polygon fill="none" stroke="lightgrey" points="8,-8 8,-266 260,-266 260,-8 8,-8"/>
<text text-anchor="middle" x="134" y="-15.8" font-family="Helvetica,sans-Serif" font-size="14.00">AAX Effect</text>
</a>
</g>
</g>
<g id="clust2" class="cluster">
<title>cluster_host</title>
<polygon fill="none" stroke="lightgrey" points="323,-190 323,-357 562,-357 562,-190 323,-190"/>
<text text-anchor="middle" x="442.5" y="-197.8" font-family="Helvetica,sans-Serif" font-size="14.00">AAX Host</text>
</g>
<g id="clust3" class="cluster">
<title>cluster_acfinterfaces</title>
<polygon fill="none" stroke="lightgrey" points="31,-281 31,-357 315,-357 315,-281 31,-281"/>
<text text-anchor="middle" x="173" y="-288.8" font-family="Helvetica,sans-Serif" font-size="14.00">AAX ACF Interfaces</text>
</g>
<g id="clust4" class="cluster">
<title>cluster_acf</title>
<polygon fill="none" stroke="lightgrey" points="132,-372 132,-448 334,-448 334,-372 132,-372"/>
<text text-anchor="middle" x="233" y="-379.8" font-family="Helvetica,sans-Serif" font-size="14.00">ACF</text>
</g>
<!-- iacfunknown -->
<g id="node1" class="node">
<title>iacfunknown</title>
<g id="a_node1"><a xlink:href="a01689.html" target="_top" xlink:title="IACFUnknown">
<polygon fill="none" stroke="black" points="140.5,-403.5 140.5,-439.5 221.5,-439.5 221.5,-403.5 140.5,-403.5"/>
<text text-anchor="middle" x="181" y="-419" font-family="Helvetica,sans-Serif" font-size="10.00">IACFUnknown</text>
</a>
</g>
</g>
<!-- cacfunknown -->
<g id="node2" class="node">
<title>cacfunknown</title>
<polygon fill="none" stroke="black" points="240,-403.5 240,-439.5 326,-439.5 326,-403.5 240,-403.5"/>
<text text-anchor="middle" x="283" y="-419" font-family="Helvetica,sans-Serif" font-size="10.00">CACFUnknown</text>
</g>
<!-- iacfdata -->
<g id="node3" class="node">
<title>iacfdata</title>
<g id="a_node3"><a xlink:href="a01953.html" target="_top" xlink:title="AAX_IACFEffectParameters">
<polygon fill="none" stroke="black" points="39,-312.5 39,-348.5 181,-348.5 181,-312.5 39,-312.5"/>
<text text-anchor="middle" x="110" y="-328" font-family="Helvetica,sans-Serif" font-size="10.00">AAX_IACFEffectParameters</text>
</a>
</g>
</g>
<!-- iacfdata&#45;&gt;iacfunknown -->
<g id="edge11" class="edge">
<title>iacfdata&#45;&gt;iacfunknown</title>
<path fill="none" stroke="black" d="M123.69,-348.66C134.3,-361.96 149.15,-380.57 161.07,-395.52"/>
<polygon fill="none" stroke="black" points="158.38,-397.76 167.35,-403.39 163.85,-393.39 158.38,-397.76"/>
</g>
<!-- iacfcontroller -->
<g id="node4" class="node">
<title>iacfcontroller</title>
<g id="a_node4"><a xlink:href="a01917.html" target="_top" xlink:title="AAX_IACFController">
<polygon fill="none" stroke="black" points="199.5,-312.5 199.5,-348.5 306.5,-348.5 306.5,-312.5 199.5,-312.5"/>
<text text-anchor="middle" x="253" y="-328" font-family="Helvetica,sans-Serif" font-size="10.00">AAX_IACFController</text>
</a>
</g>
</g>
<!-- iacfcontroller&#45;&gt;iacfunknown -->
<g id="edge13" class="edge">
<title>iacfcontroller&#45;&gt;iacfunknown</title>
<path fill="none" stroke="black" d="M239.12,-348.66C228.36,-361.96 213.3,-380.57 201.21,-395.52"/>
<polygon fill="none" stroke="black" points="198.41,-393.42 194.84,-403.39 203.85,-397.82 198.41,-393.42"/>
</g>
<!-- idata -->
<g id="node5" class="node">
<title>idata</title>
<g id="a_node5"><a xlink:href="a02113.html" target="_top" xlink:title="AAX_IEffectParameters">
<polygon fill="none" stroke="black" points="18,-221.5 18,-257.5 140,-257.5 140,-221.5 18,-221.5"/>
<text text-anchor="middle" x="79" y="-237" font-family="Helvetica,sans-Serif" font-size="10.00">AAX_IEffectParameters</text>
</a>
</g>
</g>
<!-- idata&#45;&gt;cacfunknown -->
<g id="edge12" class="edge">
<title>idata&#45;&gt;cacfunknown</title>
<path fill="none" stroke="black" d="M47.74,-257.63C39.46,-263.82 31.57,-271.64 27,-281 12.17,-311.35 4.01,-332.26 27,-357 57.94,-390.3 189.35,-353.8 231,-372 243.2,-377.33 254.34,-386.77 263.16,-395.92"/>
<polygon fill="none" stroke="black" points="260.67,-398.39 269.99,-403.43 265.86,-393.68 260.67,-398.39"/>
</g>
<!-- idata&#45;&gt;iacfdata -->
<g id="edge7" class="edge">
<title>idata&#45;&gt;iacfdata</title>
<path fill="none" stroke="black" d="M84.98,-257.66C89.44,-270.46 95.61,-288.2 100.72,-302.85"/>
<polygon fill="none" stroke="black" points="97.45,-304.1 104.04,-312.39 104.06,-301.8 97.45,-304.1"/>
</g>
<!-- cdata -->
<g id="node6" class="node">
<title>cdata</title>
<g id="a_node6"><a xlink:href="a01761.html" target="_top" xlink:title="AAX_CEffectParameters">
<polygon fill="none" stroke="black" points="16,-130.5 16,-166.5 142,-166.5 142,-130.5 16,-130.5"/>
<text text-anchor="middle" x="79" y="-146" font-family="Helvetica,sans-Serif" font-size="10.00">AAX_CEffectParameters</text>
</a>
</g>
</g>
<!-- cdata&#45;&gt;idata -->
<g id="edge1" class="edge">
<title>cdata&#45;&gt;idata</title>
<path fill="none" stroke="black" d="M79,-166.66C79,-179.22 79,-196.52 79,-211"/>
<polygon fill="none" stroke="black" points="75.5,-211.39 79,-221.39 82.5,-211.39 75.5,-211.39"/>
</g>
<!-- icontroller -->
<g id="node8" class="node">
<title>icontroller</title>
<g id="a_node8"><a xlink:href="a02077.html" target="_top" xlink:title="AAX_IController">
<polygon fill="none" stroke="black" points="162.5,-221.5 162.5,-257.5 249.5,-257.5 249.5,-221.5 162.5,-221.5"/>
<text text-anchor="middle" x="206" y="-237" font-family="Helvetica,sans-Serif" font-size="10.00">AAX_IController</text>
</a>
</g>
</g>
<!-- cdata&#45;&gt;icontroller -->
<g id="edge3" class="edge">
<title>cdata&#45;&gt;icontroller</title>
<path fill="none" stroke="black" stroke-dasharray="5,2" d="M121.95,-172.71C131.07,-178.09 140.51,-184.01 149,-190 159.61,-197.49 170.63,-206.53 180.12,-214.77"/>
<polygon fill="none" stroke="black" points="121.86,-172.66 114.67,-173.13 111.46,-166.67 118.66,-166.2 121.86,-172.66"/>
<polygon fill="black" stroke="black" points="187.69,-221.44 177.21,-218.2 183.94,-218.14 180.19,-214.83 180.19,-214.83 180.19,-214.83 183.94,-218.14 183.17,-211.45 187.69,-221.44 187.69,-221.44"/>
</g>
<!-- mydata -->
<g id="node7" class="node">
<title>mydata</title>
<polygon fill="none" stroke="gray" points="37.5,-39.5 37.5,-75.5 120.5,-75.5 120.5,-39.5 37.5,-39.5"/>
<text text-anchor="middle" x="79" y="-55" font-family="Helvetica,sans-Serif" font-size="10.00">My Data Model</text>
</g>
<!-- mydata&#45;&gt;cdata -->
<g id="edge2" class="edge">
<title>mydata&#45;&gt;cdata</title>
<path fill="none" stroke="black" d="M79,-75.66C79,-88.22 79,-105.52 79,-120"/>
<polygon fill="none" stroke="black" points="75.5,-120.39 79,-130.39 82.5,-120.39 75.5,-120.39"/>
</g>
<!-- vcontroller -->
<g id="node9" class="node">
<title>vcontroller</title>
<polygon fill="none" stroke="black" points="160.5,-130.5 160.5,-166.5 251.5,-166.5 251.5,-130.5 160.5,-130.5"/>
<text text-anchor="middle" x="206" y="-146" font-family="Helvetica,sans-Serif" font-size="10.00">AAX_VController</text>
</g>
<!-- vcontroller&#45;&gt;iacfcontroller -->
<g id="edge8" class="edge">
<title>vcontroller&#45;&gt;iacfcontroller</title>
<path fill="none" stroke="black" stroke-dasharray="5,2" d="M247.38,-174.52C252.05,-179.08 256.15,-184.24 259,-190 276.61,-225.61 269.21,-272.79 261.61,-302.14"/>
<polygon fill="none" stroke="black" points="247.03,-174.24 239.87,-173.44 237.85,-166.51 245.02,-167.31 247.03,-174.24"/>
<polygon fill="black" stroke="black" points="258.85,-312.09 257.19,-301.25 260.19,-307.27 261.52,-302.46 261.52,-302.46 261.52,-302.46 260.19,-307.27 265.86,-303.66 258.85,-312.09 258.85,-312.09"/>
</g>
<!-- vcontroller&#45;&gt;icontroller -->
<g id="edge4" class="edge">
<title>vcontroller&#45;&gt;icontroller</title>
<path fill="none" stroke="black" d="M206,-166.66C206,-179.22 206,-196.52 206,-211"/>
<polygon fill="none" stroke="black" points="202.5,-211.39 206,-221.39 209.5,-211.39 202.5,-211.39"/>
</g>
<!-- host_idata -->
<g id="node10" class="node">
<title>host_idata</title>
<polygon fill="none" stroke="black" points="331.5,-312.5 331.5,-348.5 460.5,-348.5 460.5,-312.5 331.5,-312.5"/>
<text text-anchor="middle" x="396" y="-328" font-family="Helvetica,sans-Serif" font-size="10.00">AAXH_IEffectParameters</text>
</g>
<!-- host_vdata -->
<g id="node11" class="node">
<title>host_vdata</title>
<polygon fill="none" stroke="black" points="420.5,-221.5 420.5,-257.5 553.5,-257.5 553.5,-221.5 420.5,-221.5"/>
<text text-anchor="middle" x="487" y="-237" font-family="Helvetica,sans-Serif" font-size="10.00">AAXH_VEffectParameters</text>
</g>
<!-- host_vdata&#45;&gt;iacfdata -->
<g id="edge10" class="edge">
<title>host_vdata&#45;&gt;iacfdata</title>
<path fill="none" stroke="black" stroke-dasharray="5,2" d="M431.53,-261.14C425.02,-263.03 418.41,-264.72 412,-266 315.47,-285.34 284.94,-251.56 191,-281 173.13,-286.6 155.07,-296.87 140.55,-306.52"/>
<polygon fill="none" stroke="black" points="431.65,-261.1 436.19,-255.5 443.11,-257.55 438.56,-263.15 431.65,-261.1"/>
<polygon fill="black" stroke="black" points="132.01,-312.4 137.69,-303.02 136.12,-309.56 140.24,-306.73 140.24,-306.73 140.24,-306.73 136.12,-309.56 142.79,-310.43 132.01,-312.4 132.01,-312.4"/>
</g>
<!-- host_vdata&#45;&gt;host_idata -->
<g id="edge6" class="edge">
<title>host_vdata&#45;&gt;host_idata</title>
<path fill="none" stroke="black" d="M469.45,-257.66C455.61,-271.2 436.12,-290.26 420.69,-305.35"/>
<polygon fill="none" stroke="black" points="418.19,-302.9 413.49,-312.39 423.09,-307.9 418.19,-302.9"/>
</g>
<!-- hostplugin -->
<g id="node12" class="node">
<title>hostplugin</title>
<polygon fill="none" stroke="gray" points="331.5,-221.5 331.5,-257.5 402.5,-257.5 402.5,-221.5 331.5,-221.5"/>
<text text-anchor="middle" x="367" y="-237" font-family="Helvetica,sans-Serif" font-size="10.00">Host Plug&#45;In</text>
</g>
<!-- hostplugin&#45;&gt;cacfunknown -->
<g id="edge14" class="edge">
<title>hostplugin&#45;&gt;cacfunknown</title>
<path fill="none" stroke="black" d="M394.52,-257.59C400.17,-260.67 406.17,-263.64 412,-266 436.68,-275.98 453.7,-259.95 470,-281 490.68,-307.71 489.67,-329.54 470,-357 439.87,-399.06 380.28,-413.6 336.44,-418.45"/>
<polygon fill="none" stroke="black" points="335.84,-414.99 326.22,-419.43 336.51,-421.95 335.84,-414.99"/>
</g>
<!-- hostplugin&#45;&gt;iacfcontroller -->
<g id="edge9" class="edge">
<title>hostplugin&#45;&gt;iacfcontroller</title>
<path fill="none" stroke="black" d="M345.02,-257.66C327.36,-271.45 302.37,-290.96 282.89,-306.17"/>
<polygon fill="none" stroke="black" points="280.64,-303.48 274.91,-312.39 284.95,-309 280.64,-303.48"/>
</g>
<!-- hostplugin&#45;&gt;host_idata -->
<g id="edge5" class="edge">
<title>hostplugin&#45;&gt;host_idata</title>
<path fill="none" stroke="black" stroke-dasharray="5,2" d="M376.4,-269.35C379.91,-280.12 383.88,-292.29 387.32,-302.86"/>
<polygon fill="none" stroke="black" points="376.31,-269.07 370.65,-264.6 372.59,-257.66 378.25,-262.13 376.31,-269.07"/>
<polygon fill="black" stroke="black" points="390.43,-312.39 383.05,-304.28 388.88,-307.64 387.33,-302.88 387.33,-302.88 387.33,-302.88 388.88,-307.64 391.61,-301.49 390.43,-312.39 390.43,-312.39"/>
</g>
</g>
</svg>
