<?xml version="1.0" encoding="UTF-8" standalone="no"?>
<!DOCTYPE svg PUBLIC "-//W3C//DTD SVG 1.1//EN"
 "http://www.w3.org/Graphics/SVG/1.1/DTD/svg11.dtd">
<!-- Generated by graphviz version 6.0.1 (20220911.1526)
 -->
<!-- Title: aax_parameter_entities_touch_handled Pages: 1 -->
<svg width="482pt" height="259pt"
 viewBox="0.00 0.00 482.00 259.00" xmlns="http://www.w3.org/2000/svg" xmlns:xlink="http://www.w3.org/1999/xlink">
<g id="graph0" class="graph" transform="scale(1 1) rotate(0) translate(4 255)">
<title>aax_parameter_entities_touch_handled</title>
<polygon fill="white" stroke="none" points="-4,4 -4,-255 478,-255 478,4 -4,4"/>
<g id="clust1" class="cluster">
<title>cluster_view1</title>
<path fill="none" stroke="black" d="M20,-8C20,-8 182,-8 182,-8 188,-8 194,-14 194,-20 194,-20 194,-71 194,-71 194,-77 188,-83 182,-83 182,-83 20,-83 20,-83 14,-83 8,-77 8,-71 8,-71 8,-20 8,-20 8,-14 14,-8 20,-8"/>
<text text-anchor="middle" x="101" y="-15.8" font-family="Helvetica,sans-Serif" font-size="14.00">Client 1</text>
</g>
<g id="clust2" class="cluster">
<title>cluster_view2</title>
<path fill="none" stroke="black" d="M214,-8C214,-8 376,-8 376,-8 382,-8 388,-14 388,-20 388,-20 388,-71 388,-71 388,-77 382,-83 376,-83 376,-83 214,-83 214,-83 208,-83 202,-77 202,-71 202,-71 202,-20 202,-20 202,-14 208,-8 214,-8"/>
<text text-anchor="middle" x="295" y="-15.8" font-family="Helvetica,sans-Serif" font-size="14.00">Client 2</text>
</g>
<g id="clust3" class="cluster">
<title>cluster_view3</title>
<path fill="none" stroke="black" d="M408,-8C408,-8 454,-8 454,-8 460,-8 466,-14 466,-20 466,-20 466,-71 466,-71 466,-77 460,-83 454,-83 454,-83 408,-83 408,-83 402,-83 396,-77 396,-71 396,-71 396,-20 396,-20 396,-14 402,-8 408,-8"/>
<text text-anchor="middle" x="431" y="-15.8" font-family="Helvetica,sans-Serif" font-size="14.00">Client 3</text>
</g>
<!-- node_host -->
<g id="node1" class="node">
<title>node_host</title>
<polygon fill="none" stroke="black" points="143,-251 111.23,-233 143,-215 174.77,-233 143,-251"/>
<text text-anchor="middle" x="143" y="-230.5" font-family="Helvetica,sans-Serif" font-size="10.00">Host</text>
</g>
<!-- node_parameterdata -->
<g id="node2" class="node">
<title>node_parameterdata</title>
<polygon fill="lightblue" stroke="black" points="190,-112.5 190,-148.5 276,-148.5 276,-112.5 190,-112.5"/>
<text text-anchor="middle" x="233" y="-128" font-family="Helvetica,sans-Serif" font-size="10.00">Parameter Data</text>
</g>
<!-- node_host&#45;&#45;node_parameterdata -->
<g id="edge6" class="edge">
<title>node_host&#45;&#45;node_parameterdata</title>
<g id="a_edge6"><a xlink:href="a01953.html#a93483f44315bdf3adf60bf5bf773fbb8" target="_top" xlink:title="update touch\r(async)">
<path fill="none" stroke="black" d="M159.3,-223.91C170.61,-217.7 185.47,-208.29 196,-197 206.65,-185.58 215.42,-170.55 221.75,-157.76"/>
<polygon fill="black" stroke="black" points="225,-159.06 226.1,-148.52 218.67,-156.08 225,-159.06"/>
</a>
</g>
<g id="a_edge6&#45;label"><a xlink:href="a01953.html#a93483f44315bdf3adf60bf5bf773fbb8" target="_top" xlink:title="update touch\r(async)">
<text text-anchor="end" x="286" y="-185.8" font-family="Times,serif" font-size="14.00">update touch</text>
<text text-anchor="middle" x="251" y="-170.8" font-family="Times,serif" font-size="14.00">(async)</text>
</a>
</g>
</g>
<!-- node_parameterdata&#45;&#45;node_host -->
<!-- node_view1 -->
<g id="node3" class="node">
<title>node_view1</title>
<ellipse fill="lightblue" stroke="black" cx="159" cy="-57" rx="27" ry="18"/>
<text text-anchor="middle" x="159" y="-54.5" font-family="Helvetica,sans-Serif" font-size="10.00">View</text>
</g>
<!-- node_viewcontroller1 -->
<g id="node4" class="node">
<title>node_viewcontroller1</title>
<ellipse fill="lightgrey" stroke="black" cx="65" cy="-57" rx="48.72" ry="18"/>
<text text-anchor="middle" x="65" y="-54.5" font-family="Helvetica,sans-Serif" font-size="10.00">View Controller</text>
</g>
<!-- node_viewcontroller1&#45;&#45;node_host -->
<g id="edge5" class="edge">
<title>node_viewcontroller1&#45;&#45;node_host</title>
<g id="a_edge5"><a xlink:href="a02061.html#a30fdb67042b8dc9fb42fa9023ed9cce0" target="_top" xlink:title="touch">
<path fill="none" stroke="black" d="M72.62,-75C86.65,-106.29 116.57,-173.03 132.5,-208.58"/>
<polygon fill="black" stroke="black" points="129.5,-210.44 136.78,-218.13 135.89,-207.58 129.5,-210.44"/>
</a>
</g>
<g id="a_edge5&#45;label"><a xlink:href="a02061.html#a30fdb67042b8dc9fb42fa9023ed9cce0" target="_top" xlink:title="touch">
<text text-anchor="middle" x="121.5" y="-126.8" font-family="Times,serif" font-size="14.00">touch</text>
</a>
</g>
</g>
<!-- node_viewcontroller1&#45;&#45;node_parameterdata -->
<!-- node_view2 -->
<g id="node5" class="node">
<title>node_view2</title>
<ellipse fill="lightblue" stroke="black" cx="353" cy="-57" rx="27" ry="18"/>
<text text-anchor="middle" x="353" y="-54.5" font-family="Helvetica,sans-Serif" font-size="10.00">View</text>
</g>
<!-- node_viewcontroller2 -->
<g id="node6" class="node">
<title>node_viewcontroller2</title>
<ellipse fill="lightgrey" stroke="black" cx="259" cy="-57" rx="48.72" ry="18"/>
<text text-anchor="middle" x="259" y="-54.5" font-family="Helvetica,sans-Serif" font-size="10.00">View Controller</text>
</g>
<!-- node_viewcontroller2&#45;&#45;node_parameterdata -->
<!-- node_view3 -->
<g id="node7" class="node">
<title>node_view3</title>
<ellipse fill="lightblue" stroke="black" cx="431" cy="-57" rx="27" ry="18"/>
<text text-anchor="middle" x="431" y="-54.5" font-family="Helvetica,sans-Serif" font-size="10.00">View</text>
</g>
<!-- node_view3&#45;&#45;node_parameterdata -->
</g>
</svg>
