<?xml version="1.0" encoding="UTF-8" standalone="no"?>
<!DOCTYPE svg PUBLIC "-//W3C//DTD SVG 1.1//EN"
 "http://www.w3.org/Graphics/SVG/1.1/DTD/svg11.dtd">
<!-- Generated by graphviz version 6.0.1 (20220911.1526)
 -->
<!-- Title: aax_automation_components Pages: 1 -->
<svg width="675pt" height="469pt"
 viewBox="0.00 0.00 675.48 469.00" xmlns="http://www.w3.org/2000/svg" xmlns:xlink="http://www.w3.org/1999/xlink">
<g id="graph0" class="graph" transform="scale(1 1) rotate(0) translate(4 465)">
<title>aax_automation_components</title>
<polygon fill="white" stroke="none" points="-4,4 -4,-465 671.48,-465 671.48,4 -4,4"/>
<g id="clust1" class="cluster">
<title>cluster_plugin</title>
<path fill="none" stroke="lightgrey" d="M20,-254C20,-254 636,-254 636,-254 642,-254 648,-260 648,-266 648,-266 648,-318 648,-318 648,-324 642,-330 636,-330 636,-330 20,-330 20,-330 14,-330 8,-324 8,-318 8,-318 8,-266 8,-266 8,-260 14,-254 20,-254"/>
<text text-anchor="middle" x="328" y="-314.8" font-family="Helvetica,sans-Serif" font-size="14.00">Plug&#45;In</text>
</g>
<g id="clust2" class="cluster">
<title>cluster_host</title>
<path fill="none" stroke="lightgrey" d="M226,-8C226,-8 306,-8 306,-8 312,-8 318,-14 318,-20 318,-20 318,-195 318,-195 318,-201 312,-207 306,-207 306,-207 226,-207 226,-207 220,-207 214,-201 214,-195 214,-195 214,-20 214,-20 214,-14 220,-8 226,-8"/>
<text text-anchor="middle" x="266" y="-191.8" font-family="Helvetica,sans-Serif" font-size="14.00">Host</text>
</g>
<g id="clust3" class="cluster">
<title>cluster_cs</title>
<path fill="none" stroke="lightgrey" d="M344,-377C344,-377 440,-377 440,-377 446,-377 452,-383 452,-389 452,-389 452,-441 452,-441 452,-447 446,-453 440,-453 440,-453 344,-453 344,-453 338,-453 332,-447 332,-441 332,-441 332,-389 332,-389 332,-383 338,-377 344,-377"/>
<text text-anchor="middle" x="392" y="-437.8" font-family="Helvetica,sans-Serif" font-size="14.00">Control surface</text>
</g>
<!-- structparams -->
<g id="node1" class="node">
<title>structparams</title>
<g id="a_node1"><a xlink:href="a02145.html" target="_top" xlink:title="&lt;f0&gt;Automatable parameters|&lt;f1&gt;Non&#45;automatable parameters">
<polygon fill="floralwhite" stroke="black" points="16,-262.5 16,-298.5 282,-298.5 282,-262.5 16,-262.5"/>
<text text-anchor="middle" x="77.5" y="-278" font-family="Helvetica,sans-Serif" font-size="10.00">Automatable parameters</text>
<polyline fill="none" stroke="black" points="139,-262.5 139,-298.5"/>
<text text-anchor="middle" x="210.5" y="-278" font-family="Helvetica,sans-Serif" font-size="10.00">Non&#45;automatable parameters</text>
</a>
</g>
</g>
<!-- host_autolist -->
<g id="node4" class="node">
<title>host_autolist</title>
<polygon fill="#e0ffff" stroke="black" points="222,-16.5 222,-52.5 310,-52.5 310,-16.5 222,-16.5"/>
<text text-anchor="middle" x="266" y="-32" font-family="Helvetica,sans-Serif" font-size="10.00">Automation data</text>
</g>
<!-- structparams&#45;&gt;host_autolist -->
<g id="edge2" class="edge">
<title>structparams:f0&#45;&gt;host_autolist</title>
<path fill="none" stroke="#008b8b" d="M77,-261.5C77,-163.55 182.76,-85.68 236.05,-52.66"/>
</g>
<!-- host_eventsystem -->
<g id="node5" class="node">
<title>host_eventsystem</title>
<g id="a_node5"><a xlink:href="a00838.html" target="_top" xlink:title="Event system">
<polygon fill="darkgreen" stroke="white" points="230.5,-139.5 230.5,-175.5 307.5,-175.5 307.5,-139.5 230.5,-139.5"/>
<text text-anchor="middle" x="269" y="-155" font-family="Helvetica,sans-Serif" font-size="10.00" fill="white">Event system</text>
</a>
</g>
</g>
<!-- structparams&#45;&gt;host_eventsystem -->
<g id="edge6" class="edge">
<title>structparams:f0&#45;&gt;host_eventsystem</title>
<path fill="none" stroke="forestgreen" d="M77,-261.5C77,-227.08 174.04,-189.54 230.15,-170.71"/>
</g>
<!-- structparams&#45;&gt;host_eventsystem -->
<g id="edge7" class="edge">
<title>structparams:f1&#45;&gt;host_eventsystem</title>
<path fill="none" stroke="forestgreen" d="M211,-261.5C211,-227.84 234.8,-195.04 251.91,-175.81"/>
</g>
<!-- structpagetables -->
<g id="node2" class="node">
<title>structpagetables</title>
<g id="a_node2"><a xlink:href="a00849.html" target="_top" xlink:title="&lt;f0&gt;Default page table (&#39;PgTL&#39;)|&lt;f1&gt;Surface&#45;specific page table">
<polygon fill="floralwhite" stroke="black" points="372,-262.5 372,-298.5 640,-298.5 640,-262.5 372,-262.5"/>
<text text-anchor="middle" x="438.5" y="-278" font-family="Helvetica,sans-Serif" font-size="10.00">Default page table (&#39;PgTL&#39;)</text>
<polyline fill="none" stroke="black" points="505,-262.5 505,-298.5"/>
<text text-anchor="middle" x="572.5" y="-278" font-family="Helvetica,sans-Serif" font-size="10.00">Surface&#45;specific page table</text>
</a>
</g>
</g>
<!-- structpagetables&#45;&gt;host_eventsystem -->
<g id="edge8" class="edge">
<title>structpagetables:f0&#45;&gt;host_eventsystem</title>
<path fill="none" stroke="forestgreen" d="M371,-280.5C358.7,-280.5 369.28,-264.58 363,-254 344.13,-222.19 312.44,-193.05 291.13,-175.54"/>
</g>
<!-- pi_gui -->
<g id="node3" class="node">
<title>pi_gui</title>
<polygon fill="floralwhite" stroke="black" points="300,-262.5 300,-298.5 354,-298.5 354,-262.5 300,-262.5"/>
<text text-anchor="middle" x="327" y="-278" font-family="Helvetica,sans-Serif" font-size="10.00">GUI</text>
</g>
<!-- pi_gui&#45;&gt;host_eventsystem -->
<g id="edge10" class="edge">
<title>pi_gui&#45;&gt;host_eventsystem</title>
<path fill="none" stroke="forestgreen" d="M318.81,-262.42C307.82,-239.49 288.4,-198.97 277.33,-175.88"/>
</g>
<!-- host_eventsystem&#45;&gt;host_autolist -->
<g id="edge1" class="edge">
<title>host_eventsystem&#45;&gt;host_autolist</title>
<path fill="none" stroke="forestgreen" d="M268.58,-139.42C268.01,-116.49 267,-75.97 266.43,-52.88"/>
</g>
<!-- cs_mappedparams -->
<g id="node6" class="node">
<title>cs_mappedparams</title>
<polygon fill="mistyrose" stroke="black" points="340.5,-385.5 340.5,-421.5 443.5,-421.5 443.5,-385.5 340.5,-385.5"/>
<text text-anchor="middle" x="392" y="-401" font-family="Helvetica,sans-Serif" font-size="10.00">Mapped parameters</text>
</g>
<!-- cs_mappedparams&#45;&gt;structparams -->
<g id="edge3" class="edge">
<title>cs_mappedparams&#45;&gt;structparams:f0</title>
<path fill="none" stroke="#cd8c95" d="M340.34,-396.44C250.97,-384.5 77,-354.23 77,-299.5"/>
</g>
<!-- cs_mappedparams&#45;&gt;structparams -->
<g id="edge4" class="edge">
<title>cs_mappedparams&#45;&gt;structparams:f1</title>
<path fill="none" stroke="#cd8c95" d="M354.92,-385.28C332.78,-373.03 306.11,-354.41 291,-330 285.14,-320.53 294.14,-280.5 283,-280.5"/>
</g>
<!-- cs_mappedparams&#45;&gt;structpagetables -->
<g id="edge5" class="edge">
<title>cs_mappedparams&#45;&gt;structpagetables:f1</title>
<path fill="none" stroke="#cd8c95" d="M443.87,-395.42C497.35,-384.85 573,-359.34 573,-299.5"/>
</g>
<!-- cs_mappedparams&#45;&gt;host_eventsystem -->
<g id="edge9" class="edge">
<title>cs_mappedparams&#45;&gt;host_eventsystem</title>
<path fill="none" stroke="forestgreen" d="M443.54,-395.53C511.91,-385.11 626.89,-363.08 652,-330 672.43,-303.1 672.8,-280.62 652,-254 609.44,-199.53 396.09,-171.6 307.58,-162.21"/>
</g>
</g>
</svg>
