<?xml version="1.0" encoding="UTF-8" standalone="no"?>
<!DOCTYPE svg PUBLIC "-//W3C//DTD SVG 1.1//EN"
 "http://www.w3.org/Graphics/SVG/1.1/DTD/svg11.dtd">
<!-- Generated by graphviz version 6.0.1 (20220911.1526)
 -->
<!-- Title: aax_acf_versioning Pages: 1 -->
<svg width="379pt" height="464pt"
 viewBox="0.00 0.00 379.00 464.00" xmlns="http://www.w3.org/2000/svg" xmlns:xlink="http://www.w3.org/1999/xlink">
<g id="graph0" class="graph" transform="scale(1 1) rotate(0) translate(4 460)">
<title>aax_acf_versioning</title>
<polygon fill="white" stroke="none" points="-4,4 -4,-460 375,-460 375,4 -4,4"/>
<g id="clust1" class="cluster">
<title>cluster_plugin</title>
<g id="a_clust1"><a xlink:href="a00813.html" target="_top" xlink:title="AAX Effect">
<polygon fill="none" stroke="lightgrey" points="50,-8 50,-266 302,-266 302,-8 50,-8"/>
<text text-anchor="middle" x="176" y="-15.8" font-family="Helvetica,sans-Serif" font-size="14.00">AAX Effect</text>
</a>
</g>
</g>
<g id="clust2" class="cluster">
<title>cluster_acfinterfaces</title>
<polygon fill="none" stroke="lightgrey" points="79,-281 79,-357 363,-357 363,-281 79,-281"/>
<text text-anchor="middle" x="221" y="-288.8" font-family="Helvetica,sans-Serif" font-size="14.00">AAX ACF Interfaces</text>
</g>
<g id="clust3" class="cluster">
<title>cluster_acf</title>
<polygon fill="none" stroke="lightgrey" points="8,-372 8,-448 210,-448 210,-372 8,-372"/>
<text text-anchor="middle" x="109" y="-379.8" font-family="Helvetica,sans-Serif" font-size="14.00">ACF</text>
</g>
<!-- iacfunknown -->
<g id="node1" class="node">
<title>iacfunknown</title>
<g id="a_node1"><a xlink:href="a01689.html" target="_top" xlink:title="IACFUnknown">
<polygon fill="none" stroke="black" points="120.5,-403.5 120.5,-439.5 201.5,-439.5 201.5,-403.5 120.5,-403.5"/>
<text text-anchor="middle" x="161" y="-419" font-family="Helvetica,sans-Serif" font-size="10.00">IACFUnknown</text>
</a>
</g>
</g>
<!-- cacfunknown -->
<g id="node2" class="node">
<title>cacfunknown</title>
<polygon fill="none" stroke="black" points="16,-403.5 16,-439.5 102,-439.5 102,-403.5 16,-403.5"/>
<text text-anchor="middle" x="59" y="-419" font-family="Helvetica,sans-Serif" font-size="10.00">CACFUnknown</text>
</g>
<!-- iacfdata -->
<g id="node3" class="node">
<title>iacfdata</title>
<g id="a_node3"><a xlink:href="a01953.html" target="_top" xlink:title="AAX_IACFEffectParameters">
<polygon fill="none" stroke="black" points="87,-312.5 87,-348.5 229,-348.5 229,-312.5 87,-312.5"/>
<text text-anchor="middle" x="158" y="-328" font-family="Helvetica,sans-Serif" font-size="10.00">AAX_IACFEffectParameters</text>
</a>
</g>
</g>
<!-- iacfdata&#45;&gt;iacfunknown -->
<g id="edge7" class="edge">
<title>iacfdata&#45;&gt;iacfunknown</title>
<path fill="none" stroke="black" d="M158.58,-348.66C159,-361.22 159.58,-378.52 160.07,-393"/>
<polygon fill="none" stroke="black" points="156.59,-393.52 160.42,-403.39 163.58,-393.28 156.59,-393.52"/>
</g>
<!-- iacfcontroller -->
<g id="node4" class="node">
<title>iacfcontroller</title>
<g id="a_node4"><a xlink:href="a01917.html" target="_top" xlink:title="AAX_IACFController">
<polygon fill="none" stroke="black" points="247.5,-312.5 247.5,-348.5 354.5,-348.5 354.5,-312.5 247.5,-312.5"/>
<text text-anchor="middle" x="301" y="-328" font-family="Helvetica,sans-Serif" font-size="10.00">AAX_IACFController</text>
</a>
</g>
</g>
<!-- iacfcontroller&#45;&gt;iacfunknown -->
<g id="edge9" class="edge">
<title>iacfcontroller&#45;&gt;iacfunknown</title>
<path fill="none" stroke="black" d="M274.01,-348.66C251.93,-362.7 220.53,-382.66 196.43,-397.98"/>
<polygon fill="none" stroke="black" points="194.47,-395.07 187.91,-403.39 198.23,-400.98 194.47,-395.07"/>
</g>
<!-- idata -->
<g id="node5" class="node">
<title>idata</title>
<g id="a_node5"><a xlink:href="a02113.html" target="_top" xlink:title="AAX_IEffectParameters">
<polygon fill="none" stroke="black" points="60,-221.5 60,-257.5 182,-257.5 182,-221.5 60,-221.5"/>
<text text-anchor="middle" x="121" y="-237" font-family="Helvetica,sans-Serif" font-size="10.00">AAX_IEffectParameters</text>
</a>
</g>
</g>
<!-- idata&#45;&gt;cacfunknown -->
<g id="edge8" class="edge">
<title>idata&#45;&gt;cacfunknown</title>
<path fill="none" stroke="black" d="M95.1,-257.58C87.38,-263.99 79.73,-271.95 75,-281 56.48,-316.44 55.12,-363.74 56.54,-393.15"/>
<polygon fill="none" stroke="black" points="53.07,-393.72 57.19,-403.48 60.06,-393.28 53.07,-393.72"/>
</g>
<!-- idata&#45;&gt;iacfdata -->
<g id="edge5" class="edge">
<title>idata&#45;&gt;iacfdata</title>
<path fill="none" stroke="black" d="M128.13,-257.66C133.46,-270.46 140.83,-288.2 146.92,-302.85"/>
<polygon fill="none" stroke="black" points="143.82,-304.5 150.89,-312.39 150.28,-301.82 143.82,-304.5"/>
</g>
<!-- cdata -->
<g id="node6" class="node">
<title>cdata</title>
<g id="a_node6"><a xlink:href="a01761.html" target="_top" xlink:title="AAX_CEffectParameters">
<polygon fill="none" stroke="black" points="58,-130.5 58,-166.5 184,-166.5 184,-130.5 58,-130.5"/>
<text text-anchor="middle" x="121" y="-146" font-family="Helvetica,sans-Serif" font-size="10.00">AAX_CEffectParameters</text>
</a>
</g>
</g>
<!-- cdata&#45;&gt;idata -->
<g id="edge1" class="edge">
<title>cdata&#45;&gt;idata</title>
<path fill="none" stroke="black" d="M121,-166.66C121,-179.22 121,-196.52 121,-211"/>
<polygon fill="none" stroke="black" points="117.5,-211.39 121,-221.39 124.5,-211.39 117.5,-211.39"/>
</g>
<!-- icontroller -->
<g id="node8" class="node">
<title>icontroller</title>
<g id="a_node8"><a xlink:href="a02077.html" target="_top" xlink:title="AAX_IController">
<polygon fill="none" stroke="black" points="204.5,-221.5 204.5,-257.5 291.5,-257.5 291.5,-221.5 204.5,-221.5"/>
<text text-anchor="middle" x="248" y="-237" font-family="Helvetica,sans-Serif" font-size="10.00">AAX_IController</text>
</a>
</g>
</g>
<!-- cdata&#45;&gt;icontroller -->
<g id="edge3" class="edge">
<title>cdata&#45;&gt;icontroller</title>
<path fill="none" stroke="black" stroke-dasharray="5,2" d="M155.55,-173.71C174.06,-186.68 196.75,-202.58 215.01,-215.38"/>
<polygon fill="none" stroke="black" points="155.31,-173.55 148.1,-173.38 145.49,-166.66 152.7,-166.83 155.31,-173.55"/>
<polygon fill="black" stroke="black" points="223.59,-221.39 212.82,-219.34 219.49,-218.52 215.4,-215.65 215.4,-215.65 215.4,-215.65 219.49,-218.52 217.98,-211.97 223.59,-221.39 223.59,-221.39"/>
</g>
<!-- mydata -->
<g id="node7" class="node">
<title>mydata</title>
<polygon fill="none" stroke="gray" points="79.5,-39.5 79.5,-75.5 162.5,-75.5 162.5,-39.5 79.5,-39.5"/>
<text text-anchor="middle" x="121" y="-55" font-family="Helvetica,sans-Serif" font-size="10.00">My Data Model</text>
</g>
<!-- mydata&#45;&gt;cdata -->
<g id="edge2" class="edge">
<title>mydata&#45;&gt;cdata</title>
<path fill="none" stroke="black" d="M121,-75.66C121,-88.22 121,-105.52 121,-120"/>
<polygon fill="none" stroke="black" points="117.5,-120.39 121,-130.39 124.5,-120.39 117.5,-120.39"/>
</g>
<!-- vcontroller -->
<g id="node9" class="node">
<title>vcontroller</title>
<polygon fill="none" stroke="black" points="202.5,-130.5 202.5,-166.5 293.5,-166.5 293.5,-130.5 202.5,-130.5"/>
<text text-anchor="middle" x="248" y="-146" font-family="Helvetica,sans-Serif" font-size="10.00">AAX_VController</text>
</g>
<!-- vcontroller&#45;&gt;iacfcontroller -->
<g id="edge6" class="edge">
<title>vcontroller&#45;&gt;iacfcontroller</title>
<path fill="none" stroke="black" stroke-dasharray="5,2" d="M274.06,-176.04C284.59,-188.59 295.53,-204.44 301,-221 309.78,-247.59 308.36,-279.89 305.63,-302.3"/>
<polygon fill="none" stroke="black" points="273.77,-175.71 266.8,-173.87 265.81,-166.73 272.79,-168.57 273.77,-175.71"/>
<polygon fill="black" stroke="black" points="304.22,-312.44 301.14,-301.91 304.91,-307.49 305.6,-302.53 305.6,-302.53 305.6,-302.53 304.91,-307.49 310.06,-303.15 304.22,-312.44 304.22,-312.44"/>
</g>
<!-- vcontroller&#45;&gt;icontroller -->
<g id="edge4" class="edge">
<title>vcontroller&#45;&gt;icontroller</title>
<path fill="none" stroke="black" d="M248,-166.66C248,-179.22 248,-196.52 248,-211"/>
<polygon fill="none" stroke="black" points="244.5,-211.39 248,-221.39 251.5,-211.39 244.5,-211.39"/>
</g>
</g>
</svg>
