<?xml version="1.0" encoding="UTF-8" standalone="no"?>
<!DOCTYPE svg PUBLIC "-//W3C//DTD SVG 1.1//EN"
 "http://www.w3.org/Graphics/SVG/1.1/DTD/svg11.dtd">
<!-- Generated by graphviz version 6.0.1 (20220911.1526)
 -->
<!-- Title: aax_parameter_entities_update Pages: 1 -->
<svg width="482pt" height="283pt"
 viewBox="0.00 0.00 482.00 283.00" xmlns="http://www.w3.org/2000/svg" xmlns:xlink="http://www.w3.org/1999/xlink">
<g id="graph0" class="graph" transform="scale(1 1) rotate(0) translate(4 279)">
<title>aax_parameter_entities_update</title>
<polygon fill="white" stroke="none" points="-4,4 -4,-279 478,-279 478,4 -4,4"/>
<g id="clust1" class="cluster">
<title>cluster_view1</title>
<path fill="none" stroke="black" d="M20,-8C20,-8 182,-8 182,-8 188,-8 194,-14 194,-20 194,-20 194,-71 194,-71 194,-77 188,-83 182,-83 182,-83 20,-83 20,-83 14,-83 8,-77 8,-71 8,-71 8,-20 8,-20 8,-14 14,-8 20,-8"/>
<text text-anchor="middle" x="101" y="-15.8" font-family="Helvetica,sans-Serif" font-size="14.00">Client 1</text>
</g>
<g id="clust2" class="cluster">
<title>cluster_view2</title>
<path fill="none" stroke="black" d="M214,-8C214,-8 376,-8 376,-8 382,-8 388,-14 388,-20 388,-20 388,-71 388,-71 388,-77 382,-83 376,-83 376,-83 214,-83 214,-83 208,-83 202,-77 202,-71 202,-71 202,-20 202,-20 202,-14 208,-8 214,-8"/>
<text text-anchor="middle" x="295" y="-15.8" font-family="Helvetica,sans-Serif" font-size="14.00">Client 2</text>
</g>
<g id="clust3" class="cluster">
<title>cluster_view3</title>
<path fill="none" stroke="black" d="M408,-8C408,-8 454,-8 454,-8 460,-8 466,-14 466,-20 466,-20 466,-71 466,-71 466,-77 460,-83 454,-83 454,-83 408,-83 408,-83 402,-83 396,-77 396,-71 396,-71 396,-20 396,-20 396,-14 402,-8 408,-8"/>
<text text-anchor="middle" x="431" y="-15.8" font-family="Helvetica,sans-Serif" font-size="14.00">Client 3</text>
</g>
<!-- node_host -->
<g id="node1" class="node">
<title>node_host</title>
<polygon fill="none" stroke="black" points="259,-275 157,-245 259,-215 361,-245 259,-275"/>
<text text-anchor="end" x="339.33" y="-248" font-family="Helvetica,sans-Serif" font-size="10.00">Host</text>
<text text-anchor="middle" x="259" y="-237" font-family="Helvetica,sans-Serif" font-size="10.00">(Client 1 has touch)</text>
</g>
<!-- node_parameterdata -->
<g id="node2" class="node">
<title>node_parameterdata</title>
<polygon fill="salmon" stroke="black" points="216,-112.5 216,-148.5 302,-148.5 302,-112.5 216,-112.5"/>
<text text-anchor="middle" x="259" y="-128" font-family="Helvetica,sans-Serif" font-size="10.00">Parameter Data</text>
</g>
<!-- node_host&#45;&#45;node_parameterdata -->
<g id="edge6" class="edge">
<title>node_host&#45;&#45;node_parameterdata</title>
<g id="a_edge6"><a xlink:href="a01953.html#a685858711efb8634ce66c327f2865c71" target="_top" xlink:title="update value\r(async)">
<path fill="none" stroke="black" d="M266.68,-217.26C269.96,-202.44 272.53,-183.69 270,-167 269.57,-164.13 268.94,-161.17 268.21,-158.24"/>
<polygon fill="black" stroke="black" points="271.56,-157.23 265.43,-148.59 264.84,-159.17 271.56,-157.23"/>
</a>
</g>
<g id="a_edge6&#45;label"><a xlink:href="a01953.html#a685858711efb8634ce66c327f2865c71" target="_top" xlink:title="update value\r(async)">
<text text-anchor="end" x="341" y="-185.8" font-family="Times,serif" font-size="14.00">update value</text>
<text text-anchor="middle" x="306" y="-170.8" font-family="Times,serif" font-size="14.00">(async)</text>
</a>
</g>
</g>
<!-- node_parameterdata&#45;&#45;node_host -->
<!-- node_view1 -->
<g id="node3" class="node">
<title>node_view1</title>
<ellipse fill="lightblue" stroke="black" cx="159" cy="-57" rx="27" ry="18"/>
<text text-anchor="middle" x="159" y="-54.5" font-family="Helvetica,sans-Serif" font-size="10.00">View</text>
</g>
<!-- node_viewcontroller1 -->
<g id="node4" class="node">
<title>node_viewcontroller1</title>
<ellipse fill="salmon" stroke="black" cx="65" cy="-57" rx="48.72" ry="18"/>
<text text-anchor="middle" x="65" y="-54.5" font-family="Helvetica,sans-Serif" font-size="10.00">View Controller</text>
</g>
<!-- node_viewcontroller1&#45;&#45;node_host -->
<g id="edge5" class="edge">
<title>node_viewcontroller1&#45;&#45;node_host</title>
<g id="a_edge5"><a xlink:href="a02061.html#a9d0e2c5d57d177a4dca0ff10cde0256c" target="_top" xlink:title="set">
<path fill="none" stroke="black" d="M81.88,-74.18C114.59,-105.55 187.06,-175.03 228.45,-214.71"/>
<polygon fill="black" stroke="black" points="226.16,-217.36 235.8,-221.76 231,-212.31 226.16,-217.36"/>
</a>
</g>
<g id="a_edge5&#45;label"><a xlink:href="a02061.html#a9d0e2c5d57d177a4dca0ff10cde0256c" target="_top" xlink:title="set">
<text text-anchor="middle" x="166" y="-126.8" font-family="Times,serif" font-size="14.00">set</text>
</a>
</g>
</g>
<!-- node_viewcontroller1&#45;&#45;node_parameterdata -->
<!-- node_view2 -->
<g id="node5" class="node">
<title>node_view2</title>
<ellipse fill="lightblue" stroke="black" cx="353" cy="-57" rx="27" ry="18"/>
<text text-anchor="middle" x="353" y="-54.5" font-family="Helvetica,sans-Serif" font-size="10.00">View</text>
</g>
<!-- node_viewcontroller2 -->
<g id="node6" class="node">
<title>node_viewcontroller2</title>
<ellipse fill="lightgrey" stroke="black" cx="259" cy="-57" rx="48.72" ry="18"/>
<text text-anchor="middle" x="259" y="-54.5" font-family="Helvetica,sans-Serif" font-size="10.00">View Controller</text>
</g>
<!-- node_viewcontroller2&#45;&#45;node_parameterdata -->
<!-- node_view3 -->
<g id="node7" class="node">
<title>node_view3</title>
<ellipse fill="lightblue" stroke="black" cx="431" cy="-57" rx="27" ry="18"/>
<text text-anchor="middle" x="431" y="-54.5" font-family="Helvetica,sans-Serif" font-size="10.00">View</text>
</g>
<!-- node_view3&#45;&#45;node_parameterdata -->
</g>
</svg>
