<?xml version="1.0" encoding="UTF-8" standalone="no"?>
<!DOCTYPE svg PUBLIC "-//W3C//DTD SVG 1.1//EN"
 "http://www.w3.org/Graphics/SVG/1.1/DTD/svg11.dtd">
<!-- Generated by graphviz version 2.47.3 (20210619.1520)
 -->
<!-- Title: aax_desc_interfaces Pages: 1 -->
<svg width="557pt" height="286pt"
 viewBox="0.00 0.00 556.87 286.00" xmlns="http://www.w3.org/2000/svg" xmlns:xlink="http://www.w3.org/1999/xlink">
<g id="graph0" class="graph" transform="scale(1 1) rotate(0) translate(4 282)">
<title>aax_desc_interfaces</title>
<polygon fill="white" stroke="transparent" points="-4,4 -4,-282 552.87,-282 552.87,4 -4,4"/>
<!-- desc -->
<g id="node1" class="node">
<title>desc</title>
<g id="a_node1"><a xlink:href="a00811.html#ga83d05333118598c179ca6d89487fa203" target="_top" xlink:title="GetEffectDescriptions()">
<polygon fill="none" stroke="gray" points="81.51,-242.05 86.09,-242.15 90.62,-242.3 95.08,-242.49 99.46,-242.74 103.74,-243.03 107.9,-243.36 111.92,-243.75 115.8,-244.18 119.51,-244.65 123.04,-245.16 126.39,-245.71 129.53,-246.31 132.46,-246.94 135.17,-247.61 137.66,-248.31 139.91,-249.04 141.92,-249.8 143.7,-250.59 145.22,-251.41 146.51,-252.25 147.55,-253.11 148.34,-253.99 148.9,-254.89 149.21,-255.8 149.3,-256.72 149.16,-257.65 148.8,-258.59 148.22,-259.53 147.44,-260.47 146.47,-261.41 145.3,-262.35 143.96,-263.28 142.45,-264.2 140.79,-265.11 138.97,-266.01 137.02,-266.89 134.94,-267.75 132.74,-268.59 130.43,-269.41 128.02,-270.2 125.53,-270.96 122.95,-271.69 120.3,-272.39 117.59,-273.06 114.82,-273.69 112.01,-274.29 109.14,-274.84 106.24,-275.35 103.31,-275.82 100.35,-276.25 97.37,-276.64 94.37,-276.97 91.35,-277.26 88.32,-277.51 85.28,-277.7 82.23,-277.85 79.18,-277.95 76.13,-278 73.07,-278 70.02,-277.95 66.96,-277.85 63.92,-277.7 60.88,-277.51 57.85,-277.26 54.83,-276.97 51.83,-276.64 48.85,-276.25 45.89,-275.82 42.96,-275.35 40.06,-274.84 37.19,-274.29 34.38,-273.69 31.61,-273.06 28.89,-272.39 26.25,-271.69 23.67,-270.96 21.18,-270.2 18.77,-269.41 16.46,-268.59 14.26,-267.75 12.18,-266.89 10.23,-266.01 8.41,-265.11 6.75,-264.2 5.24,-263.28 3.9,-262.35 2.73,-261.41 1.76,-260.47 0.98,-259.53 0.4,-258.59 0.04,-257.65 -0.1,-256.72 -0.01,-255.8 0.3,-254.89 0.86,-253.99 1.65,-253.11 2.69,-252.25 3.98,-251.41 5.5,-250.59 7.28,-249.8 9.29,-249.04 11.54,-248.31 14.03,-247.61 16.74,-246.94 19.67,-246.31 22.81,-245.71 26.16,-245.16 29.69,-244.65 33.4,-244.18 37.28,-243.75 41.3,-243.36 45.46,-243.03 49.74,-242.74 54.12,-242.49 58.58,-242.3 63.11,-242.15 67.69,-242.05 72.29,-242 76.91,-242 81.51,-242.05"/>
<text text-anchor="middle" x="74.6" y="-257.5" font-family="Helvetica,sans-Serif" font-size="10.00">GetEffectDescriptions()</text>
</a>
</g>
</g>
<!-- icoll -->
<g id="node2" class="node">
<title>icoll</title>
<g id="a_node2"><a xlink:title="AAX_ICollection">
<g id="a_node2_0"><a xlink:href="a02065.html" target="_top" xlink:title="AAX_ICollection">
<polygon fill="lightgray" stroke="transparent" points="34.6,-203 34.6,-222 115.6,-222 115.6,-203 34.6,-203"/>
<text text-anchor="start" x="38.6" y="-210" font-family="Helvetica,sans-Serif" font-size="10.00">AAX_ICollection</text>
</a>
</g>
<g id="a_node2_1"><a xlink:href="a02065.html#afab70588134a065a5b4d6ea6ddd5ddff" target="_top" xlink:title="AAX_ICollection">
<text text-anchor="start" x="39.1" y="-191" font-family="Helvetica,sans-Serif" font-size="10.00">NewDescriptor()</text>
</a>
</g>
<g id="a_node2_2"><a xlink:href="a02065.html#a5ff114b8c4da2081515186f2faf65c8c" target="_top" xlink:title="AAX_ICollection">
<text text-anchor="start" x="50.1" y="-172" font-family="Helvetica,sans-Serif" font-size="10.00">AddEffect()</text>
</a>
</g>
<polygon fill="none" stroke="black" points="33.1,-164.5 33.1,-223.5 116.1,-223.5 116.1,-164.5 33.1,-164.5"/>
</a>
</g>
</g>
<!-- icoll&#45;&gt;desc -->
<g id="edge1" class="edge">
<title>icoll&#45;&gt;desc</title>
<path fill="none" stroke="grey" d="M74.6,-223.65C74.6,-226.3 74.6,-228.95 74.6,-231.6"/>
<polygon fill="grey" stroke="grey" points="71.1,-231.82 74.6,-241.82 78.1,-231.82 71.1,-231.82"/>
</g>
<!-- ipidesc -->
<g id="node3" class="node">
<title>ipidesc</title>
<g id="a_node3"><a xlink:title="AAX_IEffectDescriptor">
<g id="a_node3_3"><a xlink:href="a02101.html" target="_top" xlink:title="AAX_IEffectDescriptor">
<polygon fill="lightgray" stroke="transparent" points="204.2,-164 204.2,-183 334.2,-183 334.2,-164 204.2,-164"/>
<text text-anchor="start" x="216.2" y="-172" font-family="Helvetica,sans-Serif" font-weight="bold" font-size="10.00">AAX_IEffectDescriptor</text>
</a>
</g>
<g id="a_node3_4"><a xlink:href="a02101.html#a2102ea4391f5b60e4d5e860a997383e4" target="_top" xlink:title="AAX_IEffectDescriptor">
<text text-anchor="start" x="208.2" y="-152" font-family="Helvetica,sans-Serif" font-size="10.00">NewComponentDescriptor()</text>
</a>
</g>
<g id="a_node3_5"><a xlink:href="a02101.html#aec33938f50461dd5e7c1dcc25faf6917" target="_top" xlink:title="AAX_IEffectDescriptor">
<text text-anchor="start" x="232.2" y="-133" font-family="Helvetica,sans-Serif" font-size="10.00">AddComponent()</text>
</a>
</g>
<g id="a_node3_6"><a xlink:href="a02101.html#ac90c1b595d65259f798429474bbe926f" target="_top" xlink:title="AAX_IEffectDescriptor">
<text text-anchor="start" x="228.2" y="-114" font-family="Helvetica,sans-Serif" font-size="10.00">NewPropertyMap()</text>
</a>
</g>
<g id="a_node3_7"><a xlink:href="a02101.html#ac57ed8597814db525eb69a2d2bfd9d87" target="_top" xlink:title="AAX_IEffectDescriptor">
<text text-anchor="start" x="236.2" y="-95" font-family="Helvetica,sans-Serif" font-size="10.00">SetProperties()</text>
</a>
</g>
<g id="a_node3_8"><a xlink:href="a02101.html#a7b89727b793c1b57a3815e59868c2713" target="_top" xlink:title="AAX_IEffectDescriptor">
<text text-anchor="start" x="220.2" y="-76" font-family="Helvetica,sans-Serif" font-size="10.00">AddMeterDescription()</text>
</a>
</g>
<polygon fill="none" stroke="black" points="203.2,-68 203.2,-184 335.2,-184 335.2,-68 203.2,-68"/>
</a>
</g>
</g>
<!-- icoll&#45;&gt;ipidesc -->
<g id="edge8" class="edge">
<title>icoll:newdesc&#45;&gt;ipidesc:n</title>
<path fill="none" stroke="black" d="M116.6,-193C180.82,-193 259.99,-245.67 268.46,-194.04"/>
<polygon fill="black" stroke="black" points="271.95,-194.23 269.2,-184 264.97,-193.71 271.95,-194.23"/>
</g>
<!-- ipidesc&#45;&gt;icoll -->
<g id="edge2" class="edge">
<title>ipidesc:head&#45;&gt;icoll:addeffect</title>
<path fill="none" stroke="grey" d="M203.2,-174C168.32,-174 157.15,-174 126.71,-174"/>
<polygon fill="grey" stroke="grey" points="126.6,-170.5 116.6,-174 126.6,-177.5 126.6,-170.5"/>
</g>
<!-- icompdesc -->
<g id="node4" class="node">
<title>icompdesc</title>
<g id="a_node4"><a xlink:title="AAX_IComponentDescriptor">
<g id="a_node4_9"><a xlink:href="a02069.html" target="_top" xlink:title="AAX_IComponentDescriptor">
<polygon fill="lightgray" stroke="transparent" points="390.2,-126 390.2,-145 532.2,-145 532.2,-126 390.2,-126"/>
<text text-anchor="start" x="394.2" y="-134" font-family="Helvetica,sans-Serif" font-weight="bold" font-size="10.00">AAX_IComponentDescriptor</text>
</a>
</g>
<g id="a_node4_10"><a xlink:href="a02069.html#a0d7dd21daa8bc588d6a1145c3eb7ef98" target="_top" xlink:title="AAX_IComponentDescriptor">
<text text-anchor="start" x="420.2" y="-114" font-family="Helvetica,sans-Serif" font-size="10.00">NewPropertyMap()</text>
</a>
</g>
<g id="a_node4_11"><a xlink:href="a02069.html#a1c069508cf54a523905c8160ebf628ad" target="_top" xlink:title="AAX_IComponentDescriptor">
<text text-anchor="start" x="404.2" y="-95" font-family="Helvetica,sans-Serif" font-size="10.00">AddProcessProc_Native()</text>
</a>
</g>
<g id="a_node4_12"><a xlink:href="a02069.html#aa8443e720e48046444a2e9f712f0864b" target="_top" xlink:title="AAX_IComponentDescriptor">
<text text-anchor="start" x="414.2" y="-76" font-family="Helvetica,sans-Serif" font-size="10.00">AddProcessProc_TI()</text>
</a>
</g>
<polygon fill="none" stroke="black" points="389.2,-68 389.2,-146 533.2,-146 533.2,-68 389.2,-68"/>
</a>
</g>
</g>
<!-- ipidesc&#45;&gt;icompdesc -->
<g id="edge9" class="edge">
<title>ipidesc:newcompdesc&#45;&gt;icompdesc:n</title>
<path fill="none" stroke="black" d="M335.2,-155C387.5,-155 451.71,-195.92 460.25,-156.11"/>
<polygon fill="black" stroke="black" points="463.75,-156.28 461.2,-146 456.78,-155.63 463.75,-156.28"/>
</g>
<!-- ipropmap_pi -->
<g id="node5" class="node">
<title>ipropmap_pi</title>
<g id="a_node5"><a xlink:title="AAX_IPropertyMap">
<g id="a_node5_13"><a xlink:href="a02157.html" target="_top" xlink:title="AAX_IPropertyMap">
<polygon fill="lightgray" stroke="transparent" points="219.2,-29 219.2,-50 319.2,-50 319.2,-29 219.2,-29"/>
<polygon fill="none" stroke="black" points="219.2,-29 219.2,-50 319.2,-50 319.2,-29 219.2,-29"/>
<text text-anchor="start" x="224.2" y="-38" font-family="Helvetica,sans-Serif" font-weight="bold" font-size="10.00">AAX_IPropertyMap</text>
</a>
</g>
<g id="a_node5_14"><a xlink:href="a02157.html" target="_top" xlink:title="AAX_IPropertyMap">
<polygon fill="lightgray" stroke="transparent" points="219.2,0 219.2,-21 319.2,-21 319.2,0 219.2,0"/>
<polygon fill="none" stroke="black" points="219.2,0 219.2,-21 319.2,-21 319.2,0 219.2,0"/>
<text text-anchor="start" x="224.2" y="-9" font-family="Helvetica,sans-Serif" font-weight="bold" font-size="10.00">AAX_IPropertyMap</text>
</a>
</g>
</a>
</g>
</g>
<!-- ipidesc&#45;&gt;ipropmap_pi -->
<g id="edge10" class="edge">
<title>ipidesc:e&#45;&gt;ipropmap_pi:e</title>
<path fill="none" stroke="black" d="M208.34,-42.19C181.23,-54.65 172.27,-116 203.2,-116"/>
<polygon fill="black" stroke="black" points="209.2,-45.59 218.2,-40 207.68,-38.75 209.2,-45.59"/>
</g>
<!-- ipidesc&#45;&gt;ipropmap_pi -->
<g id="edge11" class="edge">
<title>ipidesc:e&#45;&gt;ipropmap_pi:e</title>
<path fill="none" stroke="black" d="M208.16,-11.67C168.74,-25.15 159.15,-116 203.2,-116"/>
<polygon fill="black" stroke="black" points="208.91,-15.09 218.2,-10 207.76,-8.18 208.91,-15.09"/>
</g>
<!-- icompdesc&#45;&gt;ipidesc -->
<g id="edge3" class="edge">
<title>icompdesc:head&#45;&gt;ipidesc:addcomp</title>
<path fill="none" stroke="grey" d="M389.2,-136C368.95,-136 361.51,-136 345.27,-136"/>
<polygon fill="grey" stroke="grey" points="345.2,-132.5 335.2,-136 345.2,-139.5 345.2,-132.5"/>
</g>
<!-- ipropmap_comp -->
<g id="node6" class="node">
<title>ipropmap_comp</title>
<g id="a_node6"><a xlink:title="AAX_IPropertyMap">
<g id="a_node6_15"><a xlink:href="a02157.html" target="_top" xlink:title="AAX_IPropertyMap">
<polygon fill="lightgray" stroke="transparent" points="411.2,-29 411.2,-50 511.2,-50 511.2,-29 411.2,-29"/>
<polygon fill="none" stroke="black" points="411.2,-29 411.2,-50 511.2,-50 511.2,-29 411.2,-29"/>
<text text-anchor="start" x="416.2" y="-38" font-family="Helvetica,sans-Serif" font-weight="bold" font-size="10.00">AAX_IPropertyMap</text>
</a>
</g>
<g id="a_node6_16"><a xlink:href="a02157.html" target="_top" xlink:title="AAX_IPropertyMap">
<polygon fill="lightgray" stroke="transparent" points="411.2,0 411.2,-21 511.2,-21 511.2,0 411.2,0"/>
<polygon fill="none" stroke="black" points="411.2,0 411.2,-21 511.2,-21 511.2,0 411.2,0"/>
<text text-anchor="start" x="416.2" y="-9" font-family="Helvetica,sans-Serif" font-weight="bold" font-size="10.00">AAX_IPropertyMap</text>
</a>
</g>
</a>
</g>
</g>
<!-- icompdesc&#45;&gt;ipropmap_comp -->
<g id="edge12" class="edge">
<title>icompdesc:e&#45;&gt;ipropmap_comp:e</title>
<path fill="none" stroke="black" d="M400.26,-42.06C371.16,-54.3 357.19,-117 389.2,-117"/>
<polygon fill="black" stroke="black" points="401.12,-45.46 410.2,-40 399.7,-38.6 401.12,-45.46"/>
</g>
<!-- icompdesc&#45;&gt;ipropmap_comp -->
<g id="edge13" class="edge">
<title>icompdesc:e&#45;&gt;ipropmap_comp:e</title>
<path fill="none" stroke="black" d="M400.14,-11.6C359.06,-24.91 344.24,-117 389.2,-117"/>
<polygon fill="black" stroke="black" points="400.87,-15.02 410.2,-10 399.77,-8.11 400.87,-15.02"/>
</g>
<!-- ipropmap_pi&#45;&gt;ipidesc -->
<g id="edge4" class="edge">
<title>ipropmap_pi:w&#45;&gt;ipidesc:w</title>
<path fill="none" stroke="grey" d="M344.58,-93.26C356.43,-80.58 342.3,-40 320.2,-40"/>
<polygon fill="grey" stroke="grey" points="343.19,-90.04 335.2,-97 345.78,-96.55 343.19,-90.04"/>
</g>
<!-- ipropmap_pi&#45;&gt;ipidesc -->
<g id="edge5" class="edge">
<title>ipropmap_pi:w&#45;&gt;ipidesc:w</title>
<path fill="none" stroke="grey" d="M345.17,-74.72C361.88,-61.14 347.04,-10 320.2,-10"/>
<polygon fill="grey" stroke="grey" points="343.61,-71.55 335.2,-78 345.79,-78.2 343.61,-71.55"/>
</g>
<!-- ipropmap_comp&#45;&gt;icompdesc -->
<g id="edge6" class="edge">
<title>ipropmap_comp:w&#45;&gt;icompdesc:w</title>
<path fill="none" stroke="grey" d="M542.5,-93.26C553.49,-80.58 534.98,-40 512.2,-40"/>
<polygon fill="grey" stroke="grey" points="541.17,-90.02 533.2,-97 543.78,-96.52 541.17,-90.02"/>
</g>
<!-- ipropmap_comp&#45;&gt;icompdesc -->
<g id="edge7" class="edge">
<title>ipropmap_comp:w&#45;&gt;icompdesc:w</title>
<path fill="none" stroke="grey" d="M543.12,-74.72C559.06,-61.14 539.63,-10 512.2,-10"/>
<polygon fill="grey" stroke="grey" points="541.59,-71.54 533.2,-78 543.79,-78.18 541.59,-71.54"/>
</g>
</g>
</svg>
