<?xml version="1.0" encoding="UTF-8" standalone="no"?>
<!DOCTYPE svg PUBLIC "-//W3C//DTD SVG 1.1//EN"
 "http://www.w3.org/Graphics/SVG/1.1/DTD/svg11.dtd">
<!-- Generated by graphviz version 6.0.1 (20220911.1526)
 -->
<!-- Title: maininterface Pages: 1 -->
<svg width="701pt" height="246pt"
 viewBox="0.00 0.00 701.00 246.00" xmlns="http://www.w3.org/2000/svg" xmlns:xlink="http://www.w3.org/1999/xlink">
<g id="graph0" class="graph" transform="scale(1 1) rotate(0) translate(4 242)">
<title>maininterface</title>
<polygon fill="white" stroke="none" points="-4,4 -4,-242 697,-242 697,4 -4,4"/>
<g id="clust1" class="cluster">
<title>cluster_datamodel</title>
<g id="a_clust1"><a xlink:href="a00813.html" target="_top" xlink:title="Data Model Interface">
<polygon fill="none" stroke="lightgrey" points="8,-8 8,-230 151,-230 151,-8 8,-8"/>
<text text-anchor="middle" x="79.5" y="-15.8" font-family="Helvetica,sans-Serif" font-size="14.00">Data Model Interface</text>
</a>
</g>
</g>
<g id="clust2" class="cluster">
<title>cluster_gui</title>
<g id="a_clust2"><a xlink:href="a00814.html" target="_top" xlink:title="GUI Interface">
<polygon fill="none" stroke="lightgrey" points="255,-8 255,-230 365,-230 365,-8 255,-8"/>
<text text-anchor="middle" x="310" y="-15.8" font-family="Helvetica,sans-Serif" font-size="14.00">GUI Interface</text>
</a>
</g>
</g>
<g id="clust3" class="cluster">
<title>cluster_describe</title>
<g id="a_clust3"><a xlink:href="a00811.html" target="_top" xlink:title="Description API">
<polygon fill="none" stroke="lightgrey" points="373,-8.5 373,-83.5 539,-83.5 539,-8.5 373,-8.5"/>
<text text-anchor="middle" x="456" y="-16.3" font-family="Helvetica,sans-Serif" font-size="14.00">Description API</text>
</a>
</g>
</g>
<g id="clust4" class="cluster">
<title>cluster_alg</title>
<g id="a_clust4"><a xlink:href="a00812.html" target="_top" xlink:title="Real&#45;time algorithm">
<polygon fill="none" stroke="lightgrey" points="547,-8.5 547,-83.5 685,-83.5 685,-8.5 547,-8.5"/>
<text text-anchor="middle" x="616" y="-16.3" font-family="Helvetica,sans-Serif" font-size="14.00">Real&#45;time algorithm</text>
</a>
</g>
</g>
<!-- idata -->
<g id="node1" class="node">
<title>idata</title>
<g id="a_node1"><a xlink:href="a02113.html" target="_top" xlink:title="AAX_IEffectParameters">
<polygon fill="none" stroke="black" points="19,-185.5 19,-221.5 141,-221.5 141,-185.5 19,-185.5"/>
<text text-anchor="middle" x="80" y="-201" font-family="Helvetica,sans-Serif" font-size="10.00">AAX_IEffectParameters</text>
</a>
</g>
</g>
<!-- cdata -->
<g id="node2" class="node">
<title>cdata</title>
<g id="a_node2"><a xlink:href="a01761.html" target="_top" xlink:title="AAX_CEffectParameters">
<polygon fill="none" stroke="black" points="17,-112.5 17,-148.5 143,-148.5 143,-112.5 17,-112.5"/>
<text text-anchor="middle" x="80" y="-128" font-family="Helvetica,sans-Serif" font-size="10.00">AAX_CEffectParameters</text>
</a>
</g>
</g>
<!-- cdata&#45;&gt;idata -->
<g id="edge1" class="edge">
<title>cdata&#45;&gt;idata</title>
<path fill="none" stroke="black" d="M80,-148.69C80,-156.71 80,-166.45 80,-175.43"/>
<polygon fill="none" stroke="black" points="76.5,-175.47 80,-185.47 83.5,-175.47 76.5,-175.47"/>
</g>
<!-- icontroller -->
<g id="node7" class="node">
<title>icontroller</title>
<g id="a_node7"><a xlink:href="a02077.html" target="_top" xlink:title="AAX_IController">
<polygon fill="none" stroke="black" points="159.5,-185.5 159.5,-221.5 246.5,-221.5 246.5,-185.5 159.5,-185.5"/>
<text text-anchor="middle" x="203" y="-201" font-family="Helvetica,sans-Serif" font-size="10.00">AAX_IController</text>
</a>
</g>
</g>
<!-- cdata&#45;&gt;icontroller -->
<g id="edge5" class="edge">
<title>cdata&#45;&gt;icontroller</title>
<path fill="none" stroke="black" d="M119.89,-154.53C134.16,-162.76 150.2,-172.02 164.36,-180.19"/>
<polygon fill="none" stroke="black" points="119.85,-154.51 112.66,-154.97 109.46,-148.51 116.66,-148.04 119.85,-154.51"/>
<polygon fill="black" stroke="black" points="173.35,-185.39 162.44,-184.28 169.02,-182.89 164.69,-180.39 164.69,-180.39 164.69,-180.39 169.02,-182.89 166.94,-176.49 173.35,-185.39 173.35,-185.39"/>
</g>
<!-- mydata -->
<g id="node3" class="node">
<title>mydata</title>
<polygon fill="none" stroke="gray" points="38.5,-39.5 38.5,-75.5 121.5,-75.5 121.5,-39.5 38.5,-39.5"/>
<text text-anchor="middle" x="80" y="-55" font-family="Helvetica,sans-Serif" font-size="10.00">My Data Model</text>
</g>
<!-- mydata&#45;&gt;cdata -->
<g id="edge2" class="edge">
<title>mydata&#45;&gt;cdata</title>
<path fill="none" stroke="black" d="M80,-75.69C80,-83.71 80,-93.45 80,-102.43"/>
<polygon fill="none" stroke="black" points="76.5,-102.47 80,-112.47 83.5,-102.47 76.5,-102.47"/>
</g>
<!-- igui -->
<g id="node4" class="node">
<title>igui</title>
<g id="a_node4"><a xlink:href="a02109.html" target="_top" xlink:title="AAX_IEffectGUI">
<polygon fill="none" stroke="black" points="265.5,-185.5 265.5,-221.5 354.5,-221.5 354.5,-185.5 265.5,-185.5"/>
<text text-anchor="middle" x="310" y="-201" font-family="Helvetica,sans-Serif" font-size="10.00">AAX_IEffectGUI</text>
</a>
</g>
</g>
<!-- cgui -->
<g id="node5" class="node">
<title>cgui</title>
<g id="a_node5"><a xlink:href="a01757.html" target="_top" xlink:title="AAX_CEffectGUI">
<polygon fill="none" stroke="black" points="263,-112.5 263,-148.5 357,-148.5 357,-112.5 263,-112.5"/>
<text text-anchor="middle" x="310" y="-128" font-family="Helvetica,sans-Serif" font-size="10.00">AAX_CEffectGUI</text>
</a>
</g>
</g>
<!-- cgui&#45;&gt;idata -->
<g id="edge7" class="edge">
<title>cgui&#45;&gt;idata</title>
<path fill="none" stroke="black" d="M251.18,-149.66C218.67,-159.69 178.22,-172.18 144.81,-182.49"/>
<polygon fill="none" stroke="black" points="251.43,-149.58 255.99,-143.99 262.9,-146.04 258.35,-151.63 251.43,-149.58"/>
<polygon fill="black" stroke="black" points="135.13,-185.48 143.36,-178.23 139.91,-184.01 144.68,-182.53 144.68,-182.53 144.68,-182.53 139.91,-184.01 146.01,-186.83 135.13,-185.48 135.13,-185.48"/>
</g>
<!-- cgui&#45;&gt;igui -->
<g id="edge3" class="edge">
<title>cgui&#45;&gt;igui</title>
<path fill="none" stroke="black" d="M310,-148.69C310,-156.71 310,-166.45 310,-175.43"/>
<polygon fill="none" stroke="black" points="306.5,-175.47 310,-185.47 313.5,-175.47 306.5,-175.47"/>
</g>
<!-- cgui&#45;&gt;icontroller -->
<g id="edge6" class="edge">
<title>cgui&#45;&gt;icontroller</title>
<path fill="none" stroke="black" d="M274.01,-155.38C262.2,-163.22 249.11,-171.91 237.41,-179.66"/>
<polygon fill="none" stroke="black" points="274.37,-155.14 277.16,-148.49 284.37,-148.51 281.58,-155.16 274.37,-155.14"/>
<polygon fill="black" stroke="black" points="228.79,-185.39 234.64,-176.11 232.96,-182.62 237.12,-179.86 237.12,-179.86 237.12,-179.86 232.96,-182.62 239.61,-183.61 228.79,-185.39 228.79,-185.39"/>
</g>
<!-- mygui -->
<g id="node6" class="node">
<title>mygui</title>
<polygon fill="none" stroke="gray" points="283,-39.5 283,-75.5 337,-75.5 337,-39.5 283,-39.5"/>
<text text-anchor="middle" x="310" y="-55" font-family="Helvetica,sans-Serif" font-size="10.00">My GUI</text>
</g>
<!-- mygui&#45;&gt;cgui -->
<g id="edge4" class="edge">
<title>mygui&#45;&gt;cgui</title>
<path fill="none" stroke="black" d="M310,-75.69C310,-83.71 310,-93.45 310,-102.43"/>
<polygon fill="none" stroke="black" points="306.5,-102.47 310,-112.47 313.5,-102.47 306.5,-102.47"/>
</g>
<!-- desc -->
<g id="node8" class="node">
<title>desc</title>
<g id="a_node8"><a xlink:href="a00811.html#ga83d05333118598c179ca6d89487fa203" target="_top" xlink:title="GetEffectDescriptions()">
<polygon fill="none" stroke="gray" points="462.91,-39.55 467.49,-39.65 472.02,-39.8 476.48,-39.99 480.86,-40.24 485.14,-40.53 489.3,-40.86 493.32,-41.25 497.2,-41.68 500.91,-42.15 504.44,-42.66 507.79,-43.21 510.93,-43.81 513.86,-44.44 516.57,-45.11 519.06,-45.81 521.31,-46.54 523.32,-47.3 525.1,-48.09 526.62,-48.91 527.91,-49.75 528.95,-50.61 529.74,-51.49 530.3,-52.39 530.61,-53.3 530.7,-54.22 530.56,-55.15 530.2,-56.09 529.62,-57.03 528.84,-57.97 527.87,-58.91 526.7,-59.85 525.36,-60.78 523.85,-61.7 522.19,-62.61 520.37,-63.51 518.42,-64.39 516.34,-65.25 514.14,-66.09 511.83,-66.91 509.42,-67.7 506.93,-68.46 504.35,-69.19 501.7,-69.89 498.99,-70.56 496.22,-71.19 493.41,-71.79 490.54,-72.34 487.64,-72.85 484.71,-73.32 481.75,-73.75 478.77,-74.14 475.77,-74.47 472.75,-74.76 469.72,-75.01 466.68,-75.2 463.64,-75.35 460.58,-75.45 457.53,-75.5 454.47,-75.5 451.42,-75.45 448.36,-75.35 445.32,-75.2 442.28,-75.01 439.25,-74.76 436.23,-74.47 433.23,-74.14 430.25,-73.75 427.29,-73.32 424.36,-72.85 421.46,-72.34 418.59,-71.79 415.78,-71.19 413.01,-70.56 410.3,-69.89 407.65,-69.19 405.07,-68.46 402.58,-67.7 400.17,-66.91 397.86,-66.09 395.66,-65.25 393.58,-64.39 391.63,-63.51 389.81,-62.61 388.15,-61.7 386.64,-60.78 385.3,-59.85 384.13,-58.91 383.16,-57.97 382.38,-57.03 381.8,-56.09 381.44,-55.15 381.3,-54.22 381.39,-53.3 381.7,-52.39 382.26,-51.49 383.05,-50.61 384.09,-49.75 385.38,-48.91 386.9,-48.09 388.68,-47.3 390.69,-46.54 392.94,-45.81 395.43,-45.11 398.14,-44.44 401.07,-43.81 404.21,-43.21 407.56,-42.66 411.09,-42.15 414.8,-41.68 418.68,-41.25 422.7,-40.86 426.86,-40.53 431.14,-40.24 435.52,-39.99 439.98,-39.8 444.51,-39.65 449.09,-39.55 453.69,-39.5 458.31,-39.5 462.91,-39.55"/>
<text text-anchor="middle" x="456" y="-55" font-family="Helvetica,sans-Serif" font-size="10.00">GetEffectDescriptions()</text>
</a>
</g>
</g>
<!-- alg -->
<g id="node9" class="node">
<title>alg</title>
<g id="a_node9"><a xlink:href="a00812.html" target="_top" xlink:title="Algorithm callback">
<polygon fill="none" stroke="gray" points="621.61,-39.55 625.32,-39.65 629,-39.8 632.62,-39.99 636.17,-40.24 639.65,-40.53 643.02,-40.86 646.29,-41.25 649.43,-41.68 652.44,-42.15 655.31,-42.66 658.02,-43.21 660.58,-43.81 662.95,-44.44 665.15,-45.11 667.17,-45.81 669,-46.54 670.63,-47.3 672.07,-48.09 673.31,-48.91 674.35,-49.75 675.19,-50.61 675.84,-51.49 676.29,-52.39 676.55,-53.3 676.62,-54.22 676.5,-55.15 676.21,-56.09 675.74,-57.03 675.11,-57.97 674.32,-58.91 673.38,-59.85 672.29,-60.78 671.06,-61.7 669.71,-62.61 668.24,-63.51 666.65,-64.39 664.96,-65.25 663.18,-66.09 661.3,-66.91 659.35,-67.7 657.33,-68.46 655.24,-69.19 653.09,-69.89 650.89,-70.56 648.64,-71.19 646.35,-71.79 644.03,-72.34 641.68,-72.85 639.3,-73.32 636.9,-73.75 634.48,-74.14 632.04,-74.47 629.59,-74.76 627.13,-75.01 624.67,-75.2 622.2,-75.35 619.72,-75.45 617.24,-75.5 614.76,-75.5 612.28,-75.45 609.8,-75.35 607.33,-75.2 604.87,-75.01 602.41,-74.76 599.96,-74.47 597.52,-74.14 595.1,-73.75 592.7,-73.32 590.32,-72.85 587.97,-72.34 585.65,-71.79 583.36,-71.19 581.11,-70.56 578.91,-69.89 576.76,-69.19 574.67,-68.46 572.65,-67.7 570.7,-66.91 568.82,-66.09 567.04,-65.25 565.35,-64.39 563.76,-63.51 562.29,-62.61 560.94,-61.7 559.71,-60.78 558.62,-59.85 557.68,-58.91 556.89,-57.97 556.26,-57.03 555.79,-56.09 555.5,-55.15 555.38,-54.22 555.45,-53.3 555.71,-52.39 556.16,-51.49 556.81,-50.61 557.65,-49.75 558.69,-48.91 559.93,-48.09 561.37,-47.3 563,-46.54 564.83,-45.81 566.85,-45.11 569.05,-44.44 571.42,-43.81 573.98,-43.21 576.69,-42.66 579.56,-42.15 582.57,-41.68 585.71,-41.25 588.98,-40.86 592.35,-40.53 595.83,-40.24 599.38,-39.99 603,-39.8 606.68,-39.65 610.39,-39.55 614.13,-39.5 617.87,-39.5 621.61,-39.55"/>
<text text-anchor="middle" x="616" y="-55" font-family="Helvetica,sans-Serif" font-size="10.00">Algorithm callback</text>
</a>
</g>
</g>
</g>
</svg>
