<?xml version="1.0" encoding="UTF-8" standalone="no"?>
<!DOCTYPE svg PUBLIC "-//W3C//DTD SVG 1.1//EN"
 "http://www.w3.org/Graphics/SVG/1.1/DTD/svg11.dtd">
<!-- Generated by graphviz version 6.0.1 (20220911.1526)
 -->
<!-- Title: aax_acf_versioning Pages: 1 -->
<svg width="402pt" height="555pt"
 viewBox="0.00 0.00 401.60 555.00" xmlns="http://www.w3.org/2000/svg" xmlns:xlink="http://www.w3.org/1999/xlink">
<g id="graph0" class="graph" transform="scale(1 1) rotate(0) translate(4 551)">
<title>aax_acf_versioning</title>
<polygon fill="white" stroke="none" points="-4,4 -4,-551 397.6,-551 397.6,4 -4,4"/>
<g id="clust1" class="cluster">
<title>cluster_plugin</title>
<g id="a_clust1"><a xlink:href="a00813.html" target="_top" xlink:title="AAX Effect">
<polygon fill="none" stroke="lightgrey" points="73.6,-8 73.6,-266 325.6,-266 325.6,-8 73.6,-8"/>
<text text-anchor="middle" x="199.6" y="-15.8" font-family="Helvetica,sans-Serif" font-size="14.00">AAX Effect</text>
</a>
</g>
</g>
<g id="clust3" class="cluster">
<title>cluster_acfinterfaces</title>
<polygon fill="none" stroke="lightgrey" points="9.6,-281 9.6,-448 317.6,-448 317.6,-281 9.6,-281"/>
<text text-anchor="middle" x="163.6" y="-288.8" font-family="Helvetica,sans-Serif" font-size="14.00">AAX ACF Interfaces</text>
</g>
<g id="clust4" class="cluster">
<title>cluster_acf</title>
<polygon fill="none" stroke="lightgrey" points="183.6,-463 183.6,-539 385.6,-539 385.6,-463 183.6,-463"/>
<text text-anchor="middle" x="284.6" y="-470.8" font-family="Helvetica,sans-Serif" font-size="14.00">ACF</text>
</g>
<!-- iacfunknown -->
<g id="node1" class="node">
<title>iacfunknown</title>
<g id="a_node1"><a xlink:href="a01689.html" target="_top" xlink:title="IACFUnknown">
<polygon fill="none" stroke="black" points="192.1,-494.5 192.1,-530.5 273.1,-530.5 273.1,-494.5 192.1,-494.5"/>
<text text-anchor="middle" x="232.6" y="-510" font-family="Helvetica,sans-Serif" font-size="10.00">IACFUnknown</text>
</a>
</g>
</g>
<!-- cacfunknown -->
<g id="node2" class="node">
<title>cacfunknown</title>
<polygon fill="none" stroke="black" points="291.6,-494.5 291.6,-530.5 377.6,-530.5 377.6,-494.5 291.6,-494.5"/>
<text text-anchor="middle" x="334.6" y="-510" font-family="Helvetica,sans-Serif" font-size="10.00">CACFUnknown</text>
</g>
<!-- iacfdata -->
<g id="node3" class="node">
<title>iacfdata</title>
<g id="a_node3"><a xlink:href="a01953.html" target="_top" xlink:title="AAX_IACFEffectParameters">
<polygon fill="none" stroke="black" points="161.6,-403.5 161.6,-439.5 303.6,-439.5 303.6,-403.5 161.6,-403.5"/>
<text text-anchor="middle" x="232.6" y="-419" font-family="Helvetica,sans-Serif" font-size="10.00">AAX_IACFEffectParameters</text>
</a>
</g>
</g>
<!-- iacfdata&#45;&gt;iacfunknown -->
<g id="edge10" class="edge">
<title>iacfdata&#45;&gt;iacfunknown</title>
<path fill="none" stroke="black" d="M232.6,-439.66C232.6,-452.22 232.6,-469.52 232.6,-484"/>
<polygon fill="none" stroke="black" points="229.1,-484.39 232.6,-494.39 236.1,-484.39 229.1,-484.39"/>
</g>
<!-- iacfdata2 -->
<g id="node4" class="node">
<title>iacfdata2</title>
<polygon fill="none" stroke="black" points="155.6,-312.5 155.6,-348.5 309.6,-348.5 309.6,-312.5 155.6,-312.5"/>
<text text-anchor="middle" x="232.6" y="-328" font-family="Helvetica,sans-Serif" font-size="10.00">AAX_IACFEffectParametersV2</text>
</g>
<!-- iacfdata2&#45;&gt;iacfdata -->
<g id="edge6" class="edge">
<title>iacfdata2&#45;&gt;iacfdata</title>
<path fill="none" stroke="black" d="M232.6,-348.66C232.6,-361.22 232.6,-378.52 232.6,-393"/>
<polygon fill="none" stroke="black" points="229.1,-393.39 232.6,-403.39 236.1,-393.39 229.1,-393.39"/>
</g>
<!-- idata -->
<g id="node5" class="node">
<title>idata</title>
<g id="a_node5"><a xlink:href="a02113.html" target="_top" xlink:title="AAX_IEffectParameters">
<polygon fill="none" stroke="black" points="193.6,-221.5 193.6,-257.5 315.6,-257.5 315.6,-221.5 193.6,-221.5"/>
<text text-anchor="middle" x="254.6" y="-237" font-family="Helvetica,sans-Serif" font-size="10.00">AAX_IEffectParameters</text>
</a>
</g>
</g>
<!-- idata&#45;&gt;cacfunknown -->
<g id="edge11" class="edge">
<title>idata&#45;&gt;cacfunknown</title>
<path fill="none" stroke="black" d="M296.72,-257.53C306.48,-263.49 315.71,-271.22 321.6,-281 360.25,-345.22 349.37,-438.62 340.7,-484.29"/>
<polygon fill="none" stroke="black" points="337.22,-483.82 338.68,-494.32 344.09,-485.21 337.22,-483.82"/>
</g>
<!-- idata&#45;&gt;iacfdata2 -->
<g id="edge5" class="edge">
<title>idata&#45;&gt;iacfdata2</title>
<path fill="none" stroke="black" d="M250.36,-257.66C247.22,-270.34 242.89,-287.86 239.29,-302.42"/>
<polygon fill="none" stroke="black" points="235.83,-301.84 236.83,-312.39 242.63,-303.52 235.83,-301.84"/>
</g>
<!-- cdata -->
<g id="node6" class="node">
<title>cdata</title>
<g id="a_node6"><a xlink:href="a01761.html" target="_top" xlink:title="AAX_CEffectParameters">
<polygon fill="none" stroke="black" points="191.6,-130.5 191.6,-166.5 317.6,-166.5 317.6,-130.5 191.6,-130.5"/>
<text text-anchor="middle" x="254.6" y="-146" font-family="Helvetica,sans-Serif" font-size="10.00">AAX_CEffectParameters</text>
</a>
</g>
</g>
<!-- cdata&#45;&gt;idata -->
<g id="edge1" class="edge">
<title>cdata&#45;&gt;idata</title>
<path fill="none" stroke="black" d="M254.6,-166.66C254.6,-179.22 254.6,-196.52 254.6,-211"/>
<polygon fill="none" stroke="black" points="251.1,-211.39 254.6,-221.39 258.1,-211.39 251.1,-211.39"/>
</g>
<!-- icontroller -->
<g id="node10" class="node">
<title>icontroller</title>
<g id="a_node10"><a xlink:href="a02077.html" target="_top" xlink:title="AAX_IController">
<polygon fill="none" stroke="black" points="84.1,-221.5 84.1,-257.5 171.1,-257.5 171.1,-221.5 84.1,-221.5"/>
<text text-anchor="middle" x="127.6" y="-237" font-family="Helvetica,sans-Serif" font-size="10.00">AAX_IController</text>
</a>
</g>
</g>
<!-- cdata&#45;&gt;icontroller -->
<g id="edge3" class="edge">
<title>cdata&#45;&gt;icontroller</title>
<path fill="none" stroke="black" stroke-dasharray="5,2" d="M220.05,-173.71C201.54,-186.68 178.86,-202.58 160.59,-215.38"/>
<polygon fill="none" stroke="black" points="220.29,-173.55 222.91,-166.83 230.11,-166.66 227.5,-173.38 220.29,-173.55"/>
<polygon fill="black" stroke="black" points="152.01,-221.39 157.62,-211.97 156.11,-218.52 160.2,-215.65 160.2,-215.65 160.2,-215.65 156.11,-218.52 162.78,-219.34 152.01,-221.39 152.01,-221.39"/>
</g>
<!-- mydata -->
<g id="node7" class="node">
<title>mydata</title>
<polygon fill="none" stroke="gray" points="213.1,-39.5 213.1,-75.5 296.1,-75.5 296.1,-39.5 213.1,-39.5"/>
<text text-anchor="middle" x="254.6" y="-55" font-family="Helvetica,sans-Serif" font-size="10.00">My Data Model</text>
</g>
<!-- mydata&#45;&gt;cdata -->
<g id="edge2" class="edge">
<title>mydata&#45;&gt;cdata</title>
<path fill="none" stroke="black" d="M254.6,-75.66C254.6,-88.22 254.6,-105.52 254.6,-120"/>
<polygon fill="none" stroke="black" points="251.1,-120.39 254.6,-130.39 258.1,-120.39 251.1,-120.39"/>
</g>
<!-- iacfcontroller -->
<g id="node8" class="node">
<title>iacfcontroller</title>
<g id="a_node8"><a xlink:href="a01917.html" target="_top" xlink:title="AAX_IACFController">
<polygon fill="none" stroke="black" points="30.1,-403.5 30.1,-439.5 137.1,-439.5 137.1,-403.5 30.1,-403.5"/>
<text text-anchor="middle" x="83.6" y="-419" font-family="Helvetica,sans-Serif" font-size="10.00">AAX_IACFController</text>
</a>
</g>
</g>
<!-- iacfcontroller&#45;&gt;iacfunknown -->
<g id="edge12" class="edge">
<title>iacfcontroller&#45;&gt;iacfunknown</title>
<path fill="none" stroke="black" d="M112.33,-439.66C135.93,-453.76 169.54,-473.83 195.23,-489.18"/>
<polygon fill="none" stroke="black" points="193.58,-492.27 203.96,-494.39 197.17,-486.26 193.58,-492.27"/>
</g>
<!-- iacfcontroller2 -->
<g id="node9" class="node">
<title>iacfcontroller2</title>
<polygon fill="none" stroke="black" points="18.1,-312.5 18.1,-348.5 137.1,-348.5 137.1,-312.5 18.1,-312.5"/>
<text text-anchor="middle" x="77.6" y="-328" font-family="Helvetica,sans-Serif" font-size="10.00">AAX_IACFControllerV2</text>
</g>
<!-- iacfcontroller2&#45;&gt;iacfcontroller -->
<g id="edge9" class="edge">
<title>iacfcontroller2&#45;&gt;iacfcontroller</title>
<path fill="none" stroke="black" d="M78.76,-348.66C79.6,-361.22 80.77,-378.52 81.75,-393"/>
<polygon fill="none" stroke="black" points="78.28,-393.65 82.45,-403.39 85.27,-393.18 78.28,-393.65"/>
</g>
<!-- vcontroller -->
<g id="node11" class="node">
<title>vcontroller</title>
<polygon fill="none" stroke="black" points="82.1,-130.5 82.1,-166.5 173.1,-166.5 173.1,-130.5 82.1,-130.5"/>
<text text-anchor="middle" x="127.6" y="-146" font-family="Helvetica,sans-Serif" font-size="10.00">AAX_VController</text>
</g>
<!-- vcontroller&#45;&gt;iacfcontroller -->
<g id="edge7" class="edge">
<title>vcontroller&#45;&gt;iacfcontroller</title>
<path fill="none" stroke="black" stroke-dasharray="5,2" d="M94.02,-174.48C65.18,-198.23 25.63,-236.79 8.6,-281 -2.26,-309.2 -3.3,-321.22 8.6,-349 16.85,-368.26 33.11,-384.79 48.39,-397.09"/>
<polygon fill="none" stroke="black" points="94.35,-174.22 96.54,-167.35 103.72,-166.72 101.54,-173.59 94.35,-174.22"/>
<polygon fill="black" stroke="black" points="56.72,-403.48 46.04,-400.96 52.75,-400.43 48.78,-397.39 48.78,-397.39 48.78,-397.39 52.75,-400.43 51.52,-393.82 56.72,-403.48 56.72,-403.48"/>
</g>
<!-- vcontroller&#45;&gt;iacfcontroller2 -->
<g id="edge8" class="edge">
<title>vcontroller&#45;&gt;iacfcontroller2</title>
<path fill="none" stroke="black" stroke-dasharray="5,2" d="M102.24,-175.86C91.84,-188.47 80.99,-204.41 75.6,-221 66.94,-247.64 69.01,-279.93 72.27,-302.32"/>
<polygon fill="none" stroke="black" points="102.5,-175.57 103.42,-168.41 110.38,-166.51 109.45,-173.66 102.5,-175.57"/>
<polygon fill="black" stroke="black" points="73.93,-312.45 67.88,-303.31 73.12,-307.52 72.32,-302.59 72.32,-302.59 72.32,-302.59 73.12,-307.52 76.76,-301.86 73.93,-312.45 73.93,-312.45"/>
</g>
<!-- vcontroller&#45;&gt;icontroller -->
<g id="edge4" class="edge">
<title>vcontroller&#45;&gt;icontroller</title>
<path fill="none" stroke="black" d="M127.6,-166.66C127.6,-179.22 127.6,-196.52 127.6,-211"/>
<polygon fill="none" stroke="black" points="124.1,-211.39 127.6,-221.39 131.1,-211.39 124.1,-211.39"/>
</g>
</g>
</svg>
