<?xml version="1.0" encoding="UTF-8" standalone="no"?>
<!DOCTYPE svg PUBLIC "-//W3C//DTD SVG 1.1//EN"
 "http://www.w3.org/Graphics/SVG/1.1/DTD/svg11.dtd">
<!-- Generated by graphviz version 2.47.3 (20210619.1520)
 -->
<!-- Title: Graphical Class Hierarchy Pages: 1 -->
<svg width="507pt" height="263pt"
 viewBox="0.00 0.00 507.00 263.00" xmlns="http://www.w3.org/2000/svg" xmlns:xlink="http://www.w3.org/1999/xlink">
<g id="graph0" class="graph" transform="scale(1 1) rotate(0) translate(4 259)">
<title>Graphical Class Hierarchy</title>
<polygon fill="white" stroke="transparent" points="-4,4 -4,-259 503,-259 503,4 -4,4"/>
<!-- Node0 -->
<g id="node1" class="node">
<title>Node0</title>
<g id="a_node1"><a xlink:href="a02165.html" target="_top" xlink:title="Defines the taper conversion behavior for a parameter.">
<polygon fill="white" stroke="black" points="0,-117.5 0,-136.5 131,-136.5 131,-117.5 0,-117.5"/>
<text text-anchor="middle" x="65.5" y="-124.5" font-family="Helvetica,sans-Serif" font-size="10.00">AAX_ITaperDelegateBase</text>
</a>
</g>
</g>
<!-- Node1 -->
<g id="node2" class="node">
<title>Node1</title>
<g id="a_node2"><a xlink:href="a02169.html" target="_top" xlink:title="Classes for conversion to and from normalized parameter values.">
<polygon fill="white" stroke="black" points="167,-117.5 167,-136.5 299,-136.5 299,-117.5 167,-117.5"/>
<text text-anchor="middle" x="233" y="-124.5" font-family="Helvetica,sans-Serif" font-size="10.00">AAX_ITaperDelegate&lt; T &gt;</text>
</a>
</g>
</g>
<!-- Node0&#45;&gt;Node1 -->
<g id="edge1" class="edge">
<title>Node0&#45;&gt;Node1</title>
<path fill="none" stroke="midnightblue" d="M141.67,-127C150.12,-127 158.67,-127 166.98,-127"/>
<polygon fill="midnightblue" stroke="midnightblue" points="141.44,-123.5 131.43,-127 141.43,-130.5 141.44,-123.5"/>
</g>
<!-- Node2 -->
<g id="node3" class="node">
<title>Node2</title>
<g id="a_node3"><a xlink:href="a01737.html" target="_top" xlink:title="A binary taper conforming to AAX_ITaperDelegate.">
<polygon fill="white" stroke="black" points="335,-235.5 335,-254.5 499,-254.5 499,-235.5 335,-235.5"/>
<text text-anchor="middle" x="417" y="-242.5" font-family="Helvetica,sans-Serif" font-size="10.00">AAX_CBinaryTaperDelegate&lt; T &gt;</text>
</a>
</g>
</g>
<!-- Node1&#45;&gt;Node2 -->
<g id="edge2" class="edge">
<title>Node1&#45;&gt;Node2</title>
<path fill="none" stroke="midnightblue" d="M246.95,-144.66C264.39,-167.11 297.58,-205.42 335,-226 342.09,-229.9 349.95,-233 357.91,-235.47"/>
<polygon fill="midnightblue" stroke="midnightblue" points="249.7,-142.49 240.87,-136.64 244.12,-146.72 249.7,-142.49"/>
</g>
<!-- Node3 -->
<g id="node4" class="node">
<title>Node3</title>
<g id="a_node4"><a xlink:href="a01773.html" target="_top" xlink:title="A linear taper conforming to AAX_ITaperDelegate.">
<polygon fill="white" stroke="black" points="347.5,-186 347.5,-216 486.5,-216 486.5,-186 347.5,-186"/>
<text text-anchor="start" x="355.5" y="-204" font-family="Helvetica,sans-Serif" font-size="10.00">AAX_CLinearTaperDelegate</text>
<text text-anchor="middle" x="417" y="-193" font-family="Helvetica,sans-Serif" font-size="10.00">&lt; T, RealPrecision &gt;</text>
</a>
</g>
</g>
<!-- Node1&#45;&gt;Node3 -->
<g id="edge3" class="edge">
<title>Node1&#45;&gt;Node3</title>
<path fill="none" stroke="midnightblue" d="M259.95,-141.39C280.03,-152.14 308.74,-166.7 335,-177 343.19,-180.21 351.99,-183.24 360.67,-185.99"/>
<polygon fill="midnightblue" stroke="midnightblue" points="261.56,-138.29 251.1,-136.6 258.23,-144.44 261.56,-138.29"/>
</g>
<!-- Node4 -->
<g id="node5" class="node">
<title>Node4</title>
<g id="a_node5"><a xlink:href="a01777.html" target="_top" xlink:title="A logarithmic taper conforming to AAX_ITaperDelegate.">
<polygon fill="white" stroke="black" points="353,-137 353,-167 481,-167 481,-137 353,-137"/>
<text text-anchor="start" x="361" y="-155" font-family="Helvetica,sans-Serif" font-size="10.00">AAX_CLogTaperDelegate</text>
<text text-anchor="middle" x="417" y="-144" font-family="Helvetica,sans-Serif" font-size="10.00">&lt; T, RealPrecision &gt;</text>
</a>
</g>
</g>
<!-- Node1&#45;&gt;Node4 -->
<g id="edge4" class="edge">
<title>Node1&#45;&gt;Node4</title>
<path fill="none" stroke="midnightblue" d="M309.13,-137.32C323.64,-139.31 338.7,-141.38 352.79,-143.32"/>
<polygon fill="midnightblue" stroke="midnightblue" points="309.58,-133.85 299.19,-135.95 308.62,-140.78 309.58,-133.85"/>
</g>
<!-- Node5 -->
<g id="node6" class="node">
<title>Node5</title>
<g id="a_node6"><a xlink:href="a01833.html" target="_top" xlink:title="A piece&#45;wise linear taper conforming to AAX_ITaperDelegate.">
<polygon fill="white" stroke="black" points="343.5,-88 343.5,-118 490.5,-118 490.5,-88 343.5,-88"/>
<text text-anchor="start" x="351.5" y="-106" font-family="Helvetica,sans-Serif" font-size="10.00">AAX_CPieceWiseLinearTaper</text>
<text text-anchor="middle" x="417" y="-95" font-family="Helvetica,sans-Serif" font-size="10.00">Delegate&lt; T, RealPrecision &gt;</text>
</a>
</g>
</g>
<!-- Node1&#45;&gt;Node5 -->
<g id="edge5" class="edge">
<title>Node1&#45;&gt;Node5</title>
<path fill="none" stroke="midnightblue" d="M309.36,-117.06C320.56,-115.59 332.09,-114.07 343.23,-112.6"/>
<polygon fill="midnightblue" stroke="midnightblue" points="308.65,-113.63 299.19,-118.4 309.56,-120.57 308.65,-113.63"/>
</g>
<!-- Node6 -->
<g id="node7" class="node">
<title>Node6</title>
<g id="a_node7"><a xlink:href="a01837.html" target="_top" xlink:title="A piecewise&#45;linear taper conforming to AAX_ITaperDelegate.">
<polygon fill="white" stroke="black" points="346.5,-39 346.5,-69 487.5,-69 487.5,-39 346.5,-39"/>
<text text-anchor="start" x="354.5" y="-57" font-family="Helvetica,sans-Serif" font-size="10.00">AAX_CRangeTaperDelegate</text>
<text text-anchor="middle" x="417" y="-46" font-family="Helvetica,sans-Serif" font-size="10.00">&lt; T, RealPrecision &gt;</text>
</a>
</g>
</g>
<!-- Node1&#45;&gt;Node6 -->
<g id="edge6" class="edge">
<title>Node1&#45;&gt;Node6</title>
<path fill="none" stroke="midnightblue" d="M261.42,-112.65C281.47,-102.48 309.5,-88.93 335,-79 344.05,-75.47 353.82,-72.1 363.33,-69.04"/>
<polygon fill="midnightblue" stroke="midnightblue" points="259.57,-109.66 252.26,-117.34 262.76,-115.89 259.57,-109.66"/>
</g>
<!-- Node7 -->
<g id="node8" class="node">
<title>Node7</title>
<g id="a_node8"><a xlink:href="a01849.html" target="_top" xlink:title="A linear taper conforming to AAX_ITaperDelegate.">
<polygon fill="white" stroke="black" points="337,-0.5 337,-19.5 497,-19.5 497,-0.5 337,-0.5"/>
<text text-anchor="middle" x="417" y="-7.5" font-family="Helvetica,sans-Serif" font-size="10.00">AAX_CStateTaperDelegate&lt; T &gt;</text>
</a>
</g>
</g>
<!-- Node1&#45;&gt;Node7 -->
<g id="edge7" class="edge">
<title>Node1&#45;&gt;Node7</title>
<path fill="none" stroke="midnightblue" d="M247.34,-109.44C264.98,-87.47 298.16,-50.3 335,-30 342.87,-25.67 351.67,-22.26 360.5,-19.58"/>
<polygon fill="midnightblue" stroke="midnightblue" points="244.59,-107.27 241.17,-117.3 250.09,-111.6 244.59,-107.27"/>
</g>
</g>
</svg>
