<?xml version="1.0" encoding="UTF-8" standalone="no"?>
<!DOCTYPE svg PUBLIC "-//W3C//DTD SVG 1.1//EN"
 "http://www.w3.org/Graphics/SVG/1.1/DTD/svg11.dtd">
<!-- Generated by graphviz version 2.47.3 (20210619.1520)
 -->
<!-- Title: Graphical Class Hierarchy Pages: 1 -->
<svg width="270pt" height="66pt"
 viewBox="0.00 0.00 270.00 66.00" xmlns="http://www.w3.org/2000/svg" xmlns:xlink="http://www.w3.org/1999/xlink">
<g id="graph0" class="graph" transform="scale(1 1) rotate(0) translate(4 62)">
<title>Graphical Class Hierarchy</title>
<polygon fill="white" stroke="transparent" points="-4,4 -4,-62 266,-62 266,4 -4,4"/>
<!-- Node0 -->
<g id="node1" class="node">
<title>Node0</title>
<g id="a_node1"><a xlink:href="a02145.html" target="_top" xlink:title="The base interface for all normalizable plug&#45;in parameters.">
<polygon fill="white" stroke="black" points="0,-19.5 0,-38.5 90,-38.5 90,-19.5 0,-19.5"/>
<text text-anchor="middle" x="45" y="-26.5" font-family="Helvetica,sans-Serif" font-size="10.00">AAX_IParameter</text>
</a>
</g>
</g>
<!-- Node1 -->
<g id="node2" class="node">
<title>Node1</title>
<g id="a_node2"><a xlink:href="a01817.html" target="_top" xlink:title="Generic implementation of an AAX_IParameter.">
<polygon fill="white" stroke="black" points="134.5,-38.5 134.5,-57.5 253.5,-57.5 253.5,-38.5 134.5,-38.5"/>
<text text-anchor="middle" x="194" y="-45.5" font-family="Helvetica,sans-Serif" font-size="10.00">AAX_CParameter&lt; T &gt;</text>
</a>
</g>
</g>
<!-- Node0&#45;&gt;Node1 -->
<g id="edge1" class="edge">
<title>Node0&#45;&gt;Node1</title>
<path fill="none" stroke="midnightblue" d="M100.1,-35.99C111.21,-37.43 122.97,-38.95 134.23,-40.4"/>
<polygon fill="midnightblue" stroke="midnightblue" points="100.47,-32.51 90.1,-34.7 99.57,-39.45 100.47,-32.51"/>
</g>
<!-- Node2 -->
<g id="node3" class="node">
<title>Node2</title>
<g id="a_node3"><a xlink:href="a01821.html" target="_top" xlink:title="A stateless parameter implementation.">
<polygon fill="white" stroke="black" points="126,-0.5 126,-19.5 262,-19.5 262,-0.5 126,-0.5"/>
<text text-anchor="middle" x="194" y="-7.5" font-family="Helvetica,sans-Serif" font-size="10.00">AAX_CStatelessParameter</text>
</a>
</g>
</g>
<!-- Node0&#45;&gt;Node2 -->
<g id="edge2" class="edge">
<title>Node0&#45;&gt;Node2</title>
<path fill="none" stroke="midnightblue" d="M100.1,-22.01C108.47,-20.93 117.2,-19.8 125.82,-18.68"/>
<polygon fill="midnightblue" stroke="midnightblue" points="99.57,-18.55 90.1,-23.3 100.47,-25.49 99.57,-18.55"/>
</g>
</g>
</svg>
