<!DOCTYPE svg PUBLIC "-//W3C//DTD SVG 1.1//EN"
 "http://www.w3.org/Graphics/SVG/1.1/DTD/svg11.dtd">
<svg version="1.1"
 width="600px" height="1015px"
 viewBox="0 0 600 1015"
 xmlns="http://www.w3.org/2000/svg" shape-rendering="crispEdges"
 stroke-width="1" text-rendering="geometricPrecision">
<polygon fill="#EDEBFF" points="136,7 162,7 162,16 136,16"/>
<text x="150" y="16" textLength="25" font-family="Helvetica" font-size="12" fill="black" text-anchor="middle">

Host
</text>
<polygon fill="#EAFBEF" points="429,7 469,7 469,16 429,16"/>
<text x="450" y="16" textLength="38" font-family="Helvetica" font-size="12" fill="black" text-anchor="middle">

Plug-In
</text>
<line x1="150" y1="22" x2="150" y2="39" stroke="black"/>
<line x1="450" y1="22" x2="450" y2="39" stroke="black"/>
<line x1="150" y1="39" x2="150" y2="56" stroke="black"/>
<line x1="450" y1="39" x2="450" y2="56" stroke="black"/>
<line x1="150" y1="56" x2="150" y2="84" stroke="black"/>
<line x1="450" y1="56" x2="450" y2="84" stroke="black"/>
<polygon fill="#F0F0F0" points="8,56 580,56 580,78 8,78"/>
<polygon fill="#F0F0F0" points="8,68 592,68 592,78 8,78"/>
<polygon fill="#F0F0F0" points="580,56 592,68 580,68"/>
<line x1="8" y1="56" x2="580" y2="56" stroke="black"/>
<line x1="8" y1="78" x2="592" y2="78" stroke="black"/>
<line x1="8" y1="56" x2="8" y2="78" stroke="black"/>
<line x1="592" y1="68" x2="592" y2="78" stroke="black"/>
<line x1="580" y1="56" x2="592" y2="68" stroke="black"/>
<line x1="580" y1="56" x2="580" y2="68" stroke="black"/>
<line x1="592" y1="68" x2="580" y2="68" stroke="black"/>
<polygon fill="#F0F0F0" points="247,63 351,63 351,72 247,72"/>
<text x="248" y="72" textLength="102" font-family="Helvetica" font-size="12" fill="black">
Edit event handling
</text>
<line x1="150" y1="84" x2="150" y2="112" stroke="black"/>
<line x1="450" y1="84" x2="450" y2="112" stroke="black"/>
<polygon fill="#EAFBEF" points="314,84 586,84 586,106 314,106"/>
<polygon fill="#EAFBEF" points="308,90 592,90 592,100 308,100"/>
<circle fill="#EAFBEF" cx="314" cy="90" r="6"/>
<circle fill="#EAFBEF" cx="586" cy="90" r="6"/>
<circle fill="#EAFBEF" cx="314" cy="100" r="6"/>
<circle fill="#EAFBEF" cx="586" cy="100" r="6"/>
<line x1="314" y1="84" x2="586" y2="84" stroke="black"/>
<line x1="314" y1="106" x2="586" y2="106" stroke="black"/>
<line x1="308" y1="90" x2="308" y2="100" stroke="black"/>
<line x1="592" y1="90" x2="592" y2="100" stroke="black"/>
<path d="M 308 90 A6,6 0 0,1 314,84" stroke="black" fill="none"/><path d="M 586 84 A6,6 0 0,1 592,90" stroke="black" fill="none"/><path d="M 592 100 A6,6 0 0,1 586,106" stroke="black" fill="none"/><path d="M 314 106 A6,6 0 0,1 308,100" stroke="black" fill="none"/><polygon fill="#EAFBEF" points="411,91 488,91 488,100 411,100"/>
<text x="412" y="100" textLength="75" font-family="Helvetica" font-size="12" fill="black">
OS Edit Event
</text>
<line x1="150" y1="112" x2="150" y2="140" stroke="black"/>
<line x1="450" y1="112" x2="450" y2="140" stroke="black"/>
<line x1="450" y1="123" x2="150" y2="123" stroke="black"/>
<line x1="150" y1="123" x2="160" y2="129" stroke="black"/>
<polygon fill="#EAFBEF" points="169,113 430,113 430,122 169,122"/>
<text x="170" y="122" textLength="259" font-family="Helvetica" font-size="12" fill="blue">
AAX_IAutomationDelegate::PostTouchRequest()
</text>
<line x1="150" y1="140" x2="150" y2="168" stroke="black"/>
<line x1="450" y1="140" x2="450" y2="168" stroke="black"/>
<line x1="450" y1="151" x2="150" y2="151" stroke="black"/>
<line x1="150" y1="151" x2="160" y2="157" stroke="black"/>
<polygon fill="#EAFBEF" points="161,141 438,141 438,150 161,150"/>
<text x="162" y="150" textLength="275" font-family="Helvetica" font-size="12" fill="blue">
AAX_IAutomationDelegate::PostSetValueRequest()
</text>
<line x1="150" y1="168" x2="150" y2="196" stroke="black"/>
<line x1="450" y1="168" x2="450" y2="196" stroke="black"/>
<line x1="450" y1="179" x2="150" y2="179" stroke="black"/>
<line x1="150" y1="179" x2="160" y2="185" stroke="black"/>
<polygon fill="#EAFBEF" points="163,169 435,169 435,178 163,178"/>
<text x="164" y="178" textLength="270" font-family="Helvetica" font-size="12" fill="blue">
AAX_IAutomationDelegate::PostReleaseRequest()
</text>
<line x1="150" y1="196" x2="150" y2="213" stroke="black"/>
<line x1="450" y1="196" x2="450" y2="213" stroke="black"/>
<line x1="150" y1="213" x2="150" y2="230" stroke="black"/>
<line x1="450" y1="213" x2="450" y2="230" stroke="black"/>
<line x1="150" y1="230" x2="150" y2="258" stroke="black"/>
<line x1="450" y1="230" x2="450" y2="258" stroke="black"/>
<polygon fill="#F0F0F0" points="8,230 580,230 580,252 8,252"/>
<polygon fill="#F0F0F0" points="8,242 592,242 592,252 8,252"/>
<polygon fill="#F0F0F0" points="580,230 592,242 580,242"/>
<line x1="8" y1="230" x2="580" y2="230" stroke="black"/>
<line x1="8" y1="252" x2="592" y2="252" stroke="black"/>
<line x1="8" y1="230" x2="8" y2="252" stroke="black"/>
<line x1="592" y1="242" x2="592" y2="252" stroke="black"/>
<line x1="580" y1="230" x2="592" y2="242" stroke="black"/>
<line x1="580" y1="230" x2="580" y2="242" stroke="black"/>
<line x1="592" y1="242" x2="580" y2="242" stroke="black"/>
<polygon fill="#F0F0F0" points="249,237 350,237 350,246 249,246"/>
<text x="250" y="246" textLength="99" font-family="Helvetica" font-size="12" fill="black">
Set value handling
</text>
<line x1="150" y1="258" x2="150" y2="286" stroke="black"/>
<line x1="450" y1="258" x2="450" y2="286" stroke="black"/>
<polygon fill="#EDEBFF" points="14,258 286,258 286,280 14,280"/>
<polygon fill="#EDEBFF" points="8,264 292,264 292,274 8,274"/>
<circle fill="#EDEBFF" cx="14" cy="264" r="6"/>
<circle fill="#EDEBFF" cx="286" cy="264" r="6"/>
<circle fill="#EDEBFF" cx="14" cy="274" r="6"/>
<circle fill="#EDEBFF" cx="286" cy="274" r="6"/>
<line x1="14" y1="258" x2="286" y2="258" stroke="black"/>
<line x1="14" y1="280" x2="286" y2="280" stroke="black"/>
<line x1="8" y1="264" x2="8" y2="274" stroke="black"/>
<line x1="292" y1="264" x2="292" y2="274" stroke="black"/>
<path d="M 8 264 A6,6 0 0,1 14,258" stroke="black" fill="none"/><path d="M 286 258 A6,6 0 0,1 292,264" stroke="black" fill="none"/><path d="M 292 274 A6,6 0 0,1 286,280" stroke="black" fill="none"/><path d="M 14 280 A6,6 0 0,1 8,274" stroke="black" fill="none"/><polygon fill="#EDEBFF" points="64,265 235,265 235,274 64,274"/>
<text x="65" y="274" textLength="169" font-family="Helvetica" font-size="12" fill="black">
PostTouchRequest() processed
</text>
<line x1="150" y1="286" x2="150" y2="314" stroke="black"/>
<line x1="450" y1="286" x2="450" y2="314" stroke="black"/>
<line x1="150" y1="297" x2="450" y2="297" stroke="black"/>
<polygon fill="black" points="450,297 440,303 440,291"/>
<polygon fill="#EDEBFF" points="164,287 435,287 435,296 164,296"/>
<text x="165" y="296" textLength="269" font-family="Helvetica" font-size="12" fill="blue">
AAX_IEffectParameters::UpdateParameterTouch()
</text>
<polygon fill="#EDEBFF" points="253,298 346,298 346,307 253,307"/>
<text x="254" y="307" textLength="91" font-family="Helvetica" font-size="12" fill="blue">
iTouchState: true
</text>
<line x1="150" y1="314" x2="150" y2="342" stroke="black"/>
<line x1="450" y1="314" x2="450" y2="342" stroke="black"/>
<line x1="450" y1="325" x2="150" y2="325" stroke="black" stroke-dasharray="2,2"/>
<polygon fill="black" points="150,325 160,331 160,319"/>
<line x1="150" y1="342" x2="150" y2="370" stroke="black"/>
<line x1="450" y1="342" x2="450" y2="370" stroke="black"/>
<polygon fill="#EDEBFF" points="14,342 286,342 286,364 14,364"/>
<polygon fill="#EDEBFF" points="8,348 292,348 292,358 8,358"/>
<circle fill="#EDEBFF" cx="14" cy="348" r="6"/>
<circle fill="#EDEBFF" cx="286" cy="348" r="6"/>
<circle fill="#EDEBFF" cx="14" cy="358" r="6"/>
<circle fill="#EDEBFF" cx="286" cy="358" r="6"/>
<line x1="14" y1="342" x2="286" y2="342" stroke="black"/>
<line x1="14" y1="364" x2="286" y2="364" stroke="black"/>
<line x1="8" y1="348" x2="8" y2="358" stroke="black"/>
<line x1="292" y1="348" x2="292" y2="358" stroke="black"/>
<path d="M 8 348 A6,6 0 0,1 14,342" stroke="black" fill="none"/><path d="M 286 342 A6,6 0 0,1 292,348" stroke="black" fill="none"/><path d="M 292 358 A6,6 0 0,1 286,364" stroke="black" fill="none"/><path d="M 14 364 A6,6 0 0,1 8,358" stroke="black" fill="none"/><polygon fill="#EDEBFF" points="56,349 242,349 242,358 56,358"/>
<text x="57" y="358" textLength="184" font-family="Helvetica" font-size="12" fill="black">
PostSetValueRequest() processed
</text>
<line x1="150" y1="370" x2="150" y2="398" stroke="black"/>
<line x1="450" y1="370" x2="450" y2="398" stroke="black"/>
<line x1="150" y1="381" x2="450" y2="381" stroke="black"/>
<polygon fill="black" points="450,381 440,387 440,375"/>
<polygon fill="#EDEBFF" points="135,371 464,371 464,380 135,380"/>
<text x="136" y="380" textLength="327" font-family="Helvetica" font-size="12" fill="blue">
AAX_IEffectParameters::UpdateParameterNormalizedValue()
</text>
<polygon fill="#EDEBFF" points="183,382 416,382 416,391 183,391"/>
<text x="184" y="391" textLength="231" font-family="Helvetica" font-size="12" fill="blue">
iSource: AAX_eUpdateSource_Unspecified
</text>
<line x1="150" y1="398" x2="150" y2="426" stroke="black"/>
<line x1="450" y1="398" x2="450" y2="426" stroke="black"/>
<path d="M 450 403 A150,6 0 0,1 450,415" stroke="black" fill="none"/><polygon fill="black" points="450,415 460,421 460,409"/>
<polygon fill="#EAFBEF" points="320,399 448,399 448,408 320,408"/>
<text x="321" y="408" textLength="126" font-family="Helvetica" font-size="12" fill="black">
Update parameter state
</text>
<line x1="150" y1="426" x2="150" y2="454" stroke="black"/>
<line x1="450" y1="426" x2="450" y2="454" stroke="black"/>
<line x1="450" y1="437" x2="150" y2="437" stroke="black"/>
<line x1="150" y1="437" x2="160" y2="443" stroke="black"/>
<polygon fill="#EAFBEF" points="172,427 426,427 426,436 172,436"/>
<text x="173" y="436" textLength="252" font-family="Helvetica" font-size="12" fill="blue">
AAX_IAutomationDelegate::PostCurrentValue()
</text>
<line x1="150" y1="454" x2="150" y2="482" stroke="black"/>
<line x1="450" y1="454" x2="450" y2="482" stroke="black"/>
<path d="M 450 459 A150,6 0 0,1 450,471" stroke="black" fill="none"/><polygon fill="black" points="450,471 460,477 460,465"/>
<polygon fill="#EAFBEF" points="287,455 448,455 448,464 287,464"/>
<text x="288" y="464" textLength="159" font-family="Helvetica" font-size="12" fill="blue">
Increment number of changes
</text>
<line x1="150" y1="482" x2="150" y2="510" stroke="black"/>
<line x1="450" y1="482" x2="450" y2="510" stroke="black"/>
<line x1="450" y1="493" x2="150" y2="493" stroke="black" stroke-dasharray="2,2"/>
<polygon fill="black" points="150,493 160,499 160,487"/>
<line x1="150" y1="510" x2="150" y2="538" stroke="black"/>
<line x1="450" y1="510" x2="450" y2="538" stroke="black"/>
<polygon fill="#EDEBFF" points="14,510 286,510 286,532 14,532"/>
<polygon fill="#EDEBFF" points="8,516 292,516 292,526 8,526"/>
<circle fill="#EDEBFF" cx="14" cy="516" r="6"/>
<circle fill="#EDEBFF" cx="286" cy="516" r="6"/>
<circle fill="#EDEBFF" cx="14" cy="526" r="6"/>
<circle fill="#EDEBFF" cx="286" cy="526" r="6"/>
<line x1="14" y1="510" x2="286" y2="510" stroke="black"/>
<line x1="14" y1="532" x2="286" y2="532" stroke="black"/>
<line x1="8" y1="516" x2="8" y2="526" stroke="black"/>
<line x1="292" y1="516" x2="292" y2="526" stroke="black"/>
<path d="M 8 516 A6,6 0 0,1 14,510" stroke="black" fill="none"/><path d="M 286 510 A6,6 0 0,1 292,516" stroke="black" fill="none"/><path d="M 292 526 A6,6 0 0,1 286,532" stroke="black" fill="none"/><path d="M 14 532 A6,6 0 0,1 8,526" stroke="black" fill="none"/><polygon fill="#EDEBFF" points="59,517 240,517 240,526 59,526"/>
<text x="60" y="526" textLength="179" font-family="Helvetica" font-size="12" fill="black">
PostReleaseRequest() processed
</text>
<line x1="150" y1="538" x2="150" y2="566" stroke="black"/>
<line x1="450" y1="538" x2="450" y2="566" stroke="black"/>
<line x1="150" y1="549" x2="450" y2="549" stroke="black"/>
<polygon fill="black" points="450,549 440,555 440,543"/>
<polygon fill="#EDEBFF" points="164,539 435,539 435,548 164,548"/>
<text x="165" y="548" textLength="269" font-family="Helvetica" font-size="12" fill="blue">
AAX_IEffectParameters::UpdateParameterTouch()
</text>
<polygon fill="#EDEBFF" points="250,550 348,550 348,559 250,559"/>
<text x="251" y="559" textLength="96" font-family="Helvetica" font-size="12" fill="blue">
iTouchState: false
</text>
<line x1="150" y1="566" x2="150" y2="594" stroke="black"/>
<line x1="450" y1="566" x2="450" y2="594" stroke="black"/>
<line x1="450" y1="577" x2="150" y2="577" stroke="black" stroke-dasharray="2,2"/>
<polygon fill="black" points="150,577 160,583 160,571"/>
<line x1="150" y1="594" x2="150" y2="611" stroke="black"/>
<line x1="450" y1="594" x2="450" y2="611" stroke="black"/>
<line x1="150" y1="611" x2="150" y2="628" stroke="black"/>
<line x1="450" y1="611" x2="450" y2="628" stroke="black"/>
<line x1="150" y1="628" x2="150" y2="656" stroke="black"/>
<line x1="450" y1="628" x2="450" y2="656" stroke="black"/>
<polygon fill="#F0F0F0" points="8,628 580,628 580,650 8,650"/>
<polygon fill="#F0F0F0" points="8,640 592,640 592,650 8,650"/>
<polygon fill="#F0F0F0" points="580,628 592,640 580,640"/>
<line x1="8" y1="628" x2="580" y2="628" stroke="black"/>
<line x1="8" y1="650" x2="592" y2="650" stroke="black"/>
<line x1="8" y1="628" x2="8" y2="650" stroke="black"/>
<line x1="592" y1="640" x2="592" y2="650" stroke="black"/>
<line x1="580" y1="628" x2="592" y2="640" stroke="black"/>
<line x1="580" y1="628" x2="580" y2="640" stroke="black"/>
<line x1="592" y1="640" x2="580" y2="640" stroke="black"/>
<polygon fill="#F0F0F0" points="238,635 361,635 361,644 238,644"/>
<text x="239" y="644" textLength="121" font-family="Helvetica" font-size="12" fill="black">
Current value handling
</text>
<line x1="150" y1="656" x2="150" y2="684" stroke="black"/>
<line x1="450" y1="656" x2="450" y2="684" stroke="black"/>
<polygon fill="#EDEBFF" points="14,656 286,656 286,678 14,678"/>
<polygon fill="#EDEBFF" points="8,662 292,662 292,672 8,672"/>
<circle fill="#EDEBFF" cx="14" cy="662" r="6"/>
<circle fill="#EDEBFF" cx="286" cy="662" r="6"/>
<circle fill="#EDEBFF" cx="14" cy="672" r="6"/>
<circle fill="#EDEBFF" cx="286" cy="672" r="6"/>
<line x1="14" y1="656" x2="286" y2="656" stroke="black"/>
<line x1="14" y1="678" x2="286" y2="678" stroke="black"/>
<line x1="8" y1="662" x2="8" y2="672" stroke="black"/>
<line x1="292" y1="662" x2="292" y2="672" stroke="black"/>
<path d="M 8 662 A6,6 0 0,1 14,656" stroke="black" fill="none"/><path d="M 286 656 A6,6 0 0,1 292,662" stroke="black" fill="none"/><path d="M 292 672 A6,6 0 0,1 286,678" stroke="black" fill="none"/><path d="M 14 678 A6,6 0 0,1 8,672" stroke="black" fill="none"/><polygon fill="#EDEBFF" points="24,663 274,663 274,672 24,672"/>
<text x="25" y="672" textLength="248" font-family="Helvetica" font-size="12" fill="black">
Following UpdateParameterNormalizedValue()
</text>
<line x1="150" y1="684" x2="150" y2="712" stroke="black"/>
<line x1="450" y1="684" x2="450" y2="712" stroke="black"/>
<line x1="150" y1="695" x2="450" y2="695" stroke="black"/>
<polygon fill="black" points="450,695 440,701 440,689"/>
<polygon fill="#EDEBFF" points="171,685 427,685 427,694 171,694"/>
<text x="172" y="694" textLength="254" font-family="Helvetica" font-size="12" fill="blue">
AAX_IEffectParameters::GenerateCoefficients()
</text>
<polygon fill="white" points="425,682 464,682 464,687 425,687"/>
<text x="426" y="687" textLength="37" font-family="Helvetica" font-size="8" fill="black">
timestamp
</text>
<line x1="150" y1="712" x2="150" y2="740" stroke="black"/>
<line x1="450" y1="712" x2="450" y2="740" stroke="black"/>
<line x1="450" y1="723" x2="150" y2="723" stroke="black"/>
<line x1="150" y1="723" x2="160" y2="729" stroke="black"/>
<polygon fill="#EAFBEF" points="218,713 381,713 381,722 218,722"/>
<text x="219" y="722" textLength="161" font-family="Helvetica" font-size="12" fill="blue">
AAX_IController::PostPacket()
</text>
<line x1="150" y1="740" x2="150" y2="768" stroke="black"/>
<line x1="450" y1="740" x2="450" y2="768" stroke="black"/>
<line x1="450" y1="751" x2="150" y2="751" stroke="black" stroke-dasharray="2,2"/>
<polygon fill="black" points="150,751 160,757 160,745"/>
<line x1="150" y1="768" x2="150" y2="796" stroke="black"/>
<line x1="450" y1="768" x2="450" y2="796" stroke="black"/>
<polygon fill="#EDEBFF" points="14,768 286,768 286,790 14,790"/>
<polygon fill="#EDEBFF" points="8,774 292,774 292,784 8,784"/>
<circle fill="#EDEBFF" cx="14" cy="774" r="6"/>
<circle fill="#EDEBFF" cx="286" cy="774" r="6"/>
<circle fill="#EDEBFF" cx="14" cy="784" r="6"/>
<circle fill="#EDEBFF" cx="286" cy="784" r="6"/>
<line x1="14" y1="768" x2="286" y2="768" stroke="black"/>
<line x1="14" y1="790" x2="286" y2="790" stroke="black"/>
<line x1="8" y1="774" x2="8" y2="784" stroke="black"/>
<line x1="292" y1="774" x2="292" y2="784" stroke="black"/>
<path d="M 8 774 A6,6 0 0,1 14,768" stroke="black" fill="none"/><path d="M 286 768 A6,6 0 0,1 292,774" stroke="black" fill="none"/><path d="M 292 784 A6,6 0 0,1 286,790" stroke="black" fill="none"/><path d="M 14 790 A6,6 0 0,1 8,784" stroke="black" fill="none"/><polygon fill="#EDEBFF" points="68,775 231,775 231,784 68,784"/>
<text x="69" y="784" textLength="161" font-family="Helvetica" font-size="12" fill="black">
PostCurrentValue() processed
</text>
<line x1="150" y1="796" x2="150" y2="824" stroke="black"/>
<line x1="450" y1="796" x2="450" y2="824" stroke="black"/>
<path d="M 150 813 A148,6 0 0,1 150,801" stroke="black" fill="none"/><line x1="150" y1="813" x2="140" y2="819" stroke="black"/>
<polygon fill="#EDEBFF" points="150,797 259,797 259,806 150,806"/>
<text x="151" y="806" textLength="107" font-family="Helvetica" font-size="12" fill="black">
Update other clients
</text>
<polygon fill="#EDEBFF" points="150,808 191,808 191,817 150,817"/>
<text x="151" y="817" textLength="39" font-family="Helvetica" font-size="12" fill="black">
(async)
</text>
<line x1="150" y1="824" x2="150" y2="852" stroke="black"/>
<line x1="450" y1="824" x2="450" y2="852" stroke="black"/>
<line x1="150" y1="835" x2="450" y2="835" stroke="black"/>
<polygon fill="black" points="450,835 440,841 440,829"/>
<polygon fill="#EDEBFF" points="197,825 401,825 401,834 197,834"/>
<text x="198" y="834" textLength="202" font-family="Helvetica" font-size="12" fill="blue">
AAX_IEffectGUI::ParameterUpdated()
</text>
<line x1="150" y1="852" x2="150" y2="880" stroke="black"/>
<line x1="450" y1="852" x2="450" y2="880" stroke="black"/>
<path d="M 450 857 A150,6 0 0,1 450,869" stroke="black" fill="none"/><polygon fill="black" points="450,869 460,875 460,863"/>
<polygon fill="#EAFBEF" points="353,853 448,853 448,862 353,862"/>
<text x="354" y="862" textLength="93" font-family="Helvetica" font-size="12" fill="black">
Update GUI state
</text>
<line x1="150" y1="880" x2="150" y2="908" stroke="black"/>
<line x1="450" y1="880" x2="450" y2="908" stroke="black"/>
<line x1="450" y1="891" x2="150" y2="891" stroke="black" stroke-dasharray="2,2"/>
<polygon fill="black" points="150,891 160,897 160,885"/>
<line x1="150" y1="908" x2="150" y2="925" stroke="black"/>
<line x1="450" y1="908" x2="450" y2="925" stroke="black"/>
<line x1="150" y1="925" x2="150" y2="942" stroke="black" stroke-dasharray="2,2"/>
<line x1="450" y1="925" x2="450" y2="942" stroke="black" stroke-dasharray="2,2"/>
<polygon fill="white" points="169,926 429,926 429,935 169,935"/>
<text x="170" y="935" textLength="258" font-family="Helvetica" font-size="12" fill="black">
Timestamp synchronization with real-time thread
</text>
<line x1="150" y1="942" x2="150" y2="959" stroke="black"/>
<line x1="450" y1="942" x2="450" y2="959" stroke="black"/>
<line x1="150" y1="959" x2="150" y2="987" stroke="black"/>
<line x1="450" y1="959" x2="450" y2="987" stroke="black"/>
<polygon fill="#EDEBFF" points="14,959 286,959 286,981 14,981"/>
<polygon fill="#EDEBFF" points="8,965 292,965 292,975 8,975"/>
<circle fill="#EDEBFF" cx="14" cy="965" r="6"/>
<circle fill="#EDEBFF" cx="286" cy="965" r="6"/>
<circle fill="#EDEBFF" cx="14" cy="975" r="6"/>
<circle fill="#EDEBFF" cx="286" cy="975" r="6"/>
<line x1="14" y1="959" x2="286" y2="959" stroke="black"/>
<line x1="14" y1="981" x2="286" y2="981" stroke="black"/>
<line x1="8" y1="965" x2="8" y2="975" stroke="black"/>
<line x1="292" y1="965" x2="292" y2="975" stroke="black"/>
<path d="M 8 965 A6,6 0 0,1 14,959" stroke="black" fill="none"/><path d="M 286 959 A6,6 0 0,1 292,965" stroke="black" fill="none"/><path d="M 292 975 A6,6 0 0,1 286,981" stroke="black" fill="none"/><path d="M 14 981 A6,6 0 0,1 8,975" stroke="black" fill="none"/><polygon fill="#EDEBFF" points="85,966 214,966 214,975 85,975"/>
<text x="86" y="975" textLength="127" font-family="Helvetica" font-size="12" fill="black">
PostPacket() processed
</text>
<line x1="150" y1="987" x2="150" y2="1015" stroke="black"/>
<line x1="450" y1="987" x2="450" y2="1015" stroke="black"/>
<line x1="150" y1="998" x2="450" y2="998" stroke="black"/>
<line x1="450" y1="998" x2="440" y2="1004" stroke="black"/>
<polygon fill="#EDEBFF" points="232,988 367,988 367,997 232,997"/>
<text x="233" y="997" textLength="133" font-family="Helvetica" font-size="12" fill="black">
Update algorithm context
</text>
<line x1="150" y1="1009" x2="150" y2="1015" stroke="black"/>
<line x1="450" y1="1009" x2="450" y2="1015" stroke="black"/>
</svg>
