<!DOCTYPE svg PUBLIC "-//W3C//DTD SVG 1.1//EN"
 "http://www.w3.org/Graphics/SVG/1.1/DTD/svg11.dtd">
<svg version="1.1"
 width="600px" height="1479px"
 viewBox="0 0 600 1479"
 xmlns="http://www.w3.org/2000/svg" shape-rendering="crispEdges"
 stroke-width="1" text-rendering="geometricPrecision">
<polygon fill="#EDEBFF" points="136,7 162,7 162,16 136,16"/>
<text x="150" y="16" textLength="25" font-family="Helvetica" font-size="12" fill="black" text-anchor="middle">

Host
</text>
<polygon fill="#EAFBEF" points="429,7 469,7 469,16 429,16"/>
<text x="450" y="16" textLength="38" font-family="Helvetica" font-size="12" fill="black" text-anchor="middle">

Plug-In
</text>
<line x1="150" y1="22" x2="150" y2="39" stroke="black"/>
<line x1="450" y1="22" x2="450" y2="39" stroke="black"/>
<line x1="150" y1="39" x2="150" y2="56" stroke="black"/>
<line x1="450" y1="39" x2="450" y2="56" stroke="black"/>
<line x1="150" y1="56" x2="150" y2="84" stroke="black"/>
<line x1="450" y1="56" x2="450" y2="84" stroke="black"/>
<polygon fill="#F0F0F0" points="8,56 580,56 580,78 8,78"/>
<polygon fill="#F0F0F0" points="8,68 592,68 592,78 8,78"/>
<polygon fill="#F0F0F0" points="580,56 592,68 580,68"/>
<line x1="8" y1="56" x2="580" y2="56" stroke="black"/>
<line x1="8" y1="78" x2="592" y2="78" stroke="black"/>
<line x1="8" y1="56" x2="8" y2="78" stroke="black"/>
<line x1="592" y1="68" x2="592" y2="78" stroke="black"/>
<line x1="580" y1="56" x2="592" y2="68" stroke="black"/>
<line x1="580" y1="56" x2="580" y2="68" stroke="black"/>
<line x1="592" y1="68" x2="580" y2="68" stroke="black"/>
<polygon fill="#F0F0F0" points="247,63 351,63 351,72 247,72"/>
<text x="248" y="72" textLength="102" font-family="Helvetica" font-size="12" fill="black">
Edit event handling
</text>
<line x1="150" y1="84" x2="150" y2="112" stroke="black"/>
<line x1="450" y1="84" x2="450" y2="112" stroke="black"/>
<polygon fill="#EAFBEF" points="314,84 586,84 586,106 314,106"/>
<polygon fill="#EAFBEF" points="308,90 592,90 592,100 308,100"/>
<circle fill="#EAFBEF" cx="314" cy="90" r="6"/>
<circle fill="#EAFBEF" cx="586" cy="90" r="6"/>
<circle fill="#EAFBEF" cx="314" cy="100" r="6"/>
<circle fill="#EAFBEF" cx="586" cy="100" r="6"/>
<line x1="314" y1="84" x2="586" y2="84" stroke="black"/>
<line x1="314" y1="106" x2="586" y2="106" stroke="black"/>
<line x1="308" y1="90" x2="308" y2="100" stroke="black"/>
<line x1="592" y1="90" x2="592" y2="100" stroke="black"/>
<path d="M 308 90 A6,6 0 0,1 314,84" stroke="black" fill="none"/><path d="M 586 84 A6,6 0 0,1 592,90" stroke="black" fill="none"/><path d="M 592 100 A6,6 0 0,1 586,106" stroke="black" fill="none"/><path d="M 314 106 A6,6 0 0,1 308,100" stroke="black" fill="none"/><polygon fill="#EAFBEF" points="411,91 488,91 488,100 411,100"/>
<text x="412" y="100" textLength="75" font-family="Helvetica" font-size="12" fill="black">
OS Edit Event
</text>
<line x1="150" y1="112" x2="150" y2="140" stroke="black"/>
<line x1="450" y1="112" x2="450" y2="140" stroke="black"/>
<line x1="450" y1="123" x2="150" y2="123" stroke="black"/>
<line x1="150" y1="123" x2="160" y2="129" stroke="black"/>
<polygon fill="#EAFBEF" points="169,113 430,113 430,122 169,122"/>
<text x="170" y="122" textLength="259" font-family="Helvetica" font-size="12" fill="blue">
AAX_IAutomationDelegate::PostTouchRequest()
</text>
<polygon fill="#EAFBEF" points="257,124 342,124 342,133 257,133"/>
<text x="258" y="133" textLength="83" font-family="Helvetica" font-size="12" fill="blue">
for linker param
</text>
<line x1="150" y1="140" x2="150" y2="168" stroke="black"/>
<line x1="450" y1="140" x2="450" y2="168" stroke="black"/>
<line x1="450" y1="151" x2="150" y2="151" stroke="black"/>
<line x1="150" y1="151" x2="160" y2="157" stroke="black"/>
<polygon fill="#EAFBEF" points="161,141 438,141 438,150 161,150"/>
<text x="162" y="150" textLength="275" font-family="Helvetica" font-size="12" fill="blue">
AAX_IAutomationDelegate::PostSetValueRequest()
</text>
<polygon fill="#EAFBEF" points="257,152 342,152 342,161 257,161"/>
<text x="258" y="161" textLength="83" font-family="Helvetica" font-size="12" fill="blue">
for linker param
</text>
<line x1="150" y1="168" x2="150" y2="196" stroke="black"/>
<line x1="450" y1="168" x2="450" y2="196" stroke="black"/>
<line x1="450" y1="179" x2="150" y2="179" stroke="black"/>
<line x1="150" y1="179" x2="160" y2="185" stroke="black"/>
<polygon fill="#EAFBEF" points="163,169 435,169 435,178 163,178"/>
<text x="164" y="178" textLength="270" font-family="Helvetica" font-size="12" fill="blue">
AAX_IAutomationDelegate::PostReleaseRequest()
</text>
<polygon fill="#EAFBEF" points="257,180 342,180 342,189 257,189"/>
<text x="258" y="189" textLength="83" font-family="Helvetica" font-size="12" fill="blue">
for linker param
</text>
<line x1="150" y1="196" x2="150" y2="213" stroke="black"/>
<line x1="450" y1="196" x2="450" y2="213" stroke="black"/>
<line x1="150" y1="213" x2="150" y2="230" stroke="black"/>
<line x1="450" y1="213" x2="450" y2="230" stroke="black"/>
<line x1="150" y1="230" x2="150" y2="258" stroke="black"/>
<line x1="450" y1="230" x2="450" y2="258" stroke="black"/>
<polygon fill="#F0F0F0" points="8,230 580,230 580,252 8,252"/>
<polygon fill="#F0F0F0" points="8,242 592,242 592,252 8,252"/>
<polygon fill="#F0F0F0" points="580,230 592,242 580,242"/>
<line x1="8" y1="230" x2="580" y2="230" stroke="black"/>
<line x1="8" y1="252" x2="592" y2="252" stroke="black"/>
<line x1="8" y1="230" x2="8" y2="252" stroke="black"/>
<line x1="592" y1="242" x2="592" y2="252" stroke="black"/>
<line x1="580" y1="230" x2="592" y2="242" stroke="black"/>
<line x1="580" y1="230" x2="580" y2="242" stroke="black"/>
<line x1="592" y1="242" x2="580" y2="242" stroke="black"/>
<polygon fill="#F0F0F0" points="249,231 350,231 350,240 249,240"/>
<text x="250" y="240" textLength="99" font-family="Helvetica" font-size="12" fill="black">
Set value handling
</text>
<polygon fill="#F0F0F0" points="257,242 342,242 342,251 257,251"/>
<text x="258" y="251" textLength="83" font-family="Helvetica" font-size="12" fill="black">
for linker param
</text>
<line x1="150" y1="258" x2="150" y2="286" stroke="black"/>
<line x1="450" y1="258" x2="450" y2="286" stroke="black"/>
<polygon fill="#EDEBFF" points="14,258 286,258 286,280 14,280"/>
<polygon fill="#EDEBFF" points="8,264 292,264 292,274 8,274"/>
<circle fill="#EDEBFF" cx="14" cy="264" r="6"/>
<circle fill="#EDEBFF" cx="286" cy="264" r="6"/>
<circle fill="#EDEBFF" cx="14" cy="274" r="6"/>
<circle fill="#EDEBFF" cx="286" cy="274" r="6"/>
<line x1="14" y1="258" x2="286" y2="258" stroke="black"/>
<line x1="14" y1="280" x2="286" y2="280" stroke="black"/>
<line x1="8" y1="264" x2="8" y2="274" stroke="black"/>
<line x1="292" y1="264" x2="292" y2="274" stroke="black"/>
<path d="M 8 264 A6,6 0 0,1 14,258" stroke="black" fill="none"/><path d="M 286 258 A6,6 0 0,1 292,264" stroke="black" fill="none"/><path d="M 292 274 A6,6 0 0,1 286,280" stroke="black" fill="none"/><path d="M 14 280 A6,6 0 0,1 8,274" stroke="black" fill="none"/><polygon fill="#EDEBFF" points="64,265 235,265 235,274 64,274"/>
<text x="65" y="274" textLength="169" font-family="Helvetica" font-size="12" fill="black">
PostTouchRequest() processed
</text>
<line x1="150" y1="286" x2="150" y2="325" stroke="black"/>
<line x1="450" y1="286" x2="450" y2="325" stroke="black"/>
<line x1="150" y1="302" x2="450" y2="302" stroke="black"/>
<polygon fill="black" points="450,302 440,308 440,296"/>
<polygon fill="#EDEBFF" points="164,287 435,287 435,296 164,296"/>
<text x="165" y="296" textLength="269" font-family="Helvetica" font-size="12" fill="blue">
AAX_IEffectParameters::UpdateParameterTouch()
</text>
<polygon fill="#EDEBFF" points="245,298 353,298 353,307 245,307"/>
<text x="246" y="307" textLength="106" font-family="Helvetica" font-size="12" fill="blue">
iParameterID: linker
</text>
<polygon fill="#EDEBFF" points="253,309 346,309 346,318 253,318"/>
<text x="254" y="318" textLength="91" font-family="Helvetica" font-size="12" fill="blue">
iTouchState: true
</text>
<line x1="150" y1="325" x2="150" y2="353" stroke="black"/>
<line x1="450" y1="325" x2="450" y2="353" stroke="black"/>
<line x1="450" y1="336" x2="150" y2="336" stroke="red"/>
<line x1="150" y1="336" x2="160" y2="342" stroke="red"/>
<polygon fill="#EAFBEF" points="169,326 430,326 430,335 169,335"/>
<text x="170" y="335" textLength="259" font-family="Helvetica" font-size="12" fill="blue">
AAX_IAutomationDelegate::PostTouchRequest()
</text>
<polygon fill="#EAFBEF" points="255,337 343,337 343,346 255,346"/>
<text x="256" y="346" textLength="86" font-family="Helvetica" font-size="12" fill="blue">
for linked param
</text>
<line x1="150" y1="353" x2="150" y2="381" stroke="black"/>
<line x1="450" y1="353" x2="450" y2="381" stroke="black"/>
<line x1="450" y1="364" x2="150" y2="364" stroke="black" stroke-dasharray="2,2"/>
<polygon fill="black" points="150,364 160,370 160,358"/>
<line x1="150" y1="381" x2="150" y2="409" stroke="black"/>
<line x1="450" y1="381" x2="450" y2="409" stroke="black"/>
<polygon fill="#EDEBFF" points="14,381 286,381 286,403 14,403"/>
<polygon fill="#EDEBFF" points="8,387 292,387 292,397 8,397"/>
<circle fill="#EDEBFF" cx="14" cy="387" r="6"/>
<circle fill="#EDEBFF" cx="286" cy="387" r="6"/>
<circle fill="#EDEBFF" cx="14" cy="397" r="6"/>
<circle fill="#EDEBFF" cx="286" cy="397" r="6"/>
<line x1="14" y1="381" x2="286" y2="381" stroke="black"/>
<line x1="14" y1="403" x2="286" y2="403" stroke="black"/>
<line x1="8" y1="387" x2="8" y2="397" stroke="black"/>
<line x1="292" y1="387" x2="292" y2="397" stroke="black"/>
<path d="M 8 387 A6,6 0 0,1 14,381" stroke="black" fill="none"/><path d="M 286 381 A6,6 0 0,1 292,387" stroke="black" fill="none"/><path d="M 292 397 A6,6 0 0,1 286,403" stroke="black" fill="none"/><path d="M 14 403 A6,6 0 0,1 8,397" stroke="black" fill="none"/><polygon fill="#EDEBFF" points="56,388 242,388 242,397 56,397"/>
<text x="57" y="397" textLength="184" font-family="Helvetica" font-size="12" fill="black">
PostSetValueRequest() processed
</text>
<line x1="150" y1="409" x2="150" y2="448" stroke="black"/>
<line x1="450" y1="409" x2="450" y2="448" stroke="black"/>
<line x1="150" y1="425" x2="450" y2="425" stroke="black"/>
<polygon fill="black" points="450,425 440,431 440,419"/>
<polygon fill="#EDEBFF" points="135,410 464,410 464,419 135,419"/>
<text x="136" y="419" textLength="327" font-family="Helvetica" font-size="12" fill="blue">
AAX_IEffectParameters::UpdateParameterNormalizedValue()
</text>
<polygon fill="#EDEBFF" points="245,421 353,421 353,430 245,430"/>
<text x="246" y="430" textLength="106" font-family="Helvetica" font-size="12" fill="blue">
iParameterID: linker
</text>
<polygon fill="#EDEBFF" points="183,432 416,432 416,441 183,441"/>
<text x="184" y="441" textLength="231" font-family="Helvetica" font-size="12" fill="blue">
iSource: AAX_eUpdateSource_Unspecified
</text>
<line x1="150" y1="448" x2="150" y2="476" stroke="black"/>
<line x1="450" y1="448" x2="450" y2="476" stroke="black"/>
<polygon fill="#EAFBEF" points="314,448 586,448 586,470 314,470"/>
<polygon fill="#EAFBEF" points="308,454 592,454 592,464 308,464"/>
<circle fill="#EAFBEF" cx="314" cy="454" r="6"/>
<circle fill="#EAFBEF" cx="586" cy="454" r="6"/>
<circle fill="#EAFBEF" cx="314" cy="464" r="6"/>
<circle fill="#EAFBEF" cx="586" cy="464" r="6"/>
<line x1="314" y1="448" x2="586" y2="448" stroke="black"/>
<line x1="314" y1="470" x2="586" y2="470" stroke="black"/>
<line x1="308" y1="454" x2="308" y2="464" stroke="black"/>
<line x1="592" y1="454" x2="592" y2="464" stroke="black"/>
<path d="M 308 454 A6,6 0 0,1 314,448" stroke="black" fill="none"/><path d="M 586 448 A6,6 0 0,1 592,454" stroke="black" fill="none"/><path d="M 592 464 A6,6 0 0,1 586,470" stroke="black" fill="none"/><path d="M 314 470 A6,6 0 0,1 308,464" stroke="black" fill="none"/><polygon fill="#EAFBEF" points="390,455 508,455 508,464 390,464"/>
<text x="391" y="464" textLength="116" font-family="Helvetica" font-size="12" fill="black">
Linked parameter edit
</text>
<line x1="150" y1="476" x2="150" y2="504" stroke="black"/>
<line x1="450" y1="476" x2="450" y2="504" stroke="black"/>
<line x1="450" y1="487" x2="150" y2="487" stroke="red"/>
<line x1="150" y1="487" x2="160" y2="493" stroke="red"/>
<polygon fill="#EAFBEF" points="169,477 430,477 430,486 169,486"/>
<text x="170" y="486" textLength="259" font-family="Helvetica" font-size="12" fill="blue">
AAX_IAutomationDelegate::PostTouchRequest()
</text>
<polygon fill="#EAFBEF" points="255,488 343,488 343,497 255,497"/>
<text x="256" y="497" textLength="86" font-family="Helvetica" font-size="12" fill="blue">
for linked param
</text>
<line x1="150" y1="504" x2="150" y2="532" stroke="black"/>
<line x1="450" y1="504" x2="450" y2="532" stroke="black"/>
<line x1="450" y1="515" x2="150" y2="515" stroke="red"/>
<line x1="150" y1="515" x2="160" y2="521" stroke="red"/>
<polygon fill="#EAFBEF" points="161,505 438,505 438,514 161,514"/>
<text x="162" y="514" textLength="275" font-family="Helvetica" font-size="12" fill="blue">
AAX_IAutomationDelegate::PostSetValueRequest()
</text>
<polygon fill="#EAFBEF" points="255,516 343,516 343,525 255,525"/>
<text x="256" y="525" textLength="86" font-family="Helvetica" font-size="12" fill="blue">
for linked param
</text>
<line x1="150" y1="532" x2="150" y2="560" stroke="black"/>
<line x1="450" y1="532" x2="450" y2="560" stroke="black"/>
<line x1="450" y1="543" x2="150" y2="543" stroke="red"/>
<line x1="150" y1="543" x2="160" y2="549" stroke="red"/>
<polygon fill="#EAFBEF" points="163,533 435,533 435,542 163,542"/>
<text x="164" y="542" textLength="270" font-family="Helvetica" font-size="12" fill="blue">
AAX_IAutomationDelegate::PostReleaseRequest()
</text>
<polygon fill="#EAFBEF" points="255,544 343,544 343,553 255,553"/>
<text x="256" y="553" textLength="86" font-family="Helvetica" font-size="12" fill="blue">
for linked param
</text>
<line x1="150" y1="560" x2="150" y2="588" stroke="black"/>
<line x1="450" y1="560" x2="450" y2="588" stroke="black"/>
<polygon fill="#EAFBEF" points="314,560 586,560 586,582 314,582"/>
<polygon fill="#EAFBEF" points="308,566 592,566 592,576 308,576"/>
<circle fill="#EAFBEF" cx="314" cy="566" r="6"/>
<circle fill="#EAFBEF" cx="586" cy="566" r="6"/>
<circle fill="#EAFBEF" cx="314" cy="576" r="6"/>
<circle fill="#EAFBEF" cx="586" cy="576" r="6"/>
<line x1="314" y1="560" x2="586" y2="560" stroke="black"/>
<line x1="314" y1="582" x2="586" y2="582" stroke="black"/>
<line x1="308" y1="566" x2="308" y2="576" stroke="black"/>
<line x1="592" y1="566" x2="592" y2="576" stroke="black"/>
<path d="M 308 566 A6,6 0 0,1 314,560" stroke="black" fill="none"/><path d="M 586 560 A6,6 0 0,1 592,566" stroke="black" fill="none"/><path d="M 592 576 A6,6 0 0,1 586,582" stroke="black" fill="none"/><path d="M 314 582 A6,6 0 0,1 308,576" stroke="black" fill="none"/><polygon fill="#EAFBEF" points="335,567 564,567 564,576 335,576"/>
<text x="336" y="576" textLength="227" font-family="Helvetica" font-size="12" fill="black">
Continue handling linker parameter update
</text>
<line x1="150" y1="588" x2="150" y2="616" stroke="black"/>
<line x1="450" y1="588" x2="450" y2="616" stroke="black"/>
<path d="M 450 593 A150,6 0 0,1 450,605" stroke="black" fill="none"/><polygon fill="black" points="450,605 460,611 460,599"/>
<polygon fill="#EAFBEF" points="288,589 448,589 448,598 288,598"/>
<text x="289" y="598" textLength="158" font-family="Helvetica" font-size="12" fill="black">
Update linker parameter state
</text>
<line x1="150" y1="616" x2="150" y2="644" stroke="black"/>
<line x1="450" y1="616" x2="450" y2="644" stroke="black"/>
<line x1="450" y1="627" x2="150" y2="627" stroke="black"/>
<line x1="150" y1="627" x2="160" y2="633" stroke="black"/>
<polygon fill="#EAFBEF" points="172,617 426,617 426,626 172,626"/>
<text x="173" y="626" textLength="252" font-family="Helvetica" font-size="12" fill="blue">
AAX_IAutomationDelegate::PostCurrentValue()
</text>
<polygon fill="#EAFBEF" points="257,628 342,628 342,637 257,637"/>
<text x="258" y="637" textLength="83" font-family="Helvetica" font-size="12" fill="blue">
for linker param
</text>
<line x1="150" y1="644" x2="150" y2="672" stroke="black"/>
<line x1="450" y1="644" x2="450" y2="672" stroke="black"/>
<path d="M 450 649 A150,6 0 0,1 450,661" stroke="black" fill="none"/><polygon fill="black" points="450,661 460,667 460,655"/>
<polygon fill="#EAFBEF" points="287,645 448,645 448,654 287,654"/>
<text x="288" y="654" textLength="159" font-family="Helvetica" font-size="12" fill="blue">
Increment number of changes
</text>
<line x1="150" y1="672" x2="150" y2="700" stroke="black"/>
<line x1="450" y1="672" x2="450" y2="700" stroke="black"/>
<line x1="450" y1="683" x2="150" y2="683" stroke="black" stroke-dasharray="2,2"/>
<polygon fill="black" points="150,683 160,689 160,677"/>
<line x1="150" y1="700" x2="150" y2="728" stroke="black"/>
<line x1="450" y1="700" x2="450" y2="728" stroke="black"/>
<polygon fill="#EDEBFF" points="14,700 286,700 286,722 14,722"/>
<polygon fill="#EDEBFF" points="8,706 292,706 292,716 8,716"/>
<circle fill="#EDEBFF" cx="14" cy="706" r="6"/>
<circle fill="#EDEBFF" cx="286" cy="706" r="6"/>
<circle fill="#EDEBFF" cx="14" cy="716" r="6"/>
<circle fill="#EDEBFF" cx="286" cy="716" r="6"/>
<line x1="14" y1="700" x2="286" y2="700" stroke="black"/>
<line x1="14" y1="722" x2="286" y2="722" stroke="black"/>
<line x1="8" y1="706" x2="8" y2="716" stroke="black"/>
<line x1="292" y1="706" x2="292" y2="716" stroke="black"/>
<path d="M 8 706 A6,6 0 0,1 14,700" stroke="black" fill="none"/><path d="M 286 700 A6,6 0 0,1 292,706" stroke="black" fill="none"/><path d="M 292 716 A6,6 0 0,1 286,722" stroke="black" fill="none"/><path d="M 14 722 A6,6 0 0,1 8,716" stroke="black" fill="none"/><polygon fill="#EDEBFF" points="59,707 240,707 240,716 59,716"/>
<text x="60" y="716" textLength="179" font-family="Helvetica" font-size="12" fill="black">
PostReleaseRequest() processed
</text>
<line x1="150" y1="728" x2="150" y2="767" stroke="black"/>
<line x1="450" y1="728" x2="450" y2="767" stroke="black"/>
<line x1="150" y1="744" x2="450" y2="744" stroke="black"/>
<polygon fill="black" points="450,744 440,750 440,738"/>
<polygon fill="#EDEBFF" points="164,729 435,729 435,738 164,738"/>
<text x="165" y="738" textLength="269" font-family="Helvetica" font-size="12" fill="blue">
AAX_IEffectParameters::UpdateParameterTouch()
</text>
<polygon fill="#EDEBFF" points="245,740 353,740 353,749 245,749"/>
<text x="246" y="749" textLength="106" font-family="Helvetica" font-size="12" fill="blue">
iParameterID: linker
</text>
<polygon fill="#EDEBFF" points="250,751 348,751 348,760 250,760"/>
<text x="251" y="760" textLength="96" font-family="Helvetica" font-size="12" fill="blue">
iTouchState: false
</text>
<line x1="150" y1="767" x2="150" y2="795" stroke="black"/>
<line x1="450" y1="767" x2="450" y2="795" stroke="black"/>
<line x1="450" y1="778" x2="150" y2="778" stroke="red"/>
<line x1="150" y1="778" x2="160" y2="784" stroke="red"/>
<polygon fill="#EAFBEF" points="163,768 435,768 435,777 163,777"/>
<text x="164" y="777" textLength="270" font-family="Helvetica" font-size="12" fill="blue">
AAX_IAutomationDelegate::PostReleaseRequest()
</text>
<polygon fill="#EAFBEF" points="255,779 343,779 343,788 255,788"/>
<text x="256" y="788" textLength="86" font-family="Helvetica" font-size="12" fill="blue">
for linked param
</text>
<line x1="150" y1="795" x2="150" y2="823" stroke="black"/>
<line x1="450" y1="795" x2="450" y2="823" stroke="black"/>
<line x1="450" y1="806" x2="150" y2="806" stroke="black" stroke-dasharray="2,2"/>
<polygon fill="black" points="150,806 160,812 160,800"/>
<line x1="150" y1="823" x2="150" y2="840" stroke="black"/>
<line x1="450" y1="823" x2="450" y2="840" stroke="black"/>
<line x1="150" y1="840" x2="150" y2="857" stroke="black"/>
<line x1="450" y1="840" x2="450" y2="857" stroke="black"/>
<line x1="150" y1="857" x2="150" y2="885" stroke="black"/>
<line x1="450" y1="857" x2="450" y2="885" stroke="black"/>
<polygon fill="#FFF0F0" points="8,857 580,857 580,879 8,879"/>
<polygon fill="#FFF0F0" points="8,869 592,869 592,879 8,879"/>
<polygon fill="#FFF0F0" points="580,857 592,869 580,869"/>
<line x1="8" y1="857" x2="580" y2="857" stroke="black"/>
<line x1="8" y1="879" x2="592" y2="879" stroke="black"/>
<line x1="8" y1="857" x2="8" y2="879" stroke="black"/>
<line x1="592" y1="869" x2="592" y2="879" stroke="black"/>
<line x1="580" y1="857" x2="592" y2="869" stroke="black"/>
<line x1="580" y1="857" x2="580" y2="869" stroke="black"/>
<line x1="592" y1="869" x2="580" y2="869" stroke="black"/>
<polygon fill="#FFF0F0" points="249,858 350,858 350,867 249,867"/>
<text x="250" y="867" textLength="99" font-family="Helvetica" font-size="12" fill="black">
Set value handling
</text>
<polygon fill="#FFF0F0" points="255,869 343,869 343,878 255,878"/>
<text x="256" y="878" textLength="86" font-family="Helvetica" font-size="12" fill="black">
for linked param
</text>
<line x1="150" y1="885" x2="150" y2="913" stroke="black"/>
<line x1="450" y1="885" x2="450" y2="913" stroke="black"/>
<polygon fill="#EDEBFF" points="14,885 286,885 286,907 14,907"/>
<polygon fill="#EDEBFF" points="8,891 292,891 292,901 8,901"/>
<circle fill="#EDEBFF" cx="14" cy="891" r="6"/>
<circle fill="#EDEBFF" cx="286" cy="891" r="6"/>
<circle fill="#EDEBFF" cx="14" cy="901" r="6"/>
<circle fill="#EDEBFF" cx="286" cy="901" r="6"/>
<line x1="14" y1="885" x2="286" y2="885" stroke="black"/>
<line x1="14" y1="907" x2="286" y2="907" stroke="black"/>
<line x1="8" y1="891" x2="8" y2="901" stroke="black"/>
<line x1="292" y1="891" x2="292" y2="901" stroke="black"/>
<path d="M 8 891 A6,6 0 0,1 14,885" stroke="black" fill="none"/><path d="M 286 885 A6,6 0 0,1 292,891" stroke="black" fill="none"/><path d="M 292 901 A6,6 0 0,1 286,907" stroke="black" fill="none"/><path d="M 14 907 A6,6 0 0,1 8,901" stroke="black" fill="none"/><polygon fill="#EDEBFF" points="64,892 235,892 235,901 64,901"/>
<text x="65" y="901" textLength="169" font-family="Helvetica" font-size="12" fill="black">
PostTouchRequest() processed
</text>
<line x1="150" y1="913" x2="150" y2="952" stroke="black"/>
<line x1="450" y1="913" x2="450" y2="952" stroke="black"/>
<line x1="150" y1="929" x2="450" y2="929" stroke="black"/>
<polygon fill="black" points="450,929 440,935 440,923"/>
<polygon fill="#EDEBFF" points="164,914 435,914 435,923 164,923"/>
<text x="165" y="923" textLength="269" font-family="Helvetica" font-size="12" fill="blue">
AAX_IEffectParameters::UpdateParameterTouch()
</text>
<polygon fill="#EDEBFF" points="244,925 355,925 355,934 244,934"/>
<text x="245" y="934" textLength="109" font-family="Helvetica" font-size="12" fill="blue">
iParameterID: linked
</text>
<polygon fill="#EDEBFF" points="253,936 346,936 346,945 253,945"/>
<text x="254" y="945" textLength="91" font-family="Helvetica" font-size="12" fill="blue">
iTouchState: true
</text>
<line x1="150" y1="952" x2="150" y2="980" stroke="black"/>
<line x1="450" y1="952" x2="450" y2="980" stroke="black"/>
<line x1="450" y1="963" x2="225" y2="963" stroke="red"/>
<line x1="221" y1="959" x2="229" y2="967" stroke="red"/>
<line x1="229" y1="959" x2="221" y2="967" stroke="red"/>
<polygon fill="#EAFBEF" points="169,953 430,953 430,962 169,962"/>
<text x="170" y="962" textLength="259" font-family="Helvetica" font-size="12" fill="blue">
AAX_IAutomationDelegate::PostTouchRequest()
</text>
<polygon fill="white" points="428,950 434,950 434,955 428,955"/>
<text x="429" y="955" textLength="4" font-family="Helvetica" font-size="8" fill="black">
1
</text>
<polygon fill="#EAFBEF" points="257,964 342,964 342,973 257,973"/>
<text x="258" y="973" textLength="83" font-family="Helvetica" font-size="12" fill="blue">
for linker param
</text>
<line x1="150" y1="980" x2="150" y2="1008" stroke="black"/>
<line x1="450" y1="980" x2="450" y2="1008" stroke="black"/>
<line x1="450" y1="991" x2="150" y2="991" stroke="black" stroke-dasharray="2,2"/>
<polygon fill="black" points="150,991 160,997 160,985"/>
<line x1="150" y1="1008" x2="150" y2="1036" stroke="black"/>
<line x1="450" y1="1008" x2="450" y2="1036" stroke="black"/>
<polygon fill="#EDEBFF" points="14,1008 286,1008 286,1030 14,1030"/>
<polygon fill="#EDEBFF" points="8,1014 292,1014 292,1024 8,1024"/>
<circle fill="#EDEBFF" cx="14" cy="1014" r="6"/>
<circle fill="#EDEBFF" cx="286" cy="1014" r="6"/>
<circle fill="#EDEBFF" cx="14" cy="1024" r="6"/>
<circle fill="#EDEBFF" cx="286" cy="1024" r="6"/>
<line x1="14" y1="1008" x2="286" y2="1008" stroke="black"/>
<line x1="14" y1="1030" x2="286" y2="1030" stroke="black"/>
<line x1="8" y1="1014" x2="8" y2="1024" stroke="black"/>
<line x1="292" y1="1014" x2="292" y2="1024" stroke="black"/>
<path d="M 8 1014 A6,6 0 0,1 14,1008" stroke="black" fill="none"/><path d="M 286 1008 A6,6 0 0,1 292,1014" stroke="black" fill="none"/><path d="M 292 1024 A6,6 0 0,1 286,1030" stroke="black" fill="none"/><path d="M 14 1030 A6,6 0 0,1 8,1024" stroke="black" fill="none"/><polygon fill="#EDEBFF" points="56,1015 242,1015 242,1024 56,1024"/>
<text x="57" y="1024" textLength="184" font-family="Helvetica" font-size="12" fill="black">
PostSetValueRequest() processed
</text>
<line x1="150" y1="1036" x2="150" y2="1075" stroke="black"/>
<line x1="450" y1="1036" x2="450" y2="1075" stroke="black"/>
<line x1="150" y1="1052" x2="450" y2="1052" stroke="black"/>
<polygon fill="black" points="450,1052 440,1058 440,1046"/>
<polygon fill="#EDEBFF" points="135,1037 464,1037 464,1046 135,1046"/>
<text x="136" y="1046" textLength="327" font-family="Helvetica" font-size="12" fill="blue">
AAX_IEffectParameters::UpdateParameterNormalizedValue()
</text>
<polygon fill="white" points="462,1034 468,1034 468,1039 462,1039"/>
<text x="463" y="1039" textLength="4" font-family="Helvetica" font-size="8" fill="black">
2
</text>
<polygon fill="#EDEBFF" points="244,1048 355,1048 355,1057 244,1057"/>
<text x="245" y="1057" textLength="109" font-family="Helvetica" font-size="12" fill="blue">
iParameterID: linked
</text>
<polygon fill="#EDEBFF" points="186,1059 412,1059 412,1068 186,1068"/>
<text x="187" y="1068" textLength="224" font-family="Helvetica" font-size="12" fill="blue">
iSource: AAX_eUpdateSource_Parameter
</text>
<line x1="150" y1="1075" x2="150" y2="1103" stroke="black"/>
<line x1="450" y1="1075" x2="450" y2="1103" stroke="black"/>
<polygon fill="#EAFBEF" points="314,1075 586,1075 586,1097 314,1097"/>
<polygon fill="#EAFBEF" points="308,1081 592,1081 592,1091 308,1091"/>
<circle fill="#EAFBEF" cx="314" cy="1081" r="6"/>
<circle fill="#EAFBEF" cx="586" cy="1081" r="6"/>
<circle fill="#EAFBEF" cx="314" cy="1091" r="6"/>
<circle fill="#EAFBEF" cx="586" cy="1091" r="6"/>
<line x1="314" y1="1075" x2="586" y2="1075" stroke="black"/>
<line x1="314" y1="1097" x2="586" y2="1097" stroke="black"/>
<line x1="308" y1="1081" x2="308" y2="1091" stroke="black"/>
<line x1="592" y1="1081" x2="592" y2="1091" stroke="black"/>
<path d="M 308 1081 A6,6 0 0,1 314,1075" stroke="black" fill="none"/><path d="M 586 1075 A6,6 0 0,1 592,1081" stroke="black" fill="none"/><path d="M 592 1091 A6,6 0 0,1 586,1097" stroke="black" fill="none"/><path d="M 314 1097 A6,6 0 0,1 308,1091" stroke="black" fill="none"/><polygon fill="#EAFBEF" points="384,1082 514,1082 514,1091 384,1091"/>
<text x="385" y="1091" textLength="128" font-family="Helvetica" font-size="12" fill="black">
No linker parameter edit
</text>
<line x1="150" y1="1103" x2="150" y2="1131" stroke="black"/>
<line x1="450" y1="1103" x2="450" y2="1131" stroke="black"/>
<polygon fill="#EAFBEF" points="314,1103 586,1103 586,1125 314,1125"/>
<polygon fill="#EAFBEF" points="308,1109 592,1109 592,1119 308,1119"/>
<circle fill="#EAFBEF" cx="314" cy="1109" r="6"/>
<circle fill="#EAFBEF" cx="586" cy="1109" r="6"/>
<circle fill="#EAFBEF" cx="314" cy="1119" r="6"/>
<circle fill="#EAFBEF" cx="586" cy="1119" r="6"/>
<line x1="314" y1="1103" x2="586" y2="1103" stroke="black"/>
<line x1="314" y1="1125" x2="586" y2="1125" stroke="black"/>
<line x1="308" y1="1109" x2="308" y2="1119" stroke="black"/>
<line x1="592" y1="1109" x2="592" y2="1119" stroke="black"/>
<path d="M 308 1109 A6,6 0 0,1 314,1103" stroke="black" fill="none"/><path d="M 586 1103 A6,6 0 0,1 592,1109" stroke="black" fill="none"/><path d="M 592 1119 A6,6 0 0,1 586,1125" stroke="black" fill="none"/><path d="M 314 1125 A6,6 0 0,1 308,1119" stroke="black" fill="none"/><polygon fill="#EAFBEF" points="334,1110 565,1110 565,1119 334,1119"/>
<text x="335" y="1119" textLength="229" font-family="Helvetica" font-size="12" fill="black">
Continue handling linked parameter update
</text>
<line x1="150" y1="1131" x2="150" y2="1159" stroke="black"/>
<line x1="450" y1="1131" x2="450" y2="1159" stroke="black"/>
<path d="M 450 1136 A150,6 0 0,1 450,1148" stroke="black" fill="none"/><polygon fill="black" points="450,1148 460,1154 460,1142"/>
<polygon fill="#EAFBEF" points="285,1132 448,1132 448,1141 285,1141"/>
<text x="286" y="1141" textLength="161" font-family="Helvetica" font-size="12" fill="black">
Update linked parameter state
</text>
<line x1="150" y1="1159" x2="150" y2="1187" stroke="black"/>
<line x1="450" y1="1159" x2="450" y2="1187" stroke="black"/>
<line x1="450" y1="1170" x2="150" y2="1170" stroke="black"/>
<line x1="150" y1="1170" x2="160" y2="1176" stroke="black"/>
<polygon fill="#EAFBEF" points="172,1160 426,1160 426,1169 172,1169"/>
<text x="173" y="1169" textLength="252" font-family="Helvetica" font-size="12" fill="blue">
AAX_IAutomationDelegate::PostCurrentValue()
</text>
<polygon fill="#EAFBEF" points="255,1171 343,1171 343,1180 255,1180"/>
<text x="256" y="1180" textLength="86" font-family="Helvetica" font-size="12" fill="blue">
for linked param
</text>
<line x1="150" y1="1187" x2="150" y2="1215" stroke="black"/>
<line x1="450" y1="1187" x2="450" y2="1215" stroke="black"/>
<path d="M 450 1192 A150,6 0 0,1 450,1204" stroke="black" fill="none"/><polygon fill="black" points="450,1204 460,1210 460,1198"/>
<polygon fill="#EAFBEF" points="287,1188 448,1188 448,1197 287,1197"/>
<text x="288" y="1197" textLength="159" font-family="Helvetica" font-size="12" fill="blue">
Increment number of changes
</text>
<line x1="150" y1="1215" x2="150" y2="1243" stroke="black"/>
<line x1="450" y1="1215" x2="450" y2="1243" stroke="black"/>
<line x1="450" y1="1226" x2="150" y2="1226" stroke="black" stroke-dasharray="2,2"/>
<polygon fill="black" points="150,1226 160,1232 160,1220"/>
<line x1="150" y1="1243" x2="150" y2="1271" stroke="black"/>
<line x1="450" y1="1243" x2="450" y2="1271" stroke="black"/>
<polygon fill="#EDEBFF" points="14,1243 286,1243 286,1265 14,1265"/>
<polygon fill="#EDEBFF" points="8,1249 292,1249 292,1259 8,1259"/>
<circle fill="#EDEBFF" cx="14" cy="1249" r="6"/>
<circle fill="#EDEBFF" cx="286" cy="1249" r="6"/>
<circle fill="#EDEBFF" cx="14" cy="1259" r="6"/>
<circle fill="#EDEBFF" cx="286" cy="1259" r="6"/>
<line x1="14" y1="1243" x2="286" y2="1243" stroke="black"/>
<line x1="14" y1="1265" x2="286" y2="1265" stroke="black"/>
<line x1="8" y1="1249" x2="8" y2="1259" stroke="black"/>
<line x1="292" y1="1249" x2="292" y2="1259" stroke="black"/>
<path d="M 8 1249 A6,6 0 0,1 14,1243" stroke="black" fill="none"/><path d="M 286 1243 A6,6 0 0,1 292,1249" stroke="black" fill="none"/><path d="M 292 1259 A6,6 0 0,1 286,1265" stroke="black" fill="none"/><path d="M 14 1265 A6,6 0 0,1 8,1259" stroke="black" fill="none"/><polygon fill="#EDEBFF" points="59,1250 240,1250 240,1259 59,1259"/>
<text x="60" y="1259" textLength="179" font-family="Helvetica" font-size="12" fill="black">
PostReleaseRequest() processed
</text>
<line x1="150" y1="1271" x2="150" y2="1310" stroke="black"/>
<line x1="450" y1="1271" x2="450" y2="1310" stroke="black"/>
<line x1="150" y1="1287" x2="450" y2="1287" stroke="black"/>
<polygon fill="black" points="450,1287 440,1293 440,1281"/>
<polygon fill="#EDEBFF" points="164,1272 435,1272 435,1281 164,1281"/>
<text x="165" y="1281" textLength="269" font-family="Helvetica" font-size="12" fill="blue">
AAX_IEffectParameters::UpdateParameterTouch()
</text>
<polygon fill="#EDEBFF" points="244,1283 355,1283 355,1292 244,1292"/>
<text x="245" y="1292" textLength="109" font-family="Helvetica" font-size="12" fill="blue">
iParameterID: linked
</text>
<polygon fill="#EDEBFF" points="250,1294 348,1294 348,1303 250,1303"/>
<text x="251" y="1303" textLength="96" font-family="Helvetica" font-size="12" fill="blue">
iTouchState: false
</text>
<line x1="150" y1="1310" x2="150" y2="1338" stroke="black"/>
<line x1="450" y1="1310" x2="450" y2="1338" stroke="black"/>
<line x1="450" y1="1321" x2="225" y2="1321" stroke="red"/>
<line x1="221" y1="1317" x2="229" y2="1325" stroke="red"/>
<line x1="229" y1="1317" x2="221" y2="1325" stroke="red"/>
<polygon fill="#EAFBEF" points="163,1311 435,1311 435,1320 163,1320"/>
<text x="164" y="1320" textLength="270" font-family="Helvetica" font-size="12" fill="blue">
AAX_IAutomationDelegate::PostReleaseRequest()
</text>
<polygon fill="white" points="433,1308 439,1308 439,1313 433,1313"/>
<text x="434" y="1313" textLength="4" font-family="Helvetica" font-size="8" fill="black">
1
</text>
<polygon fill="#EAFBEF" points="257,1322 342,1322 342,1331 257,1331"/>
<text x="258" y="1331" textLength="83" font-family="Helvetica" font-size="12" fill="blue">
for linker param
</text>
<line x1="150" y1="1338" x2="150" y2="1366" stroke="black"/>
<line x1="450" y1="1338" x2="450" y2="1366" stroke="black"/>
<line x1="450" y1="1349" x2="150" y2="1349" stroke="black" stroke-dasharray="2,2"/>
<polygon fill="black" points="150,1349 160,1355 160,1343"/>
<line x1="150" y1="1366" x2="150" y2="1383" stroke="black"/>
<line x1="450" y1="1366" x2="450" y2="1383" stroke="black"/>
<line x1="150" y1="1383" x2="150" y2="1400" stroke="black"/>
<line x1="450" y1="1383" x2="450" y2="1400" stroke="black"/>
<line x1="150" y1="1400" x2="150" y2="1428" stroke="black"/>
<line x1="450" y1="1400" x2="450" y2="1428" stroke="black"/>
<polygon fill="#F0F0F0" points="8,1400 580,1400 580,1422 8,1422"/>
<polygon fill="#F0F0F0" points="8,1412 592,1412 592,1422 8,1422"/>
<polygon fill="#F0F0F0" points="580,1400 592,1412 580,1412"/>
<line x1="8" y1="1400" x2="580" y2="1400" stroke="black"/>
<line x1="8" y1="1422" x2="592" y2="1422" stroke="black"/>
<line x1="8" y1="1400" x2="8" y2="1422" stroke="black"/>
<line x1="592" y1="1412" x2="592" y2="1422" stroke="black"/>
<line x1="580" y1="1400" x2="592" y2="1412" stroke="black"/>
<line x1="580" y1="1400" x2="580" y2="1412" stroke="black"/>
<line x1="592" y1="1412" x2="580" y2="1412" stroke="black"/>
<polygon fill="#F0F0F0" points="238,1407 361,1407 361,1416 238,1416"/>
<text x="239" y="1416" textLength="121" font-family="Helvetica" font-size="12" fill="black">
Current value handling
</text>
<line x1="150" y1="1428" x2="150" y2="1445" stroke="black"/>
<line x1="450" y1="1428" x2="450" y2="1445" stroke="black"/>
<line x1="150" y1="1445" x2="150" y2="1462" stroke="black" stroke-dasharray="2,2"/>
<line x1="450" y1="1445" x2="450" y2="1462" stroke="black" stroke-dasharray="2,2"/>
<polygon fill="white" points="189,1446 410,1446 410,1455 189,1455"/>
<text x="190" y="1455" textLength="219" font-family="Helvetica" font-size="12" fill="black">
Identical to standard (unlinked) sequence
</text>
<line x1="150" y1="1462" x2="150" y2="1479" stroke="black"/>
<line x1="450" y1="1462" x2="450" y2="1479" stroke="black"/>
<line x1="150" y1="1473" x2="150" y2="1479" stroke="black"/>
<line x1="450" y1="1473" x2="450" y2="1479" stroke="black"/>
</svg>
